<?xml version="1.0" encoding="utf-8"?>
<!-- Generator: Adobe Illustrator 23.0.0, SVG Export Plug-In . SVG Version: 6.00 Build 0)  -->
<svg version="1.1" id="레이어_1" xmlns="http://www.w3.org/2000/svg" xmlns:xlink="http://www.w3.org/1999/xlink" x="0px"
	 y="0px" viewBox="0 0 318.22 374.46" style="enable-background:new 0 0 318.22 374.46;" xml:space="preserve">
<style type="text/css">
	.st0{fill:#FFFFFF;}
	.st1{opacity:0.3;}
	.st2{fill:#282828;}
</style>
<g>
	<path class="st0" d="M88.13,348.19h161.82c0.09,0,0.19-0.01,0.28-0.01c3.2,15.24,16.39,26.28,31.47,26.28
		c17.76,0,32.21-14.99,32.21-33.42c0-12.17-6.28-23.11-16.13-28.97c2.12,0.95,3.93,1.94,5.1,2.61c0.63,0.36,1.17,0.86,1.61,1.29
		c1.76,1.74,4.97,2.5,5.1,2.52l0.06,0.01h8.57v-1.29l-2.09-1.62h-1.33c-3.98-4.86-15.89-11.13-19.47-12.95
		c-0.48-0.25-0.96-0.45-1.44-0.6c-7.43-2.46-15.22-3.66-16.84-3.89c0.03-0.46-0.21-0.89-0.42-1.1l-0.06-0.05l-2.28-1.42
		c-0.42-0.26-0.9-0.38-1.4-0.35l-6.22,0.38c-0.59,0.04-1.15,0.22-1.62,0.53c-1.23,0.8-2.52,1.74-3.82,2.75
		c-0.02,0.01-0.03,0.02-0.05,0.03v0.01c-7.35,5.71-15.14,13.8-15.23,13.9l-0.06,0.09c-0.02,0.08-2.91,7.25-5.46,8.68l-1.21-0.46
		c-0.2-0.08-0.41-0.12-0.62-0.12h-2.32c-0.38,0-0.75,0.13-1.05,0.35l-3.65,2.73c-0.12,0.09-0.22,0.19-0.31,0.3l-2.69,3.34h-0.33
		l-129.6-0.96c-5.67-12.65-22.38-35.64-24.32-38.28c0.11-0.08,0.22-0.16,0.31-0.26l1.04-1.11c0.42-0.45,0.65-1.03,0.65-1.65
		c0-0.75-0.36-1.47-0.96-1.93l-6.27-4.7c-0.79-0.59-1.29-1.45-1.42-2.41c-0.41-3.14-0.42-8.98-0.41-10.7c0-0.33-0.12-0.65-0.33-0.91
		l-0.49-0.59c-0.43-0.52-1.07-0.81-1.74-0.81h-0.1c0.1-0.59,0.34-0.95,0.55-1.14c0.25-0.23,0.4-0.58,0.4-0.93v-2.6l-4.36-1
		c0.47-0.33,0.82-0.82,0.94-1.39c0.23-1.12-0.18-2.08-0.52-2.63h0.06c0.02,0,0.04,0,0.05,0c0.52,0,1.02-0.15,1.46-0.42
		c0.41-0.25,0.73-0.59,0.96-1c0.86-1.54,3.99-6.77,8.58-9.31c0.73-0.41,1.26-1.1,1.47-1.93l3.98-16.08
		c0.33-1.37,0.06-2.81-0.75-3.95l-0.87-1.23l0.14-1.07l3.76,0.98c0.12,0.03,0.23,0.05,0.35,0.05c0.6,0,1.15-0.38,1.34-0.97
		l1.52-4.63c0.05-0.15,0.05-0.31,0.02-0.45l-0.19-0.8c-0.09-0.39-0.45-0.67-0.85-0.63l-1.69,0.09c-0.03,0-0.06,0-0.08-0.01
		l-2.41-0.73l24.98-101.58l1.48,0.19c0.01,0,0.01,0,0.01,0.01l0.12,0.01c0.01,0,0.02,0.01,0.04,0.01c0.92,0,1.4-1.72,1.4-3.42
		c0-1.3-0.28-2.6-0.82-3.15v-0.01l-0.53-0.54l0.41-1.66c0.16-0.64,0.02-1.31-0.38-1.8c-0.76-0.96-1.6-1.81-2.43-2.57l0.01-0.7
		c0.01-0.31-0.1-0.62-0.3-0.86l-0.22-0.26l3.61-16.38l0.14-0.13l0.16,0.14l0.8-3.36c0.29-0.16,0.86-0.58,2.15-1.56
		c0.43-0.33,0.73-0.8,0.85-1.32l1.15-4.92l-0.09-0.11c-0.43-0.53-0.88-0.78-1.34-0.74c-0.65,0.06-1.01,0.69-1.03,0.72l-0.04,0.11
		c-0.04,0.38-0.15,1.02-0.32,1.69l-0.17-0.13c1.12-4.53,0.02-7.35-0.76-8.63c-0.19-0.31-0.29-0.68-0.29-1.08
		c-0.05-2.18-2.1-4.5-2.42-4.86c-0.77-4.37-3.48-6.42-3.52-6.45L79.25,32.64c0.43-1.58,0.31-3.17,0.14-4.16
		c-0.12-0.73-0.46-1.42-0.98-1.98l-0.68-0.73c0.36-0.04,0.7-0.18,0.97-0.43c1.3-1.17,1.6-2.77,1.67-3.62
		c0.02-0.32-0.06-0.63-0.23-0.89l-2.67-3.98c-0.1-0.15-0.28-0.23-0.46-0.22c-0.19,0.02-0.34,0.15-0.41,0.32
		c-0.27,0.74-1.25,3.19-2.55,3.62l-0.17,0.05l-0.14,0.91v0.04L67.08,7.25c-0.06-0.73-0.23-1.44-0.53-2.13l-0.57-1.29
		c-0.7-1.57-1.97-2.78-3.57-3.4c-1.6-0.62-3.35-0.58-4.93,0.12c-3.25,1.44-4.72,5.25-3.28,8.5l0.57,1.29
		c0.49,1.11,1.27,2.03,2.24,2.7l7.26,13.14c-0.14,0.52-0.21,1.07-0.21,1.61c0,0.72,0.12,1.42,0.33,2.06
		c0.38,3.2,3.49,5.67,5.31,6.86c0.78,0.5,1.68,0.78,2.59,0.78c0.18,0,0.36-0.01,0.55-0.04c0.08-0.01,0.16-0.02,0.25-0.04l9.04,6.68
		c0.14,0.15,1.34,1.47,2.74,3.45L83,50.17c-0.15,0.22-0.23,0.47-0.23,0.74v3.5c0,0.36,0.15,0.7,0.41,0.94l6.79,6.29
		c0.77,2.54,2.31,7.08,3.82,8.26L89.5,88.05l-2.09-1.25l-0.23-1.65l-1.62-3.09c-0.21-0.39-0.61-0.65-1.05-0.68
		c-0.69-0.04-1.25,0.46-1.32,1.13l-0.08,0.85c-0.02,0.21-0.13,0.39-0.31,0.5l-0.31,0.19c-0.25,0.16-0.43,0.41-0.52,0.69
		c-0.73,2.41-8.98,29.78-17.77,61.01l-0.08,0.02c-0.72,0.15-1.3,0.67-1.51,1.37c-2.52,8.03-15.16,48.69-15.79,60.19
		c-0.02,0.29,0.01,0.57,0.08,0.87l0.4,1.71c-2.92,12.54-4.84,22.58-5.01,27.82c-0.01,0.28,0.02,0.56,0.08,0.86l0.75,3.55
		c0.21,0.99,0.79,1.83,1.66,2.37c1.26,0.79,2.82,2.27,3.09,4.78c0.09,0.86,0.69,1.62,1.52,1.92l0.02,0.01
		c-0.81,0.35-2.03,1-2.38,2.15c-0.18,0.58-0.11,1.2,0.2,1.85l-1.3,0.26c-0.42,0.09-0.82,0.29-1.13,0.59l-1.07,1
		c-0.19,0.18-0.34,0.38-0.46,0.6l-9.74,18.11c-0.16,0.29-0.25,0.62-0.26,0.95l-0.08,1.6l-0.54,0.96c-0.18,0.31-0.28,0.66-0.31,1.02
		l-0.09,1.76c-0.66,0.31-3.01,1.54-4.42,3.86c-0.21,0.34-0.32,0.76-0.32,1.22v2.87c0,0.56,0.19,1.1,0.54,1.54l1.33,1.68
		c0.41,0.51,0.98,0.83,1.63,0.92l6.39,0.83v0.55l-4.36,2.15c-0.82,0.41-1.55,1-2.1,1.73l-1.16,1.5c-0.15,0.21-0.29,0.42-0.42,0.63
		l-5,1.09c-0.16,0.03-0.31,0.08-0.45,0.15l-3.77,1.86c-0.39,0.19-0.63,0.59-0.63,1.02v0.6c0,0.25,0.08,0.48,0.22,0.67l1.49,2.04
		c-2.5,1-17.26,7.65-20.68,25.74c-0.04,0.18-4,18.59,10.52,31.84c0.05,0.06,6.78,7.13,19.12,7.13c0.52,0,1.04-0.01,1.57-0.04
		c8.65-0.42,17.06-4.44,23.07-11.04c5.09-5.59,10.86-14.9,9.58-27.57c2.47-0.25,4.63-2.29,4.73-2.38l0.09-0.09l-0.01-0.14
		c-0.8-13.66-12.91-23.3-14.63-24.6l0.36-0.7c0.19-0.37,0.29-0.78,0.29-1.2v-2.1c0-0.53-0.16-1.05-0.46-1.49l-0.06-0.09
		c6.09,5.34,14.42,14.56,20.26,28.65l-2.13,1.4c-0.41,0.26-0.7,0.66-0.85,1.11l-0.11,0.02l0.04,0.25c-0.02,0.13-0.04,0.26-0.04,0.39
		v4.8c0,0.73,0.37,1.4,0.99,1.8l9.27,5.85c0.32,0.2,0.67,0.35,1.04,0.45l4.03,1.05C87.5,348.15,87.81,348.19,88.13,348.19z
		 M275.55,325.47c1.96-0.76,4.06-1.17,6.21-1.17c3.11,0,6.03,0.83,8.56,2.27l-5.03,6.73c-0.12,0.17-0.33,0.25-0.53,0.21
		c-1.14-0.19-3.21-0.52-4.28-0.46c-0.22,0.01-0.42-0.09-0.53-0.28L275.55,325.47z M294.4,329.78c2.92,3.11,4.72,7.29,4.72,11.87
		c0,0.7-0.05,1.4-0.12,2.08l-0.68,0.76c-0.31,0.35-0.78,0.52-1.24,0.44c-0.13-0.02-0.25-0.06-0.37-0.12
		c-1.79-0.88-3.09-1.54-3.48-1.75v-1.27l0.23-0.2l-3.64-1.81l-0.76-1.62c-0.08-0.18-0.12-0.37-0.11-0.56l0.07-0.97
		c0.02-0.23,0.11-0.46,0.26-0.65L294.4,329.78z M295.69,351.13l-0.29,1.23c-2.57,3.28-6.3,5.6-10.56,6.37l-0.94-0.7
		c-0.33-0.25-0.52-0.65-0.49-1.07l0.47-7.1c0.16,0.01,0.33,0.03,0.49,0.03c0.53,0,1.06-0.05,1.58-0.14c1.94-0.36,3.5-1.32,4.67-2.34
		c0.33,0.15,1.29,0.57,4.1,1.79c0.45,0.2,0.8,0.59,0.94,1.06C295.75,350.54,295.76,350.85,295.69,351.13z M277.4,357.82l-0.78,0.4
		c-4.39-1.38-8.08-4.47-10.22-8.51l0.13-1.03c0.05-0.42,0.22-0.82,0.49-1.15c0.31-0.38,0.74-0.65,1.22-0.76l6.07-1.43
		c0.67,0.23,1.3,0.59,1.86,1.05c0.9,0.75,1.79,1.36,2.68,1.87c-0.05,0.84-0.29,4.76-0.49,8.1c-0.01,0.17-0.05,0.33-0.11,0.49
		C278.1,357.26,277.79,357.61,277.4,357.82z"/>
	<g class="st1">
		<path class="st2" d="M63.74,245.5c0.4-0.11,0.81-0.13,1.21-0.06l0.5,0.08l0.23,0.63l-0.85,0.6l-0.34-0.48l0.36-0.26
			c-0.32-0.05-0.65-0.04-0.97,0.05l-3.29,0.87l-0.02,0.38l0.24,0.09l1.48-0.34l0.13,0.57l-1.65,0.38l-0.81-0.29l0.07-1.24
			L63.74,245.5z"/>
		<path class="st2" d="M61.16,269.75c1.31,0,2.37-1.06,2.37-2.37c0-1.31-1.06-2.37-2.37-2.37s-2.37,1.06-2.37,2.37
			C58.79,268.69,59.85,269.75,61.16,269.75z M61.16,269.16c-0.98,0-1.78-0.8-1.78-1.78c0-0.98,0.8-1.78,1.78-1.78
			s1.78,0.8,1.78,1.78C62.94,268.36,62.14,269.16,61.16,269.16z"/>
		<path class="st2" d="M60.84,268.91c0.74,0,1.34-0.6,1.34-1.34s-0.6-1.34-1.34-1.34s-1.34,0.6-1.34,1.34S60.1,268.91,60.84,268.91z
			 M60.84,268.32c-0.41,0-0.75-0.34-0.75-0.75s0.34-0.75,0.75-0.75s0.75,0.34,0.75,0.75S61.25,268.32,60.84,268.32z"/>
		<path class="st2" d="M37.54,288.92c2.98,0.3,12.92,1.34,15.86,2.17c0.14,0.04,0.27,0.06,0.39,0.06c0.29,0,0.49-0.11,0.62-0.21
			c0.52-0.42,0.58-1.36,0.54-2.07c-0.02-0.31-0.1-0.61-0.25-0.9l-2.43-4.68c-0.25-0.48-0.66-0.85-1.16-1.05l-1.09-0.43
			c-0.41-0.16-0.86-0.2-1.29-0.11l-11.48,2.43c-0.47,0.1-0.89,0.34-1.23,0.68c-0.63,0.66-0.83,1.65-0.5,2.5l0.04,0.1
			C35.89,288.25,36.64,288.83,37.54,288.92z M54.36,288.9c0.01,0.09,0.01,0.18,0.01,0.26c-3.27-0.69-11.24-1.47-14.61-1.79
			c-0.64-0.06-1.18-0.43-1.41-0.98l-0.04-0.09c-0.23-0.55-0.09-1.18,0.35-1.6c0.24-0.23,0.54-0.38,0.88-0.45l0-0.01l9.3-1.97
			c0.11-0.02,0.23-0.04,0.34-0.04c0.21,0,0.41,0.04,0.61,0.12l1.09,0.43c0.37,0.15,0.67,0.42,0.86,0.77l2.43,4.68
			C54.29,288.45,54.35,288.67,54.36,288.9z M37.59,288.34c-0.67-0.07-1.24-0.5-1.49-1.13l-0.04-0.1c-0.25-0.64-0.1-1.38,0.38-1.88
			c0.25-0.26,0.57-0.44,0.92-0.51l0.65-0.14c-0.42,0.57-0.52,1.31-0.24,1.97l0.04,0.09c0.31,0.75,1.04,1.26,1.89,1.34
			c3.38,0.31,11.45,1.11,14.63,1.8c-0.05,0.35-0.15,0.61-0.3,0.73c-0.04,0.03-0.17,0.14-0.49,0.05
			C50.65,289.71,41.43,288.72,37.59,288.34z"/>
		<path class="st2" d="M35.72,288.57c0-1.62-1.32-2.94-2.94-2.94c-1.62,0-2.94,1.32-2.94,2.94s1.32,2.94,2.94,2.94
			C34.4,291.52,35.72,290.2,35.72,288.57z M35.13,288.57c0,1.3-1.06,2.36-2.36,2.36c-1.3,0-2.36-1.06-2.36-2.36s1.06-2.36,2.36-2.36
			C34.08,286.22,35.13,287.28,35.13,288.57z"/>
		<path class="st2" d="M243.52,332.53c0-1.25-1.02-2.27-2.27-2.27c-1.25,0-2.27,1.02-2.27,2.27s1.02,2.27,2.27,2.27
			C242.5,334.81,243.52,333.79,243.52,332.53z M242.93,332.53c0,0.93-0.76,1.69-1.69,1.69c-0.93,0-1.69-0.76-1.69-1.69
			s0.76-1.69,1.69-1.69C242.18,330.85,242.93,331.6,242.93,332.53z"/>
		<path class="st2" d="M281.47,344.28c0,1.95,1.59,3.54,3.54,3.54s3.54-1.59,3.54-3.54c0-1.95-1.59-3.54-3.54-3.54
			S281.47,342.33,281.47,344.28z M282.05,344.28c0-1.63,1.32-2.95,2.95-2.95s2.95,1.32,2.95,2.95c0,1.63-1.32,2.95-2.95,2.95
			S282.05,345.9,282.05,344.28z"/>
		<path class="st2" d="M11.04,366.59c0.05,0.06,6.78,7.13,19.13,7.13c0.52,0,1.04-0.01,1.57-0.04c8.65-0.41,17.05-4.44,23.07-11.04
			c5.09-5.59,10.87-14.9,9.58-27.57c2.47-0.24,4.63-2.29,4.72-2.38l0.1-0.09l-0.01-0.14c-0.8-13.66-12.91-23.3-14.63-24.6l0.36-0.7
			c0.19-0.37,0.29-0.78,0.29-1.2v-2.1c0-0.54-0.16-1.05-0.47-1.49l-0.06-0.09c6.09,5.33,14.41,14.56,20.26,28.65l-2.13,1.4
			c-0.41,0.27-0.7,0.66-0.85,1.11l-0.11,0.02l0.04,0.25c-0.02,0.13-0.04,0.26-0.04,0.39v4.81c0,0.73,0.37,1.4,0.99,1.79l9.26,5.85
			c0.32,0.2,0.67,0.35,1.04,0.45l4.03,1.05c0.31,0.08,0.62,0.12,0.93,0.12h161.82c0.09,0,0.18-0.01,0.28-0.01
			c3.2,15.24,16.4,26.28,31.47,26.28c17.76,0,32.21-14.99,32.21-33.42c0-12.17-6.27-23.11-16.13-28.98c2.12,0.95,3.94,1.94,5.1,2.61
			c0.63,0.36,1.17,0.86,1.61,1.29c1.76,1.74,4.97,2.49,5.1,2.53l0.07,0.01h8.57v-1.29l-2.09-1.62h-1.34
			c-3.97-4.85-15.89-11.13-19.47-12.95c-0.48-0.24-0.97-0.45-1.44-0.6c-7.44-2.46-15.22-3.66-16.84-3.89
			c0.03-0.47-0.21-0.89-0.41-1.11l-0.06-0.05l-2.28-1.42c-0.42-0.26-0.9-0.38-1.4-0.35l-6.22,0.38c-0.59,0.04-1.15,0.22-1.62,0.53
			c-1.23,0.8-2.52,1.74-3.82,2.75c-0.01,0.01-0.03,0.02-0.04,0.03l0,0c-7.35,5.71-15.14,13.81-15.23,13.9l-0.06,0.09
			c-0.03,0.07-2.92,7.24-5.46,8.68l-1.21-0.46c-0.2-0.08-0.41-0.11-0.62-0.11h-2.32c-0.38,0-0.75,0.12-1.05,0.35l-3.64,2.73
			c-0.12,0.09-0.22,0.19-0.31,0.3l-2.69,3.34h-0.33l-129.6-0.96c-5.67-12.66-22.38-35.64-24.32-38.28c0.11-0.08,0.21-0.17,0.31-0.27
			l1.04-1.1c0.42-0.45,0.65-1.04,0.65-1.65c0-0.76-0.36-1.48-0.96-1.93l-6.27-4.71c-0.79-0.59-1.29-1.45-1.41-2.41
			c-0.41-3.13-0.42-8.99-0.41-10.71c0-0.33-0.12-0.65-0.33-0.91l-0.5-0.6c-0.43-0.52-1.07-0.81-1.74-0.81h-0.1
			c0.1-0.59,0.34-0.94,0.55-1.14c0.25-0.24,0.4-0.58,0.4-0.93v-2.6l-4.36-1.01c0.47-0.33,0.82-0.81,0.94-1.39
			c0.24-1.12-0.18-2.08-0.52-2.63l0.07,0c0.02,0,0.03,0,0.05,0c0.52,0,1.02-0.14,1.46-0.42c0.4-0.25,0.73-0.6,0.96-1
			c0.85-1.54,3.99-6.77,8.58-9.32c0.73-0.41,1.26-1.11,1.47-1.92l3.97-16.08c0.34-1.36,0.06-2.8-0.75-3.95l-0.87-1.23l0.14-1.07
			l3.76,0.98c0.12,0.03,0.24,0.05,0.35,0.05c0.59,0,1.15-0.38,1.34-0.97l1.52-4.63c0.05-0.15,0.05-0.3,0.02-0.45l-0.19-0.8
			c-0.09-0.39-0.45-0.67-0.85-0.63l-1.69,0.09c-0.03,0-0.06,0-0.08-0.01l-2.41-0.73l24.98-101.59l1.48,0.2c0,0,0.01,0,0.01,0
			l0.12,0.02l0,0c0.01,0,0.03,0,0.04,0c0.92,0,1.4-1.72,1.4-3.42c0-1.3-0.28-2.6-0.82-3.15l0,0l-0.53-0.54l0.41-1.66
			c0.16-0.64,0.02-1.31-0.38-1.8c-0.76-0.96-1.6-1.81-2.43-2.57l0.01-0.7c0-0.31-0.1-0.62-0.3-0.86l-0.22-0.26l3.6-16.37l0.14-0.13
			l0.17,0.14l0.8-3.36c0.29-0.16,0.86-0.58,2.14-1.56c0.43-0.33,0.73-0.8,0.86-1.32l1.15-4.92l-0.09-0.11
			c-0.43-0.53-0.88-0.78-1.34-0.74c-0.65,0.06-1.01,0.69-1.03,0.72l-0.04,0.11c-0.04,0.39-0.15,1.01-0.32,1.69l-0.17-0.13
			c1.12-4.53,0.01-7.34-0.76-8.63c-0.19-0.31-0.29-0.68-0.3-1.08c-0.04-2.18-2.09-4.5-2.42-4.86c-0.76-4.37-3.48-6.42-3.52-6.44
			L79.25,32.64c0.44-1.58,0.31-3.17,0.14-4.16c-0.12-0.74-0.46-1.42-0.98-1.98l-0.68-0.73c0.36-0.04,0.7-0.18,0.97-0.43
			c1.31-1.18,1.61-2.77,1.67-3.62c0.02-0.32-0.06-0.63-0.24-0.9l-2.66-3.97c-0.1-0.15-0.28-0.23-0.47-0.21
			c-0.18,0.02-0.34,0.15-0.4,0.32c-0.27,0.74-1.25,3.2-2.55,3.62l-0.17,0.06l-0.14,0.91l0,0.03L67.08,7.25
			c-0.06-0.72-0.23-1.44-0.53-2.12l-0.57-1.29c-0.7-1.57-1.96-2.78-3.57-3.4c-1.6-0.62-3.35-0.58-4.93,0.12
			c-3.25,1.44-4.72,5.25-3.28,8.5l0.57,1.29c0.49,1.11,1.27,2.03,2.24,2.7l7.26,13.13c-0.13,0.53-0.21,1.07-0.21,1.61
			c0,0.72,0.12,1.42,0.34,2.07c0.38,3.19,3.49,5.67,5.31,6.86c0.78,0.51,1.68,0.77,2.59,0.77c0.18,0,0.36-0.01,0.55-0.03
			c0.09-0.01,0.17-0.03,0.25-0.04l9.03,6.68c0.14,0.15,1.34,1.47,2.74,3.45L83,50.17c-0.16,0.22-0.24,0.48-0.24,0.74v3.5
			c0,0.35,0.15,0.7,0.41,0.94l6.8,6.29c0.77,2.54,2.31,7.08,3.82,8.26L89.5,88.05l-2.09-1.25l-0.24-1.65l-1.62-3.09
			c-0.21-0.39-0.61-0.65-1.05-0.67c-0.68-0.03-1.25,0.47-1.31,1.14l-0.08,0.85c-0.02,0.21-0.13,0.39-0.31,0.5l-0.3,0.2
			c-0.25,0.16-0.44,0.41-0.52,0.69c-0.73,2.41-8.98,29.78-17.78,61.01l-0.09,0.02c-0.72,0.15-1.3,0.67-1.51,1.37
			c-2.53,8.03-15.15,48.69-15.79,60.2c-0.02,0.28,0.01,0.57,0.08,0.88l0.4,1.71c-2.92,12.54-4.85,22.57-5.02,27.82
			c-0.01,0.28,0.02,0.56,0.08,0.86l0.74,3.55c0.21,0.99,0.8,1.83,1.66,2.37c1.26,0.79,2.82,2.26,3.09,4.78
			c0.09,0.87,0.69,1.62,1.52,1.92l0.02,0.01c-0.81,0.35-2.03,1-2.38,2.15c-0.18,0.58-0.11,1.2,0.2,1.85l-1.3,0.27
			c-0.42,0.09-0.82,0.29-1.13,0.59l-1.07,1.01c-0.18,0.17-0.34,0.37-0.46,0.59l-9.74,18.11c-0.16,0.29-0.25,0.62-0.26,0.94
			l-0.08,1.61l-0.54,0.95c-0.18,0.31-0.28,0.67-0.3,1.03l-0.09,1.76c-0.65,0.31-3.01,1.54-4.42,3.86c-0.21,0.35-0.32,0.77-0.32,1.22
			v2.87c0,0.56,0.19,1.11,0.54,1.55l1.34,1.68c0.4,0.51,0.98,0.83,1.63,0.92l6.4,0.82v0.55l-4.37,2.15c-0.82,0.4-1.55,1-2.1,1.73
			l-1.15,1.5c-0.16,0.2-0.29,0.42-0.42,0.64l-5,1.09c-0.15,0.03-0.3,0.09-0.45,0.16l-3.77,1.86c-0.39,0.19-0.63,0.58-0.63,1.02v0.6
			c0,0.24,0.08,0.47,0.22,0.67l1.48,2.03c-2.49,1-17.26,7.65-20.68,25.74C0.48,334.93-3.48,353.34,11.04,366.59z M26.76,309.9
			l-4.5-0.71c-0.14-0.02-0.27-0.1-0.36-0.22l-1.11-1.53l3.99-1.52c0.1-0.04,0.2-0.06,0.31-0.08l2.94-0.39
			C27.67,306.7,27.24,308.2,26.76,309.9z M29.01,302.25c-0.08,0.2-0.16,0.4-0.22,0.61c-0.15,0.5-0.35,1.17-0.58,1.98l-3.2,0.42
			c-0.15,0.02-0.3,0.06-0.44,0.11l-4.14,1.58l-0.24-0.33c-0.07-0.09-0.11-0.21-0.11-0.32v-0.6c0-0.21,0.12-0.4,0.31-0.49l3.77-1.86
			c0.1-0.05,0.21-0.09,0.31-0.11L29.01,302.25z M46.02,256.08l1.42-0.29l-2.31,1.88c-0.22,0.18-0.41,0.4-0.55,0.65l-10.77,18.9
			l0.02-0.45c0.01-0.24,0.08-0.48,0.19-0.69l9.74-18.11c0.09-0.17,0.2-0.31,0.34-0.44l1.07-1C45.41,256.3,45.71,256.15,46.02,256.08
			z M44.31,243.34c-0.21-1.08,2.48-3.54,7.09-6.45c1.02-0.65,2.24-0.89,3.44-0.68l1.58,0.27c-0.04,0.2-0.06,0.4-0.05,0.6
			c0.11,1.96,0.58,11.75-1.17,15.64l-5.62-2.05c-0.62-0.23-1.06-0.79-1.13-1.43c-0.29-2.75-1.99-4.35-3.36-5.21
			C44.77,243.84,44.53,243.61,44.31,243.34z M64.01,146.43c-5.97,21.23-12.17,44.16-16.41,62.21l-0.13-0.56
			c-0.06-0.25-0.08-0.48-0.07-0.71c0.63-11.43,13.24-52.03,15.76-60.05C63.29,146.91,63.61,146.59,64.01,146.43z M89.36,88.65
			l-0.55,2.33l-4.79-3.7l0.02-0.13c0.03-0.36,0.13-0.81,0.42-0.99c0.3-0.19,0.69-0.03,0.7-0.03L89.36,88.65z M80.22,129.85
			L94.5,69.44c3.5-1,6.27,1.23,6.8,1.71L65.46,218.16c-0.01,0.03-0.03,0.05-0.06,0.06c-1.79,0.56-3.19,0.54-4.15-0.07
			c-1.01-0.64-1.27-1.75-1.33-2.2c-0.01-0.08-0.01-0.17,0.01-0.26l14.62-61.84c0.57-0.16,1.08-0.23,1.49-0.26
			c-0.9,0.53-1.95,1.56-1.99,3.49l0.59,0.01c0.06-2.74,2.37-3.35,2.77-3.44l0.23,0.06l0.07-0.29l4.95-21.97l-0.19-0.11
			C81.52,130.81,80.79,130.31,80.22,129.85z M100.61,76.45l0.79-3.22c4.02,0.59,4.87,1.88,5,2.12l-0.6,2.51
			C104.97,77.27,102.88,76.01,100.61,76.45z M104.27,61.29c0.13,0.17,0.28,0.39,0.44,0.65l-0.47-0.54
			C104.25,61.36,104.26,61.32,104.27,61.29z M104.11,62.14l-1.78,7.51c-0.95-0.83-3.62-2.71-7.8-2.06l2.03-7.3l0.37-0.28
			c3.52-0.02,6.42,1.49,6.8,1.69L104.11,62.14z M102.07,70.22l-0.45,0.43c-0.82-0.69-3.61-2.74-7.11-1.83l-0.07-0.6
			C98.68,67.49,101.35,69.56,102.07,70.22z M101.77,71.69c1.49-0.42,3.93,0.74,4.64,1.1l-0.25,0.81c-0.67-0.38-2.31-1.17-4.53-1.35
			L101.77,71.69z M85.59,104.57c-2.08-0.35-2.97-1.03-3.33-1.55c-0.37-0.53-0.28-0.99-0.28-0.99l1.95-14.07l4.73,3.65L85.59,104.57z
			 M83.35,54.41v-2.76c0.43,0.6,0.98,1.09,1.63,1.44l3.91,2.1c0.5,1.56,0.77,3.16,0.68,4.71c-0.01,0.2,0.01,0.39,0.06,0.57
			c0.01,0.02,0.02,0.05,0.02,0.08l-6.08-5.62C83.43,54.79,83.35,54.6,83.35,54.41z M85.24,48.05c1.21,1.77,2.52,3.98,3.38,6.32
			l-3.36-1.8c-0.75-0.4-1.35-1.01-1.74-1.77c-0.04-0.08-0.07-0.13-0.09-0.18c0.02-0.04,0.03-0.08,0.06-0.11L85.24,48.05z
			 M84.19,45.6l10.18,7.53c2.02,1.5,2.9,4.06,2.21,6.41l-0.53,0.39l-2.34,8.41l0.15-0.03l0.09,0.86l-0.02,0.08
			c-1.26-1.29-2.78-5.5-3.75-8.96c-0.03-0.12-0.04-0.24-0.04-0.37C90.5,54.47,86.53,48.57,84.19,45.6z M64.72,26.96l1.69,3.06
			c0.12,0.22,0.26,0.4,0.43,0.55c1.3,1.18,2.75,1.48,3.89,1.48c0.21,0,0.41-0.01,0.6-0.03c1.38-0.13,2.59-0.8,3.33-1.83
			c1.17-1.65,1.08-3.58,0.98-4.34c-0.02-0.2-0.08-0.39-0.16-0.56l-0.96-2.06c1.32,1.13,2.11,2.78,2.11,4.54
			c0,3.3-2.68,5.98-5.98,5.98c-3.3,0-5.98-2.68-5.98-5.98C64.66,27.5,64.68,27.23,64.72,26.96z M57.99,13.58
			c0.12,0.05,0.23,0.11,0.35,0.16c0.75,0.29,1.54,0.44,2.32,0.44c0.89,0,1.77-0.19,2.61-0.56c1.57-0.7,2.78-1.96,3.4-3.57
			c0.19-0.49,0.31-0.98,0.37-1.49l7.89,16.98c0.06,0.12,0.09,0.25,0.11,0.39c0.09,0.69,0.18,2.44-0.88,3.92
			c-0.64,0.9-1.7,1.48-2.9,1.59c-1.08,0.1-2.65-0.05-4.04-1.31c-0.12-0.1-0.22-0.24-0.31-0.4L57.99,13.58z M56.34,11.67
			c0.44,0.32,0.92,0.58,1.44,0.78c0.75,0.29,1.54,0.44,2.32,0.44c0.89,0,1.77-0.19,2.61-0.56c1.57-0.7,2.78-1.96,3.4-3.57
			c0.2-0.52,0.32-1.05,0.39-1.59c0.09,0.89-0.03,1.8-0.36,2.66c-0.56,1.46-1.66,2.61-3.09,3.24c-1.43,0.63-3.02,0.67-4.48,0.11
			C57.69,12.86,56.94,12.33,56.34,11.67z M65.44,4.07c0.63,1.43,0.67,3.02,0.11,4.48c-0.56,1.46-1.66,2.61-3.09,3.24
			c-2.95,1.31-6.41-0.03-7.72-2.98s0.03-6.41,2.98-7.72c0.77-0.34,1.57-0.5,2.36-0.5C62.33,0.59,64.48,1.89,65.44,4.07z
			 M77.51,17.96c-0.13,0.51-0.73,2.27-1.86,3.14c-0.13,0.1-0.31,0.16-0.52,0.18l-0.77,0.07l0.05-0.29c1.33-0.58,2.28-2.67,2.68-3.74
			L77.51,17.96z M77.2,25.19l-1.78-1.91l-0.01,0.01c-0.33-0.35-0.7-0.66-1.1-0.93v-0.41l0.86-0.07c0.32-0.03,0.61-0.13,0.83-0.3
			c0.9-0.69,1.63-2.05,1.93-2.96l1.7,2.54c0.1,0.16,0.15,0.34,0.14,0.53c-0.06,0.76-0.32,2.18-1.48,3.23
			c-0.21,0.19-0.48,0.29-0.77,0.29H77.2z M77.77,34.39c-1.02,1.36-2.7,2.19-4.98,2.47c-0.95,0.11-1.93-0.12-2.74-0.65
			c-1.17-0.76-2.88-2.07-3.99-3.74c1.19,1.16,2.81,1.88,4.59,1.88c3.62,0,6.57-2.95,6.57-6.57c0-0.73-0.14-1.44-0.36-2.11l1.13,1.22
			c0.44,0.48,0.73,1.06,0.83,1.68C79.04,29.92,79.2,32.48,77.77,34.39z M103.73,61.05c-0.89-0.44-3.45-1.56-6.51-1.61
			c0.61-2.53-0.37-5.2-2.5-6.77l-20.81-15.4c1.92-0.4,3.37-1.25,4.33-2.52c0.36-0.48,0.63-1,0.82-1.52l21.71,15.53
			C100.82,48.79,105.84,52.6,103.73,61.05z M107.93,70.55c-0.29,0.75-0.67,1.43-1.17,1.76c-0.62-0.32-2.94-1.47-4.69-1.28l0.41-0.39
			l0.17,0.19l2.09-8.83c0.68,1.13,1.47,2.99,1.11,5.14l0.58,0.1c0.57-3.46-1.51-6.12-1.99-6.68c0.38-1.78,0.46-3.36,0.34-4.74
			c0.67,0.88,1.66,2.39,1.69,3.78c0.01,0.51,0.14,0.97,0.38,1.37c0.6,0.99,1.86,3.81,0.63,8.47l0.24,0.06l-0.11,0.15l0.32,0.23
			L107.93,70.55z M109.57,67.52c0.01,0.49-0.13,1.85-1.27,5.04l-1.47,0.85l0.18-0.58c1.61-0.99,2.1-4.42,2.17-4.97
			C109.24,67.78,109.38,67.6,109.57,67.52z M108.74,73.52c-1.14,0.87-1.67,1.25-1.92,1.41c-0.1-0.15-0.25-0.34-0.49-0.55l2.45-1.42
			l0.04-0.1c1.09-3.04,1.32-4.54,1.33-5.24c0.11,0.08,0.22,0.17,0.31,0.27l-1.08,4.63C109.29,72.93,109.06,73.28,108.74,73.52z
			 M101.73,94.89l-2.85-1.66c-0.24-0.14-0.52-0.19-0.8-0.15l-0.82,0.13c-0.29-0.15-0.51-0.27-0.66-0.34l3.85-15.78
			c2.2-0.58,4.34,0.77,5.07,1.3l-0.21,0.2l-0.02,0.09L101.73,94.89z M102.17,96.57c-1.52-1.29-3-2.26-4.09-2.9l0.09-0.01
			c0.14-0.02,0.29,0.01,0.41,0.08l3.15,1.84l0.27,0.33c0.11,0.13,0.17,0.3,0.17,0.48L102.17,96.57z M104.67,102.63l-0.4-0.4
			c-0.32-0.32-0.82-0.36-1.16-0.09c-0.71,0.56-1.91,1.94-1.95,4.98c0,0.28,0.09,0.55,0.27,0.77l1.49,1.88L77.88,211.53
			c-0.96,0.13-1.73,1.1-2.03,1.55c-0.09,0.13-0.15,0.29-0.18,0.45l-0.85,4.69l0.66,0.17c-0.27,0.12-0.56,0.19-0.86,0.17
			c-2.05-0.12-5.78-0.54-8.2-1.9l30.04-123.2c1.12,0.56,5.06,2.7,8.05,6.31c-0.17-0.06-0.35-0.11-0.55-0.11c-0.01,0-0.02,0-0.04,0
			c-1.41,0.03-2.95,1.97-4.58,5.76l0.54,0.23c1.99-4.67,3.39-5.39,4.04-5.41c0.62,0,1,0.57,1.1,0.75c0,0.11-0.02,0.22-0.04,0.33
			L104.67,102.63z M79.44,218.81l-3.94-1.02l0.75-4.16c0.02-0.09,0.05-0.16,0.09-0.23c0.21-0.31,0.93-1.31,1.73-1.31l2.44,0.75
			l-0.75,1.23c-0.1,0.17-0.17,0.36-0.2,0.56l-0.44,3.06C79.06,218.1,79.19,218.51,79.44,218.81z M101.88,107.52
			c-0.09-0.11-0.14-0.26-0.14-0.4c0.04-2.79,1.1-4.03,1.72-4.53c0.11-0.09,0.28-0.07,0.38,0.04l0.86,0.88
			c-0.66,0.41-1.01,1.86-1.01,3.3c0,1.02,0.18,2.05,0.52,2.71l-0.83-0.11L101.88,107.52z M105.11,109.65l-0.01,0
			c-0.28-0.02-0.8-1.01-0.8-2.83c0-1.83,0.53-2.83,0.81-2.83c0.27,0,0.81,1,0.81,2.83C105.91,108.64,105.38,109.64,105.11,109.65z
			 M81.6,218.58c-0.03,0.1-0.08,0.18-0.14,0.26c-0.25,0.12-0.68,0.07-1.23-0.16c-0.36-0.15-0.57-0.52-0.52-0.92l0.44-3.06
			c0.02-0.12,0.06-0.23,0.12-0.33l0.88-1.45l1.54-0.08c0,0,0.01,0,0.01,0c0.11,0,0.21,0.08,0.23,0.18l0.19,0.8
			c0.01,0.04,0.01,0.09-0.01,0.13L81.6,218.58z M77.63,222.9c-3.76,1.34-15.48-1.77-16.84-2.14l-0.36-0.74l-0.15-0.03
			c-5.73-0.96-5.86-11.12-5.86-11.22l-0.59,0c0,0.44,0.13,10.59,6.2,11.77l0.24,0.5l-3.73,14.87l-1.61-0.28
			c-1.34-0.23-2.71,0.04-3.85,0.76c-4.23,2.68-6.65,4.76-7.23,6.21c-0.08-0.18-0.14-0.37-0.18-0.57l-0.74-3.55
			c-0.05-0.25-0.07-0.48-0.07-0.72c0.78-23.86,38.08-147.59,39.67-152.84c0.05-0.15,0.14-0.28,0.28-0.37l0.3-0.2
			c0.33-0.21,0.54-0.55,0.57-0.94l0.08-0.85c0.03-0.36,0.34-0.63,0.7-0.61c0.24,0.01,0.45,0.15,0.56,0.36l1.59,3.05l0.14,1.04
			l-1.35-0.81c-0.07-0.03-0.7-0.29-1.26,0.05c-0.41,0.25-0.64,0.73-0.7,1.43l-2.05,14.83c0,0.01-0.14,0.68,0.38,1.43
			c0.61,0.89,1.86,1.49,3.68,1.79l-5.74,24.28c-1.81-1.66-1.38-2.65-1.38-2.66l-0.52-0.27c-0.03,0.05-0.42,0.85,0.45,2.16
			c-0.53-0.66-0.96-1.42-1.14-2.27l-0.57,0.12c0.73,3.44,4.93,5.49,5.11,5.58l0.12,0.06l0.12-0.05l-4.71,20.93
			c-1.24-0.17-6.05-0.3-11.06,7.01l0.48,0.33c2.68-3.9,5.3-5.59,7.29-6.3l-14.53,61.49c-0.04,0.16-0.05,0.32-0.02,0.47
			c0.08,0.53,0.38,1.85,1.6,2.62c0.6,0.38,1.32,0.56,2.16,0.56c0.74,0,1.56-0.14,2.48-0.43c0.22-0.07,0.4-0.25,0.45-0.48l0.25-1.05
			c2.53,1.35,6.25,1.77,8.31,1.89c0.05,0,0.1,0,0.14,0c0.49,0,0.97-0.15,1.37-0.43l-0.16,1.21l1.01,1.42
			C77.29,221.82,77.51,222.35,77.63,222.9z M73.64,240.9c-0.07,0.29-0.2,0.56-0.37,0.8c-0.92,0.09-6.92,0.39-16.17-5.59l3.7-14.74
			c1.62,0.44,9.3,2.44,14.2,2.44c1.08,0,2.01-0.11,2.72-0.34c0.03,0.45,0,0.9-0.11,1.34L73.64,240.9z M56.52,253.02
			c-0.26,0-0.52-0.05-0.77-0.12c1.77-4.07,1.31-13.88,1.2-15.85c-0.01-0.11,0-0.22,0.02-0.33c8.1,5.19,13.64,5.65,15.67,5.61
			c-0.06,0.04-0.12,0.09-0.18,0.13c-4.72,2.62-7.93,7.97-8.81,9.54c-0.18,0.32-0.44,0.59-0.75,0.79c-0.36,0.22-0.78,0.32-1.19,0.33
			L56.52,253.02z M61.57,256.21c-0.16,0.75-0.82,1.31-1.61,1.35l-2.39,0.14c-1.19,0.07-2.37-0.03-3.53-0.31l-4.97-1.19
			c-0.41-0.1-0.76-0.33-0.98-0.65c-0.51-0.74-0.68-1.42-0.5-2c0.35-1.15,1.93-1.75,2.52-1.98c0.05-0.02,0.09-0.03,0.12-0.05
			l5.02,1.83c0.41,0.15,0.83,0.23,1.27,0.24l4.4,0.08C61.13,253.97,61.83,255,61.57,256.21z M64.73,259.14l-1.35,1.57
			c-0.14,0.17-0.35,0.25-0.57,0.24c-1.76-0.11-7.91-0.63-13.16-2.78c-0.43-0.18-0.89-0.22-1.33-0.12l-0.8,0.18
			c-0.37,0.08-0.7,0.28-0.95,0.57l-0.54,0.63c-0.07,0.08-0.13,0.17-0.19,0.26l-10.46,17.94c-0.41,0.7-0.62,1.49-0.62,2.3v1.22
			l-1.92,0.7l0.08-1.5c0.01-0.27,0.09-0.53,0.22-0.77l11.96-20.98c0.11-0.19,0.25-0.35,0.41-0.49l2.35-1.92
			c0.29,0.28,0.65,0.48,1.06,0.57l4.97,1.19c0.97,0.23,1.95,0.35,2.94,0.35c0.25,0,0.5-0.01,0.76-0.02l2.39-0.14
			c0.1-0.01,0.19-0.02,0.29-0.04L64.73,259.14z M35.34,280.99v-1.04c0-0.7,0.19-1.4,0.54-2.01l10.46-17.94
			c0.04-0.06,0.08-0.12,0.13-0.18l0.54-0.63c0.17-0.19,0.39-0.33,0.64-0.38l0.8-0.18c0.32-0.07,0.66-0.04,0.98,0.09
			c0.69,0.28,1.39,0.53,2.1,0.76l-5.5,19.2C43.11,279.13,39.58,279.85,35.34,280.99z M64.76,261.83c-0.36,0.34-0.79,0.99-0.79,2.18
			v0.17l0.14,0.09c0.05,0.03,1.09,0.68,0.93,1.87c-0.07-0.26-0.18-0.53-0.32-0.8c-0.42-0.78-1.27-1.27-2.22-1.27h-1.35
			c-0.25,0-0.51,0.04-0.75,0.11c-0.01,0-0.01,0-0.02,0l0,0c-0.15,0.04-0.3,0.1-0.44,0.17l-0.37,0.18c-0.53,0.26-0.97,0.69-1.24,1.22
			l-0.28,0.54c-0.2,0.39-0.3,0.82-0.3,1.25v10.87c-0.6-0.15-1.92-0.38-4.17-0.38c-1.72,0-4,0.14-6.92,0.56l5.42-18.93
			c4.59,1.4,9.19,1.79,10.68,1.88c0.13,0.01,0.26-0.01,0.39-0.04v1.86h0.59v-2.2c0.02-0.02,0.05-0.04,0.08-0.07l1.15-1.34v1.57
			C64.98,261.52,64.9,261.7,64.76,261.83z M70.47,292.51c1.21-0.96,1.27-2.74,1.24-3.44c0.41-0.05,0.78-0.07,1.1-0.09
			c1.4,2.02,18.54,26.81,24.58,40.15h-3.17C84.04,310.38,74.65,297.78,70.47,292.51z M68.41,289.98c0.79-0.44,1.78-0.69,2.72-0.84
			c0.02,0.64-0.06,2.13-1.02,2.9C69.28,291.02,68.71,290.33,68.41,289.98z M61.53,280.98c-0.26-0.34-0.57-0.63-0.92-0.86l-2.25-1.49
			v-11.1c0-0.34,0.08-0.68,0.24-0.98l0.28-0.54c0.21-0.41,0.56-0.75,0.97-0.96l0.37-0.18c0.12-0.06,0.24-0.1,0.37-0.13
			c0.3-0.04,1.5-0.17,2.38,0.55c0.68,0.56,1.03,1.51,1.03,2.81c-0.01,0.42-0.3,10.54,1.51,13.84c0.17,0.32,0.43,0.59,0.77,0.82
			l5.92,4.03c0.41,0.28,0.65,0.74,0.65,1.23v0.37c-1.24,0.06-3.36,0.28-4.81,1.12L61.53,280.98z M74.22,287.81
			c-0.22,0.23-0.5,0.39-0.8,0.49v-0.28c0-0.69-0.34-1.33-0.91-1.71l-5.92-4.03c-0.26-0.17-0.45-0.38-0.58-0.62
			c-1.74-3.16-1.44-13.45-1.44-13.55c0-1.51-0.42-2.61-1.25-3.28c-0.02-0.01-0.03-0.02-0.05-0.04c0.4,0.16,0.74,0.44,0.94,0.82
			c0.41,0.76,0.43,1.64,0.43,1.65v4.89c0,0.17,0.06,0.33,0.18,0.46l0.7,0.74c0.13,0.14,0.3,0.21,0.48,0.21
			c0.08,0,0.17-0.02,0.25-0.05c0.25-0.1,0.42-0.34,0.42-0.61v-7.01h-0.59v7.01c0,0.03-0.02,0.06-0.05,0.07
			c-0.03,0.01-0.06,0.01-0.08-0.02l-0.7-0.74l-0.02-4.88c0.98-1.73,0.01-2.88-0.52-3.34c0.5,0,0.97,0.22,1.29,0.6l0.5,0.6
			c0.12,0.15,0.19,0.34,0.19,0.53c-0.01,1.73,0.01,7.61,0.42,10.78c0.15,1.12,0.73,2.12,1.64,2.81l6.27,4.71
			c0.46,0.35,0.73,0.88,0.73,1.46c0,0.47-0.18,0.91-0.5,1.25L74.22,287.81z M73.83,288.78c1.84,2.51,20.67,28.37,25.18,40.36h-0.97
			c-5.78-12.92-22.26-36.9-24.56-40.24C73.59,288.87,73.71,288.83,73.83,288.78z M257.26,302.9c0.15,0.26,0.39,0.52,0.75,0.78
			c0.12,0.09,0.27,0.13,0.41,0.13c0.2,0,0.39-0.08,0.54-0.24c1.04-1.15,2.87-2.33,3.61-2.79c0.16-0.1,0.26-0.26,0.28-0.45
			c0.02-0.19-0.05-0.37-0.19-0.5c-0.36-0.33-0.61-0.56-0.8-0.72c0.81-0.62,1.62-1.22,2.4-1.77c0.38-0.11,0.71-0.11,0.96,0.04
			c0.33,0.19,0.47,0.56,0.5,0.66v1.13c0,0.29-0.15,0.56-0.39,0.72c-7.75,5.12-16.65,14.26-17.5,15.14l-0.78,0.15
			c-0.83-0.48-0.66-1.74-0.61-2.06C247,312.57,251.8,307.64,257.26,302.9z M261.38,299.5c0.15,0.13,0.43,0.37,0.88,0.78
			c-0.76,0.48-2.65,1.7-3.73,2.91c-0.05,0.05-0.11,0.06-0.17,0.02c-0.35-0.25-0.57-0.5-0.64-0.7
			C258.92,301.47,260.15,300.45,261.38,299.5z M276.28,298.52h-7.27c-0.04-0.04-0.06-0.08-0.06-0.09c0.01-0.06,0.12-0.16,0.21-0.22
			l7.11-0.67C276.41,297.73,276.6,298.13,276.28,298.52z M291.67,309.25c-0.01,0-0.01,0-0.02-0.01l0,0
			c-1.89-0.48-3.76-0.74-5.46-0.6c0,0,0,0-0.01,0c-0.46,0-22.59,0.23-33.69,18.3l-0.02-0.01c-0.02,0.04-0.03,0.07-0.04,0.11
			c-1.32,2.16-2.48,4.58-3.43,7.28h-1.54c-0.21,0-0.4,0.06-0.58,0.15c0.29-0.66,0.75-1.62,1.51-2.99l0.05-0.1l-0.38-1.69l-4.52-4.18
			c-0.26-0.24-0.6-0.37-0.95-0.37h-1.28c-0.52,0-0.99,0.28-1.23,0.74c-0.09,0.16-0.23,0.29-0.4,0.36l-2.6,1.11
			c-0.09,0.04-0.17,0.09-0.25,0.14l-2.62,1.82c-0.21,0.14-0.37,0.34-0.48,0.57l-2.57,5.72h-0.56c-0.4,0-0.76-0.2-0.97-0.54
			l-2.54-4.05h0.9l0.98-2.85l2.75-3.41c0.06-0.07,0.13-0.14,0.21-0.2l3.64-2.73c0.2-0.15,0.45-0.23,0.69-0.23h2.32
			c0.14,0,0.28,0.03,0.41,0.08l1.45,0.55l0.12-0.06c2.08-1.04,4.27-5.46,5.29-7.71c0.11,0.52,0.39,1.04,1,1.34l0.09,0.04l1.16-0.23
			l0.06-0.07c0.09-0.1,9.42-9.81,17.46-15.12c0.41-0.27,0.65-0.72,0.65-1.21l-0.01-1.24c-0.01-0.03-0.18-0.72-0.79-1.07
			c-0.11-0.06-0.22-0.11-0.34-0.14c0.07-0.05,0.14-0.09,0.21-0.14c0.39-0.25,0.85-0.4,1.34-0.43l6.22-0.38
			c0.37-0.02,0.74,0.07,1.05,0.27l1.55,0.96l-6.58,0.64c-0.05,0.03-0.53,0.28-0.58,0.71c-0.01,0.11,0.01,0.26,0.11,0.41l-19.9,17.31
			c-0.14,0.13-0.34,0.17-0.52,0.12c-0.55-0.15-1.12,0.11-1.35,0.63c-0.68,1.46-3.1,6.29-5.94,7.25l0.19,0.56
			c2.97-1,5.39-5.62,6.28-7.56c0.12-0.25,0.4-0.38,0.67-0.31c0.37,0.1,0.77,0.01,1.06-0.24l20.04-17.43h7.53l0.09-0.09
			c0.1-0.1,0.18-0.21,0.24-0.31c1.36,0.19,9.28,1.38,16.84,3.88c0.45,0.15,0.9,0.34,1.36,0.57c2.47,1.25,14.64,7.58,18.96,12.42
			h-3.83c-0.41,0-0.82-0.05-1.22-0.15l-2.19-0.56l-0.15,0.57l2.19,0.56c0.45,0.11,0.91,0.17,1.37,0.17h4.32h0.14h1.28l1.7,1.32v0.42
			h-7.95c-0.33-0.08-3.24-0.83-4.79-2.36c-0.47-0.46-1.04-0.99-1.73-1.38C300.92,312.88,296.27,310.41,291.67,309.25z M245.59,335.6
			h-12.94l2.16-4.55c0.09-0.18,0.23-0.33,0.41-0.43l5.07-2.76c0.46-0.25,0.98-0.38,1.5-0.38h0.31c0.64,0,1.26,0.22,1.75,0.63
			l3.93,3.3c-1.43,2.6-1.8,3.73-1.89,4.12C245.79,335.57,245.69,335.6,245.59,335.6z M231.82,335.6l2.46-5.47
			c0.06-0.13,0.16-0.25,0.28-0.33l2.62-1.82c0.05-0.03,0.09-0.06,0.15-0.08l2.6-1.11c0.29-0.12,0.53-0.35,0.68-0.63
			c0.14-0.26,0.42-0.43,0.72-0.43h1.28c0.21,0,0.4,0.08,0.55,0.22l4.38,4.05l0.12,0.54l-3.45-2.88c-0.59-0.5-1.35-0.77-2.12-0.77
			h-0.31c-0.62,0-1.23,0.16-1.78,0.45l-5.07,2.76c-0.29,0.16-0.52,0.4-0.66,0.69l-2.28,4.8H231.82z M249.63,334.32
			c0.4-1.12,0.83-2.19,1.3-3.2c-0.32,1.05-0.58,2.12-0.8,3.2H249.63z M250.82,348.15c0.25-0.02,0.5-0.06,0.74-0.1l4.01-0.75
			c0.78-0.15,1.53-0.4,2.24-0.74l3.82-1.87c0.98,11.84,10.54,21.06,21.94,21.06c12.15,0,22.03-10.36,22.03-23.08
			c0-12.73-9.88-23.08-22.03-23.08c-8.59,0-16.42,5.27-20.01,13.44l-4.97,1.1c-0.66,0.15-1.33,0.22-2,0.22h-5.84
			c0.48-2.42,1.23-4.77,2.22-7.01c10.95-17.89,32.86-18.08,33.25-18.08c0,0,0,0,0,0c1.64-0.13,3.47,0.13,5.3,0.59
			c13.04,4.42,21.79,16.96,21.79,31.22c0,18.11-14.19,32.83-31.62,32.83C266.93,373.87,253.99,363.07,250.82,348.15z M272.29,333.34
			c-0.05-0.01-0.1-0.02-0.14-0.03l1.01,0.06c0.18,0.01,0.34,0.06,0.5,0.13l18.19,9v2.76c-1.06,1.32-3.11,3.37-6.01,3.9
			c-2.92,0.54-6.05-0.55-9.29-3.24c-0.83-0.69-1.82-1.17-2.87-1.39c-1.67-0.35-4.56-0.77-9.16-0.95c-0.01-0.1-0.02-0.21-0.03-0.31
			l7.8-3.82c0.19-0.09,0.36-0.22,0.51-0.36l0.95-0.95c0.47-0.47,0.66-1.14,0.51-1.78l-0.37-1.55c-0.16-0.67-0.67-1.21-1.34-1.4
			L272.29,333.34z M263.92,343.56c0,0.01,0,0.01,0,0.01c-0.01,0-0.02,0-0.03,0L263.92,343.56z M292.63,342.29v1.87
			c-0.04,0.06-0.1,0.17-0.2,0.3v-2.01L292.63,342.29z M293.22,344.32v-0.6c0.51,0.27,1.45,0.74,3.22,1.61
			c0.17,0.08,0.34,0.14,0.53,0.17c0.11,0.02,0.22,0.03,0.33,0.03c0.55,0,1.07-0.23,1.45-0.65l0.08-0.08
			c-0.42,2.3-1.3,4.45-2.54,6.34c0.06-0.35,0.04-0.71-0.06-1.05c-0.19-0.64-0.66-1.16-1.27-1.43c-2.3-0.99-3.37-1.46-3.86-1.68
			c1.32-1.27,2.03-2.49,2.09-2.58L293.22,344.32z M284.84,358.73l-0.94-0.7c-0.34-0.25-0.52-0.65-0.5-1.07l0.47-7.1
			c0.17,0.01,0.33,0.03,0.5,0.03c0.53,0,1.06-0.05,1.58-0.14c1.94-0.36,3.5-1.32,4.67-2.33c0.33,0.15,1.28,0.57,4.1,1.79
			c0.45,0.2,0.8,0.58,0.94,1.06c0.09,0.28,0.1,0.59,0.03,0.88l-0.29,1.22C292.83,355.64,289.1,357.96,284.84,358.73z M284.03,358.86
			c-0.74,0.1-1.5,0.15-2.27,0.15c-1.48,0-2.93-0.2-4.32-0.56l0.22-0.11c0.53-0.27,0.93-0.73,1.14-1.29
			c0.08-0.21,0.12-0.44,0.14-0.66c0.07-1.15,0.38-6.24,0.48-7.82c1.31,0.68,2.6,1.1,3.87,1.25l-0.47,7.1
			c-0.04,0.62,0.23,1.21,0.73,1.58L284.03,358.86z M266.4,349.7l0.13-1.03c0.05-0.42,0.22-0.82,0.49-1.15
			c0.31-0.38,0.74-0.65,1.22-0.76l6.07-1.43c0.67,0.24,1.31,0.59,1.86,1.05c0.9,0.74,1.79,1.36,2.68,1.87
			c-0.05,0.84-0.29,4.76-0.49,8.1c-0.01,0.17-0.04,0.33-0.1,0.5c-0.15,0.42-0.46,0.77-0.85,0.97l-0.77,0.4
			C272.23,356.84,268.54,353.74,266.4,349.7z M264.59,344.18c4.08,0.16,6.79,0.52,8.47,0.83l-4.96,1.17
			c-0.6,0.14-1.15,0.48-1.54,0.96c-0.34,0.42-0.56,0.92-0.62,1.45l-0.02,0.14C265.28,347.31,264.83,345.78,264.59,344.18z
			 M289.81,339.77l-0.76-1.62c-0.08-0.18-0.12-0.37-0.11-0.57l0.07-0.97c0.02-0.24,0.11-0.46,0.26-0.65l5.13-6.19
			c2.92,3.11,4.72,7.28,4.72,11.88c0,0.7-0.05,1.4-0.13,2.08l-0.68,0.76c-0.31,0.35-0.78,0.52-1.24,0.44
			c-0.13-0.02-0.25-0.06-0.37-0.12c-1.79-0.88-3.09-1.54-3.48-1.75v-1.27l0.23-0.2L289.81,339.77z M288.96,339.35l-15.63-7.81
			c-0.62-0.31-1.33-0.4-2.01-0.25l-4.11,0.91c1.91-2.92,4.64-5.17,7.78-6.51l4.43,7.38c0.22,0.37,0.63,0.59,1.07,0.57
			c1.05-0.05,3.25,0.3,4.15,0.45c0.07,0.01,0.13,0.02,0.19,0.02c0.35,0,0.69-0.17,0.91-0.46l5.07-6.79
			c1.15,0.71,2.21,1.54,3.16,2.49l-5.17,6.24c-0.23,0.28-0.37,0.62-0.39,0.98l-0.07,0.97c-0.02,0.29,0.03,0.59,0.16,0.86
			L288.96,339.35z M285.28,333.3c-0.12,0.17-0.33,0.25-0.53,0.21c-1.14-0.2-3.21-0.52-4.28-0.46c-0.23,0.01-0.42-0.09-0.54-0.28
			l-4.38-7.3c1.96-0.75,4.06-1.17,6.21-1.17c3.11,0,6.03,0.83,8.56,2.26L285.28,333.3z M264.28,332.85
			c3.57-7.72,11.08-12.69,19.29-12.69c11.82,0,21.44,10.09,21.44,22.5s-9.62,22.5-21.44,22.5c-11.17,0-20.52-9.1-21.38-20.75
			l0.56-0.28c0.43,0.01,0.84,0.02,1.24,0.03c1.23,8.73,8.84,15.43,17.76,15.43c9.89,0,17.94-8.05,17.94-17.94
			c0-9.89-8.05-17.94-17.94-17.94c-6.25,0-12.12,3.32-15.36,8.66L264.28,332.85z M72.46,338.92v-2.5c0.12,0.19,0.28,0.36,0.48,0.49
			l1.93,1.29c0.19,0.13,0.4,0.23,0.62,0.3l3.51,1.15c0.23,0.08,0.48,0.12,0.73,0.13c43.82,1.25,77.42,1.71,103.15,1.71
			c31.75,0,51.52-0.7,63.73-1.5c21.13-1.38,24.44-3.27,24.95-3.91c1.02-0.57,1.32-1.27,1.38-1.77c0.18,0.17,0.31,0.39,0.37,0.64
			l0.37,1.55c0.11,0.45-0.03,0.91-0.35,1.24l-0.95,0.95c-0.1,0.1-0.22,0.19-0.35,0.25l-14.47,7.09c-0.66,0.33-1.37,0.56-2.09,0.69
			l-4.01,0.75c-0.49,0.09-1,0.14-1.5,0.14H88.13c-0.26,0-0.53-0.03-0.79-0.1l-4.03-1.05c-0.31-0.08-0.61-0.21-0.88-0.38l-9.26-5.85
			C72.72,339.94,72.46,339.45,72.46,338.92z M75.19,331.49c0.52,1.29,1.03,2.61,1.51,3.98l0.03,0.06l0.34,0.55h18.59
			c0.17,0,0.33-0.07,0.45-0.19l0.79-0.84c0.18-0.19,0.22-0.47,0.1-0.71c-0.82-1.58-1.63-3.11-2.45-4.62h3.11h0.19h2l-0.14-0.39
			c-0.22-0.62-0.49-1.28-0.79-1.98l129.41,0.96l-0.73,2.12h-1.54l3.1,4.95c0.32,0.51,0.87,0.81,1.47,0.81h14.96
			c0.54,0,1.02-0.32,1.21-0.83c0.11-0.28,0.37-0.45,0.67-0.45h9.11c0.72,0,1.43-0.08,2.13-0.23l12.74-2.81
			c0.54-0.12,1.12-0.05,1.62,0.2l19.33,9.66l-0.3,0.26l-18.18-9c-0.23-0.11-0.47-0.18-0.72-0.19l-1.02-0.06
			c-0.11-0.01-0.23,0-0.34,0.01l-3.91,0.45l0.59,0.87l3.17-0.19c0.15-0.01,0.29,0.01,0.44,0.05l0.24,0.07
			c0.02,0.3-0.05,1.02-1.15,1.62l-0.12,0.06l-0.02,0.09c-0.43,0.53-10.04,8.62-191.34,3.45c-0.19-0.01-0.38-0.04-0.56-0.1
			l-3.51-1.15c-0.17-0.06-0.33-0.13-0.48-0.23l-1.93-1.29c-0.26-0.17-0.43-0.44-0.47-0.75l-0.28-1.94c0.09-0.37,0.32-0.69,0.64-0.9
			L75.19,331.49z M49.56,297.53c-1.8-1.24-3.9-2.04-6.06-2.32l-12.43-1.6c-0.49-0.06-0.93-0.31-1.24-0.7l-1.34-1.68
			c-0.27-0.33-0.41-0.75-0.41-1.18v-2.87c0-0.35,0.08-0.66,0.23-0.92c1.48-2.45,4.2-3.65,4.31-3.7l2.51-0.91
			c16.35-4.42,22.34-2.73,22.79-2.59l2.35,1.55c0.3,0.2,0.56,0.44,0.78,0.73l6.83,8.96l0.01-0.01c1.61,1.89,14.73,17.63,28.56,44.32
			l-0.8,0.87l-18.28,0.01l-0.15-0.24C69.46,313.03,55.29,301.47,49.56,297.53z M52.98,300.84l0.86,1.24
			c-0.55,0.08-1.07,0.3-1.51,0.64l-1.31,1c-1.02,0.78-1.72,1.9-1.99,3.15l-0.38,1.78l-13.52,37.92c-0.06,0.16-0.13,0.3-0.24,0.44
			c-0.31,0.42-0.99,1.25-1.93,2.11c3.12-6.99,13.75-37.63,14.25-39.04l-0.56-0.19c-0.13,0.38-13,37.48-14.8,40.14
			c-0.99,0.72-2.15,1.35-3.44,1.61l-0.08-1l5.83-18.58c0.26-0.61,0.39-1.26,0.39-1.92c0-2.73-2.22-4.95-4.95-4.95
			c-2.47,0-4.56,1.83-4.9,4.27l-1.97,8.68c-0.57,0.3-2.32,1.72-2.62,7.69c-0.46-9.48,7.33-36.36,9.17-42.54
			c3.5,4.55,15.22,5.97,15.74,6.03l0.07-0.58c-0.13-0.01-12.61-1.53-15.58-6.15c0.18-0.46,0.43-0.9,0.74-1.3l0.5-0.66
			c3.27,2.98,11.41,4.46,13.05,4.73c0.17,0.03,0.33,0.09,0.48,0.18l0.68,0.43l0.33,0.61l0.52-0.28l-0.4-0.75l-0.82-0.51
			c-0.21-0.13-0.45-0.22-0.7-0.26c-1.61-0.27-9.67-1.73-12.78-4.62l0.29-0.38c0.5-0.65,1.16-1.19,1.9-1.56l4.69-2.31v-0.84l5.44,0.7
			c2.07,0.27,4.08,1.04,5.8,2.22C50.24,298.71,51.52,299.65,52.98,300.84z M12.46,331.15c3.68-6.26,9.5-9.06,11.25-9.79
			c-2.5,9.98-4.78,20.99-4.09,25.63l0.04,1.57c0.04,1.48,0.89,2.8,2.22,3.45l1,0.49c0.54,0.26,1.14,0.4,1.74,0.4
			c0.01,0,0.02,0,0.03,0l3.19-0.03l0.46-0.6c3.59-0.62,6.3-3.9,7.05-4.9c0.14-0.18,0.24-0.38,0.32-0.59l8.21-23.03
			c3.55,2.6,5.6,6.8,6.71,9.92c1.32,3.73,1.68,7.58,1.04,11.12c-0.78,4.32-2.84,8.34-6.13,11.94c-3.93,4.3-9.42,6.95-15.05,7.26
			c-8.85,0.49-13.68-4.58-13.73-4.63c-9.59-8.75-6.99-20.9-6.96-21.02c0.41-2.16,1.08-4.07,1.91-5.76c0.09,0.69,0.68,1.23,1.4,1.23
			c0.78,0,1.41-0.63,1.41-1.41c0-0.78-0.63-1.42-1.41-1.42C12.86,331,12.65,331.06,12.46,331.15z M13.08,331.59
			c0.46,0,0.83,0.37,0.83,0.83s-0.37,0.83-0.83,0.83c-0.46,0-0.83-0.37-0.83-0.83S12.63,331.59,13.08,331.59z M27.75,350.59
			l0.11,1.33l-0.29,0.38l-2.9,0.03c-0.52,0.01-1.05-0.11-1.51-0.34l-1-0.49c-0.61-0.3-1.1-0.77-1.43-1.33
			c-0.06-1.08-0.08-2.05-0.07-2.94l0.5-2.04c0.01-0.06,0.05-0.11,0.1-0.14l0.31-0.22c0.22-0.15,0.35-0.41,0.35-0.68v-1.72
			c0-0.2,0.03-0.4,0.08-0.59l0.09-0.31c0.18-0.65,0.63-1.18,1.24-1.47l0.04,0c0.82-0.02,1.57,0.26,2.12,0.78l0.22,0.21
			c0.4,0.37,0.67,0.84,0.8,1.37c0.09,0.36,0.1,0.73,0.03,1.1l-0.13,0.76c-0.07,0.39-0.23,0.78-0.46,1.1l-0.24,0.34l0.48,0.34
			l0.24-0.34c0.28-0.4,0.47-0.86,0.56-1.34l0.13-0.76c0.08-0.44,0.06-0.89-0.04-1.33c-0.15-0.64-0.49-1.21-0.97-1.66l-0.22-0.21
			c-0.68-0.63-1.55-0.96-2.48-0.94l-0.14,0c-0.07,0-0.14,0.02-0.2,0.05c-0.76,0.36-1.32,1.03-1.54,1.84l-0.09,0.31
			c-0.07,0.24-0.1,0.5-0.1,0.75v1.72c0,0.08-0.04,0.15-0.1,0.2l-0.31,0.22c-0.05,0.04-0.1,0.09-0.14,0.14
			c0.49-5.39,2.27-6.06,2.3-6.07l0.16-0.05l0.04-0.16l2.01-8.82h0l1.13-0.97c0.42-0.36,0.95-0.57,1.5-0.59
			c0.56-0.02,1.11,0.16,1.55,0.5l0.22,0.17c0.54,0.41,0.96,0.96,1.2,1.6c0.29,0.74,0.34,1.53,0.13,2.3l-2.43,9.23l0.57,0.15
			l2.43-9.23c0.23-0.89,0.18-1.81-0.15-2.67c-0.29-0.73-0.77-1.37-1.39-1.85l-0.22-0.17c-0.55-0.42-1.23-0.65-1.93-0.62
			c-0.69,0.02-1.35,0.28-1.87,0.73l-0.49,0.42c0.63-1.66,2.23-2.81,4.08-2.81c2.41,0,4.36,1.96,4.36,4.36c0,0.3-0.03,0.59-0.09,0.87
			L27.75,350.59z M54.63,305.97c0,0.32-0.08,0.64-0.22,0.93l-0.3,0.59l-0.32-0.29c0.07-0.4,0.22-1.4,0.26-1.64l0.03-0.19L53,304.71
			l-3.59,3.21l0.2-0.92c0.24-1.12,0.87-2.11,1.77-2.81l1.31-1c0.44-0.34,0.98-0.53,1.54-0.55l0.05,0.07
			c0.24,0.34,0.36,0.74,0.36,1.16V305.97z M53.25,306.84l-1.04-0.63l0.86-0.77l0.37,0.22C53.39,305.94,53.31,306.47,53.25,306.84z
			 M68.6,332.36c-0.46,0.41-2.48,2.09-4.55,2.15c-0.01,0-4.36-0.42-5.62-2.56c-0.2-0.48-5.4-12.39-11.72-16.13l1.61-4.52
			c1.95,1.49,12.52,10.09,14.97,22.89l0.58-0.11c-0.08-0.44-0.18-0.87-0.28-1.3l0.51-0.15c-4.45-15.37-13.85-21.5-15.39-22.41
			l0.47-1.31l2.56-2.29l1.55,0.93l0.99,0.88l0.01-0.03C56.21,309.86,67.76,319.2,68.6,332.36z M59.39,322.81
			c-3.76-6.14-8.55-10.27-10.32-11.68C50.92,312.37,55.48,315.91,59.39,322.81z M1.1,334.87c3.46-18.29,18.7-24.69,20.48-25.38
			c0.16,0.15,0.36,0.25,0.59,0.28l4.44,0.7c-0.83,2.98-1.78,6.5-2.71,10.19c-1.41,0.53-12.32,5.05-14.69,17.57
			c-0.03,0.11-2.71,12.59,7.12,21.55c0.03,0.03,4.59,4.83,12.96,4.83c0.4,0,0.8-0.01,1.21-0.03c5.79-0.31,11.42-3.03,15.45-7.45
			c3.36-3.69,5.47-7.8,6.27-12.23c0.66-3.64,0.29-7.59-1.07-11.42c-1.15-3.24-3.3-7.63-7.05-10.3l2.42-6.79
			c6.11,3.72,11.34,15.7,11.39,15.83c1.26,2.14,4.9,2.73,5.88,2.85c1.29,12.48-4.4,21.66-9.42,27.18
			c-5.91,6.49-14.17,10.44-22.66,10.85c-13.08,0.62-20.19-6.85-20.26-6.92C-2.83,353.14,1.06,335.05,1.1,334.87z"/>
		<path class="st2" d="M44.42,331.24c0,0.78,0.63,1.42,1.41,1.42s1.41-0.63,1.41-1.42c0-0.78-0.63-1.41-1.41-1.41
			S44.42,330.46,44.42,331.24z M45,331.24c0-0.46,0.37-0.83,0.83-0.83c0.46,0,0.83,0.37,0.83,0.83c0,0.46-0.37,0.83-0.83,0.83
			C45.38,332.07,45,331.7,45,331.24z"/>
		<path class="st2" d="M44.84,350.88c0,0.78,0.63,1.41,1.41,1.41c0.78,0,1.41-0.63,1.41-1.41c0-0.78-0.63-1.42-1.41-1.42
			C45.48,349.47,44.84,350.1,44.84,350.88z M45.43,350.88c0-0.46,0.37-0.83,0.83-0.83c0.46,0,0.83,0.37,0.83,0.83
			s-0.37,0.83-0.83,0.83C45.8,351.71,45.43,351.34,45.43,350.88z"/>
		<path class="st2" d="M28.55,361.81c0,0.78,0.63,1.41,1.41,1.41c0.78,0,1.41-0.63,1.41-1.41c0-0.78-0.63-1.42-1.41-1.42
			C29.18,360.4,28.55,361.03,28.55,361.81z M29.13,361.81c0-0.46,0.37-0.83,0.83-0.83c0.46,0,0.83,0.37,0.83,0.83
			s-0.37,0.83-0.83,0.83C29.51,362.64,29.13,362.27,29.13,361.81z"/>
		<path class="st2" d="M14.79,352.44c0-0.78-0.63-1.41-1.41-1.41s-1.41,0.63-1.41,1.41c0,0.78,0.63,1.42,1.41,1.42
			S14.79,353.22,14.79,352.44z M14.2,352.44c0,0.46-0.37,0.83-0.83,0.83c-0.46,0-0.83-0.37-0.83-0.83s0.37-0.83,0.83-0.83
			C13.83,351.61,14.2,351.98,14.2,352.44z"/>
	</g>
</g>
</svg>
