<?xml version="1.0" encoding="utf-8"?>
<!-- Generator: Adobe Illustrator 23.0.0, SVG Export Plug-In . SVG Version: 6.00 Build 0)  -->
<svg version="1.1" id="레이어_1" xmlns="http://www.w3.org/2000/svg" xmlns:xlink="http://www.w3.org/1999/xlink" x="0px"
	 y="0px" viewBox="0 0 455.34 508.34" style="enable-background:new 0 0 455.34 508.34;" xml:space="preserve">
<style type="text/css">
	.st0{fill:#FFFFFF;}
	.st1{opacity:0.7;}
	.st2{fill:#282828;}
</style>
<g>
	<path class="st0" d="M98.32,431.84c1.17,0.78,2.26,1.68,3.23,2.66c6.07,6.14,18.74,20.96,18.86,21.11
		c11.76,13.36,28.44,17.34,30.12,17.71c0.12,0.21,0.45,0.77,1.32,2.3c0.24,0.42,0.67,0.71,1.16,0.76l2.18,0.23
		c0.37,0.03,0.74-0.06,1.05-0.28l2.19-1.57c6.44,0.99,144.26,3.6,209.82,4.79c6.15,16.61,22.3,27.75,40.24,27.75
		c23.63,0,42.84-18.95,42.84-42.25c0-9.15-2.9-17.8-8.38-25.1c1.64,0.93,2.2,1.1,2.25,1.11c5.68,1.89,8.92,2.04,9.87,0.47
		c2.05-3.38-8.08-13.3-9.23-14.42c-5.37-4.67-10.99-7.82-16.48-9.92l0.01-0.03c-0.04-0.01-0.1-0.01-0.16-0.02
		c-5.6-2.12-11.09-3.1-16.09-3.44c-0.01-0.01-0.03-0.02-0.04-0.03l-0.01,0.02c-3.88-0.25-7.47-0.11-10.59,0.22
		c-0.01-0.01-0.02-0.01-0.04-0.01l-0.01,0.01c-7.28,0.76-12.06,2.52-12.18,2.56c-21.02,8.13-29.6,28.46-30.49,30.72
		c-58.1-1.2-193.62-4.28-194.98-4.31c-19.79-1.52-29.68-12.12-29.78-12.23l-30.56-32.4l1.9-1.24c5.75-1.41,7.89-3.39,7.98-3.48
		c0.71-1.09,0.81-1.93,0.36-2.54c-1.89-2.52-13.53,0.61-15.71,1.22c-1.57-2.47-4.21-3.1-4.8-3.21l-17.33-20.54l2.8-14.57
		c2.95-0.16,3.19-1.15,3.21-1.35c0.01,0,1.95-8.91,2.92-13.44c0.38-1.77,0.23-3.16-0.45-4.13c-0.48-0.7-1.12-0.99-1.49-1.11
		l4.57-22.92c0.01,0,0.01,0,0.02,0c2.63,0,3.27-2.85,3.28-2.88l7.92-38.02c0.39-1.98,0.21-3.47-0.54-4.46
		c-0.49-0.65-1.11-0.9-1.48-0.99l23.43-116.8c1.93-0.87,3.65-1.88,5.08-3.01c3.16-2.49,5.05-6.43,5.05-10.56v-7.39l-0.26-0.04
		c-0.79-0.09-1.46,0.08-2.02,0.52c-1.18,0.94-1.37,2.74-1.38,2.81c-0.18,1.66-0.73,2.8-1.62,3.4c-0.79,0.53-1.65,0.49-2.08,0.43
		l18.47-92.07c0.92-4.21-0.81-6.8-0.88-6.91h-0.01c0,0,0-0.01-0.01-0.01c-3.1-3.96-8.61-6.24-10.91-7.04
		c3.12-0.89,4.16-2.81,4.2-2.9l0.04-0.14v-2.87c0-2.89-7.46-3.36-9.05-3.43c-0.64-1.77-1.52-3.21-1.74-3.55l0.3-8.31
		c-0.01-0.12-0.24-1.18-0.97-2.48c-1.34-2.37-3.79-3.94-6.56-4.22c-2.75-0.27-5.35,0.75-7.11,2.81c-0.55,0.64-0.96,1.36-1.21,2.15
		l-1.11,8.43c-0.56,0.54-3.59,3.82-2.87,11.38c0.12,1.2,0.48,2.36,1.03,3.36c0.18,0.32,0.3,0.54,0.42,0.69
		c-0.07,0.49-0.22,1.86-0.01,3.1c-0.71,0.49-3.21,2.49-3.41,6.38c-0.07,0.78-0.54,7.56,1.25,9.15l-0.76,9.15
		c0,0.1,0.18,7.03,7.66,7.68c0,0,0.01,0,0.03,0c-0.41,0.83-1.17,2.63-0.56,3.49c0.24,0.33,0.64,0.5,1.18,0.47L59.11,330.97
		l-1.63,0.51l-0.83,3.29l1.19,1.19l-1.11,6.41l-1.69,0.23l-0.68,3.46l1.32,1.17l-9.06,46.43l-0.3,3.13
		c-0.34,0.29-1.19,1.27-0.73,3.56c-0.29,0.35-0.98,1.4-0.78,3.29c-0.22,0.34-0.85,1.53-0.57,2.95c-0.42,0.31-1.31,1.23-1.22,3.18
		l-1.13,1.22l-3.24,6.56c-1.67,0.1-14.41,1.17-25.45,10.23c-0.07,0.07-0.93,1.05-0.42,2.28c0.22,0.53,0.66,1.02,1.31,1.46
		C5.15,439.9,0,451.65,0,463.83c0,24.54,20.24,44.5,45.13,44.5c10.86,0,21.35-3.86,29.55-10.86c7.93-6.78,13.21-16.06,14.94-26.2
		c1.08,1.44,2,2.15,2.77,2.15c0.1,0,0.2-0.01,0.29-0.03c1.22-0.3,1.4-2.38,1.42-2.62c0.43-6.21-0.19-12.19-0.48-14.48
		c-0.1-0.82-0.24-1.54-0.4-2.22c-2.23-9.18-6.72-15.17-6.77-15.22c-6.93-10.16-16.81-15.37-18.23-16.08l-0.02-6.28l-0.76-2.06
		c0.71-1.21,0.45-2.58,0.33-3.07c0.93-1.08,0.72-2.78,0.61-3.34c1.18-1.06,0.93-2.81,0.8-3.41c0.99-0.88,0.79-2.26,0.49-2.99
		l0.8-1.95l6.55,1.23l2.21,2.78h-2.09v8.17h-0.49l0.01,3.58C77.36,417.72,92.04,427.67,98.32,431.84z M394.71,487.85l11.14-7.59
		c0.36,0.01,0.71,0.01,1.05,0.01c2.11,0,3.93-0.07,5.52-0.2l1.77,8.77l-0.1,0.1c-1.14,1.19-2.69,1.89-4.34,2
		C406.34,491.16,399.96,491.03,394.71,487.85z M417.31,451.72c1.1-2.09,2.41-4.32,3.68-5.89c0.62-0.76,1.53-1.17,2.46-1.17
		c0.4,0,0.8,0.07,1.2,0.23c1.14,0.46,2.72,1.19,4.44,2.24c0.48,0.48,4.71,4.67,6.44,9.1h-13.53
		C421.83,455.43,421.02,453.05,417.31,451.72z M408.96,440.65c0.06,0.01,0.11,0.02,0.17,0.02l-4.98,11.51l-9.22-0.21l-4.69-3.82
		C393.26,445.39,399.89,440.48,408.96,440.65z M387.31,461.52l-7.36-0.37c0.47-1.1,1.5-1.85,2.71-1.93
		c0.69-0.04,1.38,0.14,1.95,0.52L387.31,461.52z M422.99,484.83l-1.36-7.02c0.94-0.62,1.12-1.12,1.14-1.18
		c1.4-2.94,1.74-5.27,1.48-7.1l12.49,2.27c-0.54,1.74-3.54,10.27-10.79,13.75C425.89,485.56,423.58,486.36,422.99,484.83z"/>
	<g class="st1">
		<path class="st2" d="M0,463.83c0,24.54,20.24,44.51,45.13,44.51c10.86,0,21.35-3.86,29.54-10.86
			c7.93-6.78,13.21-16.06,14.94-26.19c1.08,1.44,2,2.15,2.77,2.15c0.1,0,0.19-0.01,0.29-0.03c1.22-0.3,1.4-2.38,1.42-2.62
			c0.43-6.21-0.19-12.19-0.48-14.48c-0.1-0.82-0.23-1.54-0.4-2.22c-2.23-9.18-6.72-15.16-6.77-15.22
			c-6.93-10.16-16.81-15.36-18.24-16.08l-0.02-6.28l-0.77-2.07c0.71-1.2,0.46-2.58,0.33-3.06c0.93-1.09,0.72-2.78,0.61-3.34
			c1.18-1.06,0.92-2.81,0.8-3.41c1-0.88,0.79-2.26,0.49-2.99l0.81-1.95l6.54,1.23l2.21,2.78h-2.09v8.16h-0.49l0.01,3.58
			c0.7,2.28,15.38,12.24,21.66,16.41c1.17,0.78,2.26,1.68,3.23,2.66c6.07,6.14,18.74,20.97,18.86,21.11
			c11.76,13.36,28.44,17.34,30.12,17.71c0.12,0.21,0.44,0.78,1.32,2.3c0.24,0.42,0.67,0.7,1.16,0.75l2.18,0.23
			c0.37,0.03,0.74-0.06,1.05-0.28l2.19-1.58c6.44,1,144.26,3.6,209.82,4.79c6.15,16.61,22.3,27.75,40.25,27.75
			c23.62,0,42.84-18.95,42.84-42.25c0-9.16-2.89-17.8-8.38-25.1c1.64,0.93,2.2,1.1,2.24,1.11c5.68,1.89,8.92,2.05,9.87,0.47
			c2.05-3.38-8.08-13.3-9.24-14.42c-5.38-4.67-10.98-7.83-16.48-9.92l0.01-0.03c-0.05-0.01-0.1-0.02-0.16-0.03
			c-5.6-2.11-11.09-3.1-16.09-3.44c-0.01-0.01-0.03-0.02-0.04-0.02l-0.01,0.02c-3.88-0.25-7.46-0.11-10.59,0.21
			c-0.01,0-0.02-0.01-0.04-0.02l-0.01,0.02c-7.28,0.76-12.06,2.52-12.18,2.56c-21.03,8.13-29.6,28.46-30.49,30.71
			c-58.11-1.2-193.62-4.27-194.98-4.3c-19.79-1.52-29.68-12.12-29.77-12.23l-30.55-32.4l1.9-1.24c5.75-1.41,7.9-3.4,7.98-3.48
			c0.71-1.1,0.81-1.93,0.36-2.54c-1.89-2.52-13.53,0.6-15.71,1.22c-1.58-2.47-4.21-3.09-4.8-3.2l-17.33-20.55l2.8-14.56
			c2.95-0.16,3.19-1.15,3.21-1.36c0,0,1.95-8.91,2.92-13.44c0.38-1.77,0.23-3.16-0.45-4.12c-0.49-0.69-1.12-0.99-1.5-1.11
			l4.57-22.93c0.01,0,0.01,0,0.02,0c2.63,0,3.28-2.85,3.28-2.88l7.92-38.02c0.39-1.98,0.21-3.47-0.55-4.46
			c-0.49-0.64-1.1-0.9-1.48-1l23.43-116.8c1.93-0.87,3.65-1.87,5.08-3c3.16-2.49,5.05-6.43,5.05-10.56v-7.39l-0.26-0.03
			c-0.78-0.1-1.46,0.08-2.02,0.52c-1.18,0.94-1.37,2.73-1.38,2.81c-0.18,1.66-0.72,2.8-1.61,3.4c-0.79,0.53-1.65,0.5-2.08,0.43
			l18.47-92.08c0.92-4.21-0.81-6.8-0.89-6.91l0,0c0,0-0.01-0.01-0.01-0.02c-3.1-3.97-8.61-6.24-10.9-7.05
			c3.12-0.89,4.16-2.81,4.2-2.9l0.03-0.14v-2.87c0-2.89-7.46-3.36-9.05-3.43c-0.64-1.77-1.52-3.21-1.73-3.55l0.3-8.31
			c-0.01-0.11-0.23-1.18-0.97-2.48c-1.34-2.37-3.79-3.94-6.56-4.22c-2.75-0.27-5.35,0.75-7.12,2.8c-0.55,0.64-0.95,1.36-1.21,2.15
			l-1.12,8.43c-0.56,0.54-3.59,3.82-2.86,11.38c0.12,1.2,0.47,2.36,1.03,3.36c0.18,0.32,0.31,0.55,0.41,0.69
			c-0.07,0.49-0.22,1.85-0.01,3.1c-0.7,0.49-3.21,2.49-3.41,6.39c-0.06,0.78-0.54,7.55,1.25,9.14l-0.76,9.15
			c0,0.1,0.18,7.03,7.66,7.68c0,0,0.02,0,0.03,0c-0.41,0.83-1.18,2.62-0.56,3.49c0.24,0.34,0.63,0.49,1.18,0.46L59.1,330.97
			l-1.63,0.51l-0.83,3.29l1.19,1.19l-1.11,6.41l-1.69,0.23l-0.68,3.45l1.32,1.18l-9.06,46.43l-0.29,3.13
			c-0.34,0.29-1.19,1.27-0.73,3.56c-0.29,0.35-0.98,1.4-0.78,3.29c-0.21,0.35-0.86,1.53-0.57,2.96c-0.41,0.32-1.32,1.24-1.22,3.18
			l-1.13,1.21l-3.24,6.56c-1.67,0.1-14.41,1.17-25.45,10.23c-0.07,0.07-0.92,1.05-0.41,2.28c0.22,0.53,0.66,1.02,1.31,1.46
			C5.14,439.89,0,451.64,0,463.83z M13.63,428.21c10.73-8.8,23.1-9.93,24.98-10.05c0.75,3.25,0.91,7.86,0.71,13
			c-3.82,0.02-7.62,1.22-9.59,1.96c-0.96,0.36-1.96,0.52-2.99,0.45c-10.56-0.62-12.92-2.61-13.39-3.74
			C12.99,428.94,13.62,428.22,13.63,428.21z M64.25,437.34c9.91,6.61,15.82,17.61,15.82,29.53c0,19.57-15.92,35.49-35.49,35.49
			c-19.57,0-35.49-15.92-35.49-35.49c0-17.49,12.96-32.51,30.2-35.09c-0.57,13.15-3.34,29.54-4.45,35.68
			c-0.38,2.09-0.22,4.16,0.46,5.98c2.04,5.44,6.88,5.71,6.93,5.72c0.95,0.15,1.82,0.22,2.63,0.22c6.96,0,8.58-5.09,8.59-5.15
			l5.77-19.7l9.12-2.01c0.53-0.12,0.96-0.49,1.15-1.01c0.19-0.51,0.1-1.07-0.23-1.5c-2.01-2.6-4.28-4.85-6.75-6.71L64.25,437.34z
			 M62.33,443.93c2.35,1.8,4.52,3.96,6.45,6.45c0.2,0.26,0.26,0.61,0.14,0.92c-0.11,0.32-0.38,0.55-0.71,0.62l-8.8,1.94
			L62.33,443.93z M43.03,410.65v1.64l0.1,0.09c10.13,9.12,20.79,5.76,23.36,4.75l-2.2,8.29l-19-4.19l-0.13,0.59L64.14,426
			l-12.73,46.09c-0.4,1.45-1.19,2.71-2.21,3.69c1.68-3.86,3.19-9.58,3.81-12.03c0.3-1.21,0.23-2.4-0.2-3.44
			c-0.51-1.2-1.69-2.78-4.45-3.46c0,0-0.07-0.02-0.2-0.05c-2.03-0.44-4.09-0.03-5.8,1.17c-1.71,1.2-2.85,3.09-3.12,5.17
			c-0.52,4.01-0.91,9.05-0.18,12.07c-1.03-1.38-1.57-3.14-1.37-4.96l5.11-46.53c0.15-1.37,0.19-2.77,0.12-4.14l-0.42-8.33
			L43.03,410.65z M47.94,476.75c1.62-3.41,3.12-9.28,3.7-11.67c0.26-1.08,0.2-2.14-0.17-3.06c-0.43-1.07-1.45-2.48-3.83-3.1
			c0,0-0.06-0.02-0.17-0.04c-1.7-0.39-3.44-0.04-4.89,0.97c-1.53,1.07-2.54,2.78-2.78,4.68c-0.38,3.07-0.69,6.83-0.36,9.53
			c-0.45-3.17,0-7.89,0.38-10.85c0.25-1.91,1.29-3.64,2.87-4.75c1.57-1.1,3.47-1.49,5.33-1.08c0.11,0.02,0.17,0.04,0.18,0.04
			c2.03,0.5,3.39,1.55,4.05,3.11c0.38,0.92,0.44,1.97,0.17,3.06c-0.67,2.68-2.43,9.29-4.28,13.02
			C48.07,476.66,48.01,476.71,47.94,476.75z M43.68,477.86c-0.19-0.01-0.39-0.03-0.59-0.05c0,0-0.09-0.02-0.25-0.06
			c-0.64-0.16-1.23-0.41-1.78-0.73l-0.44-0.78c-1.17-2.26-0.64-8.26-0.22-11.63c0.22-1.73,1.14-3.28,2.53-4.26
			c1.31-0.92,2.87-1.23,4.41-0.88c0.09,0.02,0.15,0.04,0.15,0.04c1.72,0.44,2.87,1.36,3.42,2.74c0.33,0.81,0.38,1.74,0.15,2.69
			c-0.58,2.39-2.09,8.31-3.67,11.6l-0.56,0.78C45.84,477.73,44.77,477.92,43.68,477.86z M66.77,414.75l-0.11,1.66
			c-1.44,0.63-12.5,5-23.02-4.39v-1.61C52.87,415.86,64.58,414.97,66.77,414.75z M44.56,407.12c4.71,4.58,10.29,5.76,14.76,5.76
			c3.88,0,6.93-0.88,7.88-1.19c0.1,0.5,0.21,1.55-0.31,2.45c-1.48,0.17-13.81,1.35-23.26-4.42
			C43.57,408.13,44.24,407.38,44.56,407.12z M78.61,356.04c-1.24,0.39-11.43,3.26-23.2-4.29l0.18-0.92
			c6.5,4.11,12.52,5.13,16.87,5.13c3.12,0,5.38-0.52,6.32-0.78L78.61,356.04z M55.54,343.14l1.05-0.14l-0.77,3.56l-0.81-0.72
			L55.54,343.14z M57.98,331.96l0.96-0.3L58,335.27l-0.68-0.68L57.98,331.96z M111.26,64.35c0.73-0.01,1.97-0.13,3.35-0.71
			c-1.13,3.1-2.89,3.9-3.09,3.99c-0.5,0.09-0.84,0.04-0.98-0.17C110.13,66.9,110.74,65.32,111.26,64.35z M104.43,45.6l-0.02-0.06
			c-1.42-4.57,1.7-7.77,1.74-7.8c3.16-3.79,8.87-2.31,8.93-2.29c4.2,1.17,5.79,4.83,5.8,4.87c2.25,4.57-0.38,6.45-0.49,6.53
			l-0.12,0.08l-0.01,0.15l-0.74,10.3c-2.82,7.15-8.82,6.36-8.88,6.35c-6.96-0.6-7.12-6.8-7.12-7.06L104.43,45.6z M102.92,40.81
			c2.6-7.9,11.31-7.1,11.68-7.06c5.96,1.21,8.51,7.78,8.54,7.85l0.05,0.14l0.14,0.04c2.77,0.81,4.77,1.11,6.2,1.11
			c1.53,0,2.42-0.33,2.94-0.72c0.06-0.04,0.11-0.09,0.16-0.14v2.02c-0.66,0.47-4.17,2.85-11.99,5.89l0.19-2.69
			c0.56-0.47,2.78-2.72,0.58-7.18c-0.06-0.14-1.71-3.95-6.19-5.2c-0.25-0.07-6.14-1.6-9.53,2.47c-0.02,0.01-3.37,3.44-1.88,8.33
			l-0.08,0.96C103.07,45.46,102.91,42.91,102.92,40.81z M106.32,32.36l0.18-0.11l-0.03-0.12c0.21-0.54,1.71-4.15,5.28-5.06
			c0.18-0.05,0.37-0.07,0.56-0.07c1.25-0.02,5.52,0.23,7.74,4.55c0.4,0.77,0.79,1.43,1.2,2.01c0.64,0.91,1.52,2.27,2.08,3.62
			c0.02,0.07,0.06,0.17,0.15,0.27c0.41,0.41,1.56,0.58,3.43,0.51c0.02,0,3.37-0.05,4.93,1.48c0.45,0.44,0.69,0.98,0.76,1.59
			c-0.05,0.16-0.17,0.42-0.51,0.67c-0.74,0.53-2.81,1.17-8.45-0.46c-0.42-1-3.14-6.91-8.96-8.09c-0.12-0.01-8.4-0.79-11.73,5.94
			c0.01-0.26,0.03-0.51,0.04-0.71C103.23,34.27,106.29,32.38,106.32,32.36z M106.2,27.4c-0.79-4.56,0.48-7.2,0.49-7.23
			c2.4-7.04,9.54-5.86,9.61-5.85c5.74,1.16,7.76,6.64,7.95,7.21l-0.5,3.98c-0.62-0.35-2.09-1.14-3.95-1.85
			c-0.61-0.47-5.44-4.07-8.8-1.11c-0.37,0.1-0.73,0.22-1.07,0.37C108.14,23.72,106.89,25.23,106.2,27.4z M117.38,22.88
			c-1.58-0.43-3.26-0.69-4.86-0.56C114.16,21.64,116,22.2,117.38,22.88z M123.62,6.78l-0.28,7.5c-3.17-3.82-7.22-4.02-7.4-4.03
			c-3.8-0.31-6.77,1.61-8,2.58l1.02-7.71c0.21-0.66,0.58-1.31,1.08-1.89c1.46-1.7,3.54-2.63,5.79-2.63c0.27,0,0.54,0.01,0.81,0.04
			c2.57,0.25,4.85,1.71,6.09,3.91C123.41,5.76,123.62,6.77,123.62,6.78z M133.92,21.46c-0.64,0.61-3.45,2.76-9.11-0.17
			c-0.32-0.89-2.5-6.37-8.4-7.56c-0.08-0.01-7.72-1.27-10.28,6.21c-0.04,0.08-1.26,2.58-0.63,6.98c-0.27-0.69-0.44-1.42-0.51-2.18
			c-0.69-7.16,2.14-10.34,2.66-10.86l0.1-0.1c0.03-0.03,3.5-3.32,8.15-2.93c0.06,0,4.42,0.23,7.46,4.44c0.03,0.05,1.1,1.7,1.79,3.69
			l0.07,0.2l0.21,0.01C127.61,19.26,132.91,19.81,133.92,21.46z M129.37,27.57c-1.02-0.34-3.43-1.09-5.12-1.15l0.56-4.47
			c5.3,2.63,8.26,0.99,9.29,0.14v2.71C133.88,25.16,132.61,26.96,129.37,27.57z M140.89,35.34c0,0,0,0.01,0.01,0.01
			c0.07,0.1,0.05,0.2,0.03,0.24c-0.02,0.04-0.06,0.13-0.19,0.15c-0.88,0.14-2.23,0.24-3.7-0.06c-4.3-0.86-10.98-4.86-11.05-4.9
			c-3.18-2.68-3.01-3.41-2.95-3.53c0.3-0.53,2.66-0.16,5.04,0.54l-0.06,0.01l1.23,0.36C129.34,28.19,137.11,30.51,140.89,35.34z
			 M141.67,41.78l-6.79,33.86c-1.73,0.13-13.58,0.74-23.51-5.05l0.48-2.44c0.56-0.27,2.42-1.39,3.51-4.85
			c1.71-0.92,3.51-2.62,4.73-5.74l0.02-0.09l0.49-6.85c9.01-3.47,12.39-6.05,12.52-6.16l0.12-0.09v-2.99c0-0.1-0.02-0.19-0.03-0.28
			c0.02-0.11,0.03-0.18,0.03-0.19l-0.04,0c-0.09-0.73-0.4-1.36-0.93-1.88c-1.75-1.71-5.21-1.65-5.37-1.65
			c-2.36,0.1-2.89-0.24-2.97-0.32l-0.02-0.05c-0.58-1.41-1.49-2.83-2.16-3.77c-0.39-0.56-0.77-1.19-1.16-1.94
			c-2.38-4.63-6.96-4.89-8.29-4.88c-0.24,0-0.48,0.03-0.7,0.09c-2.94,0.75-4.55,3.11-5.27,4.49c-0.04-0.84,0.05-1.62,0.09-1.98
			l0.09-0.04l-0.05-0.23c0.54-2.63,1.78-4.4,3.69-5.24c4.88-2.15,12.65,2.19,13.5,2.68l-0.03,0.27c-0.53,0.05-0.93,0.21-1.11,0.52
			c-0.45,0.79,0.52,2.12,3.12,4.31c0.32,0.19,6.88,4.12,11.28,5.01c0.74,0.15,1.45,0.2,2.09,0.2c0.71,0,1.33-0.07,1.82-0.14
			c0.17-0.03,0.32-0.11,0.44-0.22C141.7,37.14,142.25,39.12,141.67,41.78z M121.17,147.06l2.5-12.49c0.51,0.08,1.57,0.13,2.54-0.53
			c1.04-0.7,1.68-1.99,1.88-3.84c0-0.01,0.08-0.68,0.39-1.36c0.02,2.37-0.26,8.42-3.6,9.99l0.26,0.55
			c4.28-2.01,3.99-10.17,3.92-11.4c0.06-0.06,0.12-0.13,0.19-0.18c0.36-0.29,0.79-0.42,1.3-0.41v6.84c0,3.94-1.8,7.71-4.82,10.08
			C124.43,145.34,122.9,146.26,121.17,147.06z M99.03,269.93l-2.13,10.24h-3.5c0.55-2.67,1-4.87,1.26-6.14
			c1.02-4.96,2.39-8.07,2.76-8.86c0.27,0.07,0.78,0.26,1.19,0.8C99.23,266.8,99.38,268.17,99.03,269.93z M88.34,310.34
			c-0.81-1.71-0.16-4.64-0.16-4.67c0-0.01,3.1-15.19,5.08-24.89h3.5l-5.66,27.18C91.09,308.05,90.54,310.38,88.34,310.34z
			 M83.19,333.98c-0.2,0.32-1.05,1.91-2.12,7.57c-0.09,0.39-2.21,9.8-1.99,12.05l-0.18,0.91c-1.37,0.43-11.51,3.19-23.2-4.31
			l0.59-3.01h0l0.93-4.28l0.01,0l1.21-6.98l1.16-4.48l0.01,0l0.03-0.17L111.24,71.2c7.78,4.47,16.66,5.12,21.09,5.12
			c1.13,0,1.96-0.04,2.42-0.07L96.95,264.73c-0.18,0.36-1.74,3.57-2.89,9.17c-1.21,5.86-6.46,31.63-6.46,31.63
			c-0.03,0.13-0.71,3.24,0.24,5.14L83.19,333.98z M79.67,353.29c-0.06-2.53,1.97-11.52,1.99-11.62c0.95-5.04,1.7-6.75,1.95-7.23
			c0.28,0.08,0.81,0.31,1.22,0.9c0.57,0.83,0.69,2.05,0.35,3.64c-0.98,4.54-2.93,13.47-2.93,13.47
			C82.2,352.67,81.62,353.17,79.67,353.29z M98.34,392.36l-1.61,0.34l-2.75-3.1C94.16,389.62,96.77,390.1,98.34,392.36z
			 M101.71,400.07l14.56,17.77c0.32,0.39,0.58,0.82,0.77,1.26c0.86,2,0.61,2.47,0.51,2.56c-0.15,0.15-0.57,0.08-1.12-0.17
			c-0.66-0.3-1.26-0.77-1.78-1.4l-13.28-16.03l0.11-3.85L101.71,400.07z M94.8,393.1l0.2,3.26l-14.03-16.94
			c-0.31-0.38-0.57-0.79-0.76-1.22c-0.82-1.83-0.51-2.11-0.5-2.12c0.15-0.12,0.87,0.04,2.24,1.02c0.32,0.23,0.62,0.5,0.89,0.8
			l13.21,14.93L94.8,393.1z M114.34,391.74c-0.82,0.62-6.06,4.21-18.72,4.86l-0.18-3.02l3.25-0.68l0.01,0.02l0.22-0.06
			c0.78-0.22,1.83-0.5,3.01-0.78v3.19h0.6v-3.34c0.3-0.07,0.61-0.14,0.92-0.21v3.22h0.6v-3.35c0.3-0.06,0.61-0.13,0.92-0.19v3.26
			h0.6v-3.37c0.31-0.06,0.61-0.11,0.92-0.16v3.09h0.6v-3.19c0.31-0.05,0.61-0.1,0.92-0.14v2.83h0.6v-2.91
			c0.31-0.04,0.62-0.07,0.92-0.1v2.57h0.6v-2.62c0.32-0.02,0.62-0.04,0.92-0.04v2.14h0.6v-2.14c0.33,0.01,0.64,0.03,0.92,0.06v1.44
			h0.6v-1.32c0.47,0.12,0.82,0.3,1.01,0.56C114.28,391.46,114.32,391.6,114.34,391.74z M103.81,397.94L103.81,397.94l-0.02,0.01
			l-0.28,0.18l0,0l-2.62,1.76l-0.08,2.99l-4.85-5.7c11.08-0.61,16.42-3.4,18.2-4.57c-0.07,0.16-0.16,0.32-0.27,0.5
			c-0.26,0.23-2.46,2.04-7.74,3.32l-0.09,0.04L103.81,397.94z M359.5,447.78c-0.38,0.89-1.25,3.1-1.85,5.84
			c-0.2,0.31-1.06,1.8-0.27,3.44c1.16,2.38,5.18,3.78,11.94,4.16l0,0l0.36,0.02l46.63,2.34c0.3,0.01,0.59,0.05,0.87,0.09
			c0.61,0.21,0.77,0.4,0.78,0.48c0,0.17-0.44,0.47-0.83,0.63c-2.09,1.22-22.83,1.9-51.43,2.24l-198.34-1.38
			c-23.69-1.51-31.03-11.27-31.79-12.38c-0.11-0.15-0.22-0.29-0.36-0.42c-8.58-8.63-34.48-44.15-37.41-48.17
			c-0.2-0.28-0.35-0.58-0.42-0.89c-0.17-0.71-0.07-0.87-0.06-0.87c0,0,0,0,0,0c0.07,0,0.34,0.15,0.54,0.31l15.23,17.74
			c0.05,0.06,0.1,0.13,0.16,0.19c4.12,4.31,6.67,5.92,7.8,4.94c1.43-1.25-0.62-6.28-2.7-8.91c-0.31-0.39-0.47-0.62-0.47-0.63
			l-14.72-17.41l0.78-0.53l30.62,32.48c0.1,0.1,10.13,10.88,30.19,12.42C166.12,443.51,301.26,446.58,359.5,447.78z M167.52,466.23
			l152.08,1.06c-67.56,0.13-145.58-0.67-146.94-0.68c-8.89-0.08-15.9-1.4-21.24-3.06c4.24,1.27,9.46,2.27,15.89,2.68
			C167.39,466.23,167.46,466.23,167.52,466.23z M379.95,461.14c0.47-1.1,1.5-1.85,2.71-1.93c0.69-0.04,1.38,0.14,1.95,0.52l2.7,1.78
			L379.95,461.14z M390.46,417.03c0.12-0.04,4.78-1.76,11.9-2.52c0.29,0.14,0.89,0.53,0.69,1.26c-0.13,0.48-0.58,0.84-1.13,0.92
			c-0.91,0.13-2.8,0.52-5.26,1.64c-3.88,1.77-6.96,2.43-7.83,1.68c-0.31-0.26-0.36-0.75-0.17-1.43l-0.58-0.17
			c-0.27,0.93-0.15,1.63,0.35,2.06c0.37,0.32,0.93,0.45,1.6,0.45c2.13,0,5.33-1.33,6.88-2.04c2.4-1.09,4.22-1.47,5.1-1.59
			c0.79-0.11,1.42-0.65,1.62-1.36c0.18-0.66-0.05-1.16-0.39-1.51c0.23-0.02,0.45-0.04,0.68-0.06v3.57h0.6v-3.62
			c0.58-0.04,1.16-0.08,1.77-0.1v3.36h0.6v-3.39c0.58-0.02,1.17-0.03,1.77-0.04v2.55h0.6v-2.55c0.58,0,1.17,0.01,1.77,0.03v1.43h0.6
			v-1.41c0.41,0.02,0.82,0.04,1.23,0.06c0.22,0.18,0.63,0.6,0.55,1.12c-0.1,0.61-0.96,1.82-5.64,3.07
			c-0.61,0.16-1.28,0.29-1.98,0.38c-2.6,0.33-11.6,1.73-18.48,5.8c-0.12,0.07-11.87,7.05-16.9,14.14c-0.97,1.37-2.1,2.47-3.35,3.27
			c-1.84,1.17-3.4,1.45-4.65,0.87c0.84-1.58,1.95-3.48,3.33-5.53l1.28,3.14l0.56-0.23l-1.43-3.51c0.3-0.43,0.61-0.87,0.94-1.32
			l1.32,3.23l0.56-0.23l-1.45-3.56c0.35-0.46,0.71-0.93,1.08-1.4l1.3,3.19l0.56-0.23l-1.43-3.5c0.34-0.41,0.68-0.83,1.04-1.24
			l1.32,3.24l0.56-0.23l-1.43-3.52c0.39-0.44,0.79-0.88,1.2-1.32l1.32,3.24l0.56-0.23l-1.43-3.5c0.33-0.35,0.68-0.7,1.03-1.05
			l1.32,3.25l0.56-0.23l-1.42-3.48c0.3-0.29,0.62-0.58,0.93-0.87l1.3,3.19l0.56-0.23l-1.39-3.4c0.39-0.35,0.79-0.7,1.2-1.05
			l1.31,3.21l0.56-0.23l-1.38-3.39c0.37-0.31,0.75-0.62,1.13-0.92l1.34,3.29l0.56-0.23l-1.4-3.44c0.4-0.31,0.8-0.61,1.22-0.91
			l1.33,3.27l0.56-0.23l-1.38-3.39c0.43-0.3,0.86-0.6,1.3-0.89l1.33,3.27l0.56-0.23l-1.38-3.37c0.4-0.26,0.8-0.51,1.21-0.76
			l1.37,3.35l0.56-0.23l-1.4-3.43c0.39-0.23,0.77-0.45,1.17-0.67l1.36,3.35l0.56-0.23l-1.39-3.4c0.39-0.21,0.78-0.42,1.18-0.61
			l1.38,3.39l0.56-0.23l-1.39-3.42C388.21,417.97,389.31,417.48,390.46,417.03z M447.69,429.86c-7.54-6.29-17.85-11.16-18.58-11.5
			c-0.41-0.36-0.54-0.55-0.59-0.64c0.11-0.03,0.33-0.02,0.54,0c5.45,2.06,11.02,5.19,16.35,9.83
			C446.03,428.14,446.83,428.94,447.69,429.86z M437.86,436.03c-0.14-0.11-16.34-13.01-41.36-5.38
			c-0.23,0.08-21.61,7.76-27.03,29.96c-8.21-0.45-10.81-2.32-11.54-3.82c-0.72-1.48,0.24-2.87,0.25-2.88l0.05-0.11
			c0.65-2.99,1.64-5.36,1.92-6.01l0.02,0l0.07-0.2c0.02-0.06,0.63-1.66,1.91-4.12c0.5,0.23,1.03,0.36,1.61,0.36
			c1.1,0,2.33-0.42,3.65-1.26c1.32-0.84,2.51-1.99,3.52-3.43c4.95-6.99,16.6-13.9,16.72-13.97c6.78-4.02,15.68-5.4,18.24-5.72
			c0.73-0.09,1.42-0.23,2.06-0.4c3.83-1.02,5.87-2.22,6.08-3.56c0.07-0.46-0.08-0.85-0.29-1.15c4.48,0.35,9.33,1.24,14.29,3
			c-0.03,0.03-0.06,0.06-0.08,0.1c-0.22,0.44,0.28,0.96,0.8,1.4l0.07,0.05c0.17,0.08,16.71,7.76,23.44,16.4
			c1.79,2.46,2.98,4.78,2.29,5.92c-0.53,0.88-2.56,1.46-9.18-0.74C445.35,440.47,443.73,439.97,437.86,436.03z M368.9,479.56
			c3.91,0.07,7.56,0.14,10.9,0.2l0.65,1.37c0.71,1.5,2.23,2.47,3.89,2.47c0.73,0,1.45-0.19,2.09-0.54l5.53-3.08
			c5.48,0.1,9.01,0.16,10.04,0.18c0.98,0.04,1.91,0.07,2.8,0.09l-13.83,9.41c-0.65,0.44-1.04,1.18-1.04,1.97
			c0,0.73,0.31,1.39,0.85,1.83c5.95,4.8,13.76,5.7,18.78,5.7c0.62,0,1.2-0.01,1.72-0.04c1.86-0.08,3.51-1.26,4.2-3
			c0.34-0.85,0.42-1.78,0.24-2.68l-2.71-13.41c4.29-0.39,6.71-1.17,8.06-1.89l2.68,13.83c0.17,0.86,0.73,1.59,1.52,1.97
			c0.38,0.18,0.79,0.27,1.2,0.27c0.47,0,0.95-0.12,1.37-0.36c8.81-4.91,11.99-12.68,13.1-16.87c0.35-1.3,0.13-2.71-0.61-3.86
			c-0.59-0.92-1.54-1.56-2.61-1.76l-13.59-2.47c-0.43-1.89-1.52-3.2-2.66-4.08c-1.41-1.1-3.19-1.73-5.15-1.83l-27.84-1.4l-3.55-2.35
			c-0.68-0.45-1.51-0.68-2.33-0.62c-1.52,0.1-2.8,1.08-3.31,2.5l-9.23-0.46c5.38-21.79,26.4-29.35,26.61-29.42
			c24.7-7.53,40.66,5.16,40.82,5.29c1.67,1.12,2.99,1.96,4.05,2.6c6.01,7.44,9.18,16.4,9.18,25.93c0,22.96-18.95,41.65-42.24,41.65
			C390.88,506.69,375.03,495.81,368.9,479.56z M437.63,471.95c0.91,0.17,1.72,0.71,2.21,1.49c0.64,1.01,0.84,2.24,0.53,3.38
			c-1.09,4.1-4.2,11.7-12.81,16.5c-0.63,0.35-1.38,0.38-2.02,0.07c-0.61-0.29-1.06-0.87-1.19-1.54l-1.13-5.84
			c0.42,0.26,0.93,0.36,1.43,0.36c0.58,0,1.14-0.13,1.54-0.27c7.58-3.63,10.65-12.55,11.15-14.2L437.63,471.95z M421.63,477.8
			c0.94-0.62,1.12-1.12,1.14-1.18c1.4-2.94,1.74-5.27,1.49-7.11l12.49,2.27c-0.54,1.74-3.54,10.28-10.79,13.75
			c-0.07,0.02-2.38,0.82-2.97-0.71L421.63,477.8z M406.9,480.27c2.11,0,3.93-0.07,5.51-0.2l1.77,8.76l-0.1,0.11
			c-1.14,1.18-2.69,1.89-4.34,2c-3.39,0.22-9.77,0.09-15.02-3.1l11.14-7.58C406.21,480.27,406.56,480.27,406.9,480.27z
			 M415.13,493.54c0.16,0.79,0.09,1.59-0.21,2.34c-0.6,1.53-2.04,2.55-3.66,2.62c-4.71,0.19-13.57-0.26-20.1-5.53
			c-0.39-0.32-0.63-0.82-0.63-1.36c0-0.59,0.29-1.14,0.78-1.47l2.84-1.94c4.45,2.8,9.72,3.4,13.41,3.4c0.82,0,1.56-0.03,2.2-0.07
			c1.72-0.11,3.32-0.83,4.55-2.01L415.13,493.54z M386.14,482.53c-0.55,0.31-1.17,0.47-1.8,0.47c-1.42,0-2.74-0.83-3.35-2.12
			l-0.52-1.1c3.88,0.07,7.34,0.13,10.29,0.18L386.14,482.53z M107.58,440.07L107.58,440.07l-23.74-28.18
			c-0.53-5.54,2.48-7.56,2.61-7.64c2.99-2.46,7.45-0.67,8.05-0.41c2.06,2.7,36.68,47.99,42.81,53.21
			c0.09,0.09,10.49,9.93,35.35,10.16c5.07,0.05,69.83,0.72,131.47,0.72c56.16,0,109.73-0.55,113.26-2.62
			c0.17-0.06,1.19-0.51,1.17-1.19c0-0.06-0.02-0.11-0.03-0.16c0.96,0.29,1.83,0.73,2.59,1.32c2.13,1.66,4.05,4.93,1.09,11.13
			c-0.03,0.07-1.69,3.98-20.18,3.14c-2.39-0.04-238.41-4.17-243.6-5.41l-0.13-0.03l-2.41,1.73c-0.18,0.13-0.4,0.19-0.63,0.17
			l-2.18-0.23c-0.29-0.03-0.55-0.2-0.7-0.45c-0.47-0.83-1.34-2.33-1.38-2.41l-0.07-0.13l-0.14-0.03
			c-0.18-0.04-17.73-3.69-29.92-17.54C120.77,455.11,113.7,446.83,107.58,440.07z M77.25,412.46h0.49v-0.25
			c0.72-2.68,3.95-3.05,4.82-3.1c0.12,0.98,0.35,1.98,0.71,3.01l0.05,0.1l17.56,20.85c-0.7-0.62-1.45-1.2-2.24-1.72
			c-9.94-6.61-20.73-14.26-21.4-16.05V412.46z M77.74,410.32c1.02-2.92,3.94-2.45,4.75-2.26c0,0.15,0.01,0.3,0.02,0.44
			c-0.85,0.05-3.47,0.38-4.77,2.28V410.32z M79.61,404.3l2.78,3.13c-1-0.18-3.32-0.35-4.65,1.56v-4.69H79.61z M77.41,400.44
			L77.41,400.44L77.41,400.44l-0.06-0.08l-0.01,0l-9.31-10.86l3.8-17.35l23.96,28.26c-0.83-0.44-1.91-0.9-3.15-1.17
			c-2.25-0.49-4.65,0-6.56,1.35c-1.94,1.37-3.22,3.5-3.52,5.83c-0.01,0.09-0.02,0.18-0.03,0.27l-2.11-2.38h0.05L77.41,400.44z
			 M70.1,399l-0.02,0.06c-1.71,0.13-15.4,0.96-22.83-5.46l8.04-41.21c6.49,4.1,12.51,5.12,16.85,5.12c3.16,0,5.43-0.53,6.35-0.79
			l-2.29,11.93l0.09,0.11l15.22,18.05l-8.21-9.28c-0.3-0.34-0.63-0.64-0.99-0.89c-2.24-1.6-2.79-1.15-2.97-1
			c-0.47,0.39-0.37,1.26,0.33,2.83c0.21,0.48,0.5,0.93,0.85,1.36l33.69,40.68c0.58,0.7,1.25,1.23,2,1.57c0.44,0.2,0.81,0.3,1.12,0.3
			c0.28,0,0.5-0.08,0.67-0.25c0.48-0.47,0.36-1.5-0.38-3.23c-0.21-0.5-0.5-0.97-0.86-1.41l-14.52-17.73l0.43-0.29l14.75,17.44
			c0,0,0.17,0.25,0.48,0.64c2.17,2.72,3.72,7.25,2.78,8.08c-0.29,0.25-1.65,0.65-6.97-4.9c-0.04-0.05-0.09-0.1-0.13-0.15l-0.07-0.09
			l-15.2-17.7c-0.21-0.19-0.85-0.67-1.29-0.39c-0.44,0.27-0.32,0.99-0.2,1.52c0.09,0.39,0.27,0.76,0.52,1.11
			c2.93,4.02,28.85,39.58,37.47,48.24c0.11,0.11,0.2,0.22,0.29,0.34c0.63,0.92,2.82,3.7,7.78,6.44c-3.46-1.85-5.09-3.39-5.13-3.43
			c-6.15-5.23-42.41-52.71-42.78-53.19l-0.11-0.09c-0.21-0.1-5.27-2.4-8.72,0.44c-0.09,0.06-2.48,1.64-2.87,5.73
			c-0.16-1.04-0.2-2.05-0.08-3.01c0.27-2.16,1.46-4.13,3.27-5.41c1.78-1.26,4-1.71,6.09-1.26c2.63,0.58,4.57,2.1,4.59,2.12
			l0.42-0.43L71.5,370.82l-4.13,18.84l9.02,10.52L70.1,399z M142.95,460.08c0.09,0.05,0.18,0.09,0.27,0.14
			C143.12,460.17,143.04,460.13,142.95,460.08z M69.11,401.38c-1.37,0.33-12.69,2.71-22.19-4.58l0.23-2.5
			c5.79,4.75,14.92,5.46,19.81,5.46c1.3,0,2.29-0.05,2.85-0.09L69.11,401.38z M68.69,404.24c-0.98,0.26-13.88,3.49-22.49-3.97
			c-0.38-1.85,0.15-2.66,0.42-2.94c5.64,4.3,11.89,5.29,16.42,5.29c3.08,0,5.36-0.45,6.11-0.62
			C69.31,402.47,69.56,403.56,68.69,404.24z M67.88,407.66c-0.78,0.3-11.69,4.26-22.46-4.11c-0.15-1.47,0.29-2.33,0.54-2.69
			c4.62,3.92,10.39,4.9,15,4.9c3.75,0,6.72-0.65,7.65-0.88C68.71,405.49,68.84,406.89,67.88,407.66z M67.25,411.03
			c-1,0.35-13.37,4.43-22.38-4.46c-0.25-1.05,0.12-1.98,0.35-2.42c5.5,4.2,11.03,5.3,15.28,5.3c3.67,0,6.38-0.81,7.31-1.13
			C67.9,408.94,67.98,410.25,67.25,411.03z M67.75,423.23l-3.52,12.07l0,0l-11.35,38.77c-0.07,0.24-1.88,5.87-10.58,4.5
			c-0.22-0.01-4.53-0.27-6.42-5.33c-0.64-1.72-0.79-3.67-0.43-5.66c1.58-8.73,6.5-38.05,3.73-49.69l2.76-5.59l0.37,7.3
			c0.07,1.35,0.03,2.71-0.12,4.05l-5.11,46.53c-0.41,3.74,2,7.25,5.61,8.16c0.2,0.05,0.31,0.07,0.31,0.07
			c0.23,0.03,0.44,0.05,0.65,0.06c0.14,0.01,0.28,0.01,0.42,0.01c3.62,0,6.91-2.56,7.92-6.23l12.82-46.4l2.4-9.03l0.03-0.02
			l0.06-0.96l0.31,0.82v6.5L67.75,423.23z M88.92,469.18c-0.03-0.04-1.72-2.54-2.35-6.78c-0.08-0.52-0.19-1.22-0.39-1.91
			c-0.55-1.97-2.25-7.14-6.03-12.65c-0.04-0.05-3.09-4.17-8.94-8.77c-0.04-0.03-3.24-2.47-6.34-3.85l3.42-11.71
			c2.23,1.17,11.23,6.27,17.66,15.71c0.05,0.07,4.47,5.95,6.67,15.01c0.16,0.66,0.29,1.36,0.39,2.16c0.29,2.27,0.9,8.2,0.48,14.36
			c-0.03,0.48-0.28,1.91-0.96,2.07C92.08,472.92,91.03,472.59,88.92,469.18z M0.6,463.83c0-12.07,5.12-23.72,14.04-31.99
			c2.22,1.21,6.25,1.99,12.07,2.34c0.16,0.01,0.32,0.01,0.48,0.01c0.95,0,1.87-0.17,2.76-0.5c0.74-0.28,1.76-0.63,2.93-0.95
			C18.6,437.65,8.49,451.3,8.49,466.88c0,19.9,16.19,36.1,36.1,36.1s36.1-16.19,36.1-36.1c0-12.19-6.07-23.43-16.25-30.15l0.27-0.93
			c3,1.36,6.11,3.72,6.14,3.74c5.78,4.54,8.79,8.6,8.82,8.64c3.72,5.43,5.39,10.53,5.94,12.47c0.19,0.66,0.3,1.33,0.37,1.83
			c0.66,4.39,2.37,6.92,2.45,7.02c0.24,0.39,0.48,0.75,0.71,1.08c-3.32,21.18-22.21,37.14-44,37.14
			C20.58,507.73,0.6,488.04,0.6,463.83z"/>
		<path class="st2" d="M105.66,57.04c0,3.27,2.66,5.93,5.93,5.93c3.27,0,5.93-2.66,5.93-5.93c0-3.27-2.66-5.93-5.93-5.93
			C108.32,51.11,105.66,53.77,105.66,57.04z M106.26,57.04c0-2.94,2.39-5.33,5.33-5.33c2.94,0,5.33,2.39,5.33,5.33
			c0,2.94-2.39,5.33-5.33,5.33C108.65,62.37,106.26,59.98,106.26,57.04z"/>
		<path class="st2" d="M122.17,82.27c1.46,0,2.64-1.19,2.64-2.64s-1.19-2.64-2.64-2.64s-2.64,1.19-2.64,2.64
			S120.71,82.27,122.17,82.27z M122.17,81.67c-1.12,0-2.04-0.91-2.04-2.04c0-1.12,0.91-2.04,2.04-2.04c1.12,0,2.04,0.91,2.04,2.04
			C124.21,80.76,123.29,81.67,122.17,81.67z"/>
		<path class="st2" d="M117.76,88.6c0,1.46,1.19,2.64,2.64,2.64c1.46,0,2.64-1.19,2.64-2.64s-1.19-2.64-2.64-2.64
			C118.95,85.96,117.76,87.15,117.76,88.6z M118.37,88.6c0-1.12,0.91-2.04,2.04-2.04c1.12,0,2.04,0.91,2.04,2.04
			s-0.91,2.04-2.04,2.04C119.28,90.64,118.37,89.73,118.37,88.6z"/>
		<path class="st2" d="M122.17,80.86c0.68,0,1.23-0.55,1.23-1.23c0-0.68-0.55-1.23-1.23-1.23s-1.23,0.55-1.23,1.23
			C120.94,80.31,121.49,80.86,122.17,80.86z M122.17,80.26c-0.34,0-0.62-0.28-0.62-0.62c0-0.34,0.28-0.62,0.62-0.62
			c0.34,0,0.62,0.28,0.62,0.62C122.79,79.98,122.51,80.26,122.17,80.26z"/>
		<path class="st2" d="M119.18,88.59c0,0.68,0.55,1.23,1.23,1.23c0.68,0,1.23-0.55,1.23-1.23c0-0.68-0.55-1.23-1.23-1.23
			C119.73,87.37,119.18,87.92,119.18,88.59z M119.78,88.59c0-0.34,0.28-0.62,0.62-0.62c0.34,0,0.62,0.28,0.62,0.62
			c0,0.34-0.28,0.62-0.62,0.62C120.06,89.22,119.78,88.94,119.78,88.59z"/>
		<path class="st2" d="M75.49,384.91c1.61,0,2.92-1.31,2.92-2.92c0-1.61-1.31-2.92-2.92-2.92c-1.61,0-2.92,1.31-2.92,2.92
			C72.57,383.6,73.88,384.91,75.49,384.91z M75.49,384.3c-1.28,0-2.31-1.04-2.31-2.31c0-1.28,1.04-2.31,2.31-2.31
			c1.28,0,2.31,1.04,2.31,2.31C77.8,383.27,76.76,384.3,75.49,384.3z"/>
		<path class="st2" d="M75.49,383.36c0.75,0,1.36-0.61,1.36-1.37c0-0.75-0.61-1.36-1.36-1.36s-1.37,0.61-1.37,1.36
			C74.12,382.75,74.74,383.36,75.49,383.36z M75.49,382.75c-0.42,0-0.76-0.34-0.76-0.76c0-0.42,0.34-0.76,0.76-0.76
			c0.42,0,0.76,0.34,0.76,0.76C76.25,382.41,75.91,382.75,75.49,382.75z"/>
		<path class="st2" d="M73.94,388.18c-1.61,0-2.92,1.31-2.92,2.92c0,1.61,1.31,2.92,2.92,2.92c1.61,0,2.92-1.31,2.92-2.92
			C76.85,389.49,75.55,388.18,73.94,388.18z M73.94,388.78c1.28,0,2.31,1.04,2.31,2.31c0,1.28-1.04,2.31-2.31,2.31
			c-1.28,0-2.31-1.04-2.31-2.31C71.63,389.82,72.66,388.78,73.94,388.78z"/>
		<path class="st2" d="M73.94,389.73c-0.75,0-1.36,0.61-1.36,1.36c0,0.75,0.61,1.36,1.36,1.36c0.75,0,1.37-0.61,1.37-1.36
			C75.3,390.34,74.69,389.73,73.94,389.73z M73.94,390.33c0.42,0,0.76,0.34,0.76,0.76c0,0.42-0.34,0.76-0.76,0.76
			c-0.42,0-0.76-0.34-0.76-0.76C73.18,390.67,73.52,390.33,73.94,390.33z"/>
		<path class="st2" d="M84.77,392.59c0,0.84,0.69,1.53,1.53,1.53c0.84,0,1.53-0.69,1.53-1.53c0-0.84-0.69-1.53-1.53-1.53
			C85.45,391.06,84.77,391.74,84.77,392.59z M85.37,392.59c0-0.51,0.42-0.93,0.93-0.93c0.51,0,0.93,0.42,0.93,0.93
			c0,0.51-0.42,0.93-0.93,0.93C85.79,393.51,85.37,393.1,85.37,392.59z"/>
		<path class="st2" d="M386.33,473.68c0,1.13,0.98,2.05,2.19,2.05h28.97c1.21,0,2.19-0.92,2.19-2.05c0-1.13-0.98-2.05-2.19-2.05
			h-28.97C387.31,471.63,386.33,472.55,386.33,473.68z M386.94,473.68c0-0.8,0.71-1.45,1.58-1.45h28.97c0.87,0,1.58,0.65,1.58,1.45
			c0,0.8-0.71,1.45-1.58,1.45h-28.97C387.65,475.13,386.94,474.48,386.94,473.68z"/>
		<path class="st2" d="M43.8,426.58l-3.22,26.56c-0.05,0.4,0.03,0.8,0.22,1.16l0.52,0.96c0.39,0.71,1.19,1.1,1.98,0.98l4.25-0.66
			c0.29-0.04,0.58,0.01,0.83,0.14l3.2,1.73c0.29,0.15,0.6,0.23,0.91,0.23c0.26,0,0.51-0.05,0.76-0.16c0.54-0.23,0.94-0.69,1.1-1.26
			l7.28-26.34c0.12-0.43,0.08-0.88-0.1-1.29l-0.52-1.19c-0.25-0.56-0.75-0.97-1.35-1.1c-12.3-2.67-12.38-2.61-12.55-2.47
			c-0.11,0.07-1.65,0.89-2.31,1.24C44.25,425.4,43.87,425.95,43.8,426.58z M41.17,453.21l3.22-26.56c0.05-0.43,0.31-0.8,0.69-1
			c1.61-0.85,2.12-1.13,2.3-1.24c0.46,0.05,3.02,0.54,12.15,2.52c0.41,0.09,0.76,0.37,0.93,0.75l0.52,1.19
			c0.12,0.28,0.15,0.59,0.06,0.88l-7.28,26.34c-0.11,0.39-0.38,0.7-0.75,0.86c-0.37,0.16-0.79,0.14-1.14-0.05l-3.2-1.73
			c-0.37-0.2-0.8-0.27-1.21-0.21l-4.25,0.66c-0.54,0.09-1.09-0.18-1.36-0.67l-0.52-0.96C41.19,453.76,41.14,453.49,41.17,453.21z"/>
		<path class="st2" d="M78.71,413.25c0,1.15,0.94,2.09,2.09,2.09s2.09-0.94,2.09-2.09c0-1.15-0.94-2.09-2.09-2.09
			S78.71,412.1,78.71,413.25z M79.32,413.25c0-0.82,0.67-1.49,1.49-1.49s1.49,0.67,1.49,1.49c0,0.82-0.67,1.49-1.49,1.49
			S79.32,414.07,79.32,413.25z"/>
		<path class="st2" d="M89,411.38l19.16,23.07c0.39,0.47,0.96,0.74,1.6,0.76c0.03,0,0.06,0,0.09,0c0.6,0,1.19-0.22,1.67-0.62
			c0.51-0.42,0.84-0.99,0.93-1.61c0.1-0.63-0.07-1.24-0.45-1.71L92.83,408.2c-0.39-0.47-0.96-0.74-1.6-0.76
			c-0.64-0.02-1.25,0.2-1.76,0.62c-0.51,0.42-0.84,0.99-0.93,1.61C88.45,410.3,88.61,410.91,89,411.38z M89.15,409.76
			c0.07-0.47,0.33-0.92,0.72-1.24c0.37-0.31,0.83-0.48,1.29-0.48c0.02,0,0.04,0,0.07,0c0.47,0.02,0.88,0.21,1.15,0.54l19.16,23.07
			c0.28,0.33,0.39,0.77,0.32,1.23c-0.07,0.47-0.33,0.91-0.72,1.24c-0.39,0.33-0.88,0.49-1.35,0.48c-0.47-0.02-0.88-0.21-1.15-0.54
			l-19.16-23.07C89.19,410.66,89.08,410.22,89.15,409.76z"/>
		<path class="st2" d="M69.21,455.74c0,1.29,1.05,2.34,2.34,2.34s2.34-1.05,2.34-2.34c0-1.29-1.05-2.34-2.34-2.34
			S69.21,454.45,69.21,455.74z M69.81,455.74c0-0.96,0.78-1.74,1.74-1.74c0.96,0,1.74,0.78,1.74,1.74c0,0.96-0.78,1.74-1.74,1.74
			C70.59,457.48,69.81,456.7,69.81,455.74z"/>
		<path class="st2" d="M64.3,489c0,1.29,1.05,2.34,2.34,2.34s2.34-1.05,2.34-2.34c0-1.29-1.05-2.34-2.34-2.34S64.3,487.71,64.3,489z
			 M64.91,489c0-0.96,0.78-1.74,1.74-1.74c0.96,0,1.74,0.78,1.74,1.74c0,0.96-0.78,1.74-1.74,1.74
			C65.69,490.73,64.91,489.95,64.91,489z"/>
		<path class="st2" d="M29.01,494.51c0,1.29,1.05,2.34,2.34,2.34c1.29,0,2.34-1.05,2.34-2.34c0-1.29-1.05-2.34-2.34-2.34
			C30.06,492.17,29.01,493.22,29.01,494.51z M29.62,494.51c0-0.96,0.78-1.74,1.74-1.74c0.96,0,1.74,0.78,1.74,1.74
			c0,0.96-0.78,1.74-1.74,1.74C30.39,496.24,29.62,495.47,29.62,494.51z"/>
		<path class="st2" d="M14.14,462.41c-1.29,0-2.34,1.05-2.34,2.34c0,1.29,1.05,2.34,2.34,2.34s2.34-1.05,2.34-2.34
			C16.48,463.46,15.43,462.41,14.14,462.41z M15.88,464.74c0,0.96-0.78,1.74-1.74,1.74s-1.74-0.78-1.74-1.74
			c0-0.96,0.78-1.74,1.74-1.74S15.88,463.79,15.88,464.74z"/>
		<path class="st2" d="M70.61,455.74c0,0.52,0.42,0.93,0.93,0.93c0.51,0,0.93-0.42,0.93-0.93c0-0.51-0.42-0.93-0.93-0.93
			C71.03,454.81,70.61,455.23,70.61,455.74z M71.22,455.74c0-0.18,0.15-0.33,0.33-0.33c0.18,0,0.33,0.15,0.33,0.33
			s-0.15,0.33-0.33,0.33C71.37,456.07,71.22,455.92,71.22,455.74z"/>
		<path class="st2" d="M65.71,489c0,0.52,0.42,0.93,0.93,0.93c0.51,0,0.93-0.42,0.93-0.93s-0.42-0.93-0.93-0.93
			C66.13,488.06,65.71,488.48,65.71,489z M66.31,489c0-0.18,0.15-0.33,0.33-0.33c0.18,0,0.33,0.15,0.33,0.33
			c0,0.18-0.15,0.33-0.33,0.33C66.46,489.33,66.31,489.18,66.31,489z"/>
		<path class="st2" d="M30.42,494.51c0,0.52,0.42,0.93,0.93,0.93c0.51,0,0.93-0.42,0.93-0.93s-0.42-0.93-0.93-0.93
			C30.84,493.57,30.42,493.99,30.42,494.51z M31.02,494.51c0-0.18,0.15-0.33,0.33-0.33c0.18,0,0.33,0.15,0.33,0.33
			s-0.15,0.33-0.33,0.33C31.17,494.84,31.02,494.69,31.02,494.51z"/>
		<path class="st2" d="M15.08,464.74c0-0.52-0.42-0.93-0.93-0.93c-0.52,0-0.93,0.42-0.93,0.93s0.42,0.93,0.93,0.93
			C14.66,465.68,15.08,465.26,15.08,464.74z M14.47,464.74c0,0.18-0.15,0.33-0.33,0.33s-0.33-0.15-0.33-0.33s0.15-0.33,0.33-0.33
			S14.47,464.56,14.47,464.74z"/>
		<path class="st2" d="M72.76,461.06l-15.23,4.59c-0.49,0.15-0.87,0.51-1.04,1c-0.17,0.49-0.09,1.01,0.21,1.43L68.2,484.2
			c0.3,0.42,0.78,0.66,1.29,0.66c0.03,0,0.06,0,0.09,0c0.54-0.03,1.03-0.33,1.29-0.8c5.67-10.13,4.61-18.65,3.9-21.84
			c-0.1-0.43-0.37-0.8-0.74-1.02C73.64,460.98,73.18,460.93,72.76,461.06z M57.71,466.22l15.23-4.59c0.09-0.03,0.19-0.04,0.29-0.04
			c0.17,0,0.34,0.04,0.49,0.13c0.24,0.14,0.4,0.36,0.46,0.63c0.7,3.13,1.73,11.47-3.83,21.41c-0.16,0.29-0.46,0.47-0.8,0.49
			c-0.34,0.02-0.66-0.14-0.85-0.41L57.2,467.72c-0.18-0.26-0.23-0.58-0.13-0.88C57.17,466.54,57.41,466.32,57.71,466.22z"/>
		<path class="st2" d="M33.53,463.51c0.4-0.33,0.61-0.81,0.58-1.32l-1.24-19.77c-0.03-0.54-0.34-1.03-0.82-1.29
			c-0.48-0.26-1.04-0.26-1.52,0c-10.16,5.61-13.76,13.4-14.84,16.49c-0.14,0.41-0.11,0.87,0.09,1.26c0.2,0.39,0.56,0.67,0.99,0.79
			l15.35,4.14c0.14,0.04,0.28,0.06,0.42,0.06C32.9,463.87,33.24,463.75,33.53,463.51z M33.51,462.23c0.02,0.32-0.11,0.62-0.36,0.82
			c-0.25,0.2-0.57,0.27-0.87,0.19l-15.35-4.14c-0.27-0.07-0.48-0.25-0.61-0.49c-0.13-0.24-0.15-0.52-0.06-0.77
			c1.05-3.02,4.58-10.65,14.56-16.16c0.29-0.16,0.64-0.16,0.93,0c0.3,0.16,0.49,0.46,0.51,0.8L33.51,462.23z"/>
		<path class="st2" d="M60.17,492.82l-9.16-13c-0.3-0.42-0.76-0.67-1.28-0.67c0,0-0.01,0-0.01,0c-0.51,0-0.97,0.23-1.28,0.65
			l-11.68,15.99c-0.32,0.44-0.39,1.01-0.19,1.51c0.2,0.51,0.63,0.87,1.17,0.97c2.48,0.48,4.79,0.67,6.92,0.67
			c7.62,0,12.84-2.54,15.04-3.87c0.38-0.23,0.64-0.6,0.73-1.03C60.52,493.63,60.42,493.18,60.17,492.82z M59.84,493.93
			c-0.06,0.27-0.22,0.49-0.45,0.63c-2.74,1.65-10.34,5.26-21.53,3.12c-0.33-0.06-0.59-0.29-0.72-0.6c-0.12-0.32-0.08-0.67,0.12-0.94
			l11.68-15.99c0.19-0.25,0.47-0.4,0.79-0.4c0,0,0.01,0,0.01,0c0.32,0,0.61,0.15,0.79,0.41l9.16,13
			C59.84,493.39,59.89,493.66,59.84,493.93z"/>
		<path class="st2" d="M35.89,477.68c0.29-0.42,0.36-0.94,0.19-1.43c-0.17-0.48-0.56-0.84-1.05-0.99l-19.05-5.43
			c-0.52-0.15-1.08-0.02-1.49,0.34c-0.41,0.36-0.6,0.9-0.51,1.43c1.89,11.45,8.04,17.45,10.59,19.5c0.28,0.23,0.63,0.35,0.98,0.35
			c0.08,0,0.15,0,0.23-0.02c0.43-0.06,0.82-0.31,1.07-0.67L35.89,477.68z M35.39,477.33l-9.03,13.09c-0.16,0.23-0.39,0.37-0.66,0.41
			c-0.27,0.04-0.54-0.03-0.75-0.2c-2.5-2-8.51-7.88-10.37-19.12c-0.05-0.33,0.06-0.66,0.31-0.88c0.18-0.16,0.42-0.25,0.65-0.25
			c0.09,0,0.18,0.01,0.27,0.04l19.05,5.43c0.31,0.09,0.54,0.31,0.65,0.61C35.62,476.75,35.57,477.07,35.39,477.33z"/>
		<path class="st2" d="M440.13,463.14c0.29-0.3,0.42-0.71,0.34-1.12c-1.36-7.88-6.63-12.67-11.01-15.37c0,0-0.01-0.01-0.01-0.01l0,0
			c-1.78-1.09-3.41-1.84-4.57-2.31c-1.55-0.62-3.3-0.17-4.35,1.12c-2.62,3.2-5.26,8.94-6.28,11.26c-0.25,0.58-0.16,1.23,0.25,1.72
			c1.11,1.32,2.66,2.17,4.37,2.4l20.15,2.7c0.06,0.01,0.12,0.01,0.18,0.01C439.55,463.54,439.88,463.4,440.13,463.14z
			 M429.09,447.13c0.49,0.48,4.71,4.67,6.45,9.1h-13.53c-0.17-0.81-1-3.19-4.7-4.52c1.1-2.09,2.4-4.32,3.68-5.89
			c0.62-0.76,1.53-1.17,2.46-1.17c0.4,0,0.81,0.08,1.2,0.23C425.79,445.35,427.37,446.08,429.09,447.13z M439.88,462.12
			c0.04,0.22-0.03,0.44-0.19,0.6c-0.15,0.16-0.37,0.24-0.59,0.21l-20.15-2.7c-1.56-0.21-2.98-0.99-3.99-2.19
			c-0.26-0.31-0.32-0.72-0.16-1.08v0c0.37-0.85,1.19-2.67,2.23-4.7c4.1,1.45,4.41,4.19,4.42,4.31l0.02,0.27l0.28,0h14.65l-0.14-0.4
			c-1.07-3.01-3.27-5.9-4.88-7.75C435.06,451.47,438.78,455.77,439.88,462.12z"/>
		<path class="st2" d="M412.81,442.24c0.12-0.23,0.08-0.51-0.12-0.68c-1.06-0.94-2.38-1.48-3.73-1.5
			c-10.94-0.19-18.41,6.78-20.44,8.93c-0.46,0.49-0.72,1.13-0.72,1.8c0,0.81,0.36,1.56,1,2.06l9.63,7.56
			c0.49,0.38,1.08,0.58,1.69,0.58c0.25,0,0.51-0.04,0.76-0.11c1.32-0.39,2.46-1.3,3.13-2.51L412.81,442.24z M409.13,440.68
			l-4.98,11.5l-9.22-0.21l-4.69-3.81c3.02-2.77,9.65-7.68,18.72-7.5C409.02,440.66,409.07,440.67,409.13,440.68z M412.26,441.98
			l-8.79,16.09c-0.59,1.07-1.59,1.88-2.77,2.22c-0.66,0.19-1.37,0.05-1.9-0.37l-9.63-7.56c-0.49-0.38-0.77-0.96-0.77-1.58
			c0-0.52,0.2-1.01,0.55-1.39c0.21-0.22,0.5-0.51,0.82-0.82l4.92,4l9.83,0.22l5.22-12.05C410.66,440.92,411.53,441.34,412.26,441.98
			z"/>
		<path class="st2" d="M188.57,459.77L188.57,459.77c0-0.05-0.01-0.1-0.04-0.14C188.56,459.67,188.57,459.72,188.57,459.77z"/>
	</g>
</g>
</svg>
