<?xml version="1.0" encoding="utf-8"?>
<!-- Generator: Adobe Illustrator 23.0.0, SVG Export Plug-In . SVG Version: 6.00 Build 0)  -->
<svg version="1.1" id="레이어_1" xmlns="http://www.w3.org/2000/svg" xmlns:xlink="http://www.w3.org/1999/xlink" x="0px"
	 y="0px" viewBox="0 0 505.13 563.92" style="enable-background:new 0 0 505.13 563.92;" xml:space="preserve">
<style type="text/css">
	.st0{fill:#FFFFFF;}
	.st1{fill:#282828;}
</style>
<g>
	<path class="st0" d="M489.48,478.7c0.72-0.49,1.2-1.02,1.45-1.61c0.57-1.37-0.38-2.45-0.46-2.53
		c-12.25-10.05-26.38-11.23-28.23-11.35l-3.59-7.28l-1.25-1.35c0.11-2.16-0.89-3.18-1.35-3.52c0.31-1.58-0.4-2.9-0.63-3.28
		c0.22-2.1-0.54-3.26-0.86-3.65c0.51-2.54-0.43-3.63-0.81-3.95l-0.33-3.48l-10.05-51.5l1.47-1.3l-0.75-3.84l-1.88-0.26l-1.24-7.11
		l1.32-1.32l-0.92-3.65l-1.8-0.57l-57.8-291.41c0.6,0.03,1.05-0.15,1.31-0.52c0.68-0.96-0.16-2.95-0.62-3.87c0.02,0,0.03,0,0.03,0
		c8.3-0.72,8.5-8.41,8.5-8.52l-0.85-10.15c1.98-1.76,1.46-9.28,1.38-10.15c-0.22-4.32-3.01-6.54-3.79-7.08
		c0.24-1.38,0.07-2.9-0.01-3.44c0.12-0.16,0.26-0.41,0.46-0.77c0.62-1.11,1.01-2.4,1.14-3.73c0.81-8.38-2.55-12.02-3.18-12.62
		l-1.24-9.36c-0.28-0.87-0.73-1.67-1.34-2.38c-1.95-2.28-4.84-3.41-7.89-3.11c-3.07,0.3-5.79,2.05-7.27,4.68
		c-0.82,1.44-1.06,2.62-1.08,2.75l0.34,9.22c-0.24,0.38-1.22,1.98-1.93,3.94c-1.76,0.07-10.04,0.6-10.04,3.8v3.19l0.04,0.16
		c0.05,0.1,1.2,2.22,4.66,3.21c-2.54,0.9-8.66,3.42-12.1,7.82c-0.01,0.01-0.01,0.02-0.01,0.02h-0.01c-0.08,0.12-2,3-0.98,7.67
		l20.49,102.14c-0.48,0.07-1.43,0.11-2.31-0.48c-0.99-0.67-1.6-1.94-1.8-3.77c-0.01-0.08-0.22-2.08-1.53-3.12
		c-0.62-0.49-1.37-0.68-2.24-0.58l-0.29,0.04v8.19c0,4.58,2.09,8.95,5.6,11.71c1.59,1.25,3.49,2.37,5.63,3.34l1.47,7.28l-3.95-5.84
		l-0.13-0.12c-0.05-0.03-1.33-0.77-3.19-0.26c-2.04,0.56-3.93,2.38-5.58,5.41c-0.62,1.14-1.26,2.22-1.89,3.3
		c-3.55,6.07-6.89,11.81-5.41,21.71c1.7,11.41,13.51,68.54,13.65,69.17c0.1,0.3,2.56,7.49,5.07,10.79
		c2.48,3.26,11.27,11.95,11.69,12.36c0.05,0.03,3.06,2.22,6.35,2.22c1.7,0,3.46-0.59,4.92-2.36l0.09-0.12v-8.47l2.91,14.5
		c-0.41,0.11-1.1,0.39-1.64,1.1c-0.83,1.1-1.04,2.75-0.6,4.95l8.79,42.17c0.01,0.03,0.72,3.2,3.64,3.2c0.01,0,0.02,0,0.02,0
		l5.06,25.43c-0.41,0.14-1.12,0.46-1.66,1.24c-0.76,1.08-0.92,2.61-0.5,4.58c1.08,5.02,3.24,14.91,3.24,14.91
		c0.02,0.22,0.29,1.32,3.56,1.5l3.1,16.16l-19.22,22.79c-0.66,0.12-3.58,0.82-5.33,3.56c-2.42-0.68-15.33-4.15-17.43-1.36
		c-0.5,0.68-0.39,1.61,0.4,2.82c0.1,0.1,2.48,2.3,8.85,3.86l2.11,1.38l-33.9,35.95c-0.11,0.12-11.08,11.88-33.03,13.56
		c-1.51,0.03-151.84,3.44-216.3,4.78c-0.99-2.5-10.5-25.06-33.82-34.08c-0.13-0.05-5.44-1.99-13.51-2.84l-0.01-0.02
		c-0.02,0-0.02,0.01-0.04,0.02c-3.47-0.36-7.44-0.52-11.75-0.24l-0.01-0.02c-0.01,0.01-0.02,0.02-0.04,0.03
		c-5.55,0.37-11.64,1.47-17.85,3.81c-0.07,0.01-0.12,0.02-0.17,0.02l0.01,0.03c-6.09,2.32-12.32,5.82-18.28,11
		c-1.28,1.24-12.52,12.25-10.24,16c1.05,1.75,4.64,1.57,10.94-0.52c0.05-0.02,0.68-0.21,2.5-1.24c-6.09,8.1-9.3,17.69-9.3,27.84
		c0,25.84,21.31,46.87,47.53,46.87c19.9,0,37.82-12.36,44.64-30.78c72.73-1.32,225.61-4.21,232.76-5.31l2.43,1.75
		c0.34,0.25,0.75,0.35,1.16,0.31l2.41-0.26c0.54-0.06,1.02-0.37,1.28-0.84c0.97-1.7,1.33-2.32,1.47-2.55
		c1.87-0.41,20.37-4.83,33.42-19.65c0.14-0.16,14.2-16.61,20.93-23.42c1.08-1.09,2.28-2.08,3.58-2.95
		c6.97-4.63,23.26-15.67,24.03-18.2l0.02-3.97h-0.54v-9.06h-2.32l2.45-3.08l7.26-1.37l0.89,2.17c-0.33,0.82-0.56,2.34,0.54,3.32
		c-0.14,0.66-0.42,2.6,0.89,3.78c-0.12,0.63-0.35,2.5,0.68,3.71c-0.13,0.54-0.41,2.06,0.37,3.4l-0.85,2.29l-0.02,6.97
		c-1.58,0.79-12.54,6.56-20.23,17.84c-0.06,0.06-5.03,6.7-7.51,16.88c-0.18,0.75-0.33,1.56-0.44,2.46c-0.32,2.54-1,9.17-0.53,16.06
		c0.02,0.26,0.21,2.57,1.57,2.91c0.1,0.02,0.21,0.03,0.32,0.03c0.86,0,1.87-0.79,3.07-2.39c1.93,11.25,7.78,21.54,16.58,29.06
		c9.09,7.77,20.73,12.05,32.78,12.05c27.6,0,50.06-22.14,50.06-49.37C505.12,501.03,499.42,487.99,489.48,478.7z M50.59,544.62
		c-1.84-0.12-3.55-0.91-4.82-2.22l-0.12-0.12l1.96-9.73c1.76,0.14,3.78,0.22,6.12,0.22c0.38,0,0.77,0,1.16-0.01l12.36,8.42
		C61.43,544.72,54.36,544.86,50.59,544.62z M36.97,506.12h-15c1.93-4.92,6.61-9.57,7.15-10.1c1.91-1.17,3.66-1.98,4.92-2.49
		c0.44-0.17,0.88-0.26,1.33-0.26c1.04,0,2.04,0.45,2.73,1.29c1.42,1.74,2.87,4.21,4.08,6.53C38.08,502.59,37.17,505.22,36.97,506.12
		z M72.22,497.16l-5.2,4.23l-10.23,0.23l-5.53-12.76c0.07,0,0.12-0.02,0.19-0.02C61.52,488.65,68.87,494.09,72.22,497.16z
		 M78.46,510c0.63-0.42,1.4-0.62,2.17-0.58c1.34,0.09,2.49,0.92,3.01,2.14l-8.17,0.41L78.46,510z M32.59,538.63
		c-8.04-3.85-11.36-13.32-11.97-15.25l13.85-2.52c-0.29,2.03,0.09,4.62,1.65,7.88c0.02,0.07,0.23,0.63,1.27,1.31l-1.51,7.79
		C35.23,539.54,32.67,538.65,32.59,538.63z"/>
	<g>
		<path class="st1" d="M489.48,478.69c0.72-0.48,1.21-1.02,1.45-1.62c0.56-1.37-0.38-2.45-0.46-2.53
			c-12.25-10.05-26.38-11.23-28.23-11.35l-3.59-7.28l-1.25-1.35c0.11-2.16-0.89-3.18-1.35-3.53c0.32-1.58-0.39-2.89-0.63-3.28
			c0.22-2.1-0.54-3.26-0.86-3.65c0.51-2.54-0.43-3.63-0.81-3.95l-0.33-3.47l-10.05-51.5l1.47-1.31l-0.75-3.83l-1.88-0.25l-1.23-7.11
			l1.32-1.32l-0.92-3.65l-1.8-0.57l-57.8-291.42c0.6,0.03,1.04-0.14,1.3-0.52c0.69-0.96-0.16-2.95-0.62-3.87c0.02,0,0.03,0,0.04,0
			c8.3-0.72,8.49-8.41,8.49-8.52l-0.85-10.15c1.98-1.77,1.46-9.28,1.39-10.14c-0.23-4.33-3.01-6.55-3.79-7.09
			c0.24-1.39,0.07-2.9-0.01-3.44c0.12-0.16,0.26-0.41,0.46-0.77c0.62-1.11,1.02-2.4,1.14-3.73c0.81-8.38-2.55-12.02-3.18-12.62
			l-1.24-9.35c-0.28-0.88-0.73-1.68-1.34-2.39c-1.96-2.27-4.84-3.41-7.89-3.11c-3.07,0.3-5.79,2.05-7.27,4.68
			c-0.81,1.44-1.06,2.62-1.07,2.75l0.33,9.22c-0.24,0.38-1.21,1.97-1.92,3.94c-1.76,0.07-10.04,0.59-10.04,3.8v3.19l0.04,0.16
			c0.05,0.1,1.21,2.23,4.66,3.22c-2.55,0.9-8.66,3.41-12.1,7.82c0,0.01-0.01,0.01-0.01,0.02l0,0c-0.08,0.12-2.01,2.99-0.98,7.66
			l20.49,102.15c-0.47,0.07-1.43,0.1-2.31-0.48c-0.99-0.66-1.59-1.93-1.79-3.77c-0.01-0.08-0.22-2.08-1.53-3.12
			c-0.62-0.49-1.37-0.68-2.24-0.58l-0.29,0.04v8.2c0,4.58,2.09,8.95,5.6,11.71c1.59,1.25,3.49,2.37,5.64,3.33l1.46,7.29l-3.95-5.84
			l-0.13-0.12c-0.05-0.03-1.34-0.77-3.19-0.26c-2.05,0.56-3.93,2.38-5.59,5.41c-0.62,1.13-1.26,2.22-1.89,3.3
			c-3.54,6.07-6.89,11.8-5.41,21.71c1.7,11.4,13.51,68.54,13.64,69.16c0.1,0.3,2.57,7.5,5.07,10.79
			c2.48,3.26,11.27,11.95,11.69,12.36c0.05,0.03,3.06,2.23,6.34,2.22c1.7,0,3.46-0.59,4.93-2.36l0.09-0.11v-8.47l2.91,14.5
			c-0.41,0.11-1.09,0.39-1.64,1.1c-0.83,1.09-1.04,2.76-0.61,4.95l8.79,42.18c0.01,0.03,0.72,3.19,3.64,3.19c0.01,0,0.02,0,0.02,0
			l5.07,25.43c-0.41,0.13-1.12,0.46-1.66,1.23c-0.75,1.08-0.92,2.61-0.5,4.58c1.08,5.02,3.24,14.91,3.24,14.91
			c0.02,0.22,0.29,1.32,3.56,1.5l3.11,16.15l-19.23,22.79c-0.66,0.12-3.58,0.82-5.33,3.55c-2.42-0.68-15.33-4.15-17.42-1.35
			c-0.5,0.67-0.39,1.6,0.39,2.82c0.1,0.09,2.48,2.3,8.86,3.86l2.1,1.38l-33.89,35.95c-0.11,0.12-11.08,11.87-33.03,13.56
			c-1.51,0.03-151.84,3.45-216.3,4.77c-0.99-2.5-10.5-25.05-33.82-34.07c-0.13-0.05-5.43-2-13.51-2.84l-0.01-0.02
			c-0.01,0-0.03,0.01-0.04,0.02c-3.47-0.36-7.45-0.52-11.75-0.23l-0.02-0.02c0,0-0.02,0.02-0.04,0.03
			c-5.55,0.37-11.63,1.47-17.85,3.81c-0.07,0.01-0.13,0.02-0.18,0.03l0.01,0.04c-6.1,2.32-12.32,5.82-18.28,11
			c-1.29,1.24-12.52,12.25-10.25,16c1.06,1.75,4.64,1.57,10.95-0.52c0.04-0.01,0.67-0.2,2.49-1.23c-6.09,8.1-9.3,17.68-9.3,27.84
			c0,25.84,21.32,46.87,47.52,46.87c19.91,0,37.82-12.36,44.65-30.78c72.73-1.32,225.61-4.21,232.76-5.32l2.43,1.75
			c0.34,0.24,0.75,0.35,1.16,0.31l2.42-0.26c0.54-0.06,1.02-0.37,1.28-0.84c0.97-1.7,1.33-2.32,1.47-2.56
			c1.87-0.41,20.37-4.83,33.42-19.64c0.14-0.16,14.2-16.61,20.93-23.42c1.08-1.09,2.28-2.08,3.58-2.95
			c6.97-4.63,23.25-15.68,24.03-18.2l0.01-3.97h-0.54v-9.05h-2.32l2.45-3.09l7.26-1.36l0.89,2.17c-0.33,0.81-0.56,2.34,0.55,3.32
			c-0.14,0.66-0.43,2.6,0.88,3.78c-0.12,0.63-0.35,2.5,0.68,3.71c-0.14,0.54-0.41,2.06,0.37,3.4l-0.85,2.29l-0.02,6.97
			c-1.58,0.79-12.54,6.57-20.23,17.84c-0.05,0.07-5.03,6.7-7.51,16.88c-0.18,0.76-0.33,1.56-0.44,2.47
			c-0.32,2.53-1.01,9.17-0.53,16.06c0.02,0.26,0.22,2.57,1.57,2.9c0.1,0.03,0.21,0.04,0.32,0.04c0.86,0,1.87-0.79,3.08-2.39
			c1.92,11.24,7.78,21.54,16.58,29.06c9.09,7.77,20.73,12.05,32.78,12.05c27.6,0,50.06-22.15,50.06-49.37
			C505.13,501.03,499.42,487.99,489.48,478.69z M462.29,463.88c2.09,0.14,15.81,1.39,27.72,11.15c0.01,0.01,0.71,0.81,0.3,1.79
			c-0.52,1.25-3.13,3.46-14.85,4.15c-1.14,0.07-2.26-0.1-3.32-0.5c-2.18-0.82-6.39-2.15-10.63-2.17
			C461.29,472.59,461.46,467.49,462.29,463.88z M428.3,499.21c-0.37,0.47-0.46,1.1-0.26,1.66c0.21,0.57,0.68,0.99,1.27,1.12
			l10.12,2.23l6.4,21.86c0.02,0.06,1.81,5.71,9.53,5.71c0.89,0,1.86-0.08,2.91-0.24c0.05,0,5.43-0.3,7.68-6.34
			c0.75-2.02,0.93-4.31,0.51-6.63c-1.23-6.82-4.31-24.99-4.94-39.58c19.13,2.86,33.5,19.52,33.5,38.93
			c0,21.71-17.66,39.37-39.37,39.37c-21.71,0-39.37-17.66-39.37-39.37c0-13.22,6.56-25.43,17.55-32.76l1.94,6.61
			C433.05,493.83,430.53,496.33,428.3,499.21z M435.99,492.47l3.23,11.03l-9.76-2.15c-0.36-0.08-0.66-0.34-0.79-0.69
			c-0.13-0.35-0.07-0.73,0.16-1.02C430.97,496.86,433.38,494.46,435.99,492.47z M457.39,457.37v-1.82l0.61,0.65l-0.47,9.24
			c-0.08,1.53-0.03,3.08,0.14,4.6l5.66,51.62c0.22,2.02-0.37,3.98-1.52,5.51c0.81-3.35,0.38-8.94-0.2-13.39
			c-0.3-2.31-1.56-4.39-3.46-5.73c-1.9-1.33-4.19-1.79-6.44-1.3c-0.14,0.03-0.23,0.05-0.23,0.05c-3.06,0.76-4.38,2.51-4.94,3.84
			c-0.48,1.15-0.56,2.47-0.22,3.81c0.68,2.72,2.36,9.06,4.22,13.35c-1.14-1.08-2.01-2.48-2.45-4.09l-14.13-51.13l21.05-4.64
			l-0.14-0.65l-21.08,4.65l-2.44-9.19c2.86,1.13,14.68,4.85,25.92-5.27L457.39,457.37z M460.98,515.33c-0.26-2.11-1.39-4-3.09-5.19
			c-1.61-1.13-3.53-1.51-5.42-1.08c-0.12,0.03-0.19,0.05-0.19,0.05c-2.64,0.68-3.76,2.24-4.24,3.43c-0.41,1.03-0.48,2.2-0.19,3.4
			c0.64,2.65,2.3,9.17,4.1,12.94c-0.08-0.05-0.15-0.1-0.22-0.15c-2.05-4.13-4-11.47-4.74-14.44c-0.3-1.2-0.23-2.38,0.19-3.39
			c0.73-1.74,2.24-2.9,4.49-3.45c0.01,0,0.07-0.02,0.2-0.05c2.06-0.45,4.17-0.03,5.91,1.19c1.75,1.23,2.91,3.15,3.18,5.27
			c0.42,3.27,0.93,8.51,0.43,12.03C461.74,522.9,461.4,518.74,460.98,515.33z M460.07,528.31l-0.49,0.87
			c-0.6,0.36-1.26,0.63-1.97,0.81c-0.18,0.04-0.28,0.06-0.28,0.06c-0.22,0.03-0.44,0.05-0.66,0.06c-1.21,0.07-2.4-0.15-3.48-0.6
			l-0.62-0.87c-1.76-3.65-3.44-10.22-4.08-12.87c-0.26-1.06-0.2-2.09,0.16-2.99c0.62-1.53,1.89-2.55,3.8-3.04
			c0.01,0,0.06-0.02,0.17-0.04c1.7-0.39,3.44-0.04,4.89,0.97c1.54,1.08,2.56,2.8,2.8,4.72
			C460.78,519.15,461.37,525.81,460.07,528.31z M431.18,461.94l-0.12-1.84c2.42,0.25,15.42,1.23,25.66-4.81v1.78
			C445.04,467.48,432.77,462.64,431.18,461.94z M456.72,454.51c-10.49,6.4-24.16,5.09-25.81,4.9c-0.58-0.99-0.46-2.16-0.34-2.71
			c1.06,0.35,4.44,1.32,8.75,1.32c4.97,0,11.15-1.31,16.38-6.39C456.05,451.92,456.79,452.75,456.72,454.51z M443.51,380.65
			l0.59,2.99l-0.9,0.8l-0.86-3.94L443.51,380.65z M440.81,368.25l0.74,2.92l-0.76,0.76l-1.04-4.01L440.81,368.25z M382.52,74.83
			c-0.17,0.23-0.54,0.29-1.09,0.19c-0.23-0.09-2.18-0.98-3.43-4.42c1.52,0.64,2.9,0.78,3.71,0.78
			C382.28,72.46,382.96,74.22,382.52,74.83z M390.31,62.86c0,0.29-0.18,7.16-7.9,7.83c-0.07,0.01-6.73,0.89-9.85-7.04l-0.82-11.42
			l-0.01-0.16l-0.13-0.09c-0.13-0.09-3.04-2.17-0.55-7.24c0.02-0.04,1.78-4.1,6.44-5.4c0.06-0.02,6.4-1.66,9.91,2.54
			c0.04,0.04,3.5,3.58,1.92,8.65l-0.02,0.06L390.31,62.86z M390.05,51.72l-0.09-1.06c1.65-5.42-2.07-9.22-2.09-9.24
			c-3.76-4.51-10.3-2.81-10.58-2.74c-4.97,1.38-6.8,5.61-6.87,5.77c-2.44,4.95,0.02,7.44,0.65,7.97l0.22,2.99
			c-8.67-3.37-12.57-6.01-13.3-6.53v-2.24c0.06,0.05,0.11,0.1,0.17,0.15c0.58,0.43,1.56,0.8,3.26,0.8c1.59,0,3.8-0.32,6.88-1.23
			l0.16-0.05l0.06-0.16c0.03-0.07,2.86-7.37,9.47-8.71c0.41-0.04,10.08-0.94,12.96,7.83C390.97,47.6,390.79,50.43,390.05,51.72z
			 M390.85,42.59c0.02,0.23,0.03,0.5,0.05,0.79c-3.69-7.47-12.88-6.61-13.01-6.59c-6.45,1.31-9.47,7.87-9.93,8.98
			c-6.25,1.81-8.55,1.1-9.37,0.51c-0.38-0.27-0.52-0.56-0.57-0.74c0.08-0.69,0.35-1.28,0.84-1.77c1.73-1.7,5.44-1.64,5.47-1.64
			c2.07,0.08,3.36-0.11,3.81-0.57c0.11-0.11,0.15-0.22,0.17-0.3c0.61-1.49,1.59-3.01,2.31-4.02c0.45-0.64,0.89-1.37,1.33-2.23
			c2.47-4.79,7.2-5.07,8.59-5.05c0.22,0,0.43,0.03,0.62,0.08c3.96,1.01,5.62,5.01,5.85,5.61l-0.03,0.14l0.2,0.12
			C387.22,35.92,390.61,38.01,390.85,42.59z M372.23,26.26c-2.06,0.79-3.69,1.66-4.38,2.05l-0.56-4.42c0.21-0.63,2.45-6.71,8.82-8
			c0.08-0.01,7.99-1.32,10.66,6.49c0.02,0.03,1.42,2.96,0.54,8.02c-0.77-2.41-2.15-4.08-4.13-4.96c-0.38-0.17-0.78-0.31-1.19-0.41
			C378.27,21.74,372.9,25.73,372.23,26.26z M380.3,24.75c-1.77-0.14-3.64,0.15-5.39,0.63C376.44,24.62,378.48,24.01,380.3,24.75z
			 M368.98,5.05c1.38-2.44,3.91-4.06,6.75-4.34c0.3-0.03,0.6-0.04,0.9-0.04c2.5,0,4.8,1.04,6.42,2.92c0.55,0.64,0.96,1.36,1.19,2.09
			l1.13,8.55c-1.37-1.07-4.66-3.21-8.87-2.86c-0.2,0.01-4.7,0.23-8.21,4.47l-0.31-8.32C367.99,7.51,368.23,6.39,368.98,5.05z
			 M365.99,21.29l0.23-0.01l0.08-0.22c0.76-2.2,1.95-4.04,1.98-4.09c3.38-4.67,8.21-4.92,8.28-4.92c5.16-0.43,9.01,3.22,9.05,3.25
			l0.11,0.11c0.57,0.57,3.71,4.1,2.95,12.05c-0.08,0.84-0.27,1.65-0.57,2.41c0.71-4.88-0.65-7.65-0.7-7.75
			c-2.83-8.3-11.31-6.9-11.4-6.89c-6.54,1.32-8.96,7.4-9.31,8.39c-6.28,3.25-9.4,0.86-10.11,0.18
			C357.68,21.98,363.57,21.37,365.99,21.29z M356.37,27.52v-3.01c1.15,0.94,4.43,2.76,10.31-0.16l0.63,4.96
			c-1.88,0.06-4.55,0.89-5.68,1.27C358.02,29.91,356.61,27.91,356.37,27.52z M348.83,39.22c0-0.01,0.01-0.01,0.01-0.01
			c4.19-5.36,12.81-7.93,12.9-7.96l1.37-0.4l-0.07-0.01c2.64-0.78,5.25-1.19,5.59-0.6c0.07,0.13,0.26,0.94-3.27,3.91
			c-0.07,0.05-7.49,4.48-12.26,5.44c-1.63,0.33-3.13,0.21-4.1,0.06c-0.14-0.02-0.19-0.12-0.21-0.17
			C348.77,39.44,348.75,39.33,348.83,39.22z M347.96,46.35c-0.64-2.94-0.03-5.14,0.44-6.28c0.13,0.13,0.3,0.21,0.49,0.24
			c0.54,0.08,1.23,0.16,2.02,0.16c0.71,0,1.5-0.06,2.32-0.22c4.89-0.98,12.16-5.34,12.51-5.55c2.89-2.43,3.96-3.91,3.46-4.78
			c-0.2-0.35-0.65-0.52-1.23-0.58l-0.04-0.3c0.94-0.54,9.57-5.36,14.98-2.98c2.12,0.94,3.5,2.9,4.1,5.81l-0.05,0.25l0.1,0.04
			c0.05,0.4,0.15,1.26,0.1,2.2c-0.79-1.53-2.58-4.14-5.84-4.98c-0.25-0.06-0.51-0.1-0.78-0.1c-1.48-0.01-6.56,0.28-9.2,5.42
			c-0.43,0.83-0.85,1.53-1.28,2.15c-0.74,1.05-1.76,2.62-2.39,4.19l-0.02,0.05c-0.1,0.09-0.68,0.47-3.3,0.36
			c-0.17,0-4.02-0.06-5.95,1.83c-0.59,0.58-0.93,1.28-1.03,2.09l-0.05,0c0,0.01,0,0.09,0.03,0.21c-0.01,0.11-0.03,0.2-0.03,0.31
			v3.32l0.13,0.1c0.15,0.12,3.9,2.98,13.89,6.84l0.55,7.6l0.02,0.1c1.35,3.45,3.35,5.34,5.24,6.36c1.21,3.84,3.27,5.09,3.89,5.38
			l0.54,2.71c-11.02,6.43-24.16,5.75-26.09,5.61L347.96,46.35z M365.65,160.1c-3.35-2.63-5.35-6.81-5.35-11.19v-7.59
			c0.57-0.01,1.04,0.14,1.44,0.46c0.08,0.06,0.14,0.13,0.21,0.2c-0.08,1.37-0.39,10.41,4.35,12.65l0.29-0.61
			c-3.7-1.74-4.01-8.45-3.99-11.09c0.34,0.75,0.43,1.49,0.43,1.51c0.22,2.05,0.92,3.48,2.08,4.26c1.08,0.73,2.24,0.67,2.82,0.58
			l2.78,13.85C368.79,162.25,367.09,161.23,365.65,160.1z M393.13,287.2c-3.79,4.42-9.79,0.08-10-0.07
			c-0.09-0.09-9.13-9.02-11.57-12.23c-2.42-3.19-4.92-10.48-4.94-10.51c-0.12-0.58-11.92-57.69-13.62-69.07
			c-1.44-9.62,1.84-15.23,5.31-21.17c0.63-1.09,1.28-2.19,1.9-3.32c1.52-2.77,3.27-4.51,5.06-5.01c1.3-0.37,2.24,0.01,2.5,0.13
			l4.99,7.39l20.38,101.59V287.2z M395.27,299.44c-0.39-1.96-0.22-3.47,0.47-4.4c0.45-0.6,1.02-0.81,1.32-0.88
			c0.41,0.87,1.93,4.33,3.07,9.83c0.29,1.41,0.79,3.85,1.4,6.81h-3.89L395.27,299.44z M407.13,344.27
			c-2.44,0.04-3.04-2.54-3.07-2.65l-6.28-30.15h3.88c2.2,10.77,5.64,27.61,5.64,27.62C407.31,339.11,408.02,342.37,407.13,344.27z
			 M413.88,390.99c0,0-2.17-9.91-3.25-14.94c-0.38-1.76-0.25-3.12,0.39-4.04c0.45-0.65,1.04-0.91,1.35-1
			c0.28,0.53,1.11,2.43,2.17,8.02c0.02,0.1,2.28,10.08,2.21,12.89C414.58,391.78,413.94,391.22,413.88,390.99z M417.4,392.25
			c0.25-2.49-2.11-12.93-2.21-13.36c-1.19-6.27-2.12-8.04-2.35-8.39l-5.15-25.86c1.06-2.11,0.3-5.56,0.26-5.7
			c0,0-5.83-28.59-7.17-35.09c-1.28-6.22-3.01-9.77-3.21-10.18L355.63,84.59c0.51,0.03,1.43,0.08,2.68,0.08
			c4.92,0,14.77-0.72,23.4-5.68l57.22,288.49l0.04,0.19l0.01,0l1.29,4.97l1.35,7.75l0.01,0l1.03,4.74h0l0.65,3.34
			c-12.97,8.32-24.21,5.26-25.73,4.78L417.4,392.25z M417.73,394.01c1.05,0.29,3.55,0.87,7.01,0.87c4.82,0,11.51-1.13,18.71-5.69
			l0.2,1.02c-13.06,8.37-24.36,5.2-25.74,4.76L417.73,394.01z M400.87,432.19l-3.05,3.44l-1.79-0.37
			C397.77,432.75,400.67,432.22,400.87,432.19z M398.58,435.79l14.65-16.56c0.3-0.34,0.63-0.64,0.99-0.89
			c1.52-1.08,2.32-1.26,2.49-1.13c0.02,0.01,0.35,0.32-0.55,2.35c-0.21,0.47-0.49,0.93-0.84,1.35l-15.56,18.79l0.22-3.62
			L398.58,435.79z M378.29,434.57c0.02-0.16,0.06-0.31,0.15-0.43c0.22-0.29,0.61-0.49,1.12-0.62v1.47h0.67v-1.6
			c0.31-0.04,0.65-0.06,1.02-0.07v2.37h0.67v-2.37c0.33,0.01,0.66,0.02,1.02,0.05v2.91h0.67v-2.86c0.33,0.03,0.67,0.07,1.02,0.11
			v3.22h0.67v-3.14c0.34,0.05,0.68,0.1,1.02,0.15v3.53h0.67v-3.42c0.34,0.06,0.68,0.12,1.02,0.18v3.74h0.67v-3.61
			c0.34,0.07,0.68,0.14,1.02,0.21v3.72h0.67v-3.57c0.35,0.08,0.69,0.15,1.02,0.23v3.7h0.67v-3.54c1.32,0.31,2.48,0.62,3.34,0.87
			l0.25,0.07l0.01-0.02l3.61,0.75l-0.2,3.35C385.02,439.24,379.2,435.26,378.29,434.57z M387.48,439.83l-0.1-0.05
			c-5.85-1.43-8.3-3.43-8.58-3.68c-0.12-0.2-0.22-0.38-0.3-0.56c1.97,1.3,7.89,4.39,20.19,5.07l-5.39,6.33l-0.09-3.31l-2.91-1.95
			l0,0l-0.31-0.2l-0.02-0.02l0,0L387.48,439.83z M392.66,448.25l-14.73,17.78c-0.58,0.7-1.24,1.22-1.98,1.55
			c-0.61,0.28-1.08,0.35-1.24,0.19c-0.11-0.1-0.38-0.62,0.57-2.84c0.21-0.49,0.5-0.97,0.86-1.4l16.15-19.72l0.25,0.17L392.66,448.25
			z M322.37,491.97c22.25-1.71,33.38-13.66,33.49-13.77l33.97-36.03l0.87,0.58l-16.33,19.31c0,0.01-0.18,0.27-0.52,0.7
			c-2.32,2.91-4.58,8.5-3,9.88c1.25,1.08,4.08-0.7,8.65-5.48c0.06-0.06,0.12-0.13,0.18-0.21l16.89-19.68
			c0.22-0.18,0.52-0.35,0.6-0.35c0,0,0,0,0,0c0,0,0.12,0.17-0.07,0.96c-0.08,0.35-0.24,0.68-0.47,0.99
			c-3.24,4.46-31.98,43.87-41.5,53.44c-0.15,0.15-0.28,0.3-0.4,0.47c-0.84,1.23-8.99,12.06-35.26,13.74l-220.03,1.54
			c-31.72-0.38-54.73-1.13-57.05-2.48c-0.43-0.17-0.93-0.51-0.92-0.7c0-0.08,0.19-0.3,0.86-0.53c0.32-0.04,0.64-0.08,0.97-0.1
			l51.73-2.6l0.4-0.02l0,0c7.5-0.42,11.96-1.97,13.24-4.61c0.88-1.81-0.08-3.47-0.3-3.81c-0.66-3.03-1.64-5.49-2.05-6.47
			C170.92,495.41,320.85,492,322.37,491.97z M337.14,514.23c-5.92,1.83-13.7,3.3-23.56,3.39c-1.51,0.01-88.06,0.9-163,0.76
			l168.71-1.17c0.07,0,0.15,0,0.22-0.01C326.65,516.75,332.44,515.64,337.14,514.23z M75.47,511.97l2.99-1.98
			c0.64-0.42,1.4-0.62,2.17-0.58c1.35,0.09,2.49,0.92,3,2.14L75.47,511.97z M47.1,459.58c0.46-0.03,0.92-0.05,1.37-0.07v1.56h0.67
			v-1.59c0.66-0.02,1.32-0.03,1.96-0.04v2.82h0.67v-2.83c0.66,0,1.32,0.02,1.96,0.04v3.76h0.67v-3.73c0.67,0.03,1.32,0.07,1.96,0.11
			v4.01h0.67v-3.96c0.26,0.02,0.51,0.04,0.76,0.07c-0.37,0.39-0.63,0.95-0.43,1.68c0.22,0.79,0.93,1.38,1.8,1.51
			c0.97,0.14,3,0.56,5.66,1.77c1.71,0.78,5.27,2.26,7.63,2.26c0.74,0,1.36-0.15,1.78-0.5c0.56-0.48,0.69-1.25,0.39-2.28l-0.64,0.18
			c0.22,0.76,0.15,1.3-0.19,1.59c-0.97,0.84-4.38,0.11-8.69-1.86c-2.73-1.25-4.83-1.68-5.84-1.82c-0.61-0.09-1.1-0.49-1.25-1.02
			c-0.23-0.81,0.44-1.24,0.76-1.4c7.9,0.84,13.08,2.74,13.21,2.79c1.28,0.49,2.5,1.04,3.7,1.61l-1.55,3.79l0.62,0.25l1.53-3.76
			c0.45,0.22,0.88,0.45,1.31,0.68l-1.54,3.77l0.62,0.25l1.51-3.71c0.44,0.24,0.87,0.49,1.3,0.74l-1.55,3.8l0.62,0.25l1.51-3.72
			c0.46,0.27,0.9,0.55,1.35,0.84l-1.53,3.74l0.62,0.25l1.48-3.63c0.49,0.32,0.97,0.65,1.45,0.99l-1.53,3.76l0.62,0.25l1.48-3.63
			c0.46,0.33,0.91,0.67,1.35,1.01L83.8,474l0.62,0.25l1.49-3.65c0.43,0.34,0.84,0.68,1.26,1.02l-1.53,3.76l0.62,0.25l1.45-3.56
			c0.45,0.39,0.9,0.77,1.33,1.16l-1.54,3.77l0.62,0.25l1.44-3.53c0.35,0.32,0.7,0.64,1.03,0.97l-1.58,3.86l0.62,0.25l1.47-3.61
			c0.39,0.39,0.77,0.77,1.14,1.16l-1.58,3.88l0.62,0.25l1.47-3.6c0.46,0.49,0.9,0.98,1.33,1.47l-1.59,3.9l0.62,0.25l1.46-3.59
			c0.4,0.46,0.78,0.92,1.15,1.38l-1.58,3.89l0.62,0.25l1.44-3.54c0.41,0.52,0.81,1.04,1.2,1.55l-1.61,3.95l0.62,0.25l1.46-3.58
			c0.36,0.49,0.7,0.98,1.04,1.46l-1.59,3.89l0.62,0.25l1.42-3.48c1.54,2.28,2.76,4.38,3.7,6.13c-1.39,0.64-3.12,0.33-5.16-0.97
			c-1.39-0.88-2.64-2.1-3.72-3.62c-5.58-7.87-18.62-15.61-18.75-15.69c-7.63-4.52-17.62-6.07-20.5-6.44
			c-0.78-0.1-1.51-0.24-2.19-0.42c-5.19-1.38-6.15-2.73-6.26-3.4C46.4,460.24,46.86,459.78,47.1,459.58z M11,474.3
			c5.92-5.14,12.09-8.61,18.14-10.9c0.24-0.03,0.48-0.03,0.6,0c-0.05,0.1-0.19,0.31-0.65,0.71c-0.8,0.38-12.25,5.78-20.61,12.76
			C9.44,475.84,10.32,474.95,11,474.3z M11.06,488.64c-7.34,2.44-9.59,1.79-10.18,0.82c-0.77-1.27,0.56-3.83,2.54-6.57
			c7.47-9.6,25.82-18.11,26-18.2l0.08-0.05c0.57-0.49,1.12-1.06,0.88-1.55c-0.02-0.05-0.05-0.08-0.09-0.12
			c5.5-1.95,10.88-2.94,15.85-3.33c-0.23,0.33-0.4,0.76-0.32,1.27c0.23,1.49,2.5,2.82,6.75,3.95c0.71,0.19,1.48,0.34,2.28,0.44
			c2.85,0.36,12.72,1.89,20.24,6.35c0.13,0.08,13.05,7.74,18.54,15.5c1.13,1.59,2.44,2.87,3.91,3.8c1.46,0.93,2.83,1.4,4.05,1.4
			c0.64,0,1.24-0.14,1.79-0.4c1.42,2.73,2.09,4.51,2.12,4.57l0.08,0.22l0.02,0c0.31,0.71,1.41,3.34,2.13,6.66l0.05,0.12
			c0.01,0.02,1.08,1.55,0.28,3.19c-0.81,1.67-3.7,3.75-12.81,4.24c-6.01-24.63-29.73-33.15-29.98-33.24
			c-27.76-8.46-45.73,5.84-45.89,5.97C12.89,488.08,11.09,488.63,11.06,488.64z M51.97,562.09c-25.84,0-46.85-20.73-46.85-46.2
			c0-10.57,3.52-20.51,10.19-28.76c1.17-0.71,2.63-1.64,4.49-2.89c0.18-0.14,17.88-14.22,45.28-5.87
			c0.24,0.08,23.54,8.46,29.52,32.64l-10.24,0.51c-0.56-1.58-1.98-2.67-3.67-2.78c-0.91-0.07-1.82,0.18-2.58,0.68l-3.94,2.6
			l-30.89,1.55c-2.17,0.11-4.15,0.81-5.71,2.03c-1.26,0.98-2.47,2.44-2.95,4.53l-15.08,2.74c-1.19,0.22-2.25,0.93-2.9,1.95
			c-0.81,1.28-1.06,2.84-0.67,4.28c1.24,4.65,4.77,13.27,14.54,18.72c0.47,0.26,1,0.4,1.53,0.4c0.46,0,0.91-0.1,1.33-0.3
			c0.87-0.42,1.5-1.24,1.69-2.18l2.98-15.35c1.5,0.8,4.18,1.66,8.94,2.09l-3,14.87c-0.2,1-0.11,2.03,0.26,2.98
			c0.76,1.94,2.59,3.25,4.66,3.33c0.58,0.02,1.22,0.04,1.91,0.04c5.57,0,14.24-1,20.84-6.32c0.6-0.48,0.94-1.22,0.94-2.03
			c0-0.88-0.43-1.69-1.16-2.19l-15.34-10.44c0.99-0.02,2.02-0.05,3.1-0.1c1.15-0.02,5.07-0.09,11.14-0.2l6.13,3.42
			c0.71,0.39,1.51,0.6,2.32,0.6c1.84,0,3.53-1.07,4.32-2.74l0.72-1.52c3.71-0.07,7.75-0.14,12.1-0.22
			C89.1,550.02,71.51,562.09,51.97,562.09z M32.6,538.63c-8.04-3.85-11.36-13.32-11.97-15.25l13.85-2.52
			c-0.29,2.04,0.09,4.62,1.65,7.88c0.02,0.07,0.22,0.63,1.27,1.31l-1.51,7.79C35.23,539.53,32.67,538.65,32.6,538.63z M35.63,539.14
			l-1.26,6.48c-0.14,0.74-0.64,1.38-1.32,1.71c-0.71,0.34-1.54,0.31-2.24-0.08c-9.55-5.32-13.01-13.75-14.22-18.3
			c-0.34-1.26-0.12-2.63,0.59-3.75c0.55-0.86,1.44-1.47,2.45-1.65l0.32-0.06c0.56,1.83,3.96,11.72,12.37,15.75
			c0.44,0.16,1.07,0.3,1.71,0.3C34.6,539.54,35.16,539.43,35.63,539.14z M50.59,544.62c-1.84-0.12-3.55-0.91-4.82-2.22l-0.12-0.12
			l1.96-9.72c1.76,0.14,3.78,0.22,6.12,0.22c0.38,0,0.77,0,1.16-0.01l12.36,8.41C61.44,544.72,54.36,544.86,50.59,544.62z
			 M67.87,541.6l3.15,2.15c0.54,0.37,0.86,0.98,0.86,1.63c0,0.59-0.26,1.16-0.69,1.51c-7.24,5.84-17.08,6.34-22.3,6.13
			c-1.8-0.07-3.39-1.22-4.06-2.91c-0.33-0.83-0.4-1.72-0.23-2.6l0.9-4.45c1.36,1.31,3.14,2.1,5.05,2.23
			c0.71,0.05,1.53,0.08,2.44,0.08C57.09,545.37,62.94,544.7,67.87,541.6z M71.64,532.43c3.27-0.06,7.1-0.13,11.41-0.2l-0.58,1.23
			c-0.67,1.43-2.13,2.35-3.71,2.35c-0.7,0-1.39-0.18-2-0.52L71.64,532.43z M385.78,488.19c-6.78,7.49-14.63,16.68-14.73,16.8
			c-13.53,15.36-33,19.42-33.2,19.46l-0.16,0.03l-0.07,0.14c-0.05,0.09-1.01,1.76-1.53,2.68c-0.16,0.28-0.45,0.47-0.77,0.5
			l-2.42,0.26c-0.25,0.02-0.5-0.04-0.7-0.19l-2.67-1.92l-0.15,0.04c-5.76,1.38-267.58,5.95-270.24,6
			c-20.51,0.93-22.36-3.41-22.39-3.49c-3.28-6.87-1.15-10.51,1.21-12.35c0.84-0.65,1.81-1.14,2.87-1.46
			c-0.02,0.06-0.04,0.12-0.04,0.18c-0.02,0.76,1.12,1.25,1.3,1.32c3.91,2.29,63.34,2.91,125.64,2.91c68.38,0,140.23-0.74,145.85-0.8
			c27.57-0.25,39.12-11.18,39.21-11.27c6.8-5.78,45.2-56.03,47.49-59.03c0.66-0.28,5.61-2.28,8.93,0.46
			c0.14,0.09,3.49,2.33,2.9,8.48L385.78,488.19L385.78,488.19z M419.43,460.7c-0.74,1.98-12.72,10.47-23.74,17.8
			c-0.87,0.58-1.7,1.22-2.48,1.91l19.49-23.13l0.06-0.11c0.4-1.14,0.66-2.25,0.78-3.34c0.97,0.06,4.56,0.47,5.35,3.44v0.28h0.54
			V460.7z M413.6,453.17c0.01-0.17,0.01-0.33,0.02-0.49c0.9-0.21,4.14-0.73,5.27,2.51v0.51
			C417.45,453.59,414.55,453.23,413.6,453.17z M418.89,448.5v5.2c-1.48-2.12-4.05-1.93-5.16-1.73l3.08-3.47H418.89z M419.33,444.13
			L419.33,444.13l-0.07,0.08l0,0l0,0l-3.4,4.28h0.06l-2.34,2.64c-0.01-0.1-0.02-0.2-0.03-0.3c-0.32-2.59-1.75-4.94-3.9-6.46
			c-2.13-1.5-4.78-2.05-7.28-1.5c-1.38,0.3-2.58,0.82-3.49,1.3l26.58-31.35l4.22,19.25L419.33,444.13z M427.37,442.63l-6.98,1.31
			l10.01-11.67l-4.58-20.9l-28.86,34.04l0.46,0.48c0.02-0.02,2.18-1.71,5.09-2.35c2.32-0.51,4.78,0,6.75,1.39
			c2,1.41,3.32,3.6,3.62,6c0.13,1.07,0.09,2.18-0.09,3.34c-0.43-4.53-3.07-6.29-3.18-6.35c-3.83-3.16-9.44-0.6-9.68-0.49l-0.12,0.1
			c-0.41,0.53-40.64,53.2-47.46,59.01c-0.04,0.04-1.85,1.74-5.69,3.8c5.5-3.04,7.93-6.12,8.63-7.15c0.1-0.14,0.2-0.26,0.32-0.38
			c9.56-9.61,38.31-49.05,41.56-53.52c0.28-0.38,0.47-0.8,0.58-1.23c0.14-0.58,0.27-1.38-0.22-1.68c-0.5-0.31-1.2,0.23-1.44,0.43
			l-16.86,19.63l-0.08,0.1c-0.05,0.06-0.09,0.11-0.14,0.16c-5.9,6.16-7.41,5.72-7.73,5.44c-1.05-0.91,0.68-5.94,3.08-8.96
			c0.35-0.44,0.53-0.71,0.53-0.71l16.36-19.34l0.47,0.32l-16.11,19.67c-0.4,0.48-0.72,1.01-0.95,1.56
			c-0.82,1.92-0.96,3.06-0.42,3.58c0.19,0.18,0.44,0.27,0.74,0.27c0.34,0,0.76-0.11,1.24-0.33c0.83-0.37,1.57-0.96,2.22-1.74
			l37.38-45.13c0.39-0.47,0.7-0.97,0.94-1.5c0.78-1.74,0.89-2.71,0.36-3.14c-0.2-0.17-0.82-0.67-3.3,1.1
			c-0.4,0.28-0.77,0.62-1.1,0.99l-9.11,10.3l16.89-20.02l0.1-0.12l-2.54-13.23c1.03,0.29,3.54,0.88,7.05,0.88
			c4.82,0,11.49-1.13,18.69-5.67l8.92,45.72c-8.25,7.13-23.43,6.21-25.33,6.06L427.37,442.63z M427.68,443.38
			c0.62,0.04,1.71,0.1,3.16,0.1c5.42,0,15.55-0.79,21.97-6.06l0.26,2.78c-10.53,8.09-23.09,5.44-24.61,5.08L427.68,443.38z
			 M428.42,445.95c0.83,0.19,3.35,0.69,6.77,0.69c5.02,0,11.96-1.09,18.21-5.87c0.3,0.31,0.9,1.22,0.47,3.27
			c-9.54,8.27-23.86,4.69-24.94,4.4C427.97,447.69,428.24,446.47,428.42,445.95z M429.02,449.15c1.03,0.25,4.32,0.97,8.48,0.97
			c5.1,0,11.51-1.09,16.63-5.44c0.28,0.4,0.76,1.35,0.6,2.99c-11.96,9.28-24.05,4.89-24.92,4.55
			C428.76,451.38,428.9,449.82,429.02,449.15z M429.9,452.97c1.03,0.36,4.04,1.25,8.11,1.25c4.71,0,10.85-1.22,16.95-5.88
			c0.25,0.49,0.66,1.52,0.39,2.68c-10,9.86-23.73,5.34-24.83,4.95C429.71,455.11,429.81,453.65,429.9,452.97z M430.12,469.43v-7.21
			l0.34-0.91l0.07,1.07l0.04,0.02l2.66,10.02l14.22,51.47c1.12,4.07,4.77,6.91,8.79,6.91c0.15,0,0.31,0,0.46-0.01
			c0.23-0.01,0.47-0.03,0.72-0.07c0,0,0.12-0.02,0.34-0.08c4.01-1.01,6.68-4.9,6.23-9.05l-5.66-51.62c-0.16-1.49-0.21-3-0.13-4.49
			l0.41-8.1l3.06,6.2c-3.07,12.92,2.39,45.44,4.14,55.12c0.4,2.2,0.23,4.37-0.48,6.28c-2.1,5.61-6.88,5.9-7.12,5.91
			c-9.65,1.53-11.66-4.73-11.74-4.99l-12.59-43l0,0l-3.91-13.39L430.12,469.43z M402.48,524.5c-0.75-0.18-1.03-1.76-1.07-2.3
			c-0.47-6.83,0.21-13.41,0.53-15.93c0.11-0.88,0.25-1.66,0.43-2.39c2.44-10.04,7.34-16.57,7.4-16.65
			c7.14-10.47,17.12-16.13,19.6-17.43l3.79,12.99c-3.43,1.53-6.99,4.24-7.03,4.28c-6.49,5.1-9.88,9.68-9.92,9.73
			c-4.19,6.12-6.07,11.86-6.69,14.04c-0.22,0.77-0.34,1.53-0.43,2.12c-0.7,4.7-2.58,7.48-2.61,7.52
			C404.14,524.27,402.97,524.63,402.48,524.5z M455.07,563.24c-24.16,0-45.12-17.7-48.81-41.2c0.25-0.37,0.51-0.76,0.78-1.2
			c0.08-0.12,1.99-2.92,2.71-7.79c0.08-0.56,0.21-1.3,0.41-2.03c0.61-2.15,2.46-7.81,6.59-13.83c0.03-0.04,3.37-4.55,9.78-9.59
			c0.04-0.03,3.48-2.65,6.81-4.15l0.3,1.03c-11.29,7.45-18.02,19.92-18.02,33.44c0,22.08,17.96,40.04,40.04,40.04
			s40.04-17.96,40.04-40.04c0-17.28-11.21-32.42-27.06-37.88c1.31,0.36,2.43,0.75,3.26,1.06c0.99,0.37,2.01,0.56,3.06,0.56
			c0.18,0,0.35-0.01,0.53-0.02c6.45-0.38,10.93-1.25,13.39-2.59c9.9,9.18,15.57,22.09,15.57,35.49
			C504.46,541.4,482.3,563.24,455.07,563.24z"/>
		<path class="st1" d="M381.34,56.69c-3.63,0-6.58,2.95-6.58,6.58c0,3.63,2.95,6.58,6.58,6.58c3.63,0,6.58-2.95,6.58-6.58
			C387.92,59.65,384.97,56.69,381.34,56.69z M381.34,69.19c-3.26,0-5.91-2.65-5.91-5.91c0-3.26,2.65-5.91,5.91-5.91
			c3.26,0,5.91,2.65,5.91,5.91C387.25,66.53,384.6,69.19,381.34,69.19z"/>
		<path class="st1" d="M372.53,88.34c0-1.62-1.32-2.93-2.93-2.93s-2.93,1.32-2.93,2.93c0,1.62,1.32,2.93,2.93,2.93
			S372.53,89.95,372.53,88.34z M367.34,88.34c0-1.25,1.01-2.26,2.26-2.26c1.25,0,2.26,1.01,2.26,2.26c0,1.25-1.01,2.26-2.26,2.26
			C368.35,90.6,367.34,89.59,367.34,88.34z"/>
		<path class="st1" d="M371.55,95.36c-1.62,0-2.93,1.32-2.93,2.93c0,1.62,1.32,2.93,2.93,2.93c1.62,0,2.93-1.32,2.93-2.93
			C374.49,96.67,373.17,95.36,371.55,95.36z M371.55,100.55c-1.25,0-2.26-1.01-2.26-2.26s1.01-2.26,2.26-2.26
			c1.25,0,2.26,1.01,2.26,2.26S372.8,100.55,371.55,100.55z"/>
		<path class="st1" d="M370.96,88.34c0-0.75-0.61-1.36-1.36-1.36s-1.36,0.61-1.36,1.36c0,0.75,0.61,1.36,1.36,1.36
			S370.96,89.09,370.96,88.34z M368.91,88.34c0-0.38,0.31-0.69,0.69-0.69c0.38,0,0.69,0.31,0.69,0.69c0,0.38-0.31,0.69-0.69,0.69
			C369.22,89.03,368.91,88.72,368.91,88.34z"/>
		<path class="st1" d="M371.55,96.92c-0.75,0-1.36,0.61-1.36,1.36c0,0.75,0.61,1.36,1.36,1.36c0.75,0,1.36-0.61,1.36-1.36
			C372.92,97.53,372.31,96.92,371.55,96.92z M371.55,98.97c-0.38,0-0.69-0.31-0.69-0.69c0-0.38,0.31-0.69,0.69-0.69
			c0.38,0,0.69,0.31,0.69,0.69C372.25,98.66,371.94,98.97,371.55,98.97z"/>
		<path class="st1" d="M424.62,423.76c0-1.78-1.45-3.23-3.24-3.23c-1.78,0-3.23,1.45-3.23,3.23c0,1.78,1.45,3.24,3.23,3.24
			C423.17,426.99,424.62,425.54,424.62,423.76z M418.82,423.76c0-1.41,1.15-2.56,2.56-2.56c1.41,0,2.57,1.15,2.57,2.56
			c0,1.41-1.15,2.57-2.57,2.57C419.97,426.32,418.82,425.17,418.82,423.76z"/>
		<path class="st1" d="M422.9,423.76c0-0.83-0.68-1.51-1.51-1.51c-0.83,0-1.51,0.68-1.51,1.51c0,0.84,0.68,1.52,1.51,1.52
			C422.22,425.27,422.9,424.59,422.9,423.76z M420.54,423.76c0-0.47,0.38-0.84,0.84-0.84c0.47,0,0.84,0.38,0.84,0.84
			s-0.38,0.85-0.84,0.85C420.92,424.6,420.54,424.22,420.54,423.76z"/>
		<path class="st1" d="M423.1,430.62c-1.78,0-3.24,1.45-3.24,3.23c0,1.78,1.45,3.23,3.24,3.23c1.78,0,3.23-1.45,3.23-3.23
			C426.34,432.07,424.89,430.62,423.1,430.62z M423.1,436.42c-1.41,0-2.57-1.15-2.57-2.56c0-1.41,1.15-2.56,2.57-2.56
			c1.41,0,2.56,1.15,2.56,2.56C425.67,435.27,424.52,436.42,423.1,436.42z"/>
		<path class="st1" d="M423.1,432.34c-0.83,0-1.51,0.68-1.51,1.51c0,0.83,0.68,1.51,1.51,1.51s1.51-0.68,1.51-1.51
			C424.62,433.02,423.94,432.34,423.1,432.34z M423.1,434.7c-0.47,0-0.84-0.38-0.84-0.84c0-0.47,0.38-0.84,0.84-0.84
			c0.47,0,0.84,0.38,0.84,0.84C423.95,434.32,423.57,434.7,423.1,434.7z"/>
		<path class="st1" d="M409.39,433.81c-0.94,0-1.7,0.76-1.7,1.7c0,0.94,0.76,1.7,1.7,1.7c0.94,0,1.7-0.76,1.7-1.7
			C411.09,434.58,410.33,433.81,409.39,433.81z M409.39,436.54c-0.57,0-1.03-0.46-1.03-1.03c0-0.57,0.46-1.03,1.03-1.03
			c0.57,0,1.03,0.46,1.03,1.03C410.42,436.08,409.96,436.54,409.39,436.54z"/>
		<path class="st1" d="M74.13,523.2H42c-1.34,0-2.43,1.02-2.43,2.27c0,1.25,1.09,2.28,2.43,2.28h32.13c1.34,0,2.43-1.02,2.43-2.28
			C76.56,524.22,75.47,523.2,74.13,523.2z M74.13,527.08H42c-0.97,0-1.76-0.72-1.76-1.61c0-0.88,0.79-1.6,1.76-1.6h32.13
			c0.97,0,1.76,0.72,1.76,1.6C75.89,526.36,75.1,527.08,74.13,527.08z"/>
		<path class="st1" d="M438.95,472.95c-0.66,0.14-1.22,0.6-1.5,1.22l-0.58,1.32c-0.2,0.45-0.24,0.96-0.11,1.43l8.08,29.22
			c0.17,0.63,0.62,1.14,1.22,1.39c0.27,0.12,0.56,0.17,0.84,0.17c0.35,0,0.69-0.09,1.01-0.26l3.55-1.91
			c0.28-0.15,0.6-0.21,0.92-0.16l4.72,0.73c0.88,0.14,1.77-0.3,2.2-1.08l0.58-1.06c0.22-0.39,0.3-0.84,0.25-1.28l-3.58-29.47
			c-0.08-0.69-0.5-1.3-1.11-1.63c-0.73-0.39-2.44-1.3-2.56-1.38C452.68,470.06,452.59,469.99,438.95,472.95z M455.88,473.3
			l3.58,29.47c0.04,0.31-0.02,0.61-0.17,0.88l-0.58,1.06c-0.29,0.54-0.9,0.84-1.51,0.74l-4.72-0.73c-0.46-0.07-0.93,0.01-1.34,0.23
			l-3.55,1.91c-0.39,0.21-0.86,0.23-1.27,0.06c-0.41-0.18-0.72-0.52-0.83-0.96l-8.08-29.22c-0.09-0.32-0.06-0.67,0.07-0.98
			l0.58-1.32c0.19-0.43,0.57-0.74,1.03-0.84c10.12-2.2,12.96-2.74,13.47-2.8c0.2,0.12,0.77,0.43,2.55,1.37
			C455.53,472.4,455.82,472.82,455.88,473.3z"/>
		<path class="st1" d="M415.49,456.12c-1.28,0-2.32,1.04-2.32,2.32c0,1.28,1.04,2.32,2.32,2.32s2.32-1.04,2.32-2.32
			C417.81,457.16,416.77,456.12,415.49,456.12z M415.49,460.09c-0.91,0-1.65-0.74-1.65-1.65c0-0.91,0.74-1.65,1.65-1.65
			s1.65,0.74,1.65,1.65C417.14,459.35,416.4,460.09,415.49,460.09z"/>
		<path class="st1" d="M405.86,452.67c-0.56-0.47-1.25-0.71-1.95-0.69c-0.71,0.02-1.34,0.33-1.77,0.84l-21.25,25.59
			c-0.43,0.52-0.61,1.19-0.5,1.9c0.1,0.69,0.47,1.32,1.03,1.79c0.54,0.44,1.19,0.69,1.85,0.69c0.03,0,0.06,0,0.1,0
			c0.71-0.02,1.34-0.32,1.77-0.84l21.25-25.59c0.43-0.52,0.61-1.19,0.5-1.9C406.79,453.77,406.43,453.14,405.86,452.67z
			 M405.88,455.93l-21.25,25.59c-0.31,0.37-0.76,0.58-1.28,0.6c-0.53,0.01-1.06-0.17-1.5-0.53c-0.44-0.36-0.72-0.85-0.8-1.38
			c-0.08-0.51,0.05-1,0.36-1.37l21.25-25.59c0.31-0.37,0.76-0.58,1.28-0.6c0.02,0,0.05,0,0.07,0c0.51,0,1.01,0.19,1.43,0.53
			c0.44,0.36,0.72,0.85,0.8,1.38C406.31,455.07,406.18,455.56,405.88,455.93z"/>
		<path class="st1" d="M425.76,502.98c-1.43,0-2.6,1.16-2.6,2.59c0,1.43,1.16,2.6,2.6,2.6s2.59-1.16,2.59-2.6
			C428.35,504.14,427.19,502.98,425.76,502.98z M425.76,507.5c-1.06,0-1.93-0.86-1.93-1.93c0-1.06,0.86-1.92,1.93-1.92
			c1.06,0,1.92,0.86,1.92,1.92C427.68,506.63,426.82,507.5,425.76,507.5z"/>
		<path class="st1" d="M431.2,539.87c-1.43,0-2.59,1.16-2.59,2.59c0,1.43,1.16,2.59,2.59,2.59s2.6-1.16,2.6-2.59
			C433.79,541.03,432.63,539.87,431.2,539.87z M431.2,544.39c-1.06,0-1.92-0.86-1.92-1.92c0-1.06,0.86-1.92,1.92-1.92
			c1.06,0,1.93,0.86,1.93,1.92C433.12,543.52,432.26,544.39,431.2,544.39z"/>
		<path class="st1" d="M470.35,545.98c-1.43,0-2.59,1.16-2.59,2.6c0,1.43,1.16,2.59,2.59,2.59c1.43,0,2.6-1.16,2.6-2.59
			C472.94,547.14,471.78,545.98,470.35,545.98z M470.35,550.5c-1.06,0-1.92-0.86-1.92-1.92c0-1.06,0.86-1.93,1.92-1.93
			c1.06,0,1.93,0.86,1.93,1.93C472.27,549.64,471.41,550.5,470.35,550.5z"/>
		<path class="st1" d="M486.84,515.56c0,1.43,1.16,2.59,2.59,2.59c1.43,0,2.59-1.16,2.59-2.59c0-1.43-1.16-2.59-2.59-2.59
			C488.01,512.96,486.84,514.13,486.84,515.56z M489.44,513.63c1.06,0,1.92,0.86,1.92,1.92c0,1.06-0.86,1.92-1.92,1.92
			c-1.06,0-1.92-0.86-1.92-1.92C487.51,514.5,488.38,513.63,489.44,513.63z"/>
		<path class="st1" d="M425.76,504.54c-0.57,0-1.04,0.46-1.04,1.04c0,0.57,0.47,1.04,1.04,1.04c0.57,0,1.04-0.46,1.04-1.04
			C426.79,505,426.33,504.54,425.76,504.54z M425.76,505.94c-0.2,0-0.37-0.16-0.37-0.37c0-0.2,0.16-0.37,0.37-0.37
			c0.2,0,0.37,0.16,0.37,0.37C426.12,505.77,425.96,505.94,425.76,505.94z"/>
		<path class="st1" d="M431.2,541.43c-0.57,0-1.04,0.46-1.04,1.04c0,0.57,0.46,1.04,1.04,1.04c0.57,0,1.04-0.46,1.04-1.04
			C432.23,541.89,431.77,541.43,431.2,541.43z M431.2,542.83c-0.2,0-0.37-0.16-0.37-0.37c0-0.2,0.16-0.37,0.37-0.37
			c0.2,0,0.37,0.17,0.37,0.37C431.56,542.66,431.4,542.83,431.2,542.83z"/>
		<path class="st1" d="M470.35,547.54c-0.57,0-1.04,0.46-1.04,1.04c0,0.57,0.46,1.04,1.04,1.04c0.57,0,1.04-0.46,1.04-1.04
			C471.38,548,470.92,547.54,470.35,547.54z M470.35,548.94c-0.2,0-0.37-0.16-0.37-0.37c0-0.2,0.16-0.37,0.37-0.37
			s0.37,0.16,0.37,0.37C470.71,548.78,470.55,548.94,470.35,548.94z"/>
		<path class="st1" d="M489.44,516.59c0.57,0,1.04-0.46,1.04-1.04c0-0.57-0.46-1.04-1.04-1.04c-0.57,0-1.04,0.46-1.04,1.04
			C488.4,516.13,488.87,516.59,489.44,516.59z M489.44,515.19c0.2,0,0.37,0.16,0.37,0.37c0,0.2-0.16,0.37-0.37,0.37
			s-0.37-0.16-0.37-0.37C489.07,515.36,489.24,515.19,489.44,515.19z"/>
		<path class="st1" d="M423.02,511.63c-0.42,0.24-0.72,0.65-0.82,1.13c-0.79,3.54-1.97,13,4.32,24.23c0.29,0.52,0.83,0.86,1.43,0.89
			c0.03,0,0.07,0,0.1,0c0.57,0,1.1-0.27,1.43-0.74l12.75-17.89c0.33-0.46,0.41-1.04,0.23-1.58c-0.19-0.54-0.61-0.95-1.15-1.11
			l-16.89-5.09C423.94,511.33,423.44,511.39,423.02,511.63z M441.82,517.89c0.12,0.33,0.06,0.69-0.14,0.98l-12.75,17.89
			c-0.22,0.3-0.57,0.48-0.94,0.45c-0.37-0.02-0.7-0.22-0.88-0.55c-6.17-11.03-5.03-20.29-4.25-23.76c0.07-0.3,0.25-0.54,0.51-0.7
			c0.17-0.1,0.35-0.15,0.54-0.15c0.11,0,0.21,0.02,0.32,0.05l16.89,5.09C441.44,517.3,441.7,517.55,441.82,517.89z"/>
		<path class="st1" d="M469.03,514.59c0.15,0,0.31-0.02,0.46-0.06l17.03-4.6c0.47-0.13,0.87-0.44,1.1-0.87
			c0.23-0.43,0.26-0.94,0.1-1.39c-1.2-3.43-5.19-12.08-16.47-18.29c-0.53-0.29-1.16-0.29-1.68,0c-0.53,0.29-0.87,0.83-0.91,1.43
			l-1.38,21.93c-0.04,0.57,0.2,1.11,0.64,1.47C468.25,514.45,468.63,514.59,469.03,514.59z M469.33,490.84
			c0.02-0.37,0.24-0.7,0.57-0.88c0.32-0.18,0.71-0.18,1.04,0c11.07,6.11,14.99,14.57,16.16,17.93c0.1,0.29,0.08,0.59-0.06,0.86
			c-0.14,0.27-0.38,0.46-0.68,0.54l-17.03,4.6c-0.34,0.09-0.69,0.02-0.97-0.21c-0.27-0.22-0.42-0.55-0.4-0.91L469.33,490.84z"/>
		<path class="st1" d="M438.09,548.07c0.1,0.47,0.39,0.89,0.81,1.14c2.43,1.47,8.22,4.29,16.68,4.29c2.36,0,4.92-0.22,7.67-0.75
			c0.59-0.11,1.07-0.51,1.29-1.08c0.22-0.56,0.14-1.19-0.21-1.68l-12.96-17.74c-0.33-0.46-0.85-0.72-1.41-0.72
			c-0.01,0-0.01,0-0.01,0c-0.57,0-1.09,0.27-1.42,0.74l-10.16,14.42C438.1,547.1,437.99,547.6,438.09,548.07z M438.92,547.09
			l10.16-14.43c0.2-0.29,0.52-0.46,0.88-0.46c0,0,0.01,0,0.01,0c0.35,0,0.67,0.16,0.87,0.44l12.96,17.74
			c0.22,0.3,0.27,0.69,0.13,1.04c-0.14,0.35-0.43,0.6-0.8,0.66c-12.42,2.38-20.84-1.63-23.89-3.46c-0.26-0.16-0.44-0.41-0.5-0.7
			C438.69,547.64,438.75,547.34,438.92,547.09z"/>
		<path class="st1" d="M475.33,544.42c0.28,0.4,0.71,0.67,1.19,0.74c0.09,0.01,0.17,0.02,0.26,0.02c0.4,0,0.77-0.13,1.09-0.38
			c2.83-2.27,9.65-8.93,11.75-21.63c0.1-0.59-0.11-1.18-0.56-1.59c-0.45-0.41-1.07-0.55-1.65-0.38l-21.13,6.02
			c-0.55,0.16-0.98,0.56-1.17,1.09c-0.19,0.54-0.12,1.12,0.21,1.59L475.33,544.42z M465.74,528.54c0.12-0.33,0.38-0.58,0.72-0.68
			l21.13-6.02c0.1-0.03,0.2-0.04,0.3-0.04c0.26,0,0.52,0.1,0.72,0.28c0.28,0.25,0.41,0.61,0.35,0.98
			c-2.06,12.47-8.73,18.99-11.5,21.22c-0.24,0.19-0.53,0.27-0.83,0.23c-0.3-0.04-0.56-0.21-0.74-0.46l-10.02-14.52
			C465.66,529.23,465.62,528.88,465.74,528.54z"/>
		<path class="st1" d="M17.91,514.22c0.06,0,0.13-0.01,0.19-0.01l22.35-3c1.89-0.25,3.62-1.2,4.85-2.66
			c0.45-0.53,0.56-1.26,0.28-1.9c-1.12-2.58-4.05-8.95-6.96-12.5c-1.17-1.43-3.11-1.93-4.83-1.24c-1.3,0.52-3.1,1.35-5.07,2.57l0,0
			c0,0-0.01,0.01-0.01,0.01c-4.86,2.99-10.7,8.31-12.22,17.05c-0.08,0.46,0.06,0.91,0.38,1.24
			C17.15,514.07,17.52,514.22,17.91,514.22z M29.12,496.02c1.91-1.17,3.66-1.98,4.92-2.48c0.43-0.18,0.88-0.26,1.33-0.26
			c1.04,0,2.04,0.46,2.73,1.3c1.42,1.73,2.87,4.21,4.09,6.53c-4.11,1.48-5.02,4.11-5.21,5.01H21.97
			C23.9,501.2,28.58,496.55,29.12,496.02z M26.59,497.75c-1.79,2.05-4.22,5.25-5.41,8.59l-0.16,0.45h16.25l0.31,0l0.03-0.3
			c0.01-0.13,0.35-3.17,4.9-4.78c1.15,2.24,2.06,4.27,2.47,5.21v0c0.18,0.4,0.11,0.86-0.18,1.2c-1.13,1.33-2.7,2.19-4.43,2.43
			l-22.35,3c-0.24,0.04-0.48-0.05-0.65-0.23c-0.17-0.18-0.25-0.42-0.21-0.66C18.38,505.6,22.5,500.84,26.59,497.75z"/>
		<path class="st1" d="M56.95,508.48c0.73,1.34,2,2.36,3.47,2.79c0.28,0.08,0.56,0.12,0.84,0.12c0.67,0,1.33-0.22,1.87-0.65
			l10.68-8.38c0.71-0.55,1.11-1.39,1.11-2.28c0-0.74-0.28-1.46-0.8-2c-2.26-2.38-10.54-10.12-22.68-9.91
			c-1.49,0.03-2.96,0.62-4.13,1.67c-0.21,0.19-0.27,0.5-0.13,0.76L56.95,508.48z M51.45,488.84c10.06-0.19,17.42,5.25,20.77,8.32
			l-5.2,4.23l-10.22,0.23l-5.53-12.76C51.33,488.85,51.39,488.84,51.45,488.84z M50.57,488.94l5.79,13.36l10.9-0.25l5.45-4.43
			c0.36,0.35,0.68,0.67,0.91,0.91c0.4,0.42,0.61,0.96,0.61,1.54c0,0.69-0.31,1.33-0.85,1.76l-10.68,8.38
			c-0.59,0.47-1.38,0.62-2.11,0.41c-1.3-0.38-2.42-1.28-3.07-2.47l-9.75-17.85C48.6,489.59,49.56,489.13,50.57,488.94z"/>
		<path class="st1" d="M372.6,179.71c-0.11-0.54-0.42-1-0.88-1.31c-0.46-0.3-1.01-0.41-1.55-0.3c-0.54,0.11-1,0.42-1.31,0.88
			c-0.3,0.46-0.41,1.01-0.3,1.55l18.48,91.97c0.11,0.54,0.42,1,0.88,1.31c0.34,0.23,0.73,0.35,1.14,0.35c0.14,0,0.27-0.01,0.41-0.04
			c0.54-0.11,1-0.42,1.31-0.88c0.3-0.46,0.41-1.01,0.3-1.55L372.6,179.71z M389.3,273.29c-0.32,0.07-0.65,0-0.93-0.18
			c-0.27-0.18-0.46-0.46-0.53-0.79l-18.48-91.97c-0.07-0.32,0-0.65,0.18-0.93c0.18-0.27,0.46-0.46,0.78-0.53
			c0.08-0.02,0.16-0.02,0.24-0.02c0.58,0,1.09,0.41,1.21,0.99l18.48,91.97C390.41,272.51,389.97,273.16,389.3,273.29z"/>
		<path class="st1" d="M377.76,274.96c-3.55-2.8-5.2-7.75-5.38-8.33c-0.32-1.52-15.26-71.5-15.3-77.04
			c-0.03-4.45,5.12-13.54,7.11-16.67c0.18-0.28,0.23-0.61,0.16-0.93c-0.07-0.32-0.27-0.6-0.54-0.77c-0.28-0.18-0.61-0.24-0.93-0.16
			c-0.32,0.07-0.6,0.26-0.78,0.55c-0.31,0.48-7.53,11.95-7.49,18.01c0.04,5.97,15.22,76.91,15.38,77.65
			c0.07,0.25,1.83,6.16,6.24,9.64c0.22,0.17,0.49,0.27,0.76,0.27c0,0,0.01,0,0.01,0c0.38,0,0.73-0.17,0.96-0.47
			C378.39,276.16,378.29,275.38,377.76,274.96z M377.32,276.18c-0.08,0.1-0.2,0.16-0.32,0.16h0c-0.06,0.01-0.16-0.01-0.26-0.09
			c-4.21-3.32-5.89-8.99-5.96-9.2c-0.15-0.71-15.31-71.67-15.35-77.46c-0.04-5.82,7.06-17.09,7.36-17.56
			c0.06-0.09,0.15-0.16,0.26-0.18c0.03-0.01,0.06-0.01,0.09-0.01c0.08,0,0.15,0.02,0.22,0.07c0.09,0.06,0.16,0.15,0.18,0.26
			c0.02,0.11,0,0.22-0.05,0.31c-0.07,0.11-7.27,11.52-7.24,17.12c0.04,5.66,15.16,76.52,15.32,77.23l0.07,0.33h0.04
			c0.43,1.25,2.16,5.77,5.57,8.46C377.43,275.74,377.46,276,377.32,276.18z"/>
	</g>
</g>
</svg>
