<?xml version="1.0" encoding="utf-8"?>
<!-- Generator: Adobe Illustrator 23.0.0, SVG Export Plug-In . SVG Version: 6.00 Build 0)  -->
<svg version="1.1" id="레이어_1" xmlns="http://www.w3.org/2000/svg" xmlns:xlink="http://www.w3.org/1999/xlink" x="0px"
	 y="0px" viewBox="0 0 398.09 437.27" style="enable-background:new 0 0 398.09 437.27;" xml:space="preserve">
<style type="text/css">
	.st0{fill:#FFFFFF;}
	.st1{opacity:0.5;}
	.st2{fill:#282828;}
</style>
<g>
	<path class="st0" d="M286.47,402.11c0.11,0,0.21-0.01,0.32-0.02c1.44-0.16,2.64-1.36,3.58-3.54l3.13-0.13
		c1.46-0.06,2.71-0.9,3.37-2.11l10.08-0.56c0.69-0.04,1.36-0.25,1.94-0.61l1.45-0.9c0.68-0.41,1.21-1.02,1.55-1.73l1.21-2.55
		c0.24-0.5,0.38-1.05,0.4-1.61l0.41-10.89c2.95-0.54,6.37-1.4,9.7-2.77c-1.98,3.21-7.51,13.91-4.44,28.96
		c0.09,0.45,0.41,0.81,0.84,0.96c0.14,0.05,0.29,0.07,0.43,0.07c0.31,0,0.61-0.11,0.85-0.32l4.59-4
		c1.71,18.36,17.46,32.64,36.21,32.64c19.84,0,35.99-15.96,35.99-35.58c0-14.13-9.39-27.8-22.9-33.46l0.86-0.75l5.2-4.47l-0.5-0.26
		c-5-2.54-11.36-4.1-14.7-4.81c-1.73-0.37-3.33-0.59-4.87-0.67c-1.77-0.09-3.37-0.07-4.82,0.02l-0.2-0.44
		c1.19-0.81,1.67-1.49,1.49-2.12c-0.29-0.99-2.14-1.17-3-1.21l-0.02-0.03c0.08-0.08,0.17-0.15,0.25-0.23
		c0.59-0.61,0.87-1.16,0.83-1.63h0.01l0.66-0.95l-0.26-0.38c0.26,0.22,0.58,0.34,0.91,0.34c0.2,0,0.4-0.05,0.59-0.13l1.14-0.54
		v-1.14l0.93-0.44l0.03-0.21c0.01-0.1,0.27-2.4-1.35-3.43l-1.55-0.89h-0.76l-0.91-2.78l3.06-5.24l3.08-3.24
		c0.43-0.32,0.75-0.75,0.97-1.11c0.22-0.37,0.33-0.67,0.35-0.72c0.61-2.78,1.3-4.44,1.5-4.89c3.34-1.27,6.32-3.01,7.67-5.34
		c0.56-0.35,0.84-1.1,0.83-2.27c-0.05-3.6-2.18-7.49-2.55-8.12c-0.08-2.26-0.5-3.67-1.23-4.22c-0.43-0.32-0.81-0.22-0.79-0.22
		c-6.02,0.53-11.5,2.64-15.49,4.62c-3.99,1.99-6.49,3.85-6.54,3.89l-0.11,0.13c-0.41,0.78-0.68,1.33-0.86,1.75l-0.72-1.85l-2-1.59
		l-49.78-166.48l6.88-2.33l-1.23-1.55c0.57-0.9,0.74-1.72,0.5-2.45c-0.29-0.87-1.08-1.33-1.47-1.51l-0.73-3.5l1.37-0.66l-1-3.16
		l-3.01-0.68l-1.26,0.51l-0.55-1.25l0.41-5.58l-1.74-3.28l-5.06,2.18l0.81,2.1c-0.11,0.46-0.47,2.12-0.47,4.29l-19.01-62.71
		l8.55,0.18l1.62-2.03l5.56,2.67c1.19,0.57,2.55,0.67,3.72,0.27c0.66-0.23,1.27-0.56,1.81-0.98c0.91-0.71,1.53-1.75,1.75-2.91
		c0.35-1.84-0.21-3.43-0.74-4.44c-0.42-0.81-1.09-1.5-1.95-1.98l-2.77-1.58c1.18-2.56,0.98-4.8,0.86-5.56l1.51-0.93l2.52-0.25
		l2.39,3l13.46,3.5l5.13-1.18l-0.63-4.16l-4.73,0.33l-12.22-4.03c-0.9-5.25-10.69-5.89-11.11-5.91l-0.12-0.01l-0.96,0.6
		c-4.46-1.14-13.58-0.68-14.88-0.6l-17.7-13.65l6.28-4.38c2.05,1.01,4.56-0.05,4.65-0.08c7.4-2.74,8.5-6.48,8.64-7.18
		c2-2.6,1.73-4.13,1.72-4.19l-3.46-5.53l-0.12-0.05c-5.41-1.87-10.15,1.41-11.16,2.18l-0.44-0.21c-0.03-1.11-0.35-1.97-0.96-2.53
		C252.39-0.06,251.36,0,251.32,0l-0.11,0.01l-2.55,1.88c-2.17,0.24-3.65,1.84-4.01,2.26c-3.36,1.04-3.99,4.53-4.01,4.68l-0.02,0.12
		l2.61,5.35l-2.28,1.31c-4.83-5.52-9.61-4.17-10.66-3.78l-8.28-5.61c-5.56-4.85-10.37-0.55-10.43-0.5
		c-2.01,1.98-2.03,4.68-1.79,6.33l-0.19-0.22l0.47,1.55c0,0.01,0.01,0.02,0.01,0.03c-0.04,0.81-0.26,7.43,2.99,9.98
		c0.34,0.38,3.1,3.21,10.09,0.61c0.14-0.04,0.59-0.09,0.78,0.1c0.14,0.14,0.15,0.47,0.04,0.9c-0.1,0.38-0.03,0.8,0.18,1.15
		l2.83,4.72l-0.08,0.47c-1.14-0.49-4.22-2.06-5.11-5.05l-0.08-0.27h-1.98l0.02,0.4c0.02,0.2,0.34,5.08,5.88,9.43
		c0.04,0.02,0.05,0.06,0.02,0.13l-2.69,1.9l0.69,1.71l-3.13,2.09l0.02,0.21c0.01,0.15,0.25,3.6,2.91,6.49l0.18,0.2l6.84-2.97
		l0.75,1.34l6.47-1.98l0.32-1.05l1.14-0.26l0.53,0.77l6.19-1.49l-0.97-3.6l1.7-0.55l5.62,5.62c-0.93,0.96-3.82,4.5-5.88,12.81
		c-0.03,0.11-2.89,10.96,1.17,26.43c0.17,0.66,0.39,1.36,0.66,2.09c2.08,5.78,9.82,26.41,22.34,50.08l-1.36,1.19v1.67l1.04,1.66
		l0.61-0.62l51.57,176.02l0.07,0.22l1.28,0.25c0.11,0.23,0.29,0.66,0.55,1.26c-0.43,0.3-0.9,0.49-1.42,0.54
		c-0.35,0.05-0.69-0.07-0.96-0.31c-0.29-0.26-0.46-0.65-0.46-1.04v-2.21l-1.82-1.33l-2.18,0.98l0.02,0.26
		c0.01,0.23,0.34,5.83,1,7.64c0.02,0.06,1.96,5.46-4.01,11.57l-14.01,15.29l-8,7.45c-1.28,1.18-2.13,2.66-2.48,4.27
		c-0.37,1.73-0.55,4.36,0.85,6.61c-0.05,0.16-0.11,0.31-0.21,0.44c-0.26,0.37-0.66,0.59-1.11,0.6l-200.22,8.74
		c-0.25,0.02-0.5-0.04-0.72-0.16l-4.11-2.09c-0.2-0.1-0.35-0.23-0.49-0.4c-2.63-3.37-26.59-32.55-56.36-17.77
		c-0.37,0.18-0.79,0.21-1.16,0.07l-7.77-2.85c-0.27-0.11-0.56-0.14-0.84-0.14l-9.07,0.32H6.72c-0.66,0-1.3,0.27-1.75,0.75
		l-0.58,0.61c-1.13,1.18-1.75,2.73-1.75,4.35v8.15c0,0.93,0.5,1.8,1.29,2.25c0.68,0.39,1.46,0.58,2.33,0.58
		c0.23,0,0.47-0.02,0.72-0.05c0.1,0.02,0.2,0.04,0.31,0.04c0.36,0,0.65,0.29,0.65,0.66v0.75c0,0.88-0.47,1.7-1.21,2.14
		c-1.02,0.6-2.52,1.57-3.83,2.74c-0.44,0.4-1.02,0.61-1.63,0.61H0l0.35,0.78c0.52,1.17,1.69,1.92,2.96,1.92h2.77
		c0.87,0,1.66,0.44,2.12,1.18l1.54,2.48c-2.18,4.92-3.3,10.18-3.3,15.64c0,20.81,16.45,37.73,36.68,37.73
		c19.31,0,36.53-13.22,39.38-30.14l199.19-8.22C282.19,399.6,284.2,402.11,286.47,402.11z M25.88,408.44v-0.29
		c0-0.06,0.03-0.11,0.07-0.14C25.93,408.14,25.9,408.28,25.88,408.44z M25.91,410.75c-0.02-0.02-0.02-0.04-0.03-0.05v-0.11
		C25.89,410.65,25.9,410.7,25.91,410.75z M350.21,324.52c0.05,0.02,0.14,0.02,0.3,0.02c0.72,0,2.58-0.18,4.92-0.6l1.25,2.06
		c0,0.01,0,0.02,0,0.02c0,0.33,0.14,0.64,0.35,0.86c0.23,0.53,0.61,0.94,1.07,1.22l-1.21,1.24l-4.27,7.71l-0.32,0.29l-4.47-15.88
		C349.99,324.43,350.1,324.48,350.21,324.52z M348.76,354.34c0.02,0.03,0.03,0.06,0.05,0.09c-0.86,0.3-1.42,0.56-1.66,0.69
		c0.93-0.87,1.26-1.53,1.02-2.06c-0.15-0.35-0.5-0.53-0.9-0.63c0.14-0.16,0.25-0.35,0.28-0.59c0.04-0.35-0.13-0.69-0.47-0.99
		l-0.27-1.32l-0.4-0.38l2.28-0.84l0.78,1.74c-0.56,0.23-1.05,0.42-1.41,0.53l-0.2,0.08l-0.05,0.22c-0.08,0.44,0.13,0.67,0.26,0.77
		c0.09,0.08,0.24,0.2,0.64,0.2c0.3,0,0.76-0.08,1.43-0.29l0.29,0.65C348.98,353.25,348.52,353.85,348.76,354.34z M339.1,351.04
		c0.13,0.18,0.23,0.31,0.3,0.41l-0.2,0.54l0.45,1.39c-0.08,0.26-0.22,0.79-0.01,1.31c0.12,0.32,0.35,0.56,0.67,0.75l0.24,1
		c-0.4,0.12-0.76,0.21-1.04,0.27l-0.14,0.03l-0.08,0.11c-0.14,0.18-0.54,0.72-0.23,1.17c0.13,0.18,0.35,0.35,0.91,0.35
		c0.26,0,0.59-0.04,1.02-0.12l0.24,0.99c-1.75,0.43-3.06,1.25-3.92,1.94C338.16,358.64,339.03,355.07,339.1,351.04z M332.79,348.03
		c0.35,4.25,0.22,8.71-1.2,11.72c-0.02,0.08-2.07,5.59-11.94,9.1C321.28,359.66,330.4,350.34,332.79,348.03z M254.4,51.73
		l24.16,80.37l-3.13,1.15l-1.38-4.07c-0.29-0.87-0.72-1.67-1.27-2.4l-2.56-3.45c-14.25-24.41-18.5-45.78-18.54-46
		C249.05,63.08,253.04,54.22,254.4,51.73z M286.71,401.34c-1.67,0.18-3.34-1.54-4.1-2.47l6.92-0.29
		C288.74,400.29,287.8,401.23,286.71,401.34z M213.63,22.89l-0.07-0.06c-2.06-1.58-2.58-5.17-2.7-7.44
		c1.29,2.81,4.29,7.73,9.52,7.73c0.62,0,1.27-0.07,1.94-0.21l-0.01-0.04l0.6,0.44C216.12,25.82,213.65,22.92,213.63,22.89z"/>
	<g class="st1">
		<path class="st2" d="M367.37,310.44c0.35,0.98,0.95,1.88,1.57,1.88c0.07,0,0.15-0.01,0.22-0.04c0.24-0.08,0.52-0.34,0.52-1.06
			c0-0.43-0.1-0.97-0.29-1.5c-0.39-1.09-1.1-2.09-1.79-1.84c-0.24,0.08-0.52,0.34-0.52,1.06
			C367.08,309.37,367.18,309.9,367.37,310.44z M367.87,308.62c0.17,0.12,0.53,0.55,0.82,1.34v0c0.28,0.79,0.28,1.36,0.22,1.56
			c-0.17-0.12-0.53-0.55-0.82-1.35C367.8,309.39,367.81,308.82,367.87,308.62z"/>
		<path class="st2" d="M366.85,305.75c-1.16,0.41-0.99,2.8-0.23,4.95c0.39,1.1,0.91,2.08,1.47,2.77c0.62,0.76,1.13,0.98,1.51,0.98
			c0.12,0,0.23-0.02,0.32-0.06c1.16-0.41,0.99-2.8,0.23-4.95c-0.39-1.1-0.91-2.08-1.47-2.77
			C367.85,305.67,367.23,305.62,366.85,305.75z M368.09,307.15c0.51,0.62,0.99,1.53,1.35,2.55c0.83,2.34,0.59,3.86,0.23,3.99
			c-0.17,0.06-0.54-0.13-0.99-0.69c-0.51-0.62-0.99-1.53-1.35-2.55c-0.83-2.34-0.59-3.86-0.23-3.99c0.02-0.01,0.04-0.01,0.07-0.01
			C367.35,306.45,367.69,306.66,368.09,307.15z"/>
		<path class="st2" d="M299.94,359.94c-2.34,0-4.24,1.9-4.24,4.24s1.9,4.24,4.24,4.24c2.34,0,4.24-1.9,4.24-4.24
			S302.28,359.94,299.94,359.94z M299.94,367.66c-1.92,0-3.48-1.56-3.48-3.48s1.56-3.48,3.48-3.48s3.48,1.56,3.48,3.48
			S301.86,367.66,299.94,367.66z"/>
		<path class="st2" d="M30.85,388.9c-2,0-3.63,1.63-3.63,3.63c0,2,1.63,3.63,3.63,3.63c2,0,3.63-1.63,3.63-3.63
			C34.48,390.53,32.85,388.9,30.85,388.9z M30.85,395.41c-1.59,0-2.88-1.29-2.88-2.88s1.29-2.88,2.88-2.88
			c1.59,0,2.88,1.29,2.88,2.88S32.44,395.41,30.85,395.41z"/>
		<path class="st2" d="M30.85,390.16c-1.31,0-2.37,1.06-2.37,2.37s1.06,2.37,2.37,2.37c1.31,0,2.37-1.06,2.37-2.37
			S32.15,390.16,30.85,390.16z M30.85,394.15c-0.89,0-1.62-0.73-1.62-1.62s0.73-1.62,1.62-1.62c0.89,0,1.62,0.73,1.62,1.62
			S31.74,394.15,30.85,394.15z"/>
		<path class="st2" d="M48.14,390.69c-1.31,0-2.37,1.06-2.37,2.37s1.06,2.37,2.37,2.37c1.31,0,2.37-1.06,2.37-2.37
			S49.44,390.69,48.14,390.69z M48.14,394.68c-0.89,0-1.62-0.73-1.62-1.62s0.73-1.62,1.62-1.62c0.89,0,1.62,0.73,1.62,1.62
			S49.03,394.68,48.14,394.68z"/>
		<path class="st2" d="M302.51,384.26h-1.5c-0.72,0-1.32,0.54-1.4,1.25l-0.12,1.04c-0.03,0.25,0.01,0.5,0.11,0.72l0.59,1.36
			c0.22,0.51,0.73,0.84,1.29,0.84h0.42c0.49,0,0.94-0.25,1.2-0.67l0.61-0.99c0.14-0.22,0.21-0.48,0.21-0.74v-1.41
			C303.92,384.89,303.29,384.26,302.51,384.26z M303.17,387.08c0,0.12-0.03,0.24-0.1,0.34l-0.61,0.99
			c-0.12,0.19-0.33,0.31-0.56,0.31h-0.42c-0.26,0-0.5-0.15-0.6-0.39l-0.59-1.36c-0.05-0.11-0.06-0.22-0.05-0.34l0.12-1.04
			c0.04-0.33,0.32-0.58,0.65-0.58h1.5c0.36,0,0.66,0.29,0.66,0.66V387.08z"/>
		<path class="st2" d="M264.79,382.94l-138.05,4.71c-1.67,0.06-2.98,1.46-2.92,3.13c0.06,1.63,1.4,2.92,3.02,2.92
			c0.03,0,0.07,0,0.1,0L265,388.99c0.81-0.03,1.56-0.37,2.11-0.96c0.55-0.59,0.84-1.36,0.81-2.17
			C267.87,384.2,266.45,382.9,264.79,382.94z M266.56,387.52c-0.41,0.44-0.98,0.7-1.58,0.72l-138.05,4.71
			c-1.27,0.05-2.31-0.94-2.35-2.19c-0.04-1.25,0.94-2.31,2.19-2.35l138.05-4.71c1.23-0.03,2.31,0.94,2.35,2.2
			C267.19,386.5,266.97,387.08,266.56,387.52z"/>
		<path class="st2" d="M108.11,388.71c-2.85,0-5.18,2.32-5.18,5.17c0,2.85,2.32,5.18,5.18,5.18c2.85,0,5.18-2.32,5.18-5.18
			C113.28,391.03,110.96,388.71,108.11,388.71z M108.11,398.31c-2.44,0-4.42-1.98-4.42-4.42c0-2.44,1.98-4.42,4.42-4.42
			s4.42,1.98,4.42,4.42C112.53,396.32,110.54,398.31,108.11,398.31z"/>
		<path class="st2" d="M60.59,415.91c0.82,0,1.48-0.66,1.48-1.48s-0.67-1.48-1.48-1.48c-0.82,0-1.48,0.66-1.48,1.48
			S59.78,415.91,60.59,415.91z M60.59,413.69c0.4,0,0.73,0.33,0.73,0.73s-0.33,0.73-0.73,0.73c-0.4,0-0.73-0.33-0.73-0.73
			S60.19,413.69,60.59,413.69z"/>
		<path class="st2" d="M39.08,424.25c0.82,0,1.48-0.66,1.48-1.48s-0.67-1.48-1.48-1.48c-0.82,0-1.48,0.67-1.48,1.48
			S38.26,424.25,39.08,424.25z M39.08,422.04c0.4,0,0.73,0.33,0.73,0.73c0,0.4-0.33,0.73-0.73,0.73c-0.4,0-0.73-0.33-0.73-0.73
			C38.35,422.37,38.68,422.04,39.08,422.04z"/>
		<path class="st2" d="M45.94,402.6c0.95,0,1.72-0.77,1.72-1.72c0-0.95-0.77-1.72-1.72-1.72s-1.72,0.77-1.72,1.72
			C44.21,401.83,44.99,402.6,45.94,402.6z M45.94,399.9c0.54,0,0.97,0.44,0.97,0.97c0,0.54-0.44,0.97-0.97,0.97
			s-0.97-0.44-0.97-0.97C44.97,400.34,45.4,399.9,45.94,399.9z"/>
		<path class="st2" d="M31.52,399.15c-0.95,0-1.72,0.77-1.72,1.72c0,0.95,0.77,1.72,1.72,1.72c0.95,0,1.72-0.77,1.72-1.72
			C33.24,399.92,32.47,399.15,31.52,399.15z M31.52,401.85c-0.54,0-0.97-0.44-0.97-0.97c0-0.54,0.44-0.97,0.97-0.97
			c0.54,0,0.97,0.44,0.97,0.97C32.49,401.41,32.05,401.85,31.52,401.85z"/>
		<path class="st2" d="M375.19,363.94l0.86-0.74l5.2-4.47l-0.5-0.25c-5-2.53-11.36-4.1-14.7-4.81c-1.73-0.37-3.32-0.59-4.87-0.66
			c-1.77-0.09-3.38-0.07-4.82,0.02l-0.2-0.45c1.19-0.81,1.67-1.49,1.49-2.12c-0.28-0.99-2.14-1.17-2.99-1.21l-0.01-0.03
			c0.08-0.08,0.17-0.15,0.25-0.23c0.59-0.61,0.87-1.16,0.83-1.64l0,0l0.65-0.95l-0.26-0.38c0.26,0.22,0.58,0.34,0.91,0.34
			c0.2,0,0.4-0.04,0.59-0.13l1.15-0.54v-1.15l0.93-0.44l0.02-0.21c0.01-0.1,0.27-2.4-1.35-3.43l-1.55-0.88h-0.77l-0.91-2.78
			l3.06-5.24l3.08-3.24l0,0c0.85-0.62,1.29-1.72,1.33-1.82c0.61-2.78,1.3-4.44,1.5-4.89c3.33-1.27,6.32-3.02,7.67-5.34
			c0.56-0.34,0.85-1.1,0.83-2.26c-0.04-3.61-2.19-7.49-2.55-8.12c-0.08-2.25-0.49-3.67-1.24-4.22c-0.43-0.32-0.81-0.22-0.79-0.22h0
			c-12.02,1.06-21.93,8.44-22.03,8.51l-0.11,0.13c-0.4,0.77-0.67,1.33-0.86,1.75l-0.72-1.85l-2-1.59l-49.78-166.48l6.89-2.33
			l-1.23-1.55c0.57-0.9,0.74-1.73,0.5-2.46c-0.29-0.88-1.09-1.33-1.47-1.51l-0.73-3.5l1.37-0.66l-1-3.16l-3.02-0.68l-1.25,0.51
			l-0.56-1.25l0.42-5.58l-1.74-3.28l-5.06,2.18l0.81,2.1c-0.11,0.46-0.47,2.12-0.47,4.29l-19-62.71l8.55,0.18l1.62-2.03l5.56,2.66
			c1.19,0.57,2.54,0.67,3.72,0.27c0.66-0.23,1.27-0.55,1.82-0.98c0.91-0.71,1.53-1.74,1.75-2.91c0.34-1.83-0.21-3.43-0.74-4.44
			c-0.42-0.81-1.09-1.49-1.95-1.98l-2.77-1.58c1.18-2.57,0.97-4.8,0.85-5.56l1.51-0.93l2.53-0.25l2.39,3l13.46,3.5l5.12-1.18
			l-0.63-4.17l-4.72,0.33l-12.23-4.03c-0.9-5.25-10.69-5.89-11.12-5.91l-0.12-0.01l-0.96,0.6c-4.46-1.14-13.58-0.68-14.88-0.6
			l-17.7-13.65l6.28-4.37c2.05,1,4.57-0.05,4.66-0.09c7.4-2.74,8.5-6.49,8.64-7.19c2-2.6,1.73-4.13,1.72-4.19l-3.46-5.53l-0.13-0.04
			c-5.41-1.87-10.15,1.4-11.16,2.18l-0.45-0.21c-0.03-1.11-0.35-1.96-0.95-2.53c-0.82-0.77-1.84-0.71-1.89-0.7l-0.11,0.01
			l-2.54,1.88c-2.16,0.24-3.65,1.84-4.01,2.26c-3.36,1.04-3.99,4.53-4.01,4.68l-0.02,0.12l2.61,5.36l-2.28,1.3
			c-4.84-5.52-9.61-4.17-10.66-3.78l-8.28-5.61c-5.57-4.85-10.38-0.55-10.43-0.49c-2.01,1.98-2.02,4.68-1.79,6.32l-0.19-0.21
			l0.47,1.55c0,0.01,0.01,0.03,0.01,0.03c-0.04,0.8-0.26,7.43,2.99,9.97c0.34,0.39,3.1,3.21,10.09,0.61
			c0.14-0.03,0.59-0.09,0.78,0.1c0.14,0.14,0.16,0.46,0.04,0.9c-0.1,0.38-0.03,0.8,0.18,1.15l2.83,4.72l-0.07,0.46
			c-1.14-0.49-4.22-2.07-5.11-5.05l-0.08-0.27h-1.98l0.02,0.4c0.01,0.21,0.34,5.08,5.88,9.43c0.03,0.03,0.04,0.06,0.01,0.13
			l-2.69,1.9l0.69,1.71l-3.12,2.08l0.01,0.22c0.01,0.15,0.25,3.6,2.9,6.49l0.18,0.2l6.84-2.96l0.75,1.34l6.46-1.98l0.32-1.05
			l1.14-0.26l0.53,0.77l6.19-1.5l-0.97-3.6l1.7-0.55l5.62,5.62c-0.92,0.96-3.81,4.5-5.88,12.81c-0.03,0.11-2.89,10.97,1.17,26.43
			c0.17,0.66,0.39,1.36,0.65,2.09c2.08,5.78,9.82,26.41,22.34,50.08l-1.37,1.19v1.67l1.04,1.65l0.61-0.62l51.57,176.02l0.06,0.22
			l1.28,0.25c0.1,0.23,0.29,0.66,0.54,1.26c-0.43,0.3-0.91,0.49-1.42,0.55c-0.35,0.04-0.69-0.07-0.96-0.32
			c-0.29-0.26-0.46-0.64-0.46-1.04v-2.21l-1.82-1.33l-2.18,0.98l0.02,0.26c0.01,0.24,0.34,5.83,1.01,7.65
			c0.02,0.05,1.96,5.46-4.02,11.56l-14,15.29l-8,7.44c-1.28,1.19-2.13,2.66-2.48,4.27c-0.37,1.73-0.55,4.36,0.85,6.62
			c-0.05,0.16-0.11,0.31-0.21,0.44c-0.26,0.36-0.66,0.58-1.11,0.6l-200.22,8.74c-0.25,0.02-0.5-0.04-0.73-0.16l-4.11-2.09
			c-0.19-0.1-0.35-0.23-0.48-0.4c-2.63-3.38-26.59-32.56-56.36-17.78c-0.37,0.18-0.79,0.21-1.16,0.07l-7.77-2.86
			c-0.27-0.1-0.56-0.14-0.84-0.13l-9.07,0.32H6.72c-0.66,0-1.3,0.27-1.76,0.75l-0.58,0.61c-1.12,1.18-1.74,2.73-1.74,4.35v8.15
			c0,0.94,0.49,1.8,1.28,2.25c0.68,0.39,1.46,0.58,2.33,0.58c0.23,0,0.47-0.02,0.71-0.05c0.1,0.02,0.2,0.04,0.31,0.04
			c0.36,0,0.65,0.29,0.65,0.65v0.76c0,0.88-0.47,1.7-1.21,2.14c-1.03,0.6-2.52,1.57-3.84,2.74c-0.44,0.39-1.02,0.61-1.63,0.61H0
			l0.35,0.78c0.52,1.17,1.68,1.92,2.96,1.92h2.77c0.87,0,1.66,0.44,2.12,1.18l1.53,2.49c-2.18,4.92-3.29,10.18-3.29,15.64
			c0,20.81,16.45,37.74,36.68,37.74c19.3,0,36.53-13.22,39.38-30.15l199.19-8.21c0.51,0.69,2.52,3.2,4.79,3.2
			c0.11,0,0.22-0.01,0.32-0.02c1.44-0.16,2.64-1.35,3.58-3.54l3.13-0.13c1.46-0.06,2.71-0.9,3.38-2.1l10.08-0.57
			c0.69-0.04,1.36-0.25,1.94-0.61l1.45-0.9c0.67-0.42,1.21-1.02,1.55-1.73l1.21-2.55c0.24-0.51,0.38-1.05,0.4-1.62l0.41-10.89
			c2.95-0.54,6.37-1.41,9.7-2.77c-1.98,3.21-7.51,13.9-4.43,28.96c0.09,0.45,0.41,0.81,0.85,0.96c0.14,0.05,0.28,0.07,0.42,0.07
			c0.31,0,0.61-0.11,0.85-0.32l4.59-4c1.7,18.36,17.46,32.63,36.21,32.63c19.84,0,35.99-15.96,35.99-35.58
			C398.09,383.27,388.7,369.6,375.19,363.94z M375.55,362.63c-1.01,0.87-2.52,0.88-3.45,0.02c-5.09-4.73-18.49-4.39-22.8-4.15
			c0.59-0.52,0.86-1.01,0.79-1.5c-0.04-0.28-0.18-0.52-0.39-0.73c4.23-0.14,20.65-0.32,27.89,4.61L375.55,362.63z M338.71,397.62
			l0.03,0.3c1.16,11.91,9.92,20.55,20.84,20.55c11.22,0,20.01-9.16,20.01-20.85c0-8.14-5.96-14.41-11.63-17.63l1.89-8.11
			c10.57,3.59,18.2,14.69,18.2,26.59c0,14.82-12.25,26.87-27.3,26.87c-14.49,0-26.43-11.53-27.78-26.82
			c-0.09-1.02-0.1-1.96-0.05-2.8l1.61,0.03c0.77,0.02,1.52-0.19,2.17-0.6l1.88-1.18C338.47,395.16,338.59,396.4,338.71,397.62z
			 M342.94,364.56l-0.03,0.01l-0.06-0.37c-0.53,0.09-0.84,0.11-1.04,0.11c0.15-0.14,0.43-0.36,0.93-0.68c0.62-0.1,4.35-0.8,5.88-2.7
			c0.16-0.2,0.3-0.42,0.4-0.64l-0.5-0.24l-0.14-0.46c0.88,0.26,1.82,0.7,1.87,1.19c0.03,0.3-0.27,1.13-3.59,2.46
			c-0.22,0.09-0.45,0.16-0.68,0.23c-0.56,0.15-1.97,0.53-3.1,0.72L342.94,364.56z M356.91,324.91l-0.68-1.12
			c0.54-0.1,1.1-0.22,1.68-0.35C357.43,323.79,357.08,324.3,356.91,324.91z M358.37,326.02c0,0.26-0.21,0.47-0.47,0.47
			s-0.47-0.21-0.47-0.47s0.21-0.47,0.47-0.47S358.37,325.76,358.37,326.02z M356.69,326c0,0.01,0,0.02,0,0.02
			c0,0.33,0.14,0.64,0.35,0.86c0.23,0.53,0.61,0.94,1.07,1.22l-1.21,1.24l-4.27,7.71l-0.33,0.29l-4.46-15.88
			c2.15,2.98,2.26,3.03,2.37,3.07c0.04,0.02,0.14,0.03,0.3,0.03c0.72,0,2.58-0.19,4.93-0.61L356.69,326z M352.79,339.09l-0.27-0.95
			l0.11-0.1C352.67,338.32,352.72,338.68,352.79,339.09z M353.68,345.03c0.09,0.32-0.08,0.66-0.39,0.77l-0.43,0.16l-0.51,0
			l0.07,0.16l-6.25,2.3l-1.2-2.15l0.53-0.83l-1.44-2.8c1.49-0.18,5.62-0.88,8.03-3.29L353.68,345.03z M348.06,351.64
			c0.09,0.07,0.24,0.19,0.64,0.19c0.3,0,0.76-0.07,1.43-0.29l0.29,0.65c-1.44,1.06-1.91,1.66-1.66,2.15
			c0.01,0.03,0.03,0.06,0.05,0.09c-0.86,0.3-1.41,0.55-1.66,0.68c0.92-0.86,1.25-1.52,1.02-2.06c-0.15-0.35-0.51-0.53-0.9-0.63
			c0.14-0.16,0.25-0.36,0.27-0.59c0.04-0.35-0.13-0.69-0.47-0.99l-0.28-1.32l-0.4-0.39l2.28-0.84l0.78,1.74
			c-0.56,0.23-1.06,0.42-1.41,0.54l-0.21,0.07l-0.04,0.22C347.73,351.3,347.93,351.53,348.06,351.64z M346.38,354.8L346.38,354.8
			c-0.26,0.23-0.57,0.48-0.94,0.75c-1.01,0.75-2.13,1.31-3.32,1.65c-1.67,0.48-2.23,0.43-2.39,0.39c0.02-0.04,0.04-0.1,0.1-0.18
			c1.1-0.26,6.39-1.63,7.14-3.9l-0.48-0.16l-0.08-0.27c0.51,0.01,1.01,0.11,1.08,0.28C347.49,353.36,347.63,353.72,346.38,354.8z
			 M346.9,357.3c-1.56,1.33-3.98,1.88-4.86,2.04l-0.3-1.26c0.19-0.05,0.38-0.1,0.6-0.16c1.28-0.36,2.47-0.96,3.56-1.76
			c0.2-0.14,0.37-0.28,0.54-0.42L346.9,357.3z M339.26,347.32l-0.33-0.05c-0.02-0.16-0.04-0.33-0.06-0.49L339.26,347.32z
			 M338.86,345.46l1.07-0.73l1.6,0.13l0.65,1.28c-0.72,0.19-1.47,0.53-2.06,1.09L338.86,345.46z M340.24,348.22l0.13-0.17
			c1.03-1.32,3.26-1.42,3.93-1.42l1.15,2.07c-2.02,0.83-4.71,1.92-5.5,2.23c-0.19-0.26-0.54-0.75-0.86-1.22
			c-0.01-0.54-0.04-1.1-0.09-1.65L340.24,348.22z M345.64,349.44l0.47,0.46l0.19,0.9l-3.25,1.31l-0.56-1.39
			C343.28,350.4,344.31,349.99,345.64,349.44z M340.13,351.66c0.27-0.09,0.75-0.28,1.67-0.65l0.54,1.35l-2.03,0.57L340,352
			L340.13,351.66z M340.35,353.69l2.63-0.74l3.68-1.48c0.08,0.09,0.15,0.18,0.14,0.28c-0.02,0.18-0.29,0.39-0.49,0.49
			c-0.14,0.03-0.27,0.07-0.4,0.1c-0.01,0-0.04,0-0.05,0l-0.46,0.04l0.02,0.07c-2.34,0.64-4.22,1.86-4.81,2.28
			c-0.13-0.09-0.22-0.19-0.27-0.32C340.25,354.16,340.3,353.87,340.35,353.69z M345.87,353.89c-0.89,0.98-2.93,1.8-4.58,2.32
			l-0.21-0.88c0.58-0.4,2.38-1.56,4.57-2.16L345.87,353.89z M349.39,348.03l3.33-1.23l0.5,1.11c-0.73,0.66-1.95,1.31-3.07,1.82
			L349.39,348.03z M344.63,345.4l-0.3,0.47c-0.02,0-0.03,0-0.05,0c-0.29,0-0.77,0.02-1.33,0.11l-0.74-1.47l0.37-0.65l1.33,0.13
			L344.63,345.4z M342.16,343.06l-0.59,1.05l-1.84-0.15l-1.06,0.72c-0.05-0.66-0.14-1.65-0.31-2.92c0.44-0.88,0.98-1.36,1.59-1.41
			c1.26-0.11,2.73,1.53,3.21,2.18l0.34,0.66L342.16,343.06z M339.1,351.03c0.13,0.18,0.23,0.31,0.3,0.41l-0.2,0.54l0.45,1.39
			c-0.09,0.25-0.22,0.79-0.01,1.31c0.13,0.32,0.36,0.56,0.67,0.74l0.24,1.01c-0.4,0.11-0.76,0.21-1.04,0.27l-0.13,0.03l-0.08,0.11
			c-0.13,0.18-0.54,0.72-0.23,1.17c0.13,0.19,0.35,0.35,0.91,0.35c0.26,0,0.59-0.04,1.01-0.12l0.24,0.99
			c-1.75,0.43-3.07,1.25-3.92,1.94C338.16,358.64,339.03,355.07,339.1,351.03z M341.9,360.13c0.59-0.09,3.78-0.64,5.7-2.43
			l-0.26-0.28l0.26,0.28c0.28-0.26,0.53-0.55,0.72-0.84l-0.62-0.42c-0.06,0.08-0.12,0.16-0.19,0.25l-0.21-0.68
			c0.94,0.21,2,0.61,2.06,1.09c0.03,0.23-0.16,1.11-3.81,2.65c-1.72,0.55-3.74,1.04-4.51,1.05
			C341.17,360.67,341.43,360.45,341.9,360.13z M345.8,360.46c0.69-0.29,1.28-0.57,1.8-0.84l0.3,0.98c-1.27,1.4-4.06,2.05-5.02,2.24
			l-0.36-1.48C343.31,361.19,344.37,360.92,345.8,360.46z M346.19,364.2c0.25-0.07,0.51-0.15,0.76-0.25
			c0.67-0.27,1.24-0.53,1.74-0.78l0.29,0.96c-1.31,1.63-4.31,2.05-5.27,2.14l-0.34-1.39C344.46,364.66,345.68,364.34,346.19,364.2z
			 M343.55,367.03c0.73-0.05,4.6-0.41,6.16-2.61l0,0c0.16-0.22,0.28-0.45,0.38-0.69l-0.5-0.21l-0.11-0.35
			c0.67,0.24,1.44,0.63,1.52,1.1c0.07,0.38-0.38,0.9-1.25,1.45c-0.47,0.3-1.07,0.61-1.79,0.92c-0.3,0.13-0.63,0.25-1,0.36
			c-0.73,0.21-2.12,0.6-3.24,0.8c-0.67,0.12-1.03,0.12-1.2,0.11C342.63,367.76,342.91,367.49,343.55,367.03z M350.04,367.64
			c-2.29,1.83-4.77,1.91-5.55,1.89l-0.26-1.06c1.07-0.21,2.27-0.55,2.93-0.74c0.4-0.12,0.76-0.25,1.09-0.39
			c0.56-0.25,1.05-0.49,1.47-0.73L350.04,367.64z M344.32,370.27c0.76,0.05,3.71,0.07,6.4-2.21l0,0c0.16-0.13,0.32-0.28,0.47-0.43
			l-0.52-0.54c0,0,0,0-0.01,0l-0.06-0.21c0.69,0.15,1.43,0.44,1.51,0.81c0.03,0.16-0.02,0.79-2.1,1.99
			c-0.97,0.56-2.05,0.97-3.23,1.21c-1.23,0.26-1.98,0.33-2.44,0.33c-0.56,0-0.67-0.1-0.67-0.1
			C343.67,371.12,343.68,370.88,344.32,370.27z M351.06,371c-1.88,2.19-4.93,1.94-5.78,1.82l-0.21-0.88c0.49-0.05,1.1-0.14,1.86-0.3
			c1.26-0.26,2.42-0.7,3.46-1.3c0.14-0.08,0.27-0.16,0.4-0.24L351.06,371z M345.09,373.55c0.88,0.14,4.5,0.54,6.69-2.22l0,0
			c0.07-0.09,0.14-0.18,0.2-0.27l-0.14-0.1l-0.11-0.37c0.57,0.17,1.13,0.46,1.18,0.79c0.03,0.19-0.08,0.93-2.78,2.27
			c-0.65,0.32-1.34,0.54-2.06,0.66c-2.7,0.42-3.49,0.15-3.57,0.02C344.5,374.32,344.48,374.11,345.09,373.55z M352.03,374.2
			c-2.33,1.67-5.08,1.91-5.95,1.94l-0.21-0.86c0.58-0.01,1.33-0.08,2.31-0.23c0.79-0.12,1.55-0.37,2.27-0.73
			c0.53-0.26,0.99-0.52,1.38-0.76L352.03,374.2z M345.92,376.9c0.74,0,4.05-0.15,6.8-2.26l-0.23-0.3l0.34-0.1l-0.01-0.05
			c0.4,0.24,0.78,0.56,0.78,0.9c0,0.32-0.36,1.2-3.75,2.37c-0.36,0.13-0.76,0.23-1.18,0.3c-2.62,0.44-3.45,0.19-3.52,0.07
			C345.14,377.83,345.12,377.58,345.92,376.9z M353.1,377.72c-3.16,2.65-5.45,2.44-6.08,2.31l-0.31-1.28
			c0.55-0.03,1.23-0.1,2.08-0.25c0.46-0.08,0.9-0.19,1.3-0.33c1.17-0.41,2.09-0.82,2.77-1.23L353.1,377.72z M346.65,380.51
			l-0.07,0.19c0.04,0.02,0.47,0.17,1.19,0.17c1.24,0,3.37-0.44,6.01-2.72l0.23-0.2l-0.13-0.14l0.03-0.01l-0.06-0.2
			c0.31,0.13,0.59,0.31,0.62,0.54c0.03,0.23-0.15,1.12-3.76,2.84c-0.32,0.15-0.67,0.26-1.04,0.33c-2.56,0.44-3.56,0.23-3.64,0.05
			C346.03,381.35,345.99,381.12,346.65,380.51z M353.94,380.49c-0.78,0.49-3.44,2.03-6.32,2.05l-0.06-0.23
			c0.58-0.02,1.3-0.1,2.23-0.26c0.44-0.08,0.86-0.21,1.24-0.39c1.19-0.57,2.11-1.09,2.78-1.58L353.94,380.49z M347.43,383.29
			c0.05,0,0.09,0,0.14,0c3.3,0,6.24-1.81,6.89-2.24l0.15,0.03c0.57,0.13,1.01,0.57,1.13,1.14l2.64,12.82l-2.03,0.78l-8.01,3.08
			l-2.72-11.54C345.24,385.75,345.99,384.09,347.43,383.29z M348.9,401.13l0.33-1.08l2.53,1.99c0.32,1.2,1.37,2.1,2.65,2.19
			l1.32,1.79l0,0l0.64,0.86c-0.7-0.34-1.47-0.48-2.23-0.18C353.37,406.13,350.16,403.69,348.9,401.13z M353.3,407
			c-0.39,0.16-0.69,0.34-0.88,0.48c-1.93-1.85-3.82-4.67-4.46-5.65l0.37-0.17C349.57,403.99,352.14,406.12,353.3,407z
			 M355.52,397.95c-0.6,0-1.19,0.17-1.69,0.48c-1.17,0.33-2.03,1.34-2.15,2.58l-2.21-1.73l7.03-2.71c1.71,0.19,2.99,1.63,2.99,3.35
			c0,0.91-0.37,1.75-0.98,2.37c0.13-0.35,0.22-0.73,0.22-1.13C358.73,399.39,357.29,397.95,355.52,397.95z M356.31,398.85
			c0.97,0.33,1.67,1.24,1.67,2.32c0,0.87-0.45,1.63-1.14,2.07c0.46-0.52,0.75-1.2,0.75-1.95
			C357.59,400.27,357.08,399.38,356.31,398.85z M356.84,401.28c0,1.22-0.99,2.21-2.21,2.21c-1.22,0-2.21-0.99-2.21-2.21
			c0-1.22,0.99-2.21,2.21-2.21C355.84,399.07,356.84,400.06,356.84,401.28z M356.19,405.36l-0.73-0.99c0.02,0,0.04,0,0.07,0
			c0.09,0,0.18-0.02,0.27-0.03c0.76,0.33,1.57,0.5,2.41,0.5c3.33,0,6.03-2.71,6.03-6.03c0-2.22-1.19-4.21-3.12-5.27
			c0.02-0.23,0.01-0.47-0.04-0.71l-0.3-1.26c2.72,1.09,4.57,3.78,4.57,6.75c0,4.01-3.26,7.27-7.27,7.27
			C357.42,405.6,356.8,405.52,356.19,405.36z M360.9,394.29c1.6,0.95,2.59,2.64,2.59,4.53c0,2.91-2.37,5.28-5.28,5.28
			c-0.39,0-0.78-0.04-1.15-0.13c0.03-0.01,0.05-0.03,0.08-0.04c1.84-0.46,3.12-2.1,3.12-4c0-1.72-1.05-3.18-2.57-3.8l2.08-0.8
			C360.27,395.13,360.66,394.75,360.9,394.29z M348.19,399.77c0.01,0,0.01,0,0.02-0.01l0.36-0.14l-0.39,1.26l-0.25,0.12
			L348.19,399.77z M352.15,408.26l0.27,0.24l0.25-0.26c0,0,0.44-0.43,1.37-0.71l0.04,0.03l0.2-0.1c1.76-0.91,4.02,2.01,4.04,2.04
			l0.6-0.45l-2.07-2.78c0.4,0.06,0.79,0.09,1.2,0.09c4.43,0,8.03-3.6,8.03-8.03c0-3.46-2.27-6.56-5.53-7.63l-0.48-1.99
			c0.51-0.5,1.22-0.79,1.94-0.73c1,0.06,1.96-0.32,2.64-1.06l1.69-1.84c0.11-0.12,0.21-0.25,0.3-0.39c0.66,0.33,1.29,0.72,1.88,1.17
			c0.29,1.14,2.1,9.09-1.66,14.59c-0.36,0.35-0.75,0.7-1.16,1.02l-0.1,0.08l-0.22,0.88c-0.07,0.17-0.04,0.37,0.08,0.51l3.96,4.72
			l0.15,0.02c0.02,0,0.09,0.01,0.2,0.01c0.33,0,1-0.06,1.77-0.44c-2.69,3.61-6.97,5.96-11.8,5.96c-5.92,0-10.56-3.55-13.34-8.18
			l1.07-2.55C348.28,403.69,350.19,406.46,352.15,408.26z M369.48,386.65c1,0.91,1.88,1.99,2.61,3.19
			c-0.12,0.78-0.78,4.49-3.06,7.98C370.56,393.47,369.91,388.77,369.48,386.65z M366.21,402.23l0.06-0.25
			c0.42-0.34,0.81-0.69,1.19-1.06l0,0c0,0,0,0,0,0c3.5-3.44,4.79-7.98,5.21-10.04c1.16,2.27,1.81,4.89,1.81,7.61
			c0,1.8-0.34,3.51-0.93,5.11C371.35,404.51,367.54,402.87,366.21,402.23z M373.18,404.5c-0.09,0.21-0.2,0.42-0.3,0.62
			c-1.21,1.66-2.63,1.81-3.08,1.82l-3.06-3.64C368.47,404.05,371.15,404.95,373.18,404.5z M347.05,401.56l-1.11,2.64
			c-1.02-1.9-1.75-3.95-2.13-5.99c-0.02-0.11-0.04-0.35-0.06-0.61l2.26,1.82c0.4,0.32,0.89,0.47,1.38,0.47L347.05,401.56z
			 M359.75,413.96c6,0,11.19-3.43,13.76-8.43c0.02-0.02,0.03-0.04,0.05-0.06l-0.01-0.01c1.07-2.1,1.68-4.47,1.68-6.98
			c0-6.23-3.3-11.98-8.24-14.46c0.05-0.14,0.1-0.28,0.13-0.43l0.66-2.85c5.42,3.15,11.05,9.14,11.05,16.86
			c0,11.27-8.46,20.1-19.26,20.1c-10.52,0-18.97-8.36-20.09-19.87l-0.03-0.3c-0.13-1.36-0.27-2.77-0.06-4.03
			c0.05-0.01,0.1-0.02,0.16-0.02h0.67c0.24,0,0.45,0.18,0.49,0.43l0.1,0.74c0.06,0.42,0.27,0.8,0.6,1.06l1.55,1.24
			c0.01,0.38,0.05,1.11,0.1,1.38C344.52,406.11,350.71,413.96,359.75,413.96z M369.77,368.96l-3.38,14.47
			c-0.1,0.43-0.31,0.82-0.6,1.14l-1.69,1.84c-0.52,0.57-1.27,0.87-2.04,0.82c-1.01-0.07-2.02,0.35-2.69,1.11l-0.07,0.08l0.23,0.2
			l-0.24,0.06l1.05,4.33c0.16,0.67-0.2,1.36-0.84,1.61l-0.39,0.15l-2.62-12.69c-0.18-0.86-0.85-1.54-1.71-1.73l-0.09-0.02
			l-0.24-0.78c0.57-0.54,0.83-1.04,0.77-1.52c-0.12-0.85-1.15-1.2-1.63-1.32l-0.07-0.22c0.55-0.46,0.84-0.92,0.84-1.4
			c0-1.06-1.32-1.68-1.83-1.88l-0.03-0.09c0.87-0.66,1.25-1.26,1.16-1.85c-0.15-0.99-1.59-1.39-2.18-1.52l-0.03-0.09
			c1.09-0.78,1.55-1.47,1.41-2.12c-0.2-0.94-1.58-1.31-2.33-1.44c0.93-0.66,1.33-1.31,1.22-1.96c-0.15-0.85-1.17-1.37-1.93-1.65
			c0.85-0.6,1.25-1.19,1.2-1.78c-0.06-0.67-0.71-1.14-1.39-1.46c4.47-0.22,17.27-0.43,21.98,3.96c0.61,0.57,1.39,0.85,2.19,0.85
			c0.04,0,0.09-0.01,0.13-0.01l-0.82,0.71l-0.06,0.06c-0.01,0.01-0.73,1-2.32,2.5C370.24,367.75,369.91,368.32,369.77,368.96z
			 M361.14,353.75c1.51,0.08,3.06,0.29,4.75,0.65c3.19,0.68,9.17,2.15,14.01,4.5l-1.71,1.47c-8.4-5.92-28.66-4.86-29.53-4.81l0,0.07
			c-0.15-0.06-0.3-0.11-0.45-0.16C349.95,354.77,354.29,353.4,361.14,353.75z M355.31,353.1c0.07-0.04,0.13-0.08,0.2-0.12l0.05,0.1
			C355.48,353.09,355.39,353.1,355.31,353.1z M355.29,351.03l-0.26-0.14h0L355.29,351.03c0.1-0.18,0.18-0.38,0.22-0.57l-0.35-0.08
			l-0.16-0.35c0.93,0.08,1.83,0.32,1.92,0.63c0.01,0.05,0.08,0.48-1.44,1.46l0,0c-0.18,0.12-0.39,0.24-0.61,0.37
			c-0.54,0.31-1.12,0.56-1.72,0.74c-0.77,0.23-1.39,0.39-1.9,0.51c-0.04,0.01-0.08,0.02-0.12,0.03c-0.87,0.19-1.36,0.23-1.6,0.21
			c0.11-0.15,0.39-0.46,1.1-1l0.06,0.42c0,0,0.22-0.03,0.57-0.11C352.44,353.04,354.54,352.39,355.29,351.03z M350.85,351.29
			c0.5-0.19,1.09-0.43,1.8-0.76c0.53-0.25,0.97-0.52,1.39-0.82l0.5,1.11c-0.65,0.94-2.23,1.46-3.15,1.69L350.85,351.29z
			 M354.35,348.46c-0.13,0.13-0.26,0.26-0.4,0.38c-0.45,0.38-0.98,0.71-1.61,1.01c-1.79,0.84-2.84,1.15-3.36,1.2
			c1.49-0.56,4.85-1.99,5.54-3.56l-0.69-0.3c-0.01,0.03-0.04,0.06-0.05,0.09l-0.24-0.53c0.63,0.07,1.29,0.26,1.42,0.57
			C355.05,347.55,354.83,347.96,354.35,348.46z M354.39,346.14c-0.09-0.02-0.17-0.04-0.26-0.06c0.04-0.04,0.07-0.09,0.1-0.14
			C354.28,346,354.34,346.07,354.39,346.14z M354.28,344.4c0.19,0.42,0.4,0.81,0.63,1.18c-0.17-0.22-0.33-0.44-0.49-0.66
			c-0.01-0.03-0.01-0.06-0.02-0.09L354.28,344.4z M358.95,342.98c-0.18-0.39-0.26-0.77-0.29-1.06
			C358.83,342.27,358.91,342.65,358.95,342.98z M358.98,343.54c0,0.02,0,0.05,0,0.07l-0.33,0.15L358.98,343.54z M357.97,341.11
			c0.13,0.08,0.24,0.17,0.33,0.28l-0.42-0.04c0,0.05-0.11,1.32,0.66,2.46l-0.55,0.26v0.12c-0.74-1.38-0.9-2.8-0.92-3.59
			L357.97,341.11z M355.5,340.34h0.82c-0.01,0.89,0.13,3.05,1.48,4.97l-0.52,0.24c-0.24,0.11-0.52,0.06-0.71-0.12l-0.38-0.37
			l-0.28-2.34c-0.01-0.06-0.02-0.12-0.03-0.18l-1.22-4.76l0.01-0.01L355.5,340.34z M357.63,331.08l-3.31,5.64l0.01,0.02l-0.46,0.98
			l1.29,5.02c0.01,0.03,0.01,0.06,0.02,0.08l0.26,2.17c-1.5-2.56-2.03-6.87-2.11-7.62l4.16-7.54l1.4-1.43c0.01,0,0.02,0,0.03,0.01
			c0.32,0.19,0.64,0.3,0.96,0.34L357.63,331.08z M358.98,325.45c0.18,0.09,0.3,0.26,0.3,0.47c0,0.15-0.08,0.27-0.18,0.36
			c0.02-0.08,0.03-0.17,0.03-0.26C359.13,325.81,359.07,325.62,358.98,325.45z M359.34,327.69c-0.06,0-0.11-0.01-0.17-0.01
			c0.88-0.13,1.55-0.88,1.55-1.79c0-1-0.81-1.81-1.81-1.81c-0.29,0-0.57,0.08-0.82,0.21c0.32-0.35,0.76-0.56,1.25-0.56
			c0.99,0,1.79,0.89,1.79,1.98S360.32,327.69,359.34,327.69z M361.89,326.28c0,0-0.07,0.16-0.18,0.37c0.1-0.3,0.17-0.62,0.17-0.95
			c0-1.38-0.95-2.51-2.18-2.7c1.14-0.3,2.31-0.64,3.45-1.04C362.83,322.79,362.34,324.24,361.89,326.28z M369.35,306.17l0.32-0.17h0
			l-0.31,0.19c0.02,0.04,2.45,4.18,2.5,7.83c0.01,0.65-0.08,1.46-0.55,1.65c-1,0.4-3.44-1.61-4.74-2.98l-0.07-0.07l-2.46-0.71
			l-0.71-2.17l2.52-3.18l0.05-0.08c0.59-1.36,1.07-2.2,1.43-2.72C368.55,304.66,369.34,306.15,369.35,306.17z M368.32,302.93
			c0.3,0.05,0.57,0.68,0.76,1.49c-0.34-0.42-0.76-0.87-1.25-1.24C368.1,302.92,368.27,302.91,368.32,302.93z M346.52,310.51
			c0.88-0.64,10.22-7.27,21.5-8.31c-0.83,0.21-1.71,1.46-2.79,3.92l-2.74,3.46l0.96,2.93l2.64,0.77c0.53,0.55,2.92,2.92,4.67,3.16
			c-4.1,5.62-18.57,7.33-20.25,7.36c-0.42-0.52-2.17-2.93-3.28-4.47l-1.72-6.14l0.04-0.01l-0.11-0.29
			C345.51,312.58,346.03,311.46,346.52,310.51z M351.85,338.5c-2.33,2.68-7.16,3.32-8.21,3.43c-0.47-0.6-2.08-2.47-3.77-2.34
			c-0.65,0.06-1.21,0.4-1.69,1.01c-0.72-4.76-2.41-12.73-6.34-23.47c4.76-0.83,11.32-3.1,12.97-3.69L351.85,338.5z M343.69,310.45
			l0.89,2.28c-1.79,0.63-9.77,3.38-14.38,3.88l-1.77-3.6c6.9-0.56,12.36-3.32,13.52-3.94L343.69,310.45z M296.57,134.63l0.21,0.07
			c0.01,0,0.94,0.33,1.2,1.11c0.18,0.55,0,1.24-0.56,2.02l-0.16,0.23l0.91,1.15l-6.56,2.22l49.93,167
			c-0.64,0.34-2.41,1.23-4.93,2.08l-53.23-176.73l3.67-1.14c-0.49,0.92-0.93,2.49-0.14,4.59c0.02,0.07,0.49,1.63,2.17,2.48
			c0.69,0.35,1.48,0.53,2.35,0.53c0.97,0,2.06-0.22,3.25-0.65l0.13-0.05l0.96-1.75c0.35-0.64,0.49-1.36,0.42-2.07
			c-0.15-1.37-0.54-3.66-1.51-5.26l1.07,0.22L296.57,134.63z M288.49,132.18l4.57-1.63l-0.12,0.25c-1.07,2.31-0.97,4.97,0.27,7.14
			c0.22,0.38,0.46,0.74,0.72,1.1c-1.83,0.59-3.35,0.59-4.51,0.01c-1.39-0.7-1.79-2.02-1.81-2.05c-1.02-2.73,0.27-4.38,0.57-4.71
			l0.3-0.09L288.49,132.18z M293.63,131.12l0.24-0.51c1.02,1.45,1.42,3.82,1.57,5.19c0.06,0.56-0.05,1.12-0.33,1.63l-0.6,1.1
			c-0.23-0.32-0.44-0.64-0.63-0.97C292.75,135.61,292.66,133.2,293.63,131.12z M294.58,129.67l0.24-0.22l1.48,0.37l-0.29,0.14
			L294.58,129.67z M296.27,127.38l0.57,1.79l-1.83-0.46l-0.57-1.75L296.27,127.38z M290.37,117.44l1.32,2.47l-0.42,5.55l0.93,2.09
			l1.45-0.59l0.64,1.96l-0.61,0.56l-0.1-0.02l-0.06,0.13l-5.31,1.89l-0.92-2.18l-0.03-0.09c-0.97-3.71-0.28-7.31-0.08-8.18
			c0.5-0.16,1.65-0.54,2.63-0.87l-0.24-0.71c-0.78,0.26-1.93,0.65-2.48,0.82l-0.46-1.21L290.37,117.44z M286.46,129.2l-7.19,2.64
			l-24.36-81.02c1.08-2.79,4.26-5.66,4.94-6.26l6.26,17.5L286.46,129.2z M278.56,132.1l-3.13,1.15l-1.38-4.07
			c-0.29-0.86-0.72-1.67-1.26-2.4l-2.57-3.45c-14.26-24.41-18.5-45.79-18.54-46c-2.64-14.26,1.36-23.12,2.72-25.6L278.56,132.1z
			 M268.11,41.03c0.75-0.12,1.5-0.19,2.22-0.24c0.34,0.51,0.62,1.02,0.81,1.54c0.61,1.66,0.32,3.54-0.78,5.01
			c-1.12,1.49-2.87,2.32-4.67,2.2c-0.62-0.04-1.02-0.17-1.07-0.19l-1.45-0.75l-1.38-0.83l-0.09-0.25
			C266.7,47.04,267.89,42.28,268.11,41.03z M266.77,42.86c0.17-0.5,0.3-1.05,0.38-1.66c0.06-0.01,0.11-0.02,0.17-0.03
			C267.23,41.58,267.07,42.19,266.77,42.86z M279.18,53.94c-0.72,0.38-2.46,0.64-3.17,0.72l-0.56-0.17c-2.75-1.61-3.39-4.97-3.4-5
			c-0.68-3.9,3.23-7.77,3.97-8.47c0.74,0.1,1.38,0.2,1.89,0.3c0.5,0.49,3.33,3.36,4.14,6.14l0.16,0.55l0,0
			C282.5,49.16,282.75,52.06,279.18,53.94z M279.33,54.7c-1.05,1.94-2.51,3.91-3.05,3.75l-0.05-0.01l-0.05,0
			c-0.02,0-0.84-0.01-1.07-0.48c-0.14-0.28-0.17-0.99,1.07-2.57C276.71,55.33,278.39,55.11,279.33,54.7z M266.12,50.3
			c1.89-0.03,3.67-0.94,4.84-2.51c0.15-0.2,0.28-0.41,0.41-0.62c-0.16,0.79-0.2,1.6-0.05,2.43c0.02,0.12,0.48,2.49,2.26,4.33
			C270.85,53.08,267.85,51.36,266.12,50.3z M272.2,54.26c-3.04,0.1-3.72-0.49-3.87-0.79c-0.15-0.3,0.04-0.68,0.19-0.91
			C269.67,53.16,270.93,53.77,272.2,54.26z M272.15,44.92c0.13-0.95,0.04-1.93-0.3-2.85c-0.16-0.44-0.39-0.88-0.66-1.32
			c1.4-0.04,2.72,0.03,3.87,0.14C274.31,41.66,273.03,43.12,272.15,44.92z M263.62,52.5c-0.03,0.03-0.07,0.04-0.1,0.06l-0.81-2.28
			c0.03-0.21,0.14-0.61,0.36-0.9l1.06,0.55C264.15,50.81,264.04,52.12,263.62,52.5z M262.41,49.01c-0.04,0.05-0.07,0.11-0.11,0.16
			l-0.1-0.29L262.41,49.01z M261.34,46.48l-0.86-2.41c1.79-1.35,3.82-2.2,5.87-2.69C265.93,44.12,264.25,45.84,261.34,46.48z
			 M275.18,61.76l-8.44-0.18l-2.97-8.31c0.13-0.05,0.24-0.11,0.35-0.21c0.61-0.54,0.74-1.82,0.76-2.65
			c0.63,0.41,1.69,1.07,2.99,1.79c-0.24,0.39-0.5,1.01-0.2,1.61c0.4,0.82,1.68,1.22,3.88,1.22c0.75,0,1.61-0.05,2.58-0.14
			c0.3,0.08,0.6,0.15,0.89,0.2c0.04,0.02,0.07,0.05,0.11,0.07l0.24,0.08c-0.84,1.14-1.18,2.05-1.03,2.74l-0.03,0
			c0.11,0.86,0.44,1.52,0.99,1.94c0.34,0.26,0.7,0.38,1.01,0.44L275.18,61.76z M286.94,53.77c0.73,0.41,1.3,0.99,1.65,1.67
			c0.47,0.91,0.97,2.33,0.67,3.95c-0.18,0.98-0.71,1.85-1.47,2.45c-0.48,0.37-1.01,0.66-1.59,0.86c-0.8,0.27-1.7,0.25-2.56-0.02
			c0.98-0.25,1.8-0.75,2.44-1.51c2.1-2.46,1.6-6.67,1.57-6.85l-0.75,0.1c0.01,0.04,0.49,4.06-1.4,6.26
			c-0.77,0.89-1.84,1.37-3.18,1.43l-1.5-0.72c1.18-0.16,2.18-0.62,2.98-1.39c2.37-2.28,2.21-6.37,2.2-6.55l-0.75,0.03
			c0,0.04,0.15,3.93-1.97,5.97c-0.98,0.94-2.31,1.35-3.95,1.22l-1.47-0.7c1.02-0.85,2.4-2.86,3.28-4.24
			c1.32-0.63,2.59-2.71,3.06-3.54L286.94,53.77z M283.71,51.52c-0.44,0.83-1.82,3.09-2.99,3.58l-0.11,0.05l-0.06,0.1
			c-1.28,2.01-2.95,4.21-3.45,4.38l-0.17-0.08l-0.08,0.1c-0.23,0-0.71-0.03-1.11-0.34c-0.08-0.06-0.15-0.14-0.22-0.22
			c0.28,0.07,0.52,0.09,0.62,0.1c0.06,0.01,0.11,0.02,0.17,0.02c1.38,0,3.18-3.19,3.79-4.34c4.11-3.04,4.1-7.67,4.05-8.53
			c0.18-0.24,0.36-0.28,0.49-0.26C284.75,46.73,284.97,49,283.71,51.52z M282.86,47.46l0.53-0.44c-0.02,0.49-0.1,1.19-0.3,1.99
			C283.07,48.32,282.95,47.77,282.86,47.46z M292.06,42.26L290,42.79c-0.32,0.08-0.64,0.08-0.96,0c-2.46-0.65-3.81-1.01-4.58-1.19
			c0.09-0.09,0.19-0.18,0.26-0.29c0.16-0.23,0.28-0.48,0.35-0.75l0.21-0.8c0.16-0.63,0.05-1.31-0.32-1.85l-0.26-0.38
			C287.56,38.1,291.46,39.4,292.06,42.26z M281.07,37.55l0.72-0.45c0.27,0.02,0.97,0.09,1.89,0.23l0.67,0.99
			c0.24,0.36,0.32,0.81,0.21,1.24l-0.21,0.8c-0.05,0.18-0.13,0.35-0.24,0.51c-0.32,0.44-0.85,0.68-1.39,0.63l-0.53-0.05
			c-0.48-0.05-0.92-0.33-1.16-0.74l-0.41-0.69C280.98,39.06,281.05,38,281.07,37.55z M282.12,42.2l0.53,0.05
			c0.07,0.01,0.15,0.01,0.22,0.01c0.23,0,0.45-0.05,0.67-0.11c0.35,0.07,2.35,0.59,5.31,1.37c0.22,0.06,0.45,0.09,0.68,0.09
			c0.22,0,0.45-0.03,0.67-0.08l2.28-0.59l12.48,4.12l4.18-0.29l0.42,2.79l-4.27,0.98l-13.04-3.39l-2.48-3.12l-3.11,0.31l-1.72,1.06
			c-0.42-0.13-1.02-0.06-1.46,0.6l-0.87,0.72c-0.76-2.05-2.35-4-3.36-5.1l0.09,0.03l0.13-0.08c0.3-0.17,0.55-0.42,0.75-0.72
			l0.15,0.26C280.75,41.71,281.4,42.12,282.12,42.2z M251.25,26.1l13.45,10.37c-1.05,0.2-2.92,0.71-5.25,2.01
			c-0.81-3.04-3.81-2.96-5.12-2.77c-0.28,0.04-0.54-0.15-0.59-0.44l-0.46-2.6c-0.11-0.63-0.68-1.09-1.32-1.07l-1.14,0.05
			C251.86,29.78,251.57,27.46,251.25,26.1z M250.51,26.26c0.27,1.14,0.52,3.03-0.15,4.61C250.78,29.38,250.68,27.58,250.51,26.26z
			 M258.71,17.52c-0.02,0.01-2.34,0.97-4.08,0.09c-0.06-0.49,0.05-2.49,5.15-5.01c1.49-0.71,5.8-2.34,6.83-0.95
			C266,12.94,264.16,15.51,258.71,17.52z M267.15,10.41c-0.06,0.08-0.11,0.16-0.17,0.24l-0.06,0.08l-0.01,0.1c0,0,0,0.02-0.01,0.04
			c-1.9-1.53-6.83,0.76-7.45,1.05c-5.38,2.66-5.66,4.97-5.56,5.78l-2.5,1.75c0.88-1.17,1.97-3.85,2.29-4.66
			c1.15-0.66,2-1.36,2.06-1.41l0.07-0.08c0.64-0.96,0.82-1.69,0.55-2.21l-0.05-0.16c2.53-1.43,8.66-4.36,10.49-2.98
			C267.32,8.35,267.44,9.19,267.15,10.41z M253.73,11.25c0.64-0.15,1.68-0.21,1.92,0.13c0.16,0.23-0.01,0.77-0.46,1.45
			c-0.35,0.28-2.82,2.2-4.79,2.41c-0.29-0.03-0.92-0.19-1.03-0.52c-0.11-0.3,0.19-0.81,0.8-1.42
			C250.2,13.3,251.49,12.02,253.73,11.25z M252.91,9.91l-2.04,0.23l-0.82-1.84c2.98-1.84,4.13-0.92,4.31-0.74l0.97,2.87
			c-0.73-0.13-1.56,0.04-1.79,0.09l-0.03,0.01c-0.09,0.03-0.17,0.07-0.26,0.1L252.91,9.91z M254.71,4.33l0.19-0.15
			c0.05-0.04,4.98-4.06,10.5-2.24l3.22,5.1c0.01,0.2-0.02,0.87-0.57,1.95c-0.05-0.72-0.32-1.28-0.81-1.64
			c-2.41-1.81-9.32,1.82-11.18,2.86l-1-2.96L255,7.15c-0.05-0.06-0.93-1.22-3.23-0.49c0.17-0.33,0.3-0.64,0.37-0.84
			c0.84-0.42,1.49-1.36,1.79-1.85L254.71,4.33z M253.38,3.09c0.01,0.1,0.02,0.19,0.02,0.3c-0.25,0.46-0.94,1.49-1.7,1.8l-0.15,0.06
			l-0.06,0.16c-0.27,0.74-0.73,1.63-1,1.78l0,0.01c-0.06,0.03-0.12,0.06-0.19,0.1l0.83-2.21C252.14,4.44,252.9,3.67,253.38,3.09z
			 M242.91,11.91l-1.49-3.07c0.13-0.55,0.8-2.94,3.14-3.86c0.1,1.08,0.2,2.98-0.14,3.72l0.69,0.31c0.5-1.1,0.25-3.7,0.17-4.42
			c0.35-0.41,1.7-1.8,3.57-1.97l0.11-0.01l2.52-1.87c0.22,0.01,0.77,0.08,1.22,0.5c0.22,0.21,0.39,0.49,0.51,0.82
			c-0.25,0.42-1.16,1.57-2.57,2.44l-0.11,0.07l-1.25,3.33l-0.17,0.11l0.01,0.03c-0.49,0.38-1.74,1.29-2.9,1.51
			c-0.63,0.12-1.17,0.36-1.61,0.7C243.72,10.97,243.2,11.5,242.91,11.91z M243.58,14.98l2.39,4.38l1.05-0.52l0.92,1.56l0.65-0.38
			l-1.28-2.16l-1.03,0.51l-2.22-4.07l-0.74-1.52c-0.02-0.13,0.24-0.71,1.75-1.91c0.34-0.27,0.77-0.46,1.28-0.55
			c1.22-0.23,2.46-1.08,3.08-1.54l0.98,2.2l1.19-0.14l-1.92,1.15l0.31,0.52c-0.2,0.17-0.32,0.28-0.33,0.3
			c-0.88,0.87-1.2,1.59-0.98,2.21c0.31,0.86,1.53,1,1.74,1.01c0.73-0.07,1.5-0.34,2.21-0.67c-0.67,1.61-1.6,3.55-2.11,3.94l0.38,0.5
			l-3.45,2.4l-5.97-6L243.58,14.98z M244.02,23.74l-2.22-6.18l5.03,5.06l-0.05,0.04l0.25,0.2c-0.04,0.93-0.29,5.19-1.85,7.86
			l-0.73-1.57c-0.16-0.33-0.24-0.7-0.24-1.07v-3.23C244.21,24.46,244.15,24.09,244.02,23.74z M241.31,18.41l2,5.58
			c0.1,0.27,0.15,0.56,0.15,0.85v3.23c0,0.48,0.11,0.95,0.31,1.39l1.99,4.26l-1.11,0.05c-0.48,0.02-0.9,0.31-1.08,0.75
			c-0.09,0.22-0.18,0.51-0.22,0.87c-1.52-4.31-2.46-8.97-2.5-9.19l-0.32-2.71C241.08,21.6,241.26,19.78,241.31,18.41z M240.51,16.25
			c0.07,0.91,0.43,7.21-2.94,11.5c-1.49,1.9-3.65,2.88-5.79,2.64c-2.04-0.24-3.53-1.47-4.46-3.63c1.2,0.93,2.36,1.3,3.41,1.3
			c1.24,0,2.34-0.48,3.23-1.07c2.57-1.7,3.96-4.94,3.53-8.25c-0.28-2.16-1.04-3.71-2.26-4.62c-1.18-0.88-2.4-0.87-2.82-0.83
			l-1.33-0.9C232.62,11.97,236.51,11.58,240.51,16.25z M240.06,26.02l-0.66,0.26c0.2-0.39,0.39-0.78,0.55-1.17L240.06,26.02z
			 M234.83,17.18c-0.12-1.16-0.63-2.24-1.42-3.08c0.42,0.09,0.91,0.26,1.39,0.62c1.04,0.79,1.7,2.17,1.96,4.11
			c0.39,3.03-0.86,5.98-3.19,7.52c-2.17,1.44-4.28,1.22-6.28-0.62c0.33,0.06,0.66,0.09,0.98,0.09c0.52,0,1.03-0.07,1.53-0.22
			C234.8,24.15,235.1,19.7,234.83,17.18z M213.63,22.89l-0.07-0.06c-2.06-1.58-2.59-5.17-2.71-7.44c1.29,2.81,4.3,7.73,9.52,7.73
			c0.61,0,1.26-0.07,1.94-0.22l-0.01-0.04l0.6,0.44C216.12,25.82,213.65,22.92,213.63,22.89z M223.46,22.77
			c7.45-1.05,8.62-7.2,8.63-7.27l-0.74-0.13c-0.04,0.25-1.17,6.12-8.78,6.75l-0.79-0.57l-0.44,0.61l0.15,0.11
			c-5.48,0.75-8.63-4.32-9.94-7.17c1.95,2.04,5.55,5.53,7.93,6.31l0.23-0.72c-0.88-0.29-1.97-1.01-3.08-1.9
			c1.96-0.06,3.71-0.77,5.21-2.14c1.91-1.74,2.83-4.02,3.11-4.91h0.02c-0.44,1.55-2.22,6.55-6.67,6.9l0.06,0.75
			c5.81-0.45,7.4-7.64,7.47-7.95l0.1-0.45h-1.25l-0.37-0.05v0.38c-0.01,0.07-2.1,7.22-8.6,6.71c-1.11-0.95-2.18-1.99-3.04-2.87
			c0.32,0.05,0.63,0.08,0.92,0.08c4.88,0,7.21-6.16,7.24-6.23l-0.71-0.26c-0.11,0.3-2.78,7.34-8.44,5.4
			c-0.46-0.49-0.77-0.83-0.88-0.95c-0.16-0.56-1.17-4.46,1.31-6.91c0.18-0.16,4.35-3.89,9.46,0.54l8.07,5.47
			c-1.24,8.07-8.08,7.73-8.38,7.71l-1.47-0.1l2.24,1.42l0.09,0.01c0.03,0,0.15,0.01,0.36,0.01c0.94,0,3.52-0.18,5.64-2.02
			c1.62-1.41,2.58-3.47,2.87-6.12l1.13,0.77c1.11,0.76,1.83,1.95,1.97,3.28c0.3,2.79-0.24,6.39-4.5,7.63
			c-1.42,0.42-3.02,0.13-4.25-0.77L223.46,22.77z M230.23,13.23c-0.28,2.4-1.15,4.26-2.6,5.52c-1.43,1.25-3.14,1.65-4.26,1.78
			C225.67,20.02,229.13,18.39,230.23,13.23z M224.81,24.67l0.08,0.06c0.15,0.11,0.3,0.19,0.46,0.28l-0.63,0.14
			C224.77,24.98,224.8,24.82,224.81,24.67z M224.88,25.89l0.83-0.18l-0.12-0.55c0.07,0.04,0.14,0.07,0.21,0.1
			c0.11,0.13,0.22,0.25,0.33,0.37c0.6,2.14,1.56,3.48,2.61,4.3l-1.18,0.42L224.88,25.89z M220.58,26.78h0.6
			c1.14,3.3,4.56,4.91,5.61,5.33l-0.65,3.16c-0.01,0-0.01-0.01-0.02-0.02C221.75,31.83,220.78,28,220.58,26.78z M223.85,47.67
			c-1.96-2.26-2.41-4.87-2.51-5.62l1.73-1.15c0.3,1.17,1.22,3.89,3.68,5.51L223.85,47.67z M227.61,46.04
			c-2.78-1.54-3.67-4.71-3.87-5.59l0.87-0.58l-0.7-1.72l2.2-1.56c0.05-0.03,0.09-0.07,0.13-0.11l3.92,8.46L227.61,46.04z
			 M244.96,42.38l-4.94,1.19l-0.53-0.76l-2.06,0.48l-0.33,1.08l-5.5,1.68l-0.61-1.09l-4.2-9.11l0.72-3.49l0.02,0.01l0.2-1.29
			l1.8-0.64c0.75,0.41,1.5,0.61,2.18,0.69c2.39,0.28,4.81-0.81,6.46-2.92c0.23-0.29,0.43-0.59,0.63-0.89l1.4-0.55
			c0.37,1.73,1.82,8.18,3.91,12.43L244.96,42.38z M244.66,38.62c-0.06-0.12-0.11-0.24-0.17-0.36c0.19,0.11,0.4,0.17,0.62,0.17
			c0.09,0,0.19-0.02,0.28-0.04L244.66,38.62z M245.26,37.65c-0.21,0.07-0.44-0.01-0.58-0.2c-0.79-1.12-0.67-2.04-0.42-2.62
			c0.07-0.17,0.24-0.29,0.43-0.29l1.53-0.07c0.31,0.27,1.2,1.22,0.52,2.7C246.59,37.22,246.21,37.35,245.26,37.65z M246.83,37.93
			c0.45-0.16,0.47-0.2,0.52-0.31c0.93-1.83-0.02-3.24-0.71-3.79l-1.08-2.32c1.69-2.48,2.1-6.47,2.2-8.11l1.72,1.33
			c0.17,0.78,1.1,5.34-0.51,7.28c-0.12,0.1-0.22,0.21-0.3,0.35l-0.42,0.77c-0.12,0.22-0.17,0.47-0.16,0.71
			c0.17,2.27,0.26,3.28,0.32,3.75c-0.34,0.09-0.98,0.23-1.58,0.35L246.83,37.93z M247.49,38.59c1.58-0.32,1.63-0.42,1.7-0.6
			l0.08-0.2l-0.07-0.11c-0.05-0.32-0.18-1.84-0.34-3.89c-0.01-0.1,0.01-0.2,0.07-0.29l0.42-0.77c0.09-0.17,0.26-0.27,0.45-0.28
			l2.2-0.09c0.27-0.02,0.51,0.18,0.55,0.44l0.46,2.6c0.12,0.69,0.76,1.15,1.44,1.05c1.7-0.25,3.8-0.01,4.33,2.43
			c-1.83,1.11-3.89,2.7-6.01,4.98L247.49,38.59z M248.89,85.47c-0.25-0.7-0.47-1.39-0.63-2.02c-4-15.26-1.2-25.94-1.17-26.05
			c2.37-9.54,5.9-12.68,5.93-12.71l0.31-0.27l-0.03-0.03c6.36-6.84,12.3-7.3,12.36-7.3c0.11-0.01,10.01-0.58,14.65,0.54
			c-0.04,0.9-0.28,2.58-1.08,3.17c-1.53-0.39-12.55-2.9-19.72,3.06c-0.17,0.14-4.08,3.43-5.33,6.75c-0.41,0.62-6.34,10.1-3.24,26.85
			c0.04,0.21,4.27,21.53,18.44,45.92l-3.39,1.88C256.22,105.39,250.15,88.99,248.89,85.47z M266.33,125.96l3.47-1.93l2.38,3.2
			c0.5,0.67,0.88,1.4,1.15,2.19l1.4,4.13l-3.58,1.84C269.46,132.19,267.85,129.03,266.33,125.96z M270.33,139.12l-0.42-0.66v-1.11
			l1.3-1.13l4.14-2.13l11.37-4.18l0.76,1.81l-4.71,1.46l-10.78,4.28L270.33,139.12z M317.81,297.47l-46.4-158.38l0.93-0.95
			l10.32-4.1l53.23,176.72c-2.21,0.7-4.91,1.32-7.86,1.53c-3.38-5-4.92-11.03-5.32-12.77c-0.09-0.38-0.13-0.76-0.13-1.13
			c0-0.93-0.23-1.86-0.66-2.69l-2.92-5.58c-0.17-0.32-0.51-0.48-0.86-0.39c-0.35,0.08-0.59,0.38-0.59,0.74
			C317.53,292.88,317.62,295.2,317.81,297.47z M323.96,315.47l-0.92-0.18l-3.97-13.56c-0.55-3.62-0.8-7.31-0.72-11.27l2.92,5.58
			c0.38,0.72,0.57,1.53,0.57,2.34c0,0.43,0.05,0.87,0.15,1.3c0.41,1.79,2.01,8.04,5.54,13.18l0.89,1.81
			C326.28,314.63,324.41,315.29,323.96,315.47z M319.51,313.96l1.16,0.85v1.83c0,0.61,0.26,1.19,0.72,1.6
			c0.43,0.39,0.98,0.56,1.55,0.5c0.59-0.07,1.14-0.27,1.64-0.59c0.86,2.04,2.19,5.34,3.49,9.06c-0.95,0.47-1.57,1.43-1.57,2.52
			c0,1.55,1.26,2.81,2.81,2.81c0.16,0,0.32-0.02,0.47-0.04c0.27,0.91,0.52,1.81,0.76,2.71c-0.95,0.43-1.58,1.38-1.58,2.43
			c0,1.47,1.2,2.67,2.67,2.67c0.02,0,0.05-0.01,0.07-0.01c0.37,1.9,0.76,4.27,1.01,6.76c-1.44,1.33-12.27,11.64-13.88,22.06
			c-1.44,0.48-3.05,0.91-4.82,1.27c2.15-6.66,1.95-11.96-0.6-15.74c-2.85-4.22-7.74-5.27-9.59-5.52l14.48-16.93
			c4.11-4.63,2.45-9.22,1.84-10.52c-0.22-0.47-0.38-0.98-0.46-1.5c-0.31-1.85-0.58-5.06-0.66-6L319.51,313.96z M328.31,327.93
			c0.43,1.25,0.85,2.54,1.25,3.84c-0.08,0.01-0.17,0.02-0.26,0.02c-1.13,0-2.06-0.92-2.06-2.06
			C327.25,328.97,327.66,328.29,328.31,327.93z M330.72,335.96c0.01,0.03,0.01,0.06,0.02,0.09c0.01,0.05,0.37,1.41,0.8,3.51
			c-1.02-0.04-1.84-0.88-1.84-1.91C329.71,336.93,330.11,336.29,330.72,335.96z M332.79,348.03c0.35,4.25,0.22,8.71-1.2,11.72
			c-0.03,0.08-2.07,5.58-11.95,9.09C321.28,359.66,330.41,350.33,332.79,348.03z M313.16,370.57c-2.4,0.46-5.08,0.8-8.12,0.99
			l-6.11,0.94c-1.02-1.24-2.38-2.24-3.97-2.9c-0.5-0.21-0.93-0.44-1.33-0.69c-1.1-1.39-1.55-3-1.32-4.81
			c0.81-6.41,9.7-13.4,10.84-14.27l0.05,0.01l0.01-0.01c1.04,0.1,6.58,0.83,9.56,5.25C315.25,358.74,315.37,363.95,313.16,370.57z
			 M314.98,334.07c6.32-6.46,4.27-12.11,4.18-12.34c-0.55-1.5-0.87-6.04-0.94-7.17l0.08-0.04c0.1,1.19,0.35,4.07,0.64,5.79
			c0.1,0.59,0.28,1.16,0.52,1.7c0.71,1.53,1.97,5.54-1.73,9.71l-14.82,17.32l-1.45-0.21L314.98,334.07z M290.53,364.32
			c0,0,0,0.02,0,0.03c-0.2-1.25-0.09-2.52,0.16-3.65c0.31-1.46,1.09-2.8,2.25-3.88l7.88-7.33l1.3,0.19
			c-2.36,1.88-9.77,8.2-10.55,14.32c-0.16,1.24-0.03,2.41,0.39,3.48c-0.13-0.15-0.25-0.31-0.36-0.46c0.04-0.31,0.02-0.63-0.07-0.94
			c-0.29-0.97-0.24-1.71-0.24-1.74c0-3.99,1.04-4.66,1.05-4.67l-0.34-0.67C291.84,359.08,290.53,359.84,290.53,364.32z M9.88,354.65
			l7.95-0.28c0.18-0.01,0.38,0.02,0.56,0.09l7.77,2.86c0.09,0.03,0.19,0.05,0.28,0.07c-1.26,1.33-2.56,3.53-3.04,4.38l-6.63-4.09
			c-0.51-0.31-1.09-0.48-1.68-0.48H9.1L9.88,354.65z M8.2,370.23c0.81-1.8,0.78-8.02,0.68-11.77c0-0.17,0.01-0.34,0.03-0.51h6.17
			c0.46,0,0.9,0.13,1.29,0.36l6.61,4.07c-1.39,1.77-8.31,10.17-14.77,11.31c0.3-0.5,0.46-1.07,0.46-1.67v-0.76
			C8.68,370.86,8.49,370.49,8.2,370.23z M8.76,354.69l0.32-0.01l-0.77,2.52H6.89l0.55-1.53C7.64,355.09,8.16,354.71,8.76,354.69z
			 M6.04,369.87c-0.65-0.03-1.24-0.18-1.74-0.47c-0.56-0.32-0.9-0.93-0.9-1.6v-8.15c0-1.43,0.55-2.8,1.54-3.83l0.58-0.61
			c0.31-0.33,0.76-0.52,1.21-0.52h0.43c-0.18,0.21-0.33,0.45-0.43,0.72L6,357.44c-0.09,0.24-0.13,0.49-0.13,0.74v11.04
			C5.87,369.46,5.93,369.67,6.04,369.87z M7.55,369.9c-0.09-0.02-0.18-0.03-0.27-0.03c-0.36,0-0.65-0.29-0.65-0.65v-11.04
			c0-0.08,0.01-0.16,0.02-0.24h1.51c-0.02,0.18-0.03,0.35-0.03,0.53C8.29,364.4,8.06,368.85,7.55,369.9z M8.84,381.01
			c-0.59-0.96-1.63-1.54-2.76-1.54H3.31c-0.87,0-1.68-0.46-2.13-1.19h0.06c0.27,0,0.54-0.05,0.8-0.11h6.53
			c0.27,0,0.51,0.13,0.66,0.35l2.82,4.19c0.51,0.75,1.34,1.2,2.25,1.2c0.03,0,0.06,0,0.09,0l5.31-0.17l0.02,0.01
			c0,0,0.01-0.01,0.01-0.02l275.4-8.98c0.37-0.04,0.68,0.24,0.76,0.59l0.28,1.29c-0.01,0.78-0.63,1.41-1.42,1.44l-278.61,8.36
			c-0.26,0-0.52-0.03-0.77-0.1l-3.07-0.9c-0.59-0.17-1.1-0.56-1.42-1.08L8.84,381.01z M40.68,373.82
			c-12.45-1.18-19.9,7.38-21.31,9.17l-0.04,0c1.4-2.3,6.77-9.52,19.02-9.52c0.13,0,12.7,0.2,20.62,8.23l-0.17,0.01
			C51.47,374.95,40.79,373.83,40.68,373.82z M57.7,381.74l-37.33,1.22c2.05-2.41,9.05-9.46,20.24-8.39
			C40.71,374.58,50.6,375.61,57.7,381.74z M23.65,407.78c-0.35-0.19-0.78-0.33-1.24-0.31c-0.72,0.02-1.37,0.41-1.93,1.16l-0.08,0.11
			l0.07,2.05h0c0.01,1.08,0.92,1.95,2.04,1.95c1.11,0,2.02-0.86,2.04-1.93l0,0l0.08-0.77c0.17,0.32,0.34,0.64,0.52,0.95
			c0.05,0.17,0.14,0.33,0.27,0.45c3.57,5.75,9.94,9.59,17.19,9.59c8.38,0,15.93-5.23,18.9-13.05c0.03,0,0.06,0,0.08,0
			c0.08,0,0.15,0,0.23,0l12.02-0.5c-4.03,12.71-16.32,21.55-30.1,21.55c-12.17,0-22.75-6.73-27.99-16.56l0.62,0.4l0.09,0.01
			c0.39,0.03,0.68,0.05,0.9,0.05c0.54,0,0.64-0.09,0.71-0.28c0.08-0.2,0.08-0.55,0.06-0.87c0.82-0.04,1.55-0.55,1.86-1.32
			c0.18-0.43,0.21-0.91,0.1-1.36l-0.33-1.26h-1.22l-1.5-5.55H15l0.33,3.68c0.01,0.13,0.01,0.25-0.02,0.38l-0.35,1.91h-0.73
			l-0.16,0.4c-1.16-3.18-1.8-6.59-1.8-10.14c0-4.03,0.8-7.94,2.37-11.63l0.52,0.15c0.25,0.07,0.52,0.11,0.78,0.12l6.65,10.82
			c-0.13,0.93-0.2,1.87-0.2,2.81C22.41,403.25,22.85,405.6,23.65,407.78z M43.04,398.3l0.11,0.18h4.15c1.42,0,2.57,1.15,2.57,2.57
			s-1.15,2.57-2.57,2.57h-4.34l-0.11,0.16c-0.95,1.37-2.51,2.18-4.16,2.18c-1.65,0-3.21-0.81-4.16-2.18l-0.11-0.16h-3.25
			c-1.42,0-2.57-1.15-2.57-2.57s1.15-2.57,2.57-2.57h3.06l0.11-0.18c0.93-1.57,2.56-2.5,4.36-2.5S42.11,396.73,43.04,398.3z
			 M42.22,396.26c0.56,0.28,1.07,0.69,1.39,1.31l0.08,0.16h-0.12C43.2,397.15,42.74,396.66,42.22,396.26z M44.62,397.73
			c0.19-0.01,0.42-0.01,0.67,0H44.62z M35.09,405.46c1.02,0.8,2.27,1.25,3.59,1.25c1.32,0,2.57-0.46,3.59-1.25H55
			c1.13,0,2.22,0.41,3.06,1.16c0.22,0.19,0.44,0.36,0.68,0.51l-6.39,1.47c-0.29-0.32-0.7-0.52-1.16-0.52c-0.3,0-0.58,0.09-0.83,0.24
			h-3.3v-0.17c0-0.51-0.42-0.93-0.93-0.93H26.05c-0.51,0-0.93,0.42-0.93,0.93v1.16c-1.26-2.57-1.96-5.46-1.96-8.51
			c0-0.59,0.04-1.18,0.09-1.77l2.38,3.87c0.97,1.58,2.72,2.55,4.57,2.55H35.09z M27.02,410.92h-0.28c-0.33-1.19-0.12-2.42,0-2.94
			h0.3C26.9,408.61,26.74,409.75,27.02,410.92z M46.14,411.67c0.51,0,0.93-0.42,0.93-0.93h2.99c0.29,0.3,0.69,0.49,1.13,0.49
			c0.54,0,1.02-0.27,1.3-0.69l7.92-1.82c-3.1,6.96-10.09,11.55-17.78,11.55c-6.71,0-12.64-3.41-16.14-8.59H46.14z M28.09,410.92
			H27.8c-0.33-1.19-0.12-2.42,0-2.94h0.3C27.97,408.61,27.81,409.75,28.09,410.92z M29.16,410.92h-0.28c-0.33-1.19-0.12-2.42,0-2.94
			h0.3C29.04,408.61,28.88,409.75,29.16,410.92z M30.23,410.92h-0.28c-0.33-1.19-0.12-2.42,0-2.94h0.3
			C30.11,408.61,29.95,409.75,30.23,410.92z M31.29,410.92h-0.28c-0.33-1.19-0.12-2.42,0-2.94h0.3
			C31.17,408.61,31.02,409.75,31.29,410.92z M32.36,410.92h-0.28c-0.33-1.19-0.12-2.42,0-2.94h0.3
			C32.24,408.61,32.09,409.75,32.36,410.92z M33.43,410.92h-0.28c-0.33-1.19-0.12-2.42,0-2.94h0.3
			C33.31,408.61,33.16,409.75,33.43,410.92z M34.5,410.92h-0.28c-0.33-1.19-0.12-2.42,0-2.94h0.3
			C34.38,408.61,34.23,409.75,34.5,410.92z M35.57,410.92h-0.28c-0.33-1.19-0.12-2.42,0-2.94h0.3
			C35.45,408.61,35.3,409.75,35.57,410.92z M36.64,410.92h-0.28c-0.33-1.19-0.12-2.42,0-2.94h0.3
			C36.52,408.61,36.36,409.75,36.64,410.92z M37.71,410.92h-0.28c-0.33-1.19-0.12-2.42,0-2.94h0.3
			C37.59,408.61,37.43,409.75,37.71,410.92z M38.78,410.92H38.5c-0.33-1.19-0.12-2.42,0-2.94h0.3
			C38.66,408.61,38.5,409.75,38.78,410.92z M39.85,410.92h-0.28c-0.33-1.19-0.12-2.42,0-2.94h0.3
			C39.73,408.61,39.57,409.75,39.85,410.92z M40.92,410.92h-0.28c-0.33-1.19-0.12-2.42,0-2.94h0.3
			C40.8,408.61,40.64,409.75,40.92,410.92z M41.99,410.92H41.7c-0.33-1.19-0.12-2.42,0-2.94H42
			C41.87,408.61,41.71,409.75,41.99,410.92z M43.06,410.92h-0.28c-0.33-1.19-0.12-2.42,0-2.94h0.3
			C42.94,408.61,42.78,409.75,43.06,410.92z M44.12,410.92h-0.28c-0.33-1.19-0.12-2.42,0-2.94h0.3
			C44.01,408.61,43.85,409.75,44.12,410.92z M45.19,410.92h-0.28c-0.33-1.19-0.12-2.42,0-2.94h0.3
			C45.07,408.61,44.92,409.75,45.19,410.92z M45.98,407.98h0.16c0.1,0,0.17,0.08,0.17,0.17v0.17v2.42c0,0.1-0.08,0.17-0.17,0.17
			h-0.16C45.65,409.73,45.86,408.5,45.98,407.98z M49.66,409.99h-2.59v-0.92h2.66c-0.07,0.18-0.11,0.38-0.11,0.58
			C49.62,409.77,49.63,409.88,49.66,409.99z M50.37,409.66c0-0.45,0.37-0.82,0.82-0.82c0.45,0,0.82,0.37,0.82,0.82
			s-0.37,0.82-0.82,0.82C50.74,410.48,50.37,410.11,50.37,409.66z M52.76,409.71c0-0.02,0-0.03,0-0.05c0-0.13-0.02-0.25-0.05-0.36
			l7.09-1.63c0.27,0.1,0.55,0.18,0.84,0.23L52.76,409.71z M25.88,408.44v-0.29c0-0.06,0.03-0.1,0.07-0.13
			C25.93,408.14,25.9,408.28,25.88,408.44z M25.91,410.75c-0.01-0.02-0.02-0.03-0.03-0.05v-0.12
			C25.89,410.64,25.9,410.69,25.91,410.75z M22.53,408.8c-0.52,0-0.98,0.19-1.34,0.5l-0.01-0.32c0.39-0.49,0.82-0.74,1.26-0.75
			c0.71,0.01,1.33,0.52,1.57,0.76l-0.04,0.38C23.59,409.02,23.09,408.8,22.53,408.8z M23.82,410.77c0,0.67-0.58,1.21-1.29,1.21
			s-1.29-0.54-1.29-1.21c0-0.67,0.58-1.21,1.29-1.21S23.82,410.1,23.82,410.77z M15.82,403.05h0.69l1.37,5.09
			c-0.34,0.47-1.22,1.91-0.5,3.36c0.03,0.24,0.04,0.49,0.04,0.67c-0.2,0-0.5-0.01-0.78-0.04l-0.86-0.55v-0.89l-0.39,0.01
			c-0.16,0.01-0.34,0.01-0.49,0.01c-0.15-0.33-0.29-0.67-0.43-1.01l0.27-0.68h0.84l0.47-2.52c0.04-0.19,0.05-0.39,0.03-0.58
			L15.82,403.05z M18.49,408.6h0.74l0.18,0.69c0.08,0.29,0.05,0.6-0.06,0.88c-0.22,0.52-0.72,0.86-1.28,0.86H18
			C17.6,410.02,18.23,408.96,18.49,408.6z M43.11,436.51c-19.81,0-35.93-16.59-35.93-36.98c0-5.17,1.03-10.16,3.03-14.85l0.04,0.06
			c0.42,0.68,1.08,1.19,1.85,1.41l1.82,0.53c-1.59,3.76-2.4,7.74-2.4,11.84c0,3.94,0.76,7.71,2.14,11.19l-0.05,0.13l0.05,0.14
			c0.51,1.28,0.52,1.29,0.59,1.36c0.05,0.05,0.08,0.08,0.16,0.1c5.08,10.81,16.32,18.34,29.34,18.34c14.2,0,26.86-9.17,30.9-22.34
			l7.05-0.29C78.85,423.65,62,436.51,43.11,436.51z M286.71,401.34c-1.67,0.17-3.34-1.55-4.1-2.47l6.92-0.29
			C288.74,400.29,287.8,401.23,286.71,401.34z M293.47,397.67l-231.66,9.55c-1.2,0.05-2.35-0.36-3.25-1.16
			c-0.98-0.87-2.25-1.35-3.56-1.35H43.06c0.1-0.11,0.2-0.22,0.28-0.34h3.95c1.83,0,3.32-1.49,3.32-3.32c0-0.06-0.01-0.12-0.02-0.17
			h0.02c0-1.07-0.37-1.94-1.1-2.6c-1.61-1.44-4.49-1.35-5.36-1.28c-1.53-2.5-5.28-1.99-5.52-1.95c-1.98,0.02-3.77,1.01-4.85,2.69
			h-2.63c-1.83,0-3.32,1.49-3.32,3.32s1.49,3.32,3.32,3.32h2.86c0.09,0.12,0.19,0.23,0.28,0.34h-4.1c-1.59,0-3.1-0.84-3.93-2.2
			l-9.44-15.35l277.96-8.34c0.52-0.02,0.98-0.21,1.35-0.52l0.51,15.95C296.71,396.06,295.28,397.6,293.47,397.67z M296.65,375.18
			c-0.15-0.71-0.8-1.18-1.52-1.18l-235.16,7.67c-8.1-8.74-21.49-8.95-21.62-8.95c-13.44,0-18.89,8.47-19.91,10.3l-4.06,0.13
			c-0.68,0.02-1.31-0.3-1.69-0.86l-2.82-4.19c-0.29-0.43-0.77-0.69-1.29-0.69H3.45c1.25-1.1,2.66-2.02,3.64-2.59
			c0.13-0.08,0.26-0.17,0.38-0.26c7.16-0.58,14.79-10.01,16.15-11.77l0.05,0.03l0.19-0.35c0.02-0.04,2.16-3.94,3.75-5.14
			c0.1-0.03,0.2-0.06,0.3-0.11c29.23-14.52,52.84,14.24,55.43,17.56c0.2,0.25,0.44,0.46,0.74,0.6l4.11,2.09
			c0.34,0.17,0.72,0.25,1.1,0.24l200.22-8.74c0.68-0.03,1.3-0.36,1.69-0.92c0.04-0.06,0.06-0.12,0.1-0.18
			c0.76,0.94,1.84,1.78,3.38,2.42c1.5,0.62,2.78,1.58,3.74,2.75v1.33h-0.01c-0.71,0-1.34,0.34-1.75,0.87L296.65,375.18z
			 M312.76,388.31c-0.02,0.46-0.13,0.9-0.32,1.32l-1.21,2.55c-0.28,0.59-0.72,1.08-1.27,1.42l-1.45,0.9
			c-0.48,0.3-1.03,0.47-1.59,0.5l-9.71,0.55c0.13-0.42,0.21-0.86,0.2-1.32l-0.55-17.05c0.05-0.19,0.08-0.38,0.08-0.58
			c0-0.81,0.66-1.46,1.46-1.46h0.01v3.03l7.29,0.22c0.08,0,3.19-0.06,7.45-0.79L312.76,388.31z M305.71,377.63l-6.54-0.2v-4.2
			l5.95-0.92c23.22-1.39,27.03-11.87,27.16-12.27c3.59-7.6-0.63-23.51-0.81-24.18c-2.06-8.37-6.12-17.83-6.98-19.79
			c0.72-0.25,2.45-0.76,4.29-0.63l0.97,1.96l0.26-0.02c0.34-0.03,0.7-0.08,1.08-0.13c5.77,15.72,6.71,25.45,6.86,27.92l-0.14,0.1
			l0.16,0.22c0.01,0.19,0.01,0.29,0.01,0.3c1.72,10.13-2.88,18.91-2.92,18.99C327.69,377.2,305.92,377.62,305.71,377.63z
			 M320.81,403.78c-0.15,0.13-0.35,0.17-0.54,0.11c-0.18-0.06-0.31-0.21-0.35-0.39c-3.58-17.55,4.72-29.03,4.95-29.35
			c4.32-1.96,8.36-4.81,10.83-8.99c0.01-0.03,0.47-0.9,1.04-2.38c0.14-0.18,1.47-1.72,3.81-2.55c-0.42,0.4-0.52,0.69-0.39,0.98
			c0.06,0.12,0.17,0.34,0.87,0.34c0.19,0,0.44-0.02,0.73-0.06l0.39,1.62c-1.06,0.71-1.41,1.14-1.25,1.55
			c0.11,0.28,0.37,0.41,0.91,0.41c0.22,0,0.49-0.03,0.8-0.07l0.37,1.52c-1.1,0.8-1.46,1.3-1.28,1.73c0.12,0.29,0.41,0.42,0.95,0.42
			c0.23,0,0.51-0.03,0.83-0.08l0.28,1.17c-0.55,0.52-1.06,1.15-0.78,1.7c0.13,0.26,0.42,0.5,1.31,0.52l0.25,1.04
			c-0.49,0.45-1,1.06-0.74,1.62c0.08,0.17,0.25,0.52,1.28,0.62l0.27,1.13c-0.61,0.52-1.18,1.16-0.91,1.75
			c0.08,0.18,0.27,0.56,1.48,0.62l0.27,1.13c-0.56,0.51-1.15,1.19-0.86,1.79c0.08,0.17,0.27,0.55,1.45,0.63l0.11,0.44
			c-1.62,1-2.45,2.93-2.01,4.8l2.74,11.6c-0.4,0.06-0.82-0.04-1.14-0.3l-4.59-3.7c-0.18-0.14-0.3-0.35-0.33-0.58l-0.1-0.74
			c-0.09-0.61-0.62-1.07-1.23-1.07h-0.67c-0.26,0-0.51,0.07-0.74,0.2l-0.07-0.02c0,0.02-0.01,0.04-0.01,0.06c0,0,0,0,0,0l-2.43,1.53
			c-0.53,0.33-1.14,0.51-1.75,0.49l-1.97-0.04l-0.34-0.04c0,0.01,0,0.02,0,0.04l-0.1,0c-0.75,0.01-1.49,0.25-2.06,0.75l-0.66,0.57
			c0.3-13.73,7.91-18.88,7.99-18.93l-0.41-0.63c-0.34,0.22-8.28,5.56-8.34,20.23L320.81,403.78z M362.1,432.23
			c-18.54,0-34.1-14.26-35.51-32.49l3.99-3.48c0.43-0.37,0.98-0.58,1.55-0.56l0.04,0c-0.06,0.87-0.04,1.84,0.05,2.89
			c1.38,15.68,13.65,27.51,28.53,27.51c15.47,0,28.06-12.39,28.06-27.63c0-12.23-7.88-23.66-18.78-27.33l0.47-2.01
			c0.11-0.48,0.37-0.93,0.73-1.27c1.49-1.4,2.24-2.37,2.39-2.57l0.93-0.8c13.43,5.45,22.79,18.95,22.79,32.91
			C397.33,416.6,381.53,432.23,362.1,432.23z"/>
		<path class="st2" d="M213.33,7.83c-0.82,0-1.49,0.67-1.49,1.49c0,0.82,0.67,1.49,1.49,1.49c0.82,0,1.49-0.67,1.49-1.49
			C214.82,8.5,214.15,7.83,213.33,7.83z M213.26,10.04c-0.37-0.04-0.66-0.34-0.66-0.72c0-0.41,0.33-0.74,0.74-0.74
			c0.08,0,0.16,0.02,0.24,0.05C213.32,8.92,213.14,9.38,213.26,10.04z M213.97,9.66c0-0.18,0.03-0.32,0.08-0.42
			c0,0.03,0.02,0.05,0.02,0.08C214.07,9.44,214.03,9.56,213.97,9.66z"/>
		<path class="st2" d="M249.97,14.17c0.09,0.28,0.34,0.42,0.89,0.42c0.37,0,0.88-0.06,1.56-0.19l-0.13-0.74
			c-0.66,0.12-1.07,0.16-1.33,0.17c0.51-0.38,1.6-0.99,2.55-1.45c0.25-0.09,0.41-0.12,0.5-0.13c-0.06,0.17-0.23,0.47-0.41,0.7
			l0.6,0.46c0.32-0.41,0.81-1.18,0.47-1.65c-0.34-0.47-1.11-0.2-1.44-0.08C249.71,13.36,249.89,13.91,249.97,14.17z"/>
	</g>
</g>
</svg>
