<?xml version="1.0" encoding="utf-8"?>
<!-- Generator: Adobe Illustrator 23.0.0, SVG Export Plug-In . SVG Version: 6.00 Build 0)  -->
<svg version="1.1" id="레이어_1" xmlns="http://www.w3.org/2000/svg" xmlns:xlink="http://www.w3.org/1999/xlink" x="0px"
	 y="0px" viewBox="0 0 277.09 116" style="enable-background:new 0 0 277.09 116;" xml:space="preserve">
<style type="text/css">
	.st0{fill:#F7B236;}
	.st1{clip-path:url(#SVGID_2_);}
	.st2{fill:#F0B710;}
	.st3{fill:#FFFFFF;}
	.st4{fill:#231815;}
	.st5{opacity:0.35;}
	.st6{fill:#4C4B4C;}
</style>
<g>
	<path class="st0" d="M246.41,116H30.68C13.74,116,0,102.26,0,85.32v0c0-16.95,13.74-30.68,30.68-30.68h215.72
		c16.95,0,30.68,13.74,30.68,30.68v0C277.09,102.26,263.36,116,246.41,116z"/>
	<g>
		<defs>
			<rect id="SVGID_1_" x="70.37" width="127.59" height="54.63"/>
		</defs>
		<clipPath id="SVGID_2_">
			<use xlink:href="#SVGID_1_"  style="overflow:visible;"/>
		</clipPath>
		<g class="st1">
			<circle class="st2" cx="134.59" cy="67.6" r="44.96"/>
			<path class="st3" d="M110.27,44.47c0,9.72-4.15,17.6-9.28,17.6s-9.28-7.88-9.28-17.6"/>
			<path class="st3" d="M136.22,44.47c0,9.72-4.15,17.6-9.28,17.6c-5.12,0-9.28-7.88-9.28-17.6"/>
			<path class="st4" d="M132.71,47.8c0,6.04-2.58,10.94-5.77,10.94s-5.77-4.9-5.77-10.94"/>
			<path class="st4" d="M106.75,47.8c0,6.04-2.58,10.94-5.77,10.94c-3.19,0-5.77-4.9-5.77-10.94"/>
			<g class="st5">
				<polygon class="st3" points="95.3,63.15 98.59,64.71 106.96,64.71 131.14,51.99 98.52,51.56 				"/>
			</g>
			<g>
				<path class="st4" d="M116.19,100.42c-5.14,0-10.82-0.77-17-2.7c-0.14-0.04-0.27-0.1-0.41-0.16c-0.85-0.41-2.52-1.14-3.42-1.36
					c-1.59-0.39-2.55-2-2.16-3.58c0.39-1.58,2-2.55,3.58-2.16c1.56,0.39,3.66,1.35,4.36,1.68c12.69,3.91,24.52,3.05,35.19-2.56
					c6.3-3.32,10.25-7.33,11.64-8.89l1.32-23.55c0.09-1.63,1.48-2.88,3.12-2.79c1.63,0.09,2.88,1.49,2.79,3.12l-1.38,24.55
					c-0.03,0.6-0.25,1.18-0.62,1.66c-0.2,0.26-5.04,6.36-14.12,11.14C133.62,97.68,125.87,100.42,116.19,100.42z"/>
			</g>
			<g>
				<path class="st4" d="M150.88,84.8c-1.02,0-2.01-0.52-2.56-1.46c-0.82-1.41-0.35-3.22,1.06-4.05l16.66-9.74
					c1.41-0.82,3.22-0.35,4.05,1.06c0.82,1.41,0.35,3.22-1.06,4.05l-16.66,9.74C151.9,84.67,151.38,84.8,150.88,84.8z"/>
			</g>
			<g>
				<path class="st4" d="M175.66,86.3c7.15-10.02,10.18-22.92,7.28-35.88c-5.41-24.2-29.41-39.43-53.6-34.02
					c-9.11,2.03-16.94,6.7-22.89,13.02l19.9,11.63l37.36,28.98L175.66,86.3z"/>
			</g>
			<g>
				<path class="st6" d="M175.66,90.56c-1.47,0-2.9-0.76-3.69-2.12v0c-0.05-0.09-5.34-9.08-16.24-20.32
					c-10.02-10.33-26.99-24.75-50.92-34.77c-2.17-0.91-3.2-3.41-2.29-5.58c0.91-2.17,3.41-3.2,5.58-2.29
					c25.39,10.63,43.36,25.95,53.97,36.93c11.55,11.95,17.05,21.36,17.28,21.76c1.18,2.04,0.49,4.65-1.55,5.83
					C177.12,90.38,176.38,90.56,175.66,90.56z"/>
			</g>
			<g>
				<path class="st2" d="M166.36,29.7c0.01-0.04,0.03-0.08,0.04-0.12l6.19-18.96l-15.76,12.04c-0.05,0.03-0.09,0.07-0.13,0.1
					l-0.2,0.16l0.01,0.01c-0.06,0.06-0.12,0.12-0.17,0.19c-1.04,1.43,0.31,4.18,3.01,6.13c2.7,1.95,5.73,2.38,6.76,0.95
					c0.06-0.09,0.12-0.18,0.17-0.28l0.01,0L166.36,29.7z"/>
			</g>
		</g>
	</g>
</g>
</svg>
