<?xml version="1.0" encoding="utf-8"?>
<!-- Generator: Adobe Illustrator 23.0.0, SVG Export Plug-In . SVG Version: 6.00 Build 0)  -->
<svg version="1.1" id="레이어_1" xmlns="http://www.w3.org/2000/svg" xmlns:xlink="http://www.w3.org/1999/xlink" x="0px"
	 y="0px" viewBox="0 0 505.13 563.92" style="enable-background:new 0 0 505.13 563.92;" xml:space="preserve">
<style type="text/css">
	.st0{fill:#FFFFFF;}
	.st1{fill:#282828;}
</style>
<g>
	<path class="st0" d="M0,514.54c0,27.23,22.46,49.37,50.06,49.37c12.05,0,23.68-4.28,32.78-12.05c8.8-7.52,14.65-17.81,16.58-29.06
		c1.2,1.6,2.22,2.39,3.07,2.39c0.12,0,0.22-0.01,0.32-0.03c1.36-0.34,1.56-2.64,1.57-2.91c0.48-6.88-0.21-13.52-0.53-16.06
		c-0.12-0.91-0.26-1.71-0.44-2.46c-2.48-10.19-7.45-16.82-7.51-16.88c-7.68-11.27-18.64-17.05-20.23-17.84l-0.02-6.97l-0.85-2.29
		c0.78-1.34,0.5-2.87,0.37-3.4c1.03-1.2,0.8-3.08,0.68-3.71c1.31-1.18,1.03-3.12,0.89-3.78c1.1-0.98,0.87-2.5,0.54-3.32l0.89-2.17
		l7.26,1.37l2.45,3.08h-2.32v9.06h-0.54l0.02,3.97c0.77,2.53,17.06,13.57,24.03,18.2c1.3,0.86,2.5,1.86,3.58,2.95
		c6.73,6.81,20.79,23.26,20.93,23.42c13.04,14.82,31.55,19.24,33.42,19.65c0.13,0.23,0.49,0.86,1.47,2.55
		c0.26,0.47,0.74,0.78,1.28,0.84l2.41,0.26c0.41,0.03,0.82-0.07,1.16-0.31l2.43-1.75c7.15,1.1,160.04,3.99,232.76,5.31
		c6.83,18.42,24.74,30.78,44.64,30.78c26.21,0,47.53-21.02,47.53-46.87c0-10.15-3.21-19.75-9.3-27.84c1.82,1.03,2.45,1.22,2.5,1.24
		c6.3,2.09,9.89,2.26,10.94,0.52c2.27-3.75-8.96-14.76-10.24-16c-5.96-5.18-12.19-8.68-18.28-11l0.01-0.03
		c-0.05-0.01-0.11-0.02-0.17-0.02c-6.22-2.35-12.3-3.44-17.85-3.81c-0.02-0.02-0.03-0.02-0.04-0.03l-0.01,0.02
		c-4.31-0.28-8.28-0.12-11.75,0.24c-0.02-0.01-0.02-0.02-0.04-0.02l-0.01,0.02c-8.08,0.85-13.38,2.79-13.51,2.84
		c-23.32,9.02-32.83,31.57-33.82,34.08c-64.46-1.33-214.79-4.74-216.3-4.78c-21.96-1.69-32.92-13.45-33.03-13.56l-33.9-35.95
		l2.11-1.38c6.37-1.56,8.75-3.76,8.85-3.86c0.78-1.21,0.9-2.14,0.4-2.82c-2.1-2.79-15,0.68-17.43,1.36
		c-1.75-2.74-4.67-3.43-5.33-3.56l-19.22-22.79l3.1-16.16c3.27-0.18,3.54-1.28,3.56-1.5c0.01,0,2.17-9.88,3.24-14.91
		c0.42-1.97,0.26-3.5-0.5-4.58c-0.54-0.77-1.24-1.1-1.66-1.24l5.06-25.43c0.01,0,0.02,0,0.02,0c2.92,0,3.63-3.16,3.64-3.2
		l8.79-42.17c0.44-2.2,0.23-3.85-0.6-4.95c-0.54-0.72-1.23-1-1.64-1.1l2.91-14.5v8.47l0.09,0.12c1.47,1.77,3.23,2.36,4.92,2.36
		c3.29,0,6.3-2.19,6.35-2.22c0.41-0.41,9.21-9.1,11.69-12.36c2.51-3.29,4.97-10.48,5.07-10.79c0.14-0.63,11.94-57.76,13.65-69.17
		c1.48-9.9-1.86-15.64-5.41-21.71c-0.63-1.08-1.27-2.17-1.89-3.3c-1.66-3.03-3.54-4.85-5.58-5.41c-1.85-0.51-3.14,0.23-3.19,0.26
		l-0.13,0.12l-3.95,5.84l1.47-7.28c2.14-0.96,4.04-2.08,5.63-3.34c3.51-2.76,5.6-7.13,5.6-11.71v-8.19l-0.29-0.04
		c-0.87-0.1-1.62,0.09-2.24,0.58c-1.31,1.04-1.52,3.04-1.53,3.12c-0.2,1.84-0.81,3.1-1.8,3.77c-0.87,0.58-1.83,0.54-2.31,0.48
		l20.49-102.14c1.02-4.67-0.9-7.54-0.98-7.67h-0.01c0,0,0-0.01-0.01-0.02c-3.43-4.4-9.55-6.92-12.1-7.82
		c3.46-0.99,4.61-3.11,4.66-3.21l0.04-0.16v-3.19c0-3.2-8.28-3.73-10.04-3.8c-0.71-1.96-1.69-3.56-1.93-3.94l0.34-9.22
		c-0.02-0.13-0.26-1.31-1.08-2.75c-1.48-2.63-4.2-4.37-7.27-4.68c-3.05-0.3-5.94,0.83-7.89,3.11c-0.61,0.71-1.06,1.51-1.34,2.38
		l-1.24,9.36c-0.63,0.6-3.99,4.24-3.18,12.62c0.13,1.33,0.53,2.62,1.14,3.73c0.2,0.35,0.34,0.6,0.46,0.77
		c-0.08,0.54-0.25,2.06-0.01,3.44c-0.78,0.54-3.57,2.76-3.79,7.08c-0.07,0.86-0.6,8.38,1.38,10.15l-0.85,10.15
		c0,0.12,0.2,7.8,8.5,8.52c0,0,0.02,0,0.03,0c-0.45,0.92-1.3,2.92-0.62,3.87c0.26,0.37,0.71,0.55,1.31,0.52l-57.8,291.41l-1.8,0.57
		l-0.92,3.65l1.32,1.32l-1.24,7.11l-1.88,0.26l-0.75,3.84l1.47,1.3l-10.05,51.5l-0.33,3.48c-0.38,0.32-1.32,1.41-0.81,3.95
		c-0.32,0.39-1.09,1.55-0.86,3.65c-0.24,0.38-0.95,1.7-0.63,3.28c-0.46,0.35-1.46,1.37-1.35,3.52l-1.25,1.35l-3.59,7.28
		c-1.85,0.12-15.98,1.3-28.23,11.35c-0.08,0.08-1.03,1.16-0.46,2.53c0.25,0.59,0.73,1.13,1.45,1.61C5.71,487.99,0,501.03,0,514.54z
		 M437.87,541.19l12.36-8.42c0.4,0.01,0.78,0.01,1.16,0.01c2.34,0,4.36-0.08,6.12-0.22l1.96,9.73l-0.12,0.12
		c-1.27,1.32-2.98,2.1-4.82,2.22C450.77,544.86,443.69,544.72,437.87,541.19z M462.94,501.11c1.22-2.32,2.67-4.79,4.08-6.53
		c0.69-0.84,1.7-1.29,2.73-1.29c0.44,0,0.89,0.08,1.33,0.26c1.26,0.51,3.01,1.32,4.92,2.49c0.54,0.53,5.22,5.18,7.15,10.1h-15
		C467.95,505.22,467.05,502.59,462.94,501.11z M453.67,488.83c0.07,0.01,0.12,0.02,0.19,0.02l-5.53,12.76l-10.23-0.23l-5.2-4.23
		C436.26,494.09,443.61,488.65,453.67,488.83z M429.66,511.98l-8.17-0.41c0.52-1.22,1.66-2.05,3.01-2.14
		c0.77-0.04,1.53,0.16,2.17,0.58L429.66,511.98z M469.24,537.83l-1.51-7.79c1.04-0.68,1.24-1.24,1.27-1.31
		c1.56-3.26,1.94-5.85,1.65-7.88l13.85,2.52c-0.6,1.93-3.93,11.4-11.97,15.25C472.46,538.65,469.9,539.54,469.24,537.83z"/>
	<g>
		<path class="st1" d="M0,514.54c0,27.22,22.46,49.37,50.06,49.37c12.04,0,23.68-4.28,32.78-12.05
			c8.79-7.52,14.65-17.81,16.58-29.06c1.2,1.6,2.22,2.39,3.08,2.39c0.11,0,0.22-0.01,0.32-0.04c1.35-0.33,1.55-2.64,1.57-2.9
			c0.48-6.89-0.21-13.52-0.53-16.06c-0.11-0.91-0.26-1.71-0.44-2.47c-2.48-10.19-7.46-16.82-7.51-16.88
			c-7.69-11.27-18.65-17.04-20.23-17.84l-0.02-6.97l-0.85-2.29c0.78-1.34,0.51-2.86,0.37-3.4c1.04-1.2,0.8-3.08,0.68-3.71
			c1.31-1.18,1.03-3.12,0.88-3.78c1.11-0.98,0.88-2.51,0.55-3.32l0.89-2.17l7.26,1.36l2.45,3.09h-2.32v9.05h-0.54l0.01,3.97
			c0.78,2.53,17.06,13.57,24.03,18.2c1.3,0.87,2.51,1.86,3.58,2.95c6.73,6.81,20.78,23.26,20.93,23.42
			c13.05,14.82,31.55,19.23,33.42,19.64c0.13,0.24,0.49,0.86,1.47,2.56c0.27,0.47,0.75,0.78,1.28,0.84l2.42,0.26
			c0.41,0.04,0.82-0.07,1.16-0.31l2.43-1.75c7.15,1.11,160.03,4,232.76,5.32c6.83,18.42,24.73,30.78,44.65,30.78
			c26.21,0,47.52-21.03,47.52-46.87c0-10.16-3.21-19.74-9.3-27.84c1.82,1.03,2.45,1.22,2.49,1.23c6.31,2.1,9.89,2.27,10.95,0.52
			c2.27-3.75-8.96-14.76-10.25-16c-5.97-5.18-12.19-8.68-18.28-11l0.01-0.04c-0.05-0.01-0.11-0.02-0.18-0.03
			c-6.22-2.34-12.3-3.44-17.85-3.81c-0.02-0.01-0.04-0.02-0.04-0.03l-0.02,0.02c-4.3-0.28-8.28-0.13-11.75,0.23
			c-0.01,0-0.03-0.01-0.04-0.02l-0.01,0.02c-8.08,0.85-13.38,2.79-13.51,2.84c-23.33,9.02-32.83,31.57-33.82,34.07
			c-64.46-1.33-214.79-4.74-216.3-4.77c-21.95-1.69-32.92-13.44-33.03-13.56l-33.89-35.95l2.1-1.38c6.38-1.56,8.76-3.77,8.86-3.86
			c0.78-1.22,0.9-2.14,0.39-2.82c-2.1-2.8-15.01,0.67-17.42,1.35c-1.75-2.74-4.67-3.43-5.33-3.55l-19.23-22.79l3.11-16.15
			c3.27-0.18,3.54-1.28,3.56-1.5c0,0,2.16-9.88,3.24-14.91c0.42-1.96,0.25-3.5-0.5-4.58c-0.54-0.77-1.25-1.1-1.66-1.23l5.07-25.43
			c0.01,0,0.02,0,0.02,0c2.92,0,3.63-3.16,3.64-3.19l8.79-42.18c0.43-2.19,0.23-3.85-0.61-4.95c-0.55-0.71-1.22-0.99-1.64-1.1
			l2.91-14.5v8.47l0.09,0.11c1.46,1.78,3.23,2.36,4.93,2.36c3.28,0,6.3-2.19,6.34-2.22c0.42-0.41,9.21-9.1,11.69-12.36
			c2.5-3.29,4.97-10.49,5.07-10.79c0.13-0.62,11.94-57.76,13.64-69.16c1.48-9.91-1.87-15.64-5.41-21.71
			c-0.63-1.08-1.27-2.17-1.89-3.3c-1.66-3.03-3.54-4.85-5.59-5.41c-1.85-0.51-3.13,0.23-3.19,0.26l-0.13,0.12l-3.95,5.84l1.46-7.29
			c2.15-0.96,4.04-2.08,5.64-3.33c3.51-2.76,5.6-7.14,5.6-11.71v-8.2l-0.29-0.04c-0.87-0.11-1.62,0.08-2.24,0.58
			c-1.3,1.04-1.52,3.03-1.53,3.12c-0.2,1.84-0.8,3.11-1.79,3.77c-0.87,0.59-1.84,0.55-2.31,0.48l20.49-102.15
			c1.02-4.67-0.9-7.54-0.98-7.66l0,0c0-0.01-0.01-0.01-0.01-0.02c-3.44-4.4-9.55-6.92-12.1-7.82c3.46-0.99,4.61-3.12,4.66-3.22
			l0.04-0.16v-3.19c0-3.21-8.28-3.73-10.04-3.8c-0.71-1.97-1.69-3.56-1.92-3.94l0.33-9.22c-0.02-0.13-0.26-1.31-1.07-2.75
			c-1.49-2.63-4.21-4.38-7.27-4.68c-3.05-0.3-5.94,0.83-7.89,3.11c-0.61,0.71-1.06,1.51-1.34,2.39l-1.24,9.35
			c-0.62,0.6-3.99,4.24-3.18,12.62c0.13,1.33,0.52,2.62,1.14,3.73c0.2,0.36,0.34,0.61,0.46,0.77c-0.08,0.54-0.25,2.06-0.01,3.44
			c-0.78,0.54-3.56,2.76-3.79,7.09c-0.07,0.86-0.59,8.38,1.39,10.14l-0.85,10.15c0,0.11,0.19,7.8,8.49,8.52c0,0,0.02,0,0.04,0
			c-0.46,0.92-1.31,2.91-0.62,3.87c0.27,0.37,0.7,0.55,1.3,0.52l-57.8,291.42l-1.8,0.57l-0.92,3.65l1.32,1.32l-1.23,7.11l-1.88,0.25
			l-0.75,3.83l1.47,1.31l-10.05,51.5l-0.33,3.47c-0.38,0.32-1.32,1.41-0.81,3.95c-0.32,0.39-1.08,1.55-0.86,3.65
			c-0.24,0.38-0.95,1.7-0.63,3.28c-0.46,0.35-1.46,1.37-1.35,3.53l-1.25,1.35l-3.59,7.28c-1.85,0.11-15.99,1.3-28.23,11.35
			c-0.08,0.08-1.02,1.16-0.46,2.53c0.24,0.59,0.73,1.13,1.45,1.62C5.7,487.99,0,501.03,0,514.54z M43.62,478.31
			c-4.24,0.02-8.46,1.35-10.63,2.17c-1.06,0.4-2.17,0.57-3.32,0.5c-11.72-0.69-14.33-2.9-14.85-4.15c-0.41-0.98,0.29-1.78,0.3-1.79
			c11.9-9.76,25.63-11.02,27.72-11.15C43.66,467.49,43.84,472.59,43.62,478.31z M69.34,491.77l1.94-6.61
			c11,7.33,17.55,19.54,17.55,32.76c0,21.71-17.66,39.37-39.37,39.37c-21.71,0-39.37-17.66-39.37-39.37
			c0-19.41,14.38-36.07,33.5-38.93c-0.63,14.59-3.7,32.76-4.94,39.58c-0.42,2.32-0.24,4.61,0.51,6.63c2.26,6.04,7.63,6.34,7.68,6.34
			c1.05,0.17,2.02,0.24,2.91,0.24c7.73,0,9.51-5.64,9.53-5.71l6.4-21.86L75.81,502c0.59-0.13,1.07-0.55,1.27-1.12
			c0.21-0.57,0.11-1.19-0.26-1.66C74.6,496.33,72.08,493.83,69.34,491.77z M76.3,499.62c0.23,0.29,0.29,0.68,0.16,1.02
			c-0.13,0.35-0.42,0.61-0.79,0.69l-9.76,2.15l3.23-11.03C71.75,494.46,74.16,496.86,76.3,499.62z M47.85,457.47
			c11.23,10.12,23.06,6.39,25.92,5.27l-2.44,9.19l-21.08-4.65l-0.14,0.65l21.05,4.64l-14.13,51.13c-0.45,1.61-1.32,3.01-2.45,4.09
			c1.86-4.28,3.54-10.62,4.22-13.35c0.34-1.34,0.26-2.66-0.22-3.81c-0.56-1.34-1.87-3.09-4.94-3.84c0,0-0.08-0.02-0.23-0.05
			c-2.25-0.49-4.54-0.03-6.44,1.3c-1.9,1.34-3.16,3.42-3.46,5.73c-0.58,4.45-1.01,10.04-0.2,13.39c-1.15-1.53-1.74-3.48-1.52-5.51
			l5.66-51.62c0.17-1.52,0.21-3.07,0.14-4.6l-0.47-9.24l0.61-0.65v1.82L47.85,457.47z M43.75,525.9c-0.5-3.52,0-8.76,0.43-12.03
			c0.27-2.12,1.44-4.04,3.18-5.27c1.74-1.22,3.85-1.65,5.91-1.19c0.12,0.03,0.19,0.05,0.2,0.05c2.25,0.56,3.76,1.72,4.49,3.45
			c0.43,1.02,0.49,2.19,0.19,3.39c-0.75,2.97-2.69,10.31-4.74,14.44c-0.07,0.05-0.15,0.1-0.22,0.15c1.8-3.78,3.47-10.3,4.1-12.94
			c0.29-1.19,0.22-2.37-0.19-3.4c-0.48-1.19-1.61-2.76-4.24-3.43c0,0-0.07-0.02-0.19-0.05c-1.89-0.43-3.81-0.05-5.42,1.08
			c-1.7,1.19-2.82,3.08-3.09,5.19C43.72,518.74,43.39,522.9,43.75,525.9z M44.81,515.41c0.24-1.92,1.26-3.64,2.8-4.72
			c1.45-1.02,3.19-1.36,4.89-0.97c0.1,0.02,0.16,0.04,0.17,0.04c1.91,0.49,3.18,1.51,3.8,3.04c0.36,0.9,0.42,1.93,0.16,2.99
			c-0.64,2.65-2.31,9.21-4.08,12.87l-0.62,0.87c-1.09,0.44-2.27,0.66-3.48,0.6c-0.22-0.01-0.43-0.03-0.66-0.06
			c0,0-0.1-0.02-0.28-0.06c-0.71-0.18-1.37-0.45-1.97-0.81l-0.49-0.87C43.75,525.81,44.34,519.15,44.81,515.41z M48.41,457.07v-1.78
			c10.24,6.04,23.24,5.06,25.66,4.81l-0.12,1.84C72.35,462.64,60.08,467.48,48.41,457.07z M49.43,451.63
			c5.23,5.08,11.41,6.39,16.38,6.39c4.3,0,7.68-0.98,8.75-1.32c0.11,0.56,0.24,1.72-0.34,2.71c-1.65,0.19-15.32,1.5-25.81-4.9
			C48.34,452.75,49.07,451.92,49.43,451.63z M62.78,380.5l-0.86,3.94l-0.9-0.8l0.59-2.99L62.78,380.5z M65.38,367.92l-1.04,4.01
			l-0.76-0.76l0.74-2.92L65.38,367.92z M123.42,71.39c0.82-0.01,2.19-0.14,3.71-0.78c-1.25,3.44-3.21,4.33-3.43,4.42
			c-0.56,0.1-0.93,0.04-1.09-0.19C122.17,74.22,122.84,72.46,123.42,71.39z M115.85,50.59l-0.02-0.06
			c-1.58-5.07,1.89-8.61,1.92-8.65c3.51-4.2,9.84-2.56,9.91-2.54c4.66,1.3,6.42,5.36,6.44,5.4c2.49,5.07-0.42,7.15-0.55,7.24
			l-0.13,0.09l-0.01,0.16l-0.82,11.42c-3.13,7.93-9.78,7.05-9.85,7.04c-7.72-0.67-7.9-7.54-7.9-7.83L115.85,50.59z M114.17,45.27
			c2.88-8.77,12.55-7.87,12.96-7.83c6.62,1.34,9.45,8.64,9.47,8.71l0.06,0.16l0.16,0.05c3.08,0.9,5.29,1.23,6.88,1.23
			c1.7,0,2.68-0.37,3.26-0.8c0.07-0.05,0.12-0.1,0.17-0.15v2.24c-0.73,0.52-4.63,3.16-13.3,6.53l0.22-2.99
			c0.63-0.53,3.08-3.01,0.65-7.97c-0.07-0.16-1.9-4.38-6.87-5.77c-0.28-0.08-6.81-1.78-10.58,2.74c-0.02,0.02-3.74,3.82-2.09,9.24
			l-0.09,1.06C114.34,50.43,114.16,47.6,114.17,45.27z M117.94,35.9l0.2-0.12l-0.03-0.14c0.23-0.6,1.9-4.6,5.85-5.61
			c0.2-0.05,0.41-0.08,0.62-0.08c1.39-0.02,6.13,0.26,8.59,5.05c0.44,0.86,0.88,1.59,1.33,2.23c0.71,1.01,1.69,2.52,2.31,4.02
			c0.02,0.08,0.06,0.19,0.17,0.3c0.45,0.46,1.73,0.64,3.81,0.57c0.02,0,3.73-0.05,5.47,1.64c0.5,0.49,0.77,1.08,0.84,1.77
			c-0.05,0.18-0.19,0.47-0.57,0.74c-0.82,0.59-3.11,1.3-9.37-0.51c-0.47-1.11-3.48-7.67-9.93-8.98c-0.13-0.01-9.31-0.88-13.01,6.59
			c0.02-0.29,0.03-0.56,0.05-0.79C114.52,38.01,117.91,35.92,117.94,35.9z M123.13,25.03c-0.41,0.11-0.81,0.24-1.19,0.41
			c-1.98,0.87-3.36,2.54-4.13,4.96c-0.88-5.06,0.53-7.99,0.54-8.02c2.67-7.81,10.58-6.5,10.66-6.49c6.37,1.29,8.61,7.37,8.82,8
			l-0.56,4.42c-0.69-0.39-2.32-1.26-4.38-2.05C132.23,25.73,126.86,21.74,123.13,25.03z M130.22,25.38
			c-1.75-0.47-3.62-0.76-5.39-0.63C126.64,24.01,128.69,24.62,130.22,25.38z M137.13,7.52l-0.31,8.32
			c-3.51-4.24-8.01-4.46-8.21-4.47c-4.22-0.34-7.51,1.79-8.87,2.86l1.13-8.55c0.24-0.73,0.64-1.46,1.19-2.09
			c1.62-1.88,3.92-2.92,6.42-2.92c0.3,0,0.6,0.01,0.9,0.04c2.85,0.28,5.37,1.9,6.75,4.34C136.9,6.39,137.13,7.51,137.13,7.52z
			 M148.56,23.8c-0.71,0.68-3.83,3.06-10.11-0.18c-0.35-0.99-2.77-7.07-9.31-8.39c-0.09-0.02-8.57-1.41-11.4,6.89
			c-0.05,0.09-1.4,2.86-0.7,7.75c-0.3-0.76-0.49-1.58-0.57-2.41c-0.77-7.94,2.37-11.47,2.95-12.05l0.11-0.11
			c0.04-0.04,3.88-3.68,9.05-3.25c0.06,0,4.9,0.25,8.28,4.92c0.04,0.06,1.22,1.89,1.98,4.09l0.08,0.22l0.23,0.01
			C141.56,21.37,147.44,21.98,148.56,23.8z M143.51,30.58c-1.13-0.38-3.8-1.21-5.68-1.27l0.63-4.96c5.88,2.92,9.16,1.1,10.31,0.16
			v3.01C148.52,27.91,147.11,29.91,143.51,30.58z M156.34,39.48c-0.02,0.04-0.07,0.14-0.21,0.17c-0.97,0.15-2.47,0.26-4.1-0.06
			c-4.77-0.96-12.18-5.4-12.26-5.44c-3.53-2.97-3.34-3.78-3.27-3.91c0.33-0.59,2.95-0.17,5.59,0.6l-0.07,0.01l1.37,0.4
			c0.09,0.03,8.71,2.6,12.9,7.96c0,0,0.01,0.01,0.01,0.01C156.38,39.33,156.35,39.44,156.34,39.48z M149.63,83.91
			c-1.92,0.14-15.06,0.82-26.09-5.61l0.54-2.71c0.62-0.3,2.69-1.54,3.89-5.38c1.9-1.02,3.89-2.91,5.24-6.36l0.02-0.1l0.55-7.6
			c10-3.85,13.74-6.72,13.89-6.84l0.13-0.1v-3.32c0-0.11-0.02-0.21-0.03-0.31c0.02-0.12,0.03-0.2,0.03-0.21l-0.05,0
			c-0.11-0.81-0.44-1.51-1.03-2.09c-1.94-1.9-5.78-1.83-5.95-1.83c-2.62,0.11-3.2-0.27-3.3-0.36l-0.02-0.05
			c-0.64-1.56-1.65-3.14-2.39-4.19c-0.44-0.62-0.86-1.32-1.28-2.15c-2.64-5.14-7.72-5.43-9.2-5.42c-0.27,0-0.53,0.04-0.78,0.1
			c-3.27,0.83-5.05,3.45-5.84,4.98c-0.04-0.94,0.05-1.8,0.1-2.2l0.1-0.04l-0.05-0.25c0.6-2.92,1.98-4.88,4.1-5.81
			c5.41-2.39,14.04,2.43,14.98,2.98l-0.04,0.3c-0.59,0.06-1.03,0.23-1.23,0.58c-0.49,0.88,0.57,2.35,3.46,4.78
			c0.35,0.22,7.63,4.58,12.51,5.55c0.82,0.16,1.61,0.22,2.32,0.22c0.79,0,1.48-0.07,2.02-0.16c0.19-0.03,0.36-0.12,0.49-0.24
			c0.48,1.14,1.09,3.34,0.44,6.28L149.63,83.91z M134.42,163.14l2.78-13.85c0.57,0.09,1.74,0.14,2.82-0.58
			c1.16-0.78,1.86-2.21,2.08-4.26c0-0.01,0.09-0.75,0.43-1.51c0.02,2.63-0.29,9.34-3.99,11.09l0.29,0.61
			c4.74-2.23,4.43-11.28,4.35-12.65c0.07-0.07,0.13-0.14,0.21-0.2c0.4-0.32,0.87-0.47,1.44-0.46v7.59c0,4.37-2,8.55-5.35,11.19
			C138.04,161.23,136.33,162.25,134.42,163.14z M112,274.92l20.38-101.59l4.99-7.39c0.26-0.13,1.2-0.5,2.5-0.13
			c1.79,0.5,3.54,2.23,5.06,5.01c0.62,1.14,1.26,2.24,1.9,3.32c3.47,5.94,6.74,11.55,5.31,21.17c-1.7,11.38-13.5,68.49-13.62,69.07
			c-0.01,0.02-2.51,7.32-4.94,10.51c-2.45,3.22-11.48,12.14-11.57,12.23c-0.21,0.15-6.21,4.49-10,0.07V274.92z M107.49,310.8h-3.89
			c0.61-2.96,1.11-5.4,1.4-6.81c1.13-5.5,2.66-8.96,3.07-9.83c0.3,0.07,0.86,0.28,1.32,0.88c0.7,0.92,0.86,2.44,0.47,4.4
			L107.49,310.8z M97.83,339.08c0-0.01,3.44-16.85,5.64-27.62h3.88l-6.28,30.15c-0.02,0.11-0.63,2.7-3.07,2.65
			C97.11,342.37,97.82,339.11,97.83,339.08z M88.38,391.92c-0.06-2.81,2.19-12.78,2.21-12.89c1.06-5.59,1.88-7.49,2.17-8.02
			c0.31,0.09,0.9,0.34,1.35,1c0.64,0.92,0.76,2.28,0.39,4.04c-1.08,5.04-3.25,14.94-3.25,14.94
			C91.19,391.22,90.54,391.78,88.38,391.92z M87.54,393.27c-1.52,0.48-12.77,3.54-25.73-4.78l0.65-3.34h0l1.03-4.74l0.01,0
			l1.35-7.75l1.29-4.97l0.01,0l0.04-0.19l57.22-288.49c8.63,4.96,18.49,5.68,23.4,5.68c1.25,0,2.17-0.05,2.68-0.08l-41.94,209.09
			c-0.2,0.4-1.93,3.96-3.21,10.18c-1.34,6.5-7.17,35.09-7.17,35.09c-0.03,0.14-0.79,3.59,0.26,5.7l-5.15,25.86
			c-0.23,0.36-1.16,2.12-2.35,8.39c-0.1,0.43-2.45,10.87-2.21,13.36L87.54,393.27z M87.21,394.96c-1.38,0.44-12.68,3.61-25.74-4.76
			l0.2-1.02c7.21,4.56,13.89,5.69,18.71,5.69c3.46,0,5.96-0.58,7.01-0.87L87.21,394.96z M109.09,435.26l-1.79,0.37l-3.05-3.44
			C104.46,432.22,107.35,432.75,109.09,435.26z M105.16,436.08l0.22,3.62l-15.56-18.79c-0.35-0.42-0.63-0.88-0.84-1.35
			c-0.9-2.03-0.56-2.34-0.55-2.35c0.17-0.13,0.97,0.05,2.49,1.13c0.36,0.26,0.69,0.55,0.99,0.89l14.65,16.56L105.16,436.08z
			 M106.07,439.96l-0.2-3.35l3.61-0.75l0.01,0.02l0.25-0.07c0.86-0.25,2.03-0.56,3.34-0.87v3.54h0.67v-3.7
			c0.33-0.08,0.67-0.15,1.02-0.23v3.57h0.67v-3.72c0.34-0.07,0.68-0.14,1.02-0.21v3.61h0.67v-3.74c0.34-0.06,0.68-0.12,1.02-0.18
			v3.42h0.67v-3.53c0.34-0.05,0.68-0.11,1.02-0.15v3.14h0.67v-3.22c0.35-0.04,0.69-0.08,1.02-0.11v2.86h0.67v-2.91
			c0.35-0.02,0.69-0.04,1.02-0.05v2.37h0.67v-2.37c0.36,0.01,0.71,0.03,1.02,0.07v1.6h0.67v-1.47c0.52,0.13,0.91,0.33,1.12,0.62
			c0.09,0.12,0.14,0.27,0.15,0.43C125.93,435.26,120.11,439.24,106.07,439.96z M115.16,441.45L115.16,441.45l-0.02,0.01l-0.31,0.2
			l0,0l-2.91,1.95l-0.09,3.31l-5.39-6.33c12.3-0.68,18.22-3.77,20.19-5.07c-0.08,0.18-0.17,0.36-0.3,0.56
			c-0.29,0.25-2.73,2.26-8.58,3.68l-0.1,0.05L115.16,441.45z M112.59,443.98l0.25-0.17l16.15,19.72c0.36,0.44,0.64,0.91,0.86,1.4
			c0.95,2.22,0.68,2.74,0.57,2.84c-0.16,0.16-0.63,0.09-1.24-0.19c-0.73-0.33-1.4-0.85-1.98-1.55l-14.73-17.78L112.59,443.98z
			 M398.81,496.74c-0.42,0.98-1.39,3.44-2.05,6.47c-0.22,0.34-1.18,2-0.3,3.81c1.28,2.64,5.74,4.19,13.24,4.61l0,0l0.4,0.02
			l51.73,2.6c0.33,0.02,0.65,0.05,0.97,0.1c0.67,0.23,0.86,0.45,0.86,0.53c0.01,0.18-0.49,0.53-0.92,0.7
			c-2.32,1.36-25.33,2.11-57.05,2.48l-220.03-1.54c-26.28-1.68-34.42-12.51-35.26-13.74c-0.12-0.17-0.25-0.32-0.4-0.47
			c-9.52-9.57-38.25-48.98-41.5-53.44c-0.23-0.31-0.38-0.64-0.47-0.99c-0.19-0.79-0.07-0.96-0.07-0.96c0,0,0,0,0,0
			c0.08,0,0.38,0.16,0.6,0.35l16.89,19.68c0.06,0.07,0.12,0.14,0.18,0.21c4.58,4.78,7.4,6.57,8.65,5.48c1.58-1.38-0.68-6.97-3-9.88
			c-0.34-0.43-0.52-0.69-0.52-0.7l-16.33-19.31l0.87-0.58l33.97,36.03c0.11,0.12,11.24,12.06,33.49,13.77
			C184.28,492,334.2,495.41,398.81,496.74z M185.62,517.2c0.07,0.01,0.15,0.01,0.22,0.01l168.71,1.17
			c-74.95,0.14-161.49-0.74-163-0.76c-9.86-0.09-17.64-1.55-23.56-3.39C172.68,515.64,178.48,516.75,185.62,517.2z M421.49,511.56
			c0.52-1.22,1.66-2.05,3-2.14c0.77-0.04,1.53,0.15,2.17,0.58l2.99,1.98L421.49,511.56z M458.64,460.82
			c-0.11,0.68-1.06,2.02-6.26,3.4c-0.68,0.18-1.42,0.32-2.19,0.42c-2.88,0.37-12.87,1.91-20.5,6.44
			c-0.13,0.08-13.17,7.82-18.75,15.69c-1.08,1.52-2.33,2.74-3.72,3.62c-2.04,1.3-3.77,1.61-5.16,0.97c0.94-1.76,2.16-3.86,3.7-6.13
			l1.42,3.48l0.62-0.25l-1.59-3.89c0.33-0.48,0.68-0.97,1.04-1.46l1.46,3.58l0.62-0.25l-1.61-3.95c0.38-0.51,0.78-1.03,1.2-1.55
			l1.44,3.54l0.62-0.25l-1.58-3.89c0.37-0.46,0.76-0.92,1.15-1.38l1.46,3.59l0.62-0.25l-1.59-3.9c0.43-0.49,0.88-0.98,1.33-1.47
			l1.47,3.6l0.62-0.25l-1.58-3.88c0.37-0.39,0.75-0.78,1.14-1.16l1.47,3.61l0.62-0.25l-1.58-3.86c0.33-0.32,0.68-0.65,1.03-0.97
			l1.44,3.53l0.62-0.25l-1.54-3.77c0.43-0.39,0.88-0.78,1.33-1.16l1.45,3.56l0.62-0.25l-1.53-3.76c0.41-0.34,0.83-0.68,1.26-1.02
			l1.49,3.65l0.62-0.25l-1.56-3.82c0.44-0.34,0.89-0.68,1.35-1.01l1.48,3.63l0.62-0.25l-1.53-3.76c0.47-0.33,0.95-0.66,1.45-0.99
			l1.48,3.63l0.62-0.25l-1.53-3.74c0.44-0.28,0.89-0.56,1.35-0.84l1.51,3.72l0.62-0.25l-1.55-3.8c0.43-0.25,0.86-0.5,1.3-0.74
			l1.51,3.71l0.62-0.25l-1.54-3.77c0.43-0.23,0.87-0.46,1.31-0.68l1.53,3.76l0.62-0.25l-1.55-3.79c1.19-0.57,2.42-1.11,3.7-1.61
			c0.13-0.05,5.3-1.95,13.21-2.79c0.32,0.16,0.99,0.59,0.76,1.4c-0.15,0.53-0.64,0.93-1.25,1.02c-1.01,0.15-3.1,0.57-5.84,1.82
			c-4.31,1.97-7.72,2.7-8.69,1.86c-0.34-0.29-0.4-0.83-0.19-1.59l-0.64-0.18c-0.3,1.04-0.16,1.8,0.39,2.28
			c0.41,0.36,1.04,0.5,1.78,0.5c2.36,0,5.92-1.48,7.63-2.26c2.66-1.21,4.69-1.63,5.66-1.77c0.87-0.13,1.58-0.72,1.8-1.51
			c0.2-0.73-0.06-1.29-0.43-1.68c0.25-0.02,0.5-0.05,0.76-0.07v3.96h0.67v-4.01c0.64-0.05,1.29-0.08,1.96-0.11v3.73h0.67v-3.76
			c0.64-0.02,1.3-0.04,1.96-0.04v2.83h0.67v-2.82c0.64,0,1.3,0.01,1.96,0.04v1.59h0.67v-1.56c0.45,0.02,0.91,0.04,1.37,0.07
			C458.27,459.78,458.73,460.24,458.64,460.82z M496.64,476.86c-8.37-6.98-19.81-12.38-20.61-12.76c-0.46-0.4-0.6-0.61-0.65-0.71
			c0.12-0.03,0.36-0.03,0.6,0c6.05,2.29,12.22,5.76,18.14,10.9C494.8,474.95,495.68,475.84,496.64,476.86z M485.74,483.71
			c-0.15-0.13-18.12-14.43-45.89-5.97c-0.25,0.09-23.97,8.61-29.98,33.24c-9.1-0.49-12-2.57-12.81-4.24
			c-0.8-1.64,0.27-3.18,0.28-3.19l0.05-0.12c0.72-3.32,1.82-5.95,2.13-6.66l0.02,0l0.08-0.22c0.02-0.06,0.7-1.84,2.12-4.57
			c0.55,0.26,1.15,0.4,1.79,0.4c1.22,0,2.58-0.47,4.05-1.4c1.46-0.93,2.78-2.21,3.91-3.8c5.49-7.76,18.41-15.42,18.54-15.5
			c7.52-4.46,17.39-5.99,20.24-6.35c0.8-0.1,1.57-0.25,2.28-0.44c4.25-1.13,6.52-2.46,6.75-3.95c0.08-0.51-0.09-0.94-0.32-1.27
			c4.97,0.39,10.35,1.38,15.85,3.33c-0.03,0.04-0.06,0.07-0.09,0.12c-0.24,0.49,0.31,1.06,0.88,1.55l0.08,0.05
			c0.18,0.08,18.53,8.6,26,18.2c1.99,2.73,3.31,5.3,2.54,6.57c-0.59,0.97-2.84,1.62-10.18-0.82
			C494.04,488.63,492.24,488.08,485.74,483.71z M409.23,531.99c4.34,0.08,8.39,0.15,12.1,0.22l0.72,1.52
			c0.78,1.66,2.48,2.74,4.32,2.74c0.81,0,1.61-0.21,2.32-0.6l6.13-3.42c6.08,0.11,9.99,0.18,11.14,0.2c1.09,0.05,2.12,0.08,3.1,0.1
			l-15.34,10.44c-0.72,0.49-1.16,1.31-1.16,2.19c0,0.8,0.34,1.54,0.94,2.03c6.6,5.32,15.26,6.32,20.84,6.32
			c0.69,0,1.33-0.02,1.91-0.04c2.07-0.09,3.89-1.39,4.66-3.33c0.37-0.95,0.46-1.98,0.26-2.98l-3-14.87c4.76-0.43,7.44-1.3,8.94-2.09
			l2.98,15.35c0.18,0.95,0.81,1.77,1.69,2.18c0.42,0.2,0.87,0.3,1.33,0.3c0.53,0,1.05-0.13,1.53-0.4
			c9.77-5.45,13.3-14.07,14.54-18.72c0.38-1.44,0.14-3-0.67-4.28c-0.65-1.02-1.71-1.73-2.9-1.95l-15.08-2.74
			c-0.48-2.09-1.68-3.55-2.95-4.53c-1.56-1.22-3.54-1.92-5.71-2.03l-30.89-1.55l-3.94-2.6c-0.76-0.5-1.67-0.75-2.58-0.68
			c-1.69,0.11-3.1,1.2-3.67,2.78l-10.24-0.51c5.97-24.18,29.28-32.56,29.52-32.64c27.4-8.35,45.1,5.73,45.28,5.87
			c1.85,1.25,3.32,2.18,4.49,2.89c6.66,8.25,10.19,18.19,10.19,28.76c0,25.47-21.02,46.2-46.85,46.2
			C433.62,562.09,416.03,550.02,409.23,531.99z M469.24,537.83l-1.51-7.79c1.04-0.68,1.25-1.25,1.27-1.31
			c1.56-3.27,1.93-5.85,1.65-7.88l13.85,2.52c-0.6,1.93-3.93,11.4-11.97,15.25C472.45,538.65,469.89,539.53,469.24,537.83z
			 M471.08,539.54c0.64,0,1.26-0.14,1.71-0.3c8.41-4.03,11.81-13.92,12.37-15.75l0.32,0.06c1.01,0.18,1.9,0.78,2.45,1.65
			c0.71,1.12,0.93,2.49,0.59,3.75c-1.21,4.55-4.66,12.98-14.22,18.3c-0.69,0.39-1.53,0.42-2.24,0.08c-0.68-0.33-1.17-0.96-1.32-1.71
			l-1.26-6.48C469.96,539.43,470.53,539.54,471.08,539.54z M437.87,541.18l12.36-8.41c0.39,0,0.78,0.01,1.16,0.01
			c2.34,0,4.36-0.08,6.12-0.22l1.96,9.72l-0.12,0.12c-1.27,1.31-2.98,2.1-4.82,2.22C450.77,544.86,443.69,544.72,437.87,541.18z
			 M452.14,545.37c0.91,0,1.73-0.03,2.44-0.08c1.91-0.12,3.69-0.92,5.05-2.23l0.9,4.45c0.18,0.87,0.1,1.77-0.23,2.6
			c-0.67,1.69-2.26,2.83-4.06,2.91c-5.22,0.21-15.05-0.29-22.3-6.13c-0.44-0.35-0.69-0.91-0.69-1.51c0-0.65,0.32-1.26,0.86-1.63
			l3.15-2.15C442.19,544.7,448.04,545.37,452.14,545.37z M428.36,535.28c-0.61,0.34-1.3,0.52-2,0.52c-1.58,0-3.04-0.92-3.71-2.35
			l-0.58-1.23c4.31,0.08,8.14,0.15,11.41,0.2L428.36,535.28z M119.35,488.19l-26.33-31.26c-0.59-6.15,2.75-8.38,2.9-8.48
			c3.32-2.73,8.27-0.74,8.93-0.46c2.29,3,40.69,53.24,47.49,59.03c0.1,0.1,11.64,11.02,39.21,11.27c5.62,0.06,77.47,0.8,145.85,0.8
			c62.3,0,121.73-0.61,125.64-2.91c0.18-0.07,1.32-0.56,1.3-1.32c0-0.06-0.02-0.12-0.04-0.18c1.06,0.32,2.03,0.81,2.87,1.46
			c2.36,1.84,4.49,5.47,1.21,12.35c-0.03,0.08-1.88,4.42-22.39,3.49c-2.65-0.05-264.47-4.62-270.24-6l-0.15-0.04l-2.67,1.92
			c-0.2,0.15-0.45,0.21-0.7,0.19l-2.42-0.26c-0.32-0.03-0.61-0.22-0.77-0.5c-0.53-0.92-1.48-2.58-1.53-2.68l-0.07-0.14l-0.16-0.03
			c-0.19-0.04-19.67-4.1-33.2-19.46C133.98,504.87,126.13,495.68,119.35,488.19L119.35,488.19z M85.69,457.55h0.54v-0.28
			c0.79-2.97,4.38-3.38,5.35-3.44c0.13,1.08,0.39,2.2,0.78,3.34l0.06,0.11l19.49,23.13c-0.78-0.68-1.61-1.33-2.48-1.91
			c-11.02-7.33-23-15.82-23.74-17.8V457.55z M86.24,455.7v-0.51c1.13-3.24,4.37-2.72,5.27-2.51c0,0.16,0.01,0.33,0.02,0.49
			C90.58,453.23,87.68,453.59,86.24,455.7z M88.32,448.5l3.08,3.47c-1.11-0.2-3.69-0.39-5.16,1.73v-5.2H88.32z M75.46,432.08
			l4.22-19.25l26.58,31.35c-0.92-0.48-2.12-1-3.49-1.3c-2.5-0.55-5.15,0-7.28,1.5c-2.16,1.52-3.58,3.88-3.9,6.46
			c-0.01,0.1-0.02,0.2-0.03,0.3l-2.34-2.64h0.06l-3.4-4.28l0,0l0,0l-0.07-0.08l-0.01,0L75.46,432.08z M77.73,442.69
			c-1.89,0.15-17.08,1.07-25.33-6.06l8.92-45.72c7.2,4.55,13.87,5.67,18.69,5.67c3.5,0,6.02-0.59,7.05-0.88l-2.54,13.23l0.1,0.12
			l16.89,20.02l-9.11-10.3c-0.33-0.37-0.7-0.71-1.1-0.99c-2.48-1.77-3.1-1.27-3.3-1.1c-0.53,0.43-0.41,1.4,0.36,3.14
			c0.24,0.53,0.55,1.03,0.94,1.5l37.38,45.13c0.64,0.78,1.39,1.36,2.22,1.74c0.49,0.22,0.9,0.33,1.24,0.33
			c0.31,0,0.56-0.09,0.74-0.27c0.54-0.52,0.4-1.66-0.42-3.58c-0.24-0.55-0.56-1.08-0.95-1.56l-16.11-19.67l0.47-0.32l16.36,19.34
			c0,0,0.19,0.27,0.53,0.71c2.4,3.02,4.13,8.05,3.08,8.96c-0.32,0.28-1.83,0.72-7.73-5.44c-0.05-0.05-0.09-0.11-0.14-0.16l-0.08-0.1
			l-16.86-19.63c-0.24-0.21-0.94-0.74-1.44-0.43c-0.49,0.3-0.36,1.1-0.22,1.68c0.1,0.43,0.3,0.85,0.58,1.23
			c3.25,4.46,32.01,43.91,41.56,53.52c0.12,0.12,0.22,0.24,0.32,0.38c0.7,1.02,3.13,4.11,8.63,7.15c-3.84-2.06-5.65-3.76-5.69-3.8
			c-6.82-5.8-47.05-58.47-47.46-59.01l-0.12-0.1c-0.24-0.11-5.84-2.67-9.68,0.49c-0.11,0.07-2.75,1.82-3.18,6.35
			c-0.18-1.15-0.22-2.27-0.09-3.34c0.3-2.4,1.62-4.59,3.62-6c1.98-1.39,4.44-1.9,6.75-1.39c2.91,0.64,5.07,2.33,5.09,2.35l0.46-0.48
			l-28.86-34.04l-4.58,20.9l10.01,11.67l-6.98-1.31L77.73,442.69z M76.67,445.27c-1.52,0.36-14.08,3.01-24.61-5.08l0.26-2.78
			c6.42,5.27,16.55,6.06,21.97,6.06c1.44,0,2.54-0.06,3.16-0.1L76.67,445.27z M76.2,448.44c-1.09,0.29-15.4,3.87-24.94-4.4
			c-0.43-2.05,0.17-2.96,0.47-3.27c6.25,4.77,13.19,5.87,18.21,5.87c3.42,0,5.95-0.5,6.77-0.69
			C76.89,446.47,77.16,447.69,76.2,448.44z M75.3,452.23c-0.87,0.33-12.96,4.72-24.92-4.55c-0.16-1.63,0.32-2.59,0.6-2.99
			c5.13,4.35,11.53,5.44,16.63,5.44c4.16,0,7.45-0.72,8.48-0.97C76.22,449.82,76.37,451.38,75.3,452.23z M74.6,455.98
			c-1.1,0.39-14.83,4.92-24.83-4.95c-0.27-1.16,0.14-2.2,0.39-2.68c6.11,4.66,12.24,5.88,16.95,5.88c4.07,0,7.08-0.9,8.11-1.25
			C75.32,453.65,75.41,455.11,74.6,455.98z M75.16,469.5l-3.91,13.39l0,0l-12.59,43c-0.08,0.26-2.09,6.52-11.74,4.99
			c-0.24-0.01-5.02-0.3-7.12-5.91c-0.71-1.91-0.88-4.08-0.48-6.28c1.75-9.68,7.21-42.21,4.14-55.12l3.06-6.2l0.41,8.1
			c0.08,1.49,0.03,3.01-0.13,4.49l-5.66,51.62c-0.46,4.15,2.22,8.05,6.23,9.05c0.22,0.05,0.34,0.08,0.34,0.08
			c0.26,0.03,0.49,0.05,0.72,0.07c0.15,0.01,0.31,0.01,0.46,0.01c4.01,0,7.66-2.84,8.79-6.91l14.22-51.47l2.66-10.02l0.04-0.02
			l0.07-1.07l0.34,0.91v7.21L75.16,469.5z M98.65,520.48c-0.03-0.04-1.91-2.82-2.61-7.52c-0.09-0.58-0.21-1.35-0.43-2.12
			c-0.61-2.18-2.5-7.92-6.69-14.04c-0.04-0.05-3.42-4.63-9.92-9.73c-0.04-0.03-3.6-2.74-7.03-4.28l3.79-12.99
			c2.47,1.29,12.45,6.96,19.6,17.43c0.06,0.08,4.96,6.61,7.4,16.65c0.18,0.73,0.32,1.51,0.43,2.39c0.32,2.52,1,9.1,0.53,15.93
			c-0.04,0.54-0.32,2.12-1.07,2.3C102.15,524.63,100.99,524.27,98.65,520.48z M0.67,514.54c0-13.39,5.68-26.31,15.57-35.49
			c2.46,1.34,6.93,2.21,13.39,2.59c0.18,0.01,0.35,0.02,0.53,0.02c1.05,0,2.08-0.19,3.06-0.56c0.82-0.31,1.95-0.7,3.26-1.06
			c-15.85,5.45-27.06,20.6-27.06,37.88c0,22.08,17.96,40.04,40.04,40.04S89.5,540,89.5,517.92c0-13.52-6.74-26-18.02-33.44l0.3-1.03
			c3.33,1.51,6.77,4.13,6.81,4.15c6.41,5.04,9.75,9.54,9.78,9.59c4.13,6.03,5.98,11.68,6.59,13.83c0.21,0.73,0.33,1.47,0.41,2.03
			c0.73,4.87,2.63,7.67,2.71,7.79c0.27,0.44,0.53,0.83,0.78,1.2c-3.68,23.5-24.64,41.2-48.81,41.2
			C22.83,563.24,0.67,541.4,0.67,514.54z"/>
		<path class="st1" d="M117.21,63.27c0,3.63,2.95,6.58,6.58,6.58c3.63,0,6.58-2.95,6.58-6.58c0-3.63-2.95-6.58-6.58-6.58
			C120.16,56.69,117.21,59.65,117.21,63.27z M117.88,63.27c0-3.26,2.65-5.91,5.91-5.91c3.26,0,5.91,2.65,5.91,5.91
			c0,3.26-2.65,5.91-5.91,5.91C120.53,69.19,117.88,66.53,117.88,63.27z"/>
		<path class="st1" d="M135.53,91.27c1.62,0,2.93-1.32,2.93-2.93c0-1.62-1.32-2.93-2.93-2.93c-1.62,0-2.93,1.32-2.93,2.93
			C132.6,89.95,133.91,91.27,135.53,91.27z M135.53,90.6c-1.25,0-2.26-1.01-2.26-2.26c0-1.25,1.01-2.26,2.26-2.26
			c1.25,0,2.26,1.01,2.26,2.26C137.79,89.59,136.77,90.6,135.53,90.6z"/>
		<path class="st1" d="M130.64,98.29c0,1.62,1.32,2.93,2.93,2.93c1.62,0,2.93-1.32,2.93-2.93c0-1.62-1.32-2.93-2.93-2.93
			C131.96,95.36,130.64,96.67,130.64,98.29z M131.31,98.29c0-1.25,1.01-2.26,2.26-2.26c1.25,0,2.26,1.01,2.26,2.26
			s-1.01,2.26-2.26,2.26C132.33,100.55,131.31,99.54,131.31,98.29z"/>
		<path class="st1" d="M135.53,89.7c0.75,0,1.36-0.61,1.36-1.36c0-0.75-0.61-1.36-1.36-1.36c-0.75,0-1.36,0.61-1.36,1.36
			C134.16,89.09,134.78,89.7,135.53,89.7z M135.53,89.03c-0.38,0-0.69-0.31-0.69-0.69c0-0.38,0.31-0.69,0.69-0.69
			c0.38,0,0.69,0.31,0.69,0.69C136.22,88.72,135.91,89.03,135.53,89.03z"/>
		<path class="st1" d="M132.21,98.28c0,0.75,0.61,1.36,1.36,1.36c0.75,0,1.36-0.61,1.36-1.36c0-0.75-0.61-1.36-1.36-1.36
			C132.82,96.92,132.21,97.53,132.21,98.28z M132.88,98.28c0-0.38,0.31-0.69,0.69-0.69c0.38,0,0.69,0.31,0.69,0.69
			c0,0.38-0.31,0.69-0.69,0.69C133.19,98.97,132.88,98.66,132.88,98.28z"/>
		<path class="st1" d="M83.74,426.99c1.78,0,3.23-1.45,3.23-3.24c0-1.78-1.45-3.23-3.23-3.23c-1.78,0-3.24,1.45-3.24,3.23
			C80.51,425.54,81.96,426.99,83.74,426.99z M83.74,426.32c-1.41,0-2.57-1.15-2.57-2.57c0-1.41,1.15-2.56,2.57-2.56
			c1.41,0,2.56,1.15,2.56,2.56C86.31,425.17,85.16,426.32,83.74,426.32z"/>
		<path class="st1" d="M83.74,425.27c0.83,0,1.51-0.68,1.51-1.52c0-0.83-0.68-1.51-1.51-1.51c-0.83,0-1.51,0.68-1.51,1.51
			C82.23,424.59,82.91,425.27,83.74,425.27z M83.74,424.6c-0.47,0-0.84-0.38-0.84-0.85s0.38-0.84,0.84-0.84
			c0.47,0,0.84,0.38,0.84,0.84S84.21,424.6,83.74,424.6z"/>
		<path class="st1" d="M78.79,433.85c0,1.78,1.45,3.23,3.23,3.23c1.78,0,3.24-1.45,3.24-3.23c0-1.78-1.45-3.23-3.24-3.23
			C80.24,430.62,78.79,432.07,78.79,433.85z M79.46,433.85c0-1.41,1.15-2.56,2.56-2.56c1.41,0,2.57,1.15,2.57,2.56
			c0,1.41-1.15,2.56-2.57,2.56C80.61,436.42,79.46,435.27,79.46,433.85z"/>
		<path class="st1" d="M80.51,433.85c0,0.83,0.68,1.51,1.51,1.51s1.51-0.68,1.51-1.51c0-0.83-0.68-1.51-1.51-1.51
			S80.51,433.02,80.51,433.85z M81.18,433.85c0-0.47,0.38-0.84,0.84-0.84c0.47,0,0.84,0.38,0.84,0.84c0,0.47-0.38,0.84-0.84,0.84
			C81.56,434.7,81.18,434.32,81.18,433.85z"/>
		<path class="st1" d="M94.04,435.51c0,0.94,0.76,1.7,1.7,1.7c0.94,0,1.7-0.76,1.7-1.7c0-0.94-0.76-1.7-1.7-1.7
			C94.8,433.81,94.04,434.58,94.04,435.51z M94.71,435.51c0-0.57,0.46-1.03,1.03-1.03c0.57,0,1.03,0.46,1.03,1.03
			c0,0.57-0.46,1.03-1.03,1.03C95.17,436.54,94.71,436.08,94.71,435.51z"/>
		<path class="st1" d="M428.57,525.47c0,1.25,1.09,2.28,2.43,2.28h32.13c1.34,0,2.43-1.02,2.43-2.28c0-1.25-1.09-2.27-2.43-2.27H431
			C429.66,523.2,428.57,524.22,428.57,525.47z M429.24,525.47c0-0.88,0.79-1.6,1.76-1.6h32.13c0.97,0,1.76,0.72,1.76,1.6
			c0,0.89-0.79,1.61-1.76,1.61H431C430.03,527.08,429.24,526.36,429.24,525.47z"/>
		<path class="st1" d="M52.26,470.22c-0.12,0.08-1.83,0.99-2.56,1.38c-0.61,0.32-1.03,0.93-1.11,1.63l-3.58,29.47
			c-0.05,0.44,0.03,0.89,0.25,1.28l0.58,1.06c0.43,0.79,1.32,1.22,2.2,1.08l4.72-0.73c0.32-0.05,0.64,0.01,0.92,0.16l3.55,1.91
			c0.32,0.17,0.66,0.26,1.01,0.26c0.28,0,0.57-0.06,0.84-0.17c0.6-0.26,1.04-0.76,1.22-1.39l8.08-29.22
			c0.13-0.47,0.09-0.98-0.11-1.43l-0.58-1.32c-0.27-0.62-0.83-1.08-1.5-1.22C52.54,469.99,52.45,470.06,52.26,470.22z M50.01,472.18
			c1.78-0.95,2.35-1.26,2.55-1.37c0.51,0.05,3.35,0.6,13.47,2.8c0.46,0.1,0.84,0.41,1.03,0.84l0.58,1.32
			c0.14,0.31,0.16,0.66,0.07,0.98l-8.08,29.22c-0.12,0.43-0.42,0.78-0.83,0.96c-0.41,0.18-0.88,0.15-1.27-0.06l-3.55-1.91
			c-0.41-0.22-0.88-0.3-1.34-0.23l-4.72,0.73c-0.6,0.1-1.21-0.2-1.51-0.74l-0.58-1.06c-0.15-0.27-0.21-0.57-0.17-0.88l3.58-29.47
			C49.31,472.82,49.59,472.4,50.01,472.18z"/>
		<path class="st1" d="M87.32,458.44c0,1.28,1.04,2.32,2.32,2.32c1.28,0,2.32-1.04,2.32-2.32c0-1.28-1.04-2.32-2.32-2.32
			C88.36,456.12,87.32,457.16,87.32,458.44z M87.99,458.44c0-0.91,0.74-1.65,1.65-1.65c0.91,0,1.65,0.74,1.65,1.65
			c0,0.91-0.74,1.65-1.65,1.65C88.73,460.09,87.99,459.35,87.99,458.44z"/>
		<path class="st1" d="M98.23,454.46c-0.11,0.7,0.07,1.38,0.5,1.9l21.25,25.59c0.43,0.52,1.06,0.82,1.77,0.84c0.03,0,0.06,0,0.1,0
			c0.66,0,1.32-0.24,1.85-0.69c0.56-0.47,0.93-1.1,1.03-1.79c0.11-0.7-0.07-1.38-0.5-1.9l-21.25-25.59
			c-0.43-0.52-1.06-0.82-1.77-0.84c-0.7-0.02-1.39,0.22-1.95,0.69C98.7,453.14,98.33,453.77,98.23,454.46z M98.89,454.56
			c0.08-0.53,0.36-1.02,0.8-1.38c0.42-0.35,0.92-0.53,1.43-0.53c0.02,0,0.05,0,0.07,0c0.52,0.02,0.97,0.23,1.28,0.6l21.25,25.59
			c0.31,0.37,0.43,0.86,0.36,1.37c-0.08,0.53-0.36,1.01-0.8,1.38c-0.44,0.36-0.97,0.54-1.5,0.53c-0.52-0.02-0.97-0.23-1.28-0.6
			l-21.25-25.59C98.94,455.56,98.82,455.07,98.89,454.56z"/>
		<path class="st1" d="M76.77,505.57c0,1.43,1.16,2.6,2.59,2.6s2.6-1.16,2.6-2.6c0-1.43-1.16-2.59-2.6-2.59
			S76.77,504.14,76.77,505.57z M77.44,505.57c0-1.06,0.86-1.92,1.92-1.92c1.06,0,1.93,0.86,1.93,1.92c0,1.06-0.86,1.93-1.93,1.93
			C78.31,507.5,77.44,506.63,77.44,505.57z"/>
		<path class="st1" d="M71.34,542.46c0,1.43,1.16,2.59,2.6,2.59c1.43,0,2.59-1.16,2.59-2.59c0-1.43-1.16-2.59-2.59-2.59
			C72.5,539.87,71.34,541.03,71.34,542.46z M72.01,542.46c0-1.06,0.86-1.92,1.93-1.92c1.06,0,1.92,0.86,1.92,1.92
			c0,1.06-0.86,1.92-1.92,1.92C72.87,544.39,72.01,543.52,72.01,542.46z"/>
		<path class="st1" d="M32.18,548.58c0,1.43,1.16,2.59,2.6,2.59c1.43,0,2.59-1.16,2.59-2.59c0-1.43-1.16-2.6-2.59-2.6
			C33.35,545.98,32.18,547.14,32.18,548.58z M32.85,548.58c0-1.06,0.86-1.93,1.93-1.93c1.06,0,1.92,0.86,1.92,1.93
			c0,1.06-0.86,1.92-1.92,1.92C33.72,550.5,32.85,549.64,32.85,548.58z"/>
		<path class="st1" d="M15.69,512.96c-1.43,0-2.59,1.16-2.59,2.59c0,1.43,1.16,2.59,2.59,2.59s2.59-1.16,2.59-2.59
			C18.28,514.13,17.12,512.96,15.69,512.96z M17.61,515.56c0,1.06-0.86,1.92-1.92,1.92s-1.92-0.86-1.92-1.92
			c0-1.06,0.86-1.92,1.92-1.92S17.61,514.5,17.61,515.56z"/>
		<path class="st1" d="M78.33,505.57c0,0.57,0.46,1.04,1.04,1.04c0.57,0,1.04-0.46,1.04-1.04c0-0.57-0.47-1.04-1.04-1.04
			C78.8,504.54,78.33,505,78.33,505.57z M79,505.57c0-0.2,0.16-0.37,0.37-0.37c0.2,0,0.37,0.16,0.37,0.37c0,0.2-0.16,0.37-0.37,0.37
			C79.17,505.94,79,505.77,79,505.57z"/>
		<path class="st1" d="M72.89,542.46c0,0.57,0.47,1.04,1.04,1.04c0.57,0,1.04-0.46,1.04-1.04c0-0.57-0.46-1.04-1.04-1.04
			C73.36,541.43,72.89,541.89,72.89,542.46z M73.56,542.46c0-0.2,0.16-0.37,0.37-0.37c0.2,0,0.37,0.17,0.37,0.37
			c0,0.2-0.16,0.37-0.37,0.37C73.73,542.83,73.56,542.66,73.56,542.46z"/>
		<path class="st1" d="M33.74,548.58c0,0.57,0.46,1.04,1.04,1.04c0.57,0,1.04-0.46,1.04-1.04c0-0.57-0.46-1.04-1.04-1.04
			C34.21,547.54,33.74,548,33.74,548.58z M34.41,548.58c0-0.2,0.16-0.37,0.37-0.37c0.2,0,0.37,0.16,0.37,0.37
			c0,0.2-0.16,0.37-0.37,0.37C34.58,548.94,34.41,548.78,34.41,548.58z"/>
		<path class="st1" d="M16.72,515.56c0-0.57-0.46-1.04-1.04-1.04c-0.57,0-1.04,0.46-1.04,1.04c0,0.57,0.46,1.04,1.04,1.04
			C16.26,516.59,16.72,516.13,16.72,515.56z M16.05,515.56c0,0.2-0.16,0.37-0.37,0.37c-0.2,0-0.37-0.16-0.37-0.37
			c0-0.2,0.16-0.37,0.37-0.37C15.89,515.19,16.05,515.36,16.05,515.56z"/>
		<path class="st1" d="M80.72,511.47l-16.89,5.09c-0.55,0.16-0.97,0.57-1.15,1.11c-0.18,0.54-0.1,1.12,0.23,1.58l12.75,17.89
			c0.33,0.46,0.86,0.74,1.43,0.74c0.03,0,0.06,0,0.1,0c0.6-0.03,1.14-0.37,1.43-0.89c6.29-11.23,5.12-20.69,4.32-24.23
			c-0.11-0.47-0.41-0.88-0.82-1.13C81.69,511.39,81.18,511.33,80.72,511.47z M64.02,517.2l16.89-5.09c0.1-0.03,0.21-0.05,0.32-0.05
			c0.19,0,0.37,0.05,0.54,0.15c0.26,0.15,0.44,0.4,0.51,0.7c0.78,3.47,1.92,12.73-4.25,23.76c-0.18,0.32-0.51,0.53-0.88,0.55
			c-0.38,0.02-0.73-0.15-0.94-0.45l-12.75-17.89c-0.2-0.29-0.26-0.64-0.14-0.98C63.42,517.55,63.68,517.3,64.02,517.2z"/>
		<path class="st1" d="M37.2,514.19c0.44-0.36,0.68-0.9,0.64-1.47l-1.38-21.93c-0.04-0.6-0.38-1.14-0.91-1.43
			c-0.53-0.29-1.16-0.29-1.68,0c-11.27,6.22-15.27,14.87-16.47,18.29c-0.16,0.46-0.12,0.96,0.1,1.39c0.23,0.43,0.63,0.75,1.1,0.87
			l17.03,4.6c0.15,0.04,0.31,0.06,0.46,0.06C36.49,514.59,36.88,514.45,37.2,514.19z M37.17,512.77c0.02,0.35-0.12,0.68-0.4,0.91
			c-0.27,0.22-0.63,0.3-0.97,0.21l-17.03-4.6c-0.3-0.08-0.54-0.27-0.68-0.54c-0.14-0.27-0.16-0.57-0.06-0.86
			c1.17-3.36,5.08-11.82,16.16-17.93c0.32-0.18,0.71-0.18,1.04,0c0.33,0.18,0.54,0.51,0.57,0.88L37.17,512.77z"/>
		<path class="st1" d="M66.75,546.7l-10.16-14.42c-0.33-0.47-0.85-0.74-1.42-0.74c0,0-0.01,0-0.01,0c-0.57,0-1.08,0.26-1.41,0.72
			l-12.96,17.74c-0.36,0.49-0.44,1.12-0.21,1.68c0.22,0.56,0.7,0.96,1.29,1.08c2.75,0.53,5.32,0.75,7.67,0.75
			c8.46,0,14.25-2.82,16.68-4.29c0.42-0.25,0.71-0.66,0.81-1.14C67.13,547.6,67.03,547.1,66.75,546.7z M66.38,547.94
			c-0.06,0.3-0.24,0.55-0.5,0.7c-3.04,1.83-11.47,5.83-23.89,3.46c-0.36-0.07-0.66-0.32-0.8-0.66c-0.14-0.35-0.09-0.74,0.13-1.04
			l12.96-17.74c0.21-0.28,0.52-0.44,0.87-0.44c0,0,0.01,0,0.01,0c0.35,0,0.67,0.17,0.88,0.46l10.16,14.43
			C66.38,547.34,66.44,547.64,66.38,547.94z"/>
		<path class="st1" d="M39.81,529.9c0.32-0.47,0.4-1.05,0.21-1.59c-0.19-0.54-0.62-0.94-1.17-1.09l-21.13-6.02
			c-0.58-0.17-1.2-0.02-1.65,0.38c-0.45,0.4-0.66,0.99-0.56,1.59c2.1,12.7,8.91,19.36,11.75,21.63c0.32,0.25,0.69,0.38,1.09,0.38
			c0.09,0,0.17-0.01,0.26-0.02c0.48-0.07,0.91-0.34,1.19-0.74L39.81,529.9z M39.26,529.52l-10.02,14.52
			c-0.17,0.25-0.43,0.41-0.74,0.46c-0.3,0.05-0.59-0.04-0.83-0.23c-2.77-2.22-9.44-8.74-11.5-21.22c-0.06-0.36,0.07-0.73,0.35-0.98
			c0.2-0.18,0.46-0.28,0.72-0.28c0.1,0,0.2,0.01,0.3,0.04l21.13,6.02c0.34,0.1,0.6,0.34,0.72,0.68S39.46,529.23,39.26,529.52z"/>
		<path class="st1" d="M488.25,513.78c0.32-0.33,0.46-0.79,0.38-1.24c-1.51-8.74-7.35-14.05-12.22-17.05c0,0-0.01-0.01-0.01-0.01
			l0,0c-1.97-1.21-3.78-2.04-5.07-2.57c-1.72-0.69-3.66-0.19-4.83,1.24c-2.91,3.55-5.84,9.92-6.96,12.5
			c-0.28,0.64-0.17,1.37,0.28,1.9c1.23,1.46,2.96,2.41,4.85,2.66l22.35,3c0.06,0.01,0.13,0.01,0.19,0.01
			C487.61,514.22,487.97,514.07,488.25,513.78z M483.15,506.12h-15.01c-0.19-0.9-1.1-3.53-5.21-5.01c1.22-2.32,2.66-4.8,4.09-6.53
			c0.69-0.84,1.7-1.3,2.73-1.3c0.44,0,0.89,0.08,1.33,0.26c1.26,0.51,3.01,1.31,4.92,2.48C476.54,496.55,481.22,501.2,483.15,506.12
			z M487.97,512.65c0.04,0.24-0.03,0.49-0.21,0.66c-0.17,0.18-0.41,0.27-0.65,0.23l-22.35-3c-1.73-0.23-3.3-1.09-4.43-2.43
			c-0.29-0.34-0.35-0.8-0.18-1.2v0c0.41-0.94,1.32-2.97,2.47-5.21c4.55,1.6,4.89,4.65,4.9,4.78l0.03,0.3l0.31,0h16.25l-0.16-0.45
			c-1.19-3.34-3.63-6.54-5.41-8.59C482.62,500.84,486.75,505.6,487.97,512.65z"/>
		<path class="st1" d="M457.95,490.59c0.14-0.25,0.08-0.56-0.13-0.76c-1.17-1.05-2.64-1.64-4.13-1.67
			c-12.13-0.21-20.42,7.53-22.68,9.91c-0.51,0.54-0.8,1.25-0.8,2c0,0.9,0.4,1.73,1.11,2.28l10.68,8.38c0.54,0.42,1.2,0.65,1.87,0.65
			c0.28,0,0.57-0.04,0.84-0.12c1.47-0.43,2.73-1.44,3.47-2.79L457.95,490.59z M453.86,488.86l-5.53,12.76l-10.22-0.23l-5.2-4.23
			c3.35-3.08,10.71-8.52,20.77-8.32C453.74,488.84,453.8,488.85,453.86,488.86z M457.34,490.31l-9.75,17.85
			c-0.65,1.19-1.77,2.09-3.07,2.47c-0.73,0.21-1.52,0.06-2.11-0.41l-10.68-8.38c-0.54-0.43-0.85-1.07-0.85-1.76
			c0-0.57,0.22-1.12,0.61-1.54c0.23-0.25,0.55-0.56,0.91-0.91l5.45,4.43l10.9,0.25l5.79-13.36
			C455.57,489.13,456.53,489.59,457.34,490.31z"/>
		<path class="st1" d="M114.05,271.68c-0.11,0.54,0,1.09,0.3,1.55c0.3,0.46,0.77,0.77,1.31,0.88c0.14,0.03,0.27,0.04,0.41,0.04
			c0.4,0,0.79-0.12,1.14-0.35c0.46-0.3,0.77-0.77,0.88-1.31l18.48-91.97c0.11-0.54,0-1.09-0.3-1.55c-0.3-0.46-0.77-0.77-1.31-0.88
			c-0.54-0.11-1.09,0-1.55,0.3c-0.46,0.3-0.77,0.77-0.88,1.31L114.05,271.68z M114.86,271.84l18.48-91.97
			c0.12-0.59,0.63-0.99,1.21-0.99c0.08,0,0.16,0.01,0.24,0.02c0.32,0.07,0.6,0.25,0.78,0.53c0.18,0.28,0.25,0.6,0.18,0.93
			l-18.48,91.97c-0.06,0.32-0.25,0.6-0.53,0.79c-0.27,0.18-0.6,0.25-0.93,0.18C115.16,273.16,114.72,272.51,114.86,271.84z"/>
		<path class="st1" d="M127.16,276.69c0.23,0.3,0.58,0.47,0.96,0.47c0,0,0.01,0,0.01,0c0.28,0,0.55-0.09,0.76-0.27
			c4.41-3.48,6.17-9.39,6.24-9.64c0.16-0.74,15.34-71.69,15.38-77.65c0.04-6.06-7.18-17.53-7.49-18.01
			c-0.18-0.28-0.45-0.47-0.78-0.55c-0.32-0.07-0.65-0.01-0.93,0.16c-0.28,0.17-0.47,0.45-0.54,0.77c-0.07,0.32-0.01,0.65,0.16,0.93
			c1.99,3.13,7.14,12.23,7.11,16.67c-0.04,5.55-14.97,75.52-15.3,77.04c-0.18,0.58-1.83,5.53-5.38,8.33
			C126.83,275.38,126.74,276.16,127.16,276.69z M127.88,275.6c3.41-2.69,5.14-7.21,5.57-8.46h0.04l0.07-0.33
			c0.15-0.71,15.28-71.57,15.32-77.23c0.04-5.6-7.16-17-7.24-17.12c-0.06-0.09-0.08-0.2-0.05-0.31c0.02-0.11,0.09-0.2,0.18-0.26
			c0.07-0.04,0.14-0.07,0.22-0.07c0.03,0,0.06,0,0.09,0.01c0.11,0.02,0.2,0.09,0.26,0.18c0.3,0.48,7.4,11.74,7.36,17.56
			c-0.04,5.79-15.2,76.74-15.35,77.46c-0.06,0.21-1.75,5.88-5.96,9.2c-0.09,0.07-0.19,0.1-0.26,0.09h0c-0.13,0-0.24-0.06-0.32-0.16
			C127.67,276,127.7,275.74,127.88,275.6z"/>
	</g>
</g>
</svg>
