<?xml version="1.0" encoding="utf-8"?>
<!-- Generator: Adobe Illustrator 23.0.0, SVG Export Plug-In . SVG Version: 6.00 Build 0)  -->
<svg version="1.1" id="레이어_1" xmlns="http://www.w3.org/2000/svg" xmlns:xlink="http://www.w3.org/1999/xlink" x="0px"
	 y="0px" viewBox="0 0 398.09 437.27" style="enable-background:new 0 0 398.09 437.27;" xml:space="preserve">
<style type="text/css">
	.st0{fill:#FFFFFF;}
	.st1{opacity:0.5;}
	.st2{fill:#282828;}
</style>
<g>
	<path class="st0" d="M116.41,398.91l199.19,8.22c2.85,16.93,20.07,30.14,39.38,30.14c20.23,0,36.68-16.93,36.68-37.73
		c0-5.46-1.11-10.72-3.3-15.64l1.54-2.48c0.46-0.74,1.25-1.18,2.12-1.18h2.77c1.27,0,2.44-0.75,2.96-1.92l0.35-0.78h-1.25
		c-0.61,0-1.18-0.21-1.63-0.61c-1.31-1.17-2.81-2.14-3.83-2.74c-0.75-0.44-1.21-1.26-1.21-2.14v-0.75c0-0.36,0.29-0.66,0.65-0.66
		c0.11,0,0.21-0.02,0.31-0.04c0.25,0.03,0.48,0.05,0.72,0.05c0.87,0,1.65-0.19,2.33-0.58c0.79-0.45,1.29-1.32,1.29-2.25v-8.15
		c0-1.63-0.62-3.17-1.75-4.35l-0.58-0.61c-0.46-0.48-1.1-0.75-1.75-0.75h-2.02l-9.07-0.32c-0.29-0.01-0.57,0.03-0.84,0.14
		l-7.77,2.85c-0.37,0.14-0.79,0.11-1.16-0.07c-29.77-14.78-53.73,14.4-56.36,17.77c-0.14,0.17-0.29,0.3-0.49,0.4l-4.11,2.09
		c-0.23,0.12-0.47,0.18-0.72,0.16l-200.22-8.74c-0.45-0.02-0.86-0.23-1.11-0.6c-0.1-0.14-0.16-0.29-0.21-0.44
		c1.4-2.25,1.22-4.88,0.85-6.61c-0.35-1.61-1.2-3.09-2.48-4.27l-8-7.45l-14.01-15.29c-5.97-6.11-4.04-11.51-4.01-11.57
		c0.66-1.81,0.99-7.41,1-7.64l0.02-0.26l-2.18-0.98l-1.82,1.33v2.21c0,0.39-0.17,0.78-0.46,1.04c-0.27,0.24-0.61,0.35-0.96,0.31
		c-0.52-0.05-0.99-0.24-1.42-0.54c0.26-0.6,0.44-1.03,0.55-1.26l1.28-0.25l0.07-0.22l51.57-176.02l0.61,0.62l1.04-1.66V137
		l-1.36-1.19c12.52-23.68,20.26-44.31,22.34-50.08c0.26-0.72,0.48-1.43,0.66-2.09c4.06-15.47,1.2-26.33,1.17-26.43
		c-2.06-8.31-4.96-11.85-5.88-12.81l5.62-5.62l1.7,0.55l-0.97,3.6l6.19,1.49l0.53-0.77l1.14,0.26l0.32,1.05l6.47,1.98l0.75-1.34
		l6.84,2.97l0.18-0.2c2.66-2.89,2.9-6.34,2.91-6.49l0.02-0.21l-3.13-2.09l0.69-1.71l-2.69-1.9c-0.03-0.07-0.02-0.11,0.02-0.13
		c5.54-4.35,5.87-9.22,5.88-9.43l0.02-0.4h-1.98l-0.08,0.27c-0.9,2.99-3.98,4.56-5.11,5.05l-0.08-0.47l2.83-4.72
		c0.21-0.35,0.28-0.78,0.18-1.15c-0.11-0.44-0.1-0.76,0.04-0.9c0.2-0.19,0.64-0.14,0.78-0.1c6.99,2.6,9.75-0.23,10.09-0.61
		c3.25-2.55,3.03-9.17,2.99-9.98c0-0.01,0.01-0.02,0.01-0.03l0.47-1.55l-0.19,0.22c0.23-1.64,0.22-4.35-1.79-6.33
		c-0.06-0.05-4.86-4.35-10.43,0.5l-8.28,5.61c-1.05-0.39-5.82-1.74-10.66,3.78l-2.28-1.31l2.61-5.35l-0.02-0.12
		c-0.02-0.15-0.66-3.64-4.01-4.68c-0.35-0.41-1.84-2.02-4.01-2.26l-2.55-1.88L146.77,0c-0.05,0-1.07-0.06-1.88,0.71
		c-0.6,0.56-0.93,1.42-0.96,2.53l-0.44,0.21c-1.01-0.77-5.75-4.04-11.16-2.18l-0.12,0.05l-3.46,5.53c-0.02,0.06-0.28,1.6,1.72,4.19
		c0.14,0.7,1.24,4.44,8.64,7.18c0.09,0.04,2.61,1.09,4.65,0.08l6.28,4.38l-17.7,13.65c-1.3-0.08-10.42-0.53-14.88,0.6l-0.96-0.6
		l-0.12,0.01c-0.42,0.02-10.22,0.66-11.11,5.91l-12.22,4.03l-4.73-0.33l-0.63,4.16l5.13,1.18l13.46-3.5l2.39-3l2.52,0.25l1.51,0.93
		c-0.12,0.76-0.32,3,0.86,5.56l-2.77,1.58c-0.86,0.48-1.53,1.17-1.95,1.98c-0.53,1.01-1.08,2.6-0.74,4.44
		c0.22,1.16,0.84,2.2,1.75,2.91c0.54,0.42,1.15,0.75,1.81,0.98c1.17,0.4,2.53,0.3,3.72-0.27l5.56-2.67l1.62,2.03l8.55-0.18
		l-19.01,62.71c0-2.18-0.35-3.83-0.47-4.29l0.81-2.1l-5.06-2.18l-1.74,3.28l0.41,5.58l-0.55,1.25l-1.26-0.51l-3.01,0.68l-1,3.16
		l1.37,0.66l-0.73,3.5c-0.38,0.17-1.18,0.63-1.47,1.51c-0.24,0.73-0.08,1.56,0.5,2.45l-1.23,1.55l6.88,2.33L55.78,308.39l-2,1.59
		l-0.72,1.85c-0.18-0.41-0.45-0.97-0.86-1.75l-0.11-0.13c-0.05-0.04-2.55-1.9-6.54-3.89c-3.99-1.98-9.47-4.09-15.49-4.62
		c0.02,0-0.36-0.1-0.79,0.22c-0.74,0.55-1.16,1.97-1.23,4.22c-0.37,0.63-2.51,4.52-2.55,8.12c-0.01,1.17,0.26,1.92,0.83,2.27
		c1.36,2.33,4.34,4.07,7.67,5.34c0.2,0.44,0.89,2.11,1.5,4.89c0.02,0.05,0.14,0.35,0.35,0.72c0.23,0.36,0.54,0.79,0.97,1.11
		l3.08,3.24l3.06,5.24l-0.91,2.78h-0.76l-1.55,0.89c-1.62,1.02-1.36,3.33-1.35,3.43l0.03,0.21l0.93,0.44v1.14l1.14,0.54
		c0.19,0.08,0.39,0.13,0.59,0.13c0.33,0,0.66-0.12,0.91-0.34l-0.26,0.38l0.66,0.95h0.01c-0.05,0.47,0.23,1.02,0.83,1.63
		c0.08,0.08,0.17,0.16,0.25,0.23l-0.02,0.03c-0.86,0.04-2.71,0.22-3,1.21c-0.18,0.63,0.3,1.3,1.49,2.12l-0.2,0.44
		c-1.45-0.09-3.05-0.11-4.82-0.02c-1.54,0.08-3.14,0.3-4.87,0.67c-3.34,0.71-9.7,2.27-14.7,4.81l-0.5,0.26l5.2,4.47l0.86,0.75
		C9.39,369.6,0,383.27,0,397.4c0,19.62,16.15,35.58,35.99,35.58c18.74,0,34.5-14.28,36.21-32.64l4.59,4
		c0.24,0.22,0.54,0.32,0.85,0.32c0.14,0,0.29-0.02,0.43-0.07c0.44-0.15,0.75-0.5,0.84-0.96c3.07-15.05-2.45-25.75-4.44-28.96
		c3.33,1.37,6.75,2.23,9.7,2.77l0.41,10.89c0.02,0.56,0.16,1.11,0.4,1.61l1.21,2.55c0.34,0.72,0.87,1.32,1.55,1.73l1.45,0.9
		c0.58,0.36,1.25,0.57,1.94,0.61l10.08,0.56c0.66,1.2,1.91,2.05,3.37,2.11l3.13,0.13c0.94,2.18,2.14,3.38,3.58,3.54
		c0.11,0.01,0.22,0.02,0.32,0.02C113.89,402.11,115.9,399.6,116.41,398.91z M372.14,408.02c0.04,0.03,0.07,0.08,0.07,0.14v0.29
		C372.18,408.28,372.16,408.14,372.14,408.02z M372.21,410.6v0.11c-0.01,0.02-0.02,0.04-0.03,0.05
		C372.19,410.7,372.2,410.65,372.21,410.6z M50.25,321.45l-4.47,15.88l-0.32-0.29l-4.27-7.71l-1.21-1.24
		c0.46-0.28,0.84-0.69,1.07-1.22c0.22-0.22,0.35-0.53,0.35-0.86c0-0.01,0-0.02,0-0.02l1.25-2.06c2.35,0.42,4.21,0.6,4.92,0.6
		c0.16,0,0.26-0.01,0.3-0.02C47.98,324.48,48.1,324.43,50.25,321.45z M47.66,352.19l0.29-0.65c0.67,0.21,1.13,0.29,1.43,0.29
		c0.4,0,0.55-0.12,0.64-0.2c0.13-0.1,0.34-0.33,0.26-0.77l-0.05-0.22l-0.2-0.08c-0.35-0.11-0.85-0.3-1.41-0.53l0.78-1.74l2.28,0.84
		l-0.4,0.38l-0.27,1.32c-0.35,0.31-0.51,0.64-0.47,0.99c0.03,0.23,0.14,0.43,0.28,0.59c-0.4,0.1-0.75,0.28-0.9,0.63
		c-0.23,0.53,0.1,1.2,1.02,2.06c-0.25-0.13-0.81-0.38-1.66-0.69c0.02-0.03,0.04-0.06,0.05-0.09
		C49.57,353.85,49.11,353.25,47.66,352.19z M60.77,361.18c-0.86-0.69-2.17-1.51-3.92-1.94l0.24-0.99c0.42,0.08,0.75,0.12,1.02,0.12
		c0.56,0,0.78-0.17,0.91-0.35c0.31-0.45-0.1-0.99-0.23-1.17l-0.08-0.11l-0.14-0.03c-0.28-0.06-0.64-0.15-1.04-0.27l0.24-1
		c0.32-0.18,0.55-0.42,0.67-0.75c0.21-0.52,0.08-1.05-0.01-1.31l0.45-1.39l-0.2-0.54c0.08-0.1,0.17-0.23,0.3-0.41
		C59.06,355.07,59.93,358.64,60.77,361.18z M78.44,368.85c-9.87-3.51-11.92-9.01-11.94-9.1c-1.42-3-1.55-7.47-1.2-11.72
		C67.68,350.34,76.81,359.66,78.44,368.85z M146.41,77.34c-0.04,0.21-4.28,21.59-18.54,46l-2.56,3.45c-0.55,0.73-0.97,1.54-1.27,2.4
		l-1.38,4.07l-3.13-1.15l24.16-80.37C145.05,54.22,149.04,63.08,146.41,77.34z M108.56,398.58l6.92,0.29
		c-0.77,0.93-2.43,2.65-4.1,2.47C110.29,401.23,109.35,400.29,108.56,398.58z M175.17,23.3l0.6-0.44l-0.01,0.04
		c0.68,0.14,1.33,0.21,1.94,0.21c5.23,0,8.23-4.92,9.52-7.73c-0.12,2.27-0.65,5.86-2.7,7.44l-0.07,0.06
		C184.44,22.92,181.97,25.82,175.17,23.3z"/>
	<g class="st1">
		<path class="st2" d="M31.01,308.94c0-0.72-0.28-0.97-0.52-1.06c-0.69-0.25-1.4,0.74-1.79,1.84c-0.19,0.53-0.29,1.06-0.29,1.5
			c0,0.72,0.28,0.97,0.52,1.06c0.07,0.03,0.15,0.04,0.22,0.04c0.62,0,1.22-0.9,1.57-1.88C30.9,309.9,31.01,309.37,31.01,308.94z
			 M30,310.18c-0.28,0.8-0.65,1.23-0.82,1.35c-0.06-0.2-0.07-0.76,0.22-1.56v0c0.28-0.8,0.65-1.23,0.82-1.34
			C30.28,308.82,30.29,309.39,30,310.18z"/>
		<path class="st2" d="M29.41,306.68c-0.56,0.69-1.08,1.67-1.47,2.77c-0.76,2.15-0.93,4.54,0.23,4.95c0.09,0.03,0.2,0.06,0.32,0.06
			c0.38,0,0.89-0.21,1.51-0.98c0.56-0.69,1.08-1.67,1.47-2.77c0.76-2.15,0.93-4.54-0.23-4.95
			C30.86,305.62,30.23,305.67,29.41,306.68z M30.92,306.45c0.02,0,0.05,0,0.07,0.01c0.36,0.13,0.6,1.65-0.23,3.99
			c-0.36,1.02-0.84,1.93-1.35,2.55c-0.45,0.56-0.83,0.75-0.99,0.69c-0.36-0.13-0.6-1.65,0.23-3.99c0.36-1.02,0.84-1.93,1.35-2.55
			C30.4,306.66,30.74,306.45,30.92,306.45z"/>
		<path class="st2" d="M93.91,364.18c0,2.34,1.9,4.24,4.24,4.24c2.34,0,4.24-1.9,4.24-4.24s-1.9-4.24-4.24-4.24
			C95.81,359.94,93.91,361.84,93.91,364.18z M94.66,364.18c0-1.92,1.56-3.48,3.48-3.48s3.48,1.56,3.48,3.48s-1.56,3.48-3.48,3.48
			S94.66,366.1,94.66,364.18z"/>
		<path class="st2" d="M363.61,392.53c0,2,1.63,3.63,3.63,3.63c2,0,3.63-1.63,3.63-3.63c0-2-1.63-3.63-3.63-3.63
			C365.24,388.9,363.61,390.53,363.61,392.53z M364.36,392.53c0-1.59,1.29-2.88,2.88-2.88s2.88,1.29,2.88,2.88s-1.29,2.88-2.88,2.88
			S364.36,394.12,364.36,392.53z"/>
		<path class="st2" d="M364.87,392.53c0,1.31,1.06,2.37,2.37,2.37c1.31,0,2.37-1.06,2.37-2.37s-1.06-2.37-2.37-2.37
			C365.93,390.16,364.87,391.22,364.87,392.53z M365.62,392.53c0-0.89,0.73-1.62,1.62-1.62c0.89,0,1.62,0.73,1.62,1.62
			s-0.73,1.62-1.62,1.62C366.35,394.15,365.62,393.42,365.62,392.53z"/>
		<path class="st2" d="M347.58,393.06c0,1.31,1.06,2.37,2.37,2.37c1.31,0,2.37-1.06,2.37-2.37s-1.06-2.37-2.37-2.37
			C348.64,390.69,347.58,391.75,347.58,393.06z M348.33,393.06c0-0.89,0.73-1.62,1.62-1.62c0.89,0,1.62,0.73,1.62,1.62
			s-0.73,1.62-1.62,1.62C349.06,394.68,348.33,393.95,348.33,393.06z"/>
		<path class="st2" d="M94.17,385.67v1.41c0,0.26,0.07,0.52,0.21,0.74l0.61,0.99c0.26,0.42,0.71,0.67,1.2,0.67h0.42
			c0.56,0,1.07-0.33,1.29-0.84l0.59-1.36c0.1-0.23,0.14-0.48,0.11-0.72l-0.12-1.04c-0.08-0.71-0.68-1.25-1.4-1.25h-1.5
			C94.8,384.26,94.17,384.89,94.17,385.67z M94.92,385.67c0-0.36,0.29-0.66,0.66-0.66h1.5c0.33,0,0.61,0.25,0.65,0.58l0.12,1.04
			c0.01,0.11,0,0.23-0.05,0.34l-0.59,1.36c-0.1,0.24-0.34,0.39-0.6,0.39h-0.42c-0.23,0-0.44-0.12-0.56-0.31l-0.61-0.99
			c-0.06-0.1-0.1-0.22-0.1-0.34V385.67z"/>
		<path class="st2" d="M130.17,385.87c-0.03,0.81,0.26,1.58,0.81,2.17c0.55,0.59,1.3,0.93,2.11,0.96l138.05,4.71
			c0.03,0,0.07,0,0.1,0c1.62,0,2.97-1.29,3.02-2.92c0.06-1.67-1.25-3.07-2.92-3.13l-138.05-4.71
			C131.64,382.9,130.22,384.2,130.17,385.87z M130.92,385.89c0.04-1.25,1.12-2.22,2.35-2.2l138.05,4.71
			c1.25,0.04,2.24,1.1,2.19,2.35c-0.04,1.25-1.08,2.24-2.35,2.19l-138.05-4.71c-0.61-0.02-1.17-0.28-1.58-0.72
			C131.11,387.08,130.9,386.5,130.92,385.89z"/>
		<path class="st2" d="M284.81,393.89c0,2.85,2.32,5.18,5.18,5.18c2.85,0,5.18-2.32,5.18-5.18c0-2.85-2.32-5.17-5.18-5.17
			C287.13,388.71,284.81,391.03,284.81,393.89z M285.56,393.89c0-2.44,1.98-4.42,4.42-4.42c2.44,0,4.42,1.98,4.42,4.42
			c0,2.44-1.98,4.42-4.42,4.42C287.54,398.31,285.56,396.32,285.56,393.89z"/>
		<path class="st2" d="M338.98,414.42c0-0.82-0.67-1.48-1.48-1.48c-0.82,0-1.48,0.66-1.48,1.48s0.67,1.48,1.48,1.48
			C338.31,415.91,338.98,415.24,338.98,414.42z M338.22,414.42c0,0.4-0.33,0.73-0.73,0.73c-0.4,0-0.73-0.33-0.73-0.73
			s0.33-0.73,0.73-0.73C337.9,413.69,338.22,414.02,338.22,414.42z"/>
		<path class="st2" d="M360.49,422.77c0-0.82-0.67-1.48-1.48-1.48c-0.82,0-1.48,0.67-1.48,1.48s0.67,1.48,1.48,1.48
			C359.82,424.25,360.49,423.59,360.49,422.77z M359.74,422.77c0,0.4-0.33,0.73-0.73,0.73c-0.4,0-0.73-0.33-0.73-0.73
			c0-0.4,0.33-0.73,0.73-0.73C359.41,422.04,359.74,422.37,359.74,422.77z"/>
		<path class="st2" d="M353.87,400.88c0-0.95-0.77-1.72-1.72-1.72c-0.95,0-1.72,0.77-1.72,1.72c0,0.95,0.77,1.72,1.72,1.72
			C353.1,402.6,353.87,401.83,353.87,400.88z M353.12,400.88c0,0.54-0.44,0.97-0.97,0.97c-0.54,0-0.97-0.44-0.97-0.97
			c0-0.54,0.44-0.97,0.97-0.97C352.69,399.9,353.12,400.34,353.12,400.88z"/>
		<path class="st2" d="M364.85,400.88c0,0.95,0.77,1.72,1.72,1.72s1.72-0.77,1.72-1.72c0-0.95-0.77-1.72-1.72-1.72
			S364.85,399.92,364.85,400.88z M365.6,400.88c0-0.54,0.44-0.97,0.97-0.97s0.97,0.44,0.97,0.97c0,0.54-0.44,0.97-0.97,0.97
			S365.6,401.41,365.6,400.88z"/>
		<path class="st2" d="M0,397.4c0,19.62,16.14,35.58,35.99,35.58c18.75,0,34.5-14.28,36.21-32.63l4.59,4
			c0.24,0.21,0.54,0.32,0.85,0.32c0.14,0,0.28-0.02,0.42-0.07c0.44-0.15,0.75-0.51,0.85-0.96c3.08-15.05-2.46-25.75-4.43-28.96
			c3.33,1.36,6.75,2.23,9.7,2.77l0.41,10.89c0.02,0.56,0.15,1.11,0.4,1.62l1.21,2.55c0.34,0.72,0.88,1.32,1.55,1.73l1.45,0.9
			c0.58,0.36,1.25,0.57,1.94,0.61l10.08,0.57c0.67,1.2,1.91,2.04,3.38,2.1l3.13,0.13c0.93,2.19,2.13,3.38,3.58,3.54
			c0.11,0.01,0.22,0.02,0.32,0.02c2.27,0,4.28-2.51,4.79-3.2l199.19,8.21c2.85,16.93,20.07,30.15,39.38,30.15
			c20.23,0,36.68-16.93,36.68-37.74c0-5.46-1.11-10.72-3.29-15.64l1.53-2.49c0.46-0.74,1.25-1.18,2.12-1.18h2.77
			c1.28,0,2.44-0.75,2.96-1.92l0.35-0.78h-1.25c-0.61,0-1.19-0.22-1.63-0.61c-1.31-1.17-2.81-2.14-3.84-2.74
			c-0.75-0.44-1.21-1.26-1.21-2.14v-0.76c0-0.36,0.29-0.65,0.65-0.65c0.11,0,0.21-0.01,0.31-0.04c0.24,0.03,0.48,0.05,0.71,0.05
			c0.87,0,1.65-0.19,2.33-0.58c0.79-0.45,1.28-1.32,1.28-2.25v-8.15c0-1.63-0.62-3.17-1.74-4.35l-0.58-0.61
			c-0.46-0.48-1.1-0.75-1.76-0.75h-2.01l-9.07-0.32c-0.29-0.01-0.57,0.03-0.84,0.13l-7.77,2.86c-0.37,0.14-0.79,0.11-1.16-0.07
			c-29.77-14.78-53.73,14.4-56.36,17.78c-0.13,0.17-0.29,0.3-0.48,0.4l-4.11,2.09c-0.22,0.12-0.48,0.18-0.73,0.16l-200.22-8.74
			c-0.45-0.02-0.85-0.24-1.11-0.6c-0.1-0.14-0.16-0.29-0.21-0.44c1.4-2.25,1.22-4.89,0.85-6.62c-0.34-1.61-1.2-3.08-2.48-4.27
			l-8-7.44l-14-15.29c-5.97-6.11-4.04-11.51-4.02-11.56c0.66-1.82,0.99-7.41,1.01-7.65l0.02-0.26l-2.18-0.98l-1.82,1.33v2.21
			c0,0.4-0.17,0.77-0.46,1.04c-0.27,0.24-0.61,0.36-0.96,0.32c-0.52-0.06-0.99-0.25-1.42-0.55c0.26-0.6,0.45-1.03,0.54-1.26
			l1.28-0.25l0.06-0.22l51.57-176.02l0.61,0.62l1.04-1.65V137l-1.37-1.19c12.52-23.68,20.27-44.31,22.34-50.08
			c0.26-0.73,0.48-1.43,0.65-2.09c4.06-15.47,1.2-26.32,1.17-26.43c-2.06-8.31-4.95-11.84-5.88-12.81l5.62-5.62l1.7,0.55l-0.97,3.6
			l6.19,1.5l0.53-0.77l1.14,0.26l0.32,1.05l6.46,1.98l0.75-1.34l6.84,2.96l0.18-0.2c2.66-2.89,2.89-6.35,2.9-6.49l0.01-0.22
			l-3.12-2.08l0.69-1.71l-2.69-1.9c-0.03-0.07-0.03-0.1,0.01-0.13c5.55-4.35,5.87-9.22,5.88-9.43l0.02-0.4h-1.98l-0.08,0.27
			c-0.89,2.99-3.98,4.56-5.11,5.05l-0.07-0.46l2.83-4.72c0.21-0.35,0.28-0.77,0.18-1.15c-0.11-0.44-0.1-0.76,0.04-0.9
			c0.19-0.19,0.64-0.13,0.78-0.1c6.99,2.6,9.75-0.22,10.09-0.61c3.25-2.54,3.03-9.17,2.99-9.97c0-0.01,0.01-0.02,0.01-0.03
			l0.47-1.55l-0.19,0.21c0.23-1.64,0.22-4.35-1.79-6.32c-0.06-0.05-4.87-4.35-10.43,0.49l-8.28,5.61
			c-1.04-0.39-5.82-1.74-10.66,3.78l-2.28-1.3l2.61-5.36l-0.02-0.12c-0.03-0.15-0.66-3.64-4.01-4.68c-0.35-0.42-1.84-2.02-4.01-2.26
			l-2.54-1.88L146.77,0c-0.04,0-1.07-0.07-1.89,0.7c-0.6,0.57-0.92,1.42-0.95,2.53l-0.45,0.21c-1.01-0.77-5.75-4.04-11.16-2.18
			l-0.13,0.04l-3.46,5.53c-0.01,0.06-0.28,1.6,1.72,4.19c0.14,0.7,1.24,4.45,8.64,7.19c0.09,0.04,2.61,1.09,4.66,0.09l6.28,4.37
			l-17.7,13.65c-1.3-0.07-10.42-0.53-14.88,0.6l-0.96-0.6l-0.12,0.01c-0.42,0.03-10.22,0.66-11.12,5.91l-12.23,4.03l-4.72-0.33
			l-0.63,4.17l5.12,1.18l13.46-3.5l2.39-3l2.53,0.25l1.51,0.93c-0.12,0.76-0.32,3,0.85,5.56l-2.77,1.58
			c-0.85,0.48-1.53,1.17-1.95,1.98c-0.53,1.01-1.08,2.6-0.74,4.44c0.22,1.16,0.84,2.2,1.75,2.91c0.54,0.42,1.15,0.75,1.82,0.98
			c1.17,0.4,2.53,0.3,3.72-0.27l5.56-2.66l1.62,2.03l8.55-0.18l-19,62.71c0-2.17-0.36-3.83-0.47-4.29l0.81-2.1l-5.06-2.18
			l-1.74,3.28l0.42,5.58l-0.56,1.25l-1.25-0.51l-3.02,0.68l-1,3.16l1.37,0.66l-0.73,3.5c-0.38,0.17-1.18,0.63-1.47,1.51
			c-0.24,0.73-0.07,1.55,0.5,2.46l-1.23,1.55l6.89,2.33L55.78,308.39l-2,1.59l-0.72,1.85c-0.18-0.42-0.45-0.98-0.86-1.75l-0.11-0.13
			c-0.1-0.07-10.01-7.45-22.03-8.51h0c0.02,0-0.36-0.09-0.79,0.22c-0.74,0.55-1.16,1.96-1.24,4.22c-0.37,0.64-2.51,4.52-2.55,8.12
			c-0.01,1.16,0.27,1.92,0.83,2.26c1.36,2.32,4.34,4.07,7.67,5.34c0.2,0.44,0.89,2.11,1.5,4.89c0.04,0.1,0.48,1.2,1.33,1.82l0,0
			l3.08,3.24l3.06,5.24l-0.91,2.78h-0.77l-1.55,0.88c-1.62,1.03-1.36,3.33-1.35,3.43l0.03,0.21l0.93,0.44v1.15l1.15,0.54
			c0.19,0.09,0.39,0.13,0.59,0.13c0.33,0,0.65-0.12,0.91-0.34l-0.26,0.38l0.65,0.95l0,0c-0.04,0.48,0.23,1.03,0.83,1.64
			c0.08,0.08,0.17,0.15,0.25,0.23l-0.01,0.03c-0.86,0.03-2.71,0.22-2.99,1.21c-0.18,0.63,0.3,1.31,1.49,2.12l-0.2,0.45
			c-1.44-0.09-3.04-0.11-4.82-0.02c-1.55,0.08-3.14,0.3-4.87,0.66c-3.34,0.71-9.7,2.28-14.7,4.81l-0.5,0.25l5.2,4.47l0.86,0.74
			C9.39,369.6,0,383.27,0,397.4z M20.49,360.87c7.24-4.93,23.66-4.74,27.89-4.61c-0.21,0.21-0.36,0.45-0.39,0.73
			c-0.06,0.49,0.2,0.98,0.79,1.5c-4.31-0.24-17.71-0.58-22.8,4.15c-0.92,0.86-2.44,0.85-3.45-0.02L20.49,360.87z M59.5,393.97
			l1.88,1.18c0.65,0.41,1.4,0.62,2.17,0.6l1.61-0.03c0.06,0.84,0.04,1.78-0.05,2.8c-1.35,15.29-13.29,26.82-27.78,26.82
			c-15.06,0-27.3-12.06-27.3-26.87c0-11.89,7.63-23,18.2-26.59l1.89,8.11c-5.67,3.22-11.63,9.49-11.63,17.63
			c0,11.69,8.79,20.85,20.01,20.85c10.91,0,19.68-8.64,20.84-20.55l0.03-0.3C59.49,396.4,59.61,395.16,59.5,393.97z M55.21,364.19
			c-1.13-0.19-2.55-0.57-3.1-0.72c-0.23-0.06-0.46-0.14-0.68-0.23c-3.32-1.33-3.62-2.17-3.59-2.46c0.05-0.49,0.98-0.93,1.87-1.19
			l-0.14,0.46l-0.5,0.24c0.1,0.22,0.24,0.43,0.4,0.64c1.53,1.9,5.27,2.59,5.88,2.7c0.5,0.32,0.78,0.54,0.93,0.68
			c-0.2,0-0.52-0.02-1.04-0.11l-0.06,0.37l-0.03-0.01L55.21,364.19z M40.18,323.44c0.58,0.13,1.14,0.25,1.68,0.35l-0.68,1.12
			C41.01,324.3,40.66,323.79,40.18,323.44z M40.18,325.55c0.26,0,0.47,0.21,0.47,0.47s-0.21,0.47-0.47,0.47s-0.47-0.21-0.47-0.47
			S39.92,325.55,40.18,325.55z M42.65,323.94c2.35,0.42,4.21,0.61,4.93,0.61c0.16,0,0.26-0.01,0.3-0.03
			c0.11-0.04,0.22-0.1,2.37-3.07l-4.46,15.88l-0.33-0.29l-4.27-7.71l-1.21-1.24c0.46-0.27,0.83-0.69,1.07-1.22
			c0.22-0.22,0.35-0.52,0.35-0.86c0-0.01,0-0.02,0-0.02L42.65,323.94z M45.45,338.04l0.11,0.1l-0.27,0.95
			C45.36,338.68,45.41,338.32,45.45,338.04z M46,339.35c2.41,2.41,6.54,3.11,8.03,3.29l-1.44,2.8l0.53,0.83l-1.2,2.15l-6.25-2.3
			l0.07-0.16l-0.51,0l-0.43-0.16c-0.31-0.11-0.48-0.45-0.39-0.77L46,339.35z M50.28,350.86l-0.04-0.22l-0.21-0.07
			c-0.35-0.12-0.85-0.31-1.41-0.54l0.78-1.74l2.28,0.84l-0.4,0.39l-0.28,1.32c-0.34,0.31-0.51,0.64-0.47,0.99
			c0.03,0.23,0.14,0.43,0.27,0.59c-0.39,0.1-0.75,0.28-0.9,0.63c-0.23,0.54,0.1,1.2,1.02,2.06c-0.25-0.13-0.8-0.38-1.66-0.68
			c0.02-0.03,0.04-0.06,0.05-0.09c0.24-0.5-0.22-1.09-1.66-2.15l0.29-0.65c0.67,0.21,1.13,0.29,1.43,0.29c0.4,0,0.55-0.12,0.64-0.19
			C50.16,351.53,50.36,351.3,50.28,350.86z M50.6,353.35c0.07-0.17,0.57-0.27,1.08-0.28l-0.08,0.27l-0.48,0.16
			c0.75,2.27,6.04,3.64,7.14,3.9c0.06,0.08,0.08,0.14,0.1,0.18c-0.16,0.04-0.72,0.08-2.39-0.39c-1.19-0.34-2.3-0.89-3.32-1.65
			c-0.37-0.27-0.68-0.52-0.94-0.75l0,0C50.46,353.72,50.6,353.36,50.6,353.35z M51.66,355.74c0.17,0.13,0.34,0.27,0.54,0.42
			c1.08,0.81,2.28,1.4,3.56,1.76c0.22,0.06,0.41,0.11,0.6,0.16l-0.3,1.26c-0.88-0.16-3.3-0.71-4.86-2.04L51.66,355.74z
			 M59.21,346.78c-0.02,0.17-0.04,0.33-0.06,0.49l-0.33,0.05L59.21,346.78z M57.97,347.23c-0.59-0.56-1.34-0.9-2.06-1.09l0.65-1.28
			l1.6-0.13l1.07,0.73L57.97,347.23z M59.08,348.05c-0.05,0.56-0.08,1.11-0.09,1.65c-0.32,0.47-0.67,0.97-0.86,1.22
			c-0.79-0.3-3.48-1.4-5.5-2.23l1.15-2.07c0.67,0,2.9,0.1,3.93,1.42l0.13,0.17L59.08,348.05z M55.59,350.72l-0.56,1.39l-3.25-1.31
			l0.19-0.9l0.47-0.46C53.78,349.99,54.81,350.4,55.59,350.72z M58.08,352l-0.3,0.92l-2.03-0.57l0.54-1.35
			c0.91,0.37,1.4,0.56,1.67,0.65L58.08,352z M57.74,354.41c-0.05,0.13-0.14,0.24-0.27,0.32c-0.6-0.42-2.47-1.64-4.81-2.28l0.02-0.07
			l-0.46-0.04c-0.01,0-0.03,0-0.05,0c-0.13-0.03-0.26-0.07-0.4-0.1c-0.2-0.1-0.47-0.32-0.49-0.49c-0.01-0.09,0.06-0.19,0.14-0.28
			l3.68,1.48l2.63,0.74C57.79,353.87,57.84,354.16,57.74,354.41z M52.44,353.17c2.19,0.6,4,1.76,4.57,2.16l-0.21,0.88
			c-1.65-0.52-3.69-1.35-4.58-2.32L52.44,353.17z M47.93,349.73c-1.13-0.51-2.34-1.16-3.07-1.82l0.5-1.11l3.33,1.23L47.93,349.73z
			 M54.19,343.99l1.33-0.13l0.37,0.65l-0.74,1.47c-0.56-0.09-1.04-0.11-1.33-0.11c-0.02,0-0.04,0-0.05,0l-0.3-0.47L54.19,343.99z
			 M54.6,343.19l0.34-0.66c0.48-0.66,1.95-2.29,3.21-2.18c0.61,0.05,1.15,0.53,1.59,1.41c-0.17,1.28-0.26,2.26-0.31,2.92l-1.06-0.72
			l-1.84,0.15l-0.59-1.05L54.6,343.19z M60.77,361.18c-0.85-0.69-2.17-1.51-3.92-1.94l0.24-0.99c0.42,0.08,0.76,0.12,1.01,0.12
			c0.56,0,0.79-0.16,0.91-0.35c0.31-0.45-0.1-0.99-0.23-1.17l-0.08-0.11l-0.13-0.03c-0.28-0.06-0.64-0.16-1.04-0.27l0.24-1.01
			c0.32-0.18,0.55-0.42,0.67-0.74c0.2-0.52,0.07-1.06-0.01-1.31l0.45-1.39l-0.2-0.54c0.08-0.1,0.17-0.23,0.3-0.41
			C59.06,355.07,59.93,358.64,60.77,361.18z M57.05,360.81c-0.77-0.01-2.79-0.51-4.51-1.05c-3.66-1.55-3.84-2.42-3.81-2.65
			c0.06-0.48,1.12-0.88,2.06-1.09l-0.21,0.68c-0.07-0.08-0.13-0.16-0.19-0.25l-0.62,0.42c0.2,0.29,0.44,0.57,0.72,0.84l0.26-0.28
			l-0.26,0.28c1.91,1.79,5.1,2.34,5.7,2.43C56.66,360.45,56.92,360.67,57.05,360.81z M55.56,361.35l-0.36,1.48
			c-0.96-0.19-3.75-0.84-5.02-2.24l0.3-0.98c0.52,0.27,1.11,0.55,1.8,0.84C53.72,360.92,54.77,361.19,55.56,361.35z M54.72,364.87
			l-0.34,1.39c-0.96-0.09-3.96-0.51-5.27-2.14l0.29-0.96c0.5,0.26,1.07,0.52,1.74,0.78c0.25,0.1,0.5,0.18,0.76,0.25
			C52.41,364.34,53.63,364.66,54.72,364.87z M55.58,367.91c-0.18,0.01-0.53,0.01-1.2-0.11c-1.12-0.2-2.51-0.58-3.24-0.8
			c-0.37-0.11-0.7-0.23-1-0.36c-0.72-0.32-1.32-0.63-1.79-0.92c-0.87-0.55-1.31-1.06-1.25-1.45c0.08-0.46,0.85-0.86,1.52-1.1
			l-0.11,0.35l-0.5,0.21c0.1,0.24,0.23,0.47,0.38,0.69l0,0c1.56,2.19,5.43,2.56,6.16,2.61C55.18,367.49,55.46,367.76,55.58,367.91z
			 M48.36,366.6c0.42,0.24,0.91,0.48,1.47,0.73c0.33,0.15,0.69,0.27,1.09,0.39c0.66,0.19,1.86,0.53,2.93,0.74l-0.26,1.06
			c-0.78,0.03-3.26-0.06-5.55-1.89L48.36,366.6z M54.42,371.13c0,0-0.11,0.1-0.67,0.1c-0.46,0-1.21-0.07-2.44-0.33
			c-1.18-0.25-2.27-0.66-3.23-1.21c-2.09-1.2-2.14-1.83-2.1-1.99c0.08-0.37,0.82-0.66,1.51-0.81l-0.06,0.21c0,0,0,0-0.01,0
			l-0.52,0.54c0.16,0.15,0.31,0.29,0.47,0.43l0,0c2.69,2.28,5.64,2.26,6.4,2.21C54.41,370.88,54.42,371.12,54.42,371.13z
			 M47.3,370.09c0.13,0.08,0.26,0.16,0.4,0.24c1.04,0.6,2.2,1.03,3.46,1.3c0.76,0.16,1.36,0.25,1.86,0.3l-0.21,0.88
			c-0.85,0.12-3.9,0.37-5.78-1.82L47.3,370.09z M53.59,374.32c-0.08,0.13-0.87,0.4-3.57-0.02c-0.71-0.11-1.4-0.33-2.06-0.66
			c-2.7-1.34-2.81-2.08-2.78-2.27c0.05-0.33,0.61-0.61,1.18-0.79l-0.11,0.37l-0.14,0.1c0.07,0.09,0.13,0.18,0.2,0.27l0,0
			c2.19,2.76,5.81,2.37,6.69,2.22C53.61,374.11,53.59,374.32,53.59,374.32z M46.25,373.56c0.4,0.25,0.85,0.5,1.38,0.76
			c0.72,0.36,1.49,0.6,2.27,0.73c0.98,0.15,1.72,0.22,2.31,0.23L52,376.14c-0.87-0.03-3.62-0.26-5.95-1.94L46.25,373.56z
			 M52.94,377.83c-0.08,0.12-0.9,0.37-3.52-0.07c-0.42-0.07-0.81-0.17-1.18-0.3c-3.39-1.17-3.75-2.05-3.75-2.37
			c0-0.34,0.38-0.66,0.78-0.9l-0.01,0.05l0.34,0.1l-0.23,0.3c2.76,2.12,6.06,2.26,6.8,2.26C52.97,377.58,52.94,377.83,52.94,377.83z
			 M45.22,376.94c0.69,0.42,1.6,0.83,2.77,1.23c0.4,0.14,0.84,0.25,1.3,0.33c0.85,0.14,1.53,0.22,2.08,0.25l-0.31,1.28
			c-0.63,0.13-2.92,0.33-6.08-2.31L45.22,376.94z M52.06,381.35c-0.08,0.18-1.08,0.39-3.64-0.05c-0.37-0.06-0.72-0.18-1.04-0.33
			c-3.61-1.72-3.79-2.61-3.76-2.84c0.03-0.23,0.31-0.41,0.62-0.54l-0.06,0.2l0.03,0.01l-0.13,0.14l0.23,0.2
			c2.64,2.29,4.77,2.72,6.01,2.72c0.73,0,1.15-0.15,1.19-0.17l-0.07-0.19C52.09,381.12,52.06,381.35,52.06,381.35z M44.27,380.07
			c0.68,0.49,1.59,1.01,2.78,1.58c0.38,0.18,0.8,0.31,1.24,0.39c0.93,0.16,1.65,0.24,2.23,0.26l-0.06,0.23
			c-2.88-0.02-5.54-1.56-6.32-2.05L44.27,380.07z M52.46,387.37l-2.72,11.54l-8.01-3.08l-2.03-0.78l2.64-12.82
			c0.12-0.57,0.56-1.02,1.13-1.14l0.15-0.03c0.66,0.43,3.6,2.24,6.89,2.24c0.05,0,0.09,0,0.14,0
			C52.1,384.09,52.84,385.75,52.46,387.37z M43.94,406.69c-0.76-0.3-1.53-0.15-2.23,0.18l0.64-0.86l0,0l1.32-1.79
			c1.28-0.09,2.33-0.99,2.65-2.19l2.53-1.99l0.33,1.08C47.92,403.69,44.72,406.13,43.94,406.69z M49.76,401.66l0.37,0.17
			c-0.64,0.98-2.53,3.8-4.46,5.65c-0.19-0.14-0.49-0.32-0.88-0.48C45.95,406.12,48.52,403.99,49.76,401.66z M39.35,401.16
			c0,0.4,0.08,0.78,0.22,1.13c-0.61-0.61-0.98-1.45-0.98-2.37c0-1.72,1.29-3.16,2.99-3.35l7.03,2.71l-2.21,1.73
			c-0.11-1.24-0.98-2.25-2.15-2.58c-0.51-0.32-1.09-0.48-1.69-0.48C40.79,397.95,39.35,399.39,39.35,401.16z M40.5,401.28
			c0,0.75,0.29,1.42,0.75,1.95c-0.68-0.44-1.14-1.2-1.14-2.07c0-1.08,0.7-1.99,1.67-2.32C41.01,399.38,40.5,400.27,40.5,401.28z
			 M43.46,399.07c1.22,0,2.21,0.99,2.21,2.21c0,1.22-0.99,2.21-2.21,2.21c-1.22,0-2.21-0.99-2.21-2.21
			C41.25,400.06,42.24,399.07,43.46,399.07z M40.03,405.6c-4.01,0-7.27-3.26-7.27-7.27c0-2.97,1.85-5.66,4.57-6.75l-0.3,1.26
			c-0.06,0.24-0.07,0.48-0.04,0.71c-1.93,1.06-3.12,3.05-3.12,5.27c0,3.33,2.71,6.03,6.03,6.03c0.84,0,1.65-0.17,2.41-0.5
			c0.09,0.01,0.18,0.03,0.27,0.03c0.02,0,0.04,0,0.07,0l-0.73,0.99C41.29,405.52,40.66,405.6,40.03,405.6z M38.33,395.32l2.08,0.8
			c-1.51,0.62-2.57,2.09-2.57,3.8c0,1.9,1.28,3.54,3.12,4c0.03,0.02,0.05,0.03,0.08,0.04c-0.37,0.08-0.76,0.13-1.15,0.13
			c-2.91,0-5.28-2.37-5.28-5.28c0-1.88,0.99-3.58,2.59-4.53C37.42,394.75,37.82,395.13,38.33,395.32z M50.15,401.01l-0.25-0.12
			l-0.39-1.26l0.36,0.14c0.01,0,0.01,0,0.02,0.01L50.15,401.01z M50.6,402.47l1.07,2.55c-2.78,4.63-7.42,8.18-13.34,8.18
			c-4.83,0-9.12-2.35-11.8-5.96c0.78,0.38,1.45,0.44,1.77,0.44c0.12,0,0.19-0.01,0.2-0.01l0.15-0.02l3.96-4.72
			c0.12-0.15,0.15-0.34,0.08-0.51l-0.22-0.88l-0.1-0.08c-0.41-0.32-0.8-0.66-1.16-1.02c-3.77-5.5-1.95-13.44-1.66-14.59
			c0.59-0.45,1.22-0.84,1.88-1.17c0.09,0.14,0.19,0.27,0.3,0.39l1.69,1.84c0.68,0.74,1.64,1.12,2.64,1.06
			c0.72-0.05,1.43,0.23,1.94,0.73l-0.48,1.99c-3.27,1.07-5.53,4.17-5.53,7.63c0,4.43,3.6,8.03,8.03,8.03c0.4,0,0.8-0.04,1.2-0.09
			l-2.07,2.78l0.6,0.45c0.02-0.03,2.29-2.95,4.04-2.04l0.2,0.1l0.04-0.03c0.93,0.28,1.36,0.7,1.37,0.71l0.25,0.26l0.27-0.24
			C47.9,406.46,49.81,403.69,50.6,402.47z M29.07,397.82c-2.29-3.48-2.94-7.2-3.06-7.98c0.73-1.2,1.61-2.28,2.61-3.19
			C28.18,388.77,27.53,393.47,29.07,397.82z M24.54,403.59c-0.59-1.59-0.93-3.31-0.93-5.11c0-2.72,0.66-5.34,1.81-7.61
			c0.42,2.06,1.71,6.6,5.21,10.04c0,0,0,0,0,0l0,0c0.37,0.37,0.76,0.72,1.19,1.06l0.06,0.25C30.55,402.87,26.74,404.51,24.54,403.59
			z M31.35,403.3l-3.06,3.64c-0.45,0-1.86-0.16-3.08-1.82c-0.1-0.2-0.2-0.41-0.3-0.62C26.94,404.95,29.62,404.05,31.35,403.3z
			 M50.69,399.89c0.5,0,0.99-0.15,1.38-0.47l2.26-1.82c-0.02,0.26-0.04,0.5-0.06,0.61c-0.38,2.04-1.1,4.09-2.13,5.99l-1.11-2.64
			L50.69,399.89z M55.01,398.35c0.05-0.26,0.09-1,0.1-1.38l1.55-1.24c0.33-0.27,0.54-0.64,0.6-1.06l0.1-0.74
			c0.03-0.24,0.24-0.43,0.49-0.43h0.67c0.05,0,0.11,0.01,0.16,0.02c0.21,1.26,0.07,2.66-0.06,4.03l-0.03,0.3
			c-1.12,11.51-9.57,19.87-20.09,19.87c-10.8,0-19.26-8.83-19.26-20.1c0-7.72,5.63-13.71,11.05-16.86l0.66,2.85
			c0.03,0.15,0.08,0.29,0.13,0.43c-4.94,2.48-8.24,8.23-8.24,14.46c0,2.51,0.61,4.88,1.68,6.98l-0.01,0.01
			c0.02,0.02,0.03,0.04,0.05,0.06c2.57,5,7.77,8.43,13.76,8.43C47.38,413.96,53.57,406.11,55.01,398.35z M27.37,367.31
			c-1.59-1.49-2.31-2.49-2.32-2.5l-0.06-0.06l-0.82-0.71c0.04,0,0.09,0.01,0.13,0.01c0.79,0,1.58-0.28,2.19-0.85
			c4.72-4.38,17.51-4.18,21.98-3.96c-0.68,0.32-1.33,0.79-1.39,1.46c-0.06,0.59,0.34,1.18,1.2,1.78c-0.76,0.28-1.78,0.8-1.93,1.65
			c-0.11,0.65,0.29,1.3,1.22,1.96c-0.75,0.13-2.13,0.49-2.33,1.44c-0.14,0.66,0.32,1.34,1.41,2.12l-0.03,0.09
			c-0.59,0.13-2.03,0.53-2.18,1.52c-0.09,0.59,0.28,1.2,1.16,1.85l-0.03,0.09c-0.51,0.2-1.83,0.82-1.83,1.88
			c0,0.48,0.29,0.94,0.84,1.4l-0.07,0.22c-0.48,0.12-1.52,0.47-1.63,1.32c-0.06,0.48,0.2,0.98,0.77,1.52l-0.24,0.78l-0.09,0.02
			c-0.86,0.19-1.53,0.87-1.71,1.73l-2.62,12.69l-0.39-0.15c-0.64-0.25-1.01-0.94-0.84-1.61l1.05-4.33l-0.24-0.06l0.23-0.2
			l-0.07-0.08c-0.67-0.76-1.68-1.18-2.69-1.11c-0.77,0.05-1.51-0.25-2.04-0.82l-1.69-1.84c-0.3-0.32-0.5-0.72-0.6-1.14l-3.38-14.47
			C28.17,368.32,27.85,367.75,27.37,367.31z M49.87,355.47c-0.15,0.05-0.3,0.1-0.45,0.16l0-0.07c-0.87-0.05-21.12-1.11-29.53,4.81
			l-1.71-1.47c4.84-2.35,10.81-3.82,14.01-4.5c1.69-0.36,3.25-0.57,4.75-0.65C43.8,353.4,48.14,354.77,49.87,355.47z M42.53,353.08
			l0.05-0.1c0.07,0.04,0.13,0.08,0.2,0.12C42.7,353.1,42.61,353.09,42.53,353.08z M46.84,353.3c0.35,0.08,0.57,0.11,0.57,0.11
			l0.06-0.42c0.71,0.54,0.99,0.85,1.1,1c-0.23,0.02-0.73-0.02-1.6-0.21c-0.04-0.01-0.08-0.02-0.12-0.03
			c-0.51-0.12-1.13-0.28-1.9-0.51c-0.6-0.18-1.18-0.43-1.72-0.74c-0.22-0.13-0.43-0.25-0.61-0.37l0,0
			c-1.53-0.98-1.46-1.41-1.44-1.46c0.09-0.31,0.99-0.55,1.92-0.63l-0.16,0.35l-0.35,0.08c0.05,0.19,0.12,0.39,0.22,0.57l0.26-0.14h0
			l-0.26,0.14C43.55,352.39,45.65,353.04,46.84,353.3z M46.7,352.49c-0.92-0.23-2.5-0.75-3.15-1.69l0.5-1.11
			c0.41,0.3,0.86,0.58,1.39,0.82c0.71,0.33,1.3,0.58,1.8,0.76L46.7,352.49z M43.14,347.31c0.13-0.31,0.8-0.5,1.42-0.57l-0.24,0.53
			c-0.02-0.03-0.04-0.06-0.05-0.09l-0.69,0.3c0.69,1.58,4.05,3,5.54,3.56c-0.53-0.06-1.57-0.37-3.36-1.2
			c-0.63-0.3-1.16-0.62-1.61-1.01c-0.14-0.12-0.28-0.24-0.4-0.38C43.26,347.96,43.04,347.55,43.14,347.31z M43.85,345.94
			c0.03,0.05,0.06,0.1,0.1,0.14c-0.09,0.02-0.17,0.04-0.26,0.06C43.75,346.07,43.8,346,43.85,345.94z M43.68,344.82
			c-0.01,0.03-0.01,0.06-0.02,0.09c-0.16,0.22-0.32,0.45-0.49,0.66c0.23-0.36,0.44-0.76,0.63-1.18L43.68,344.82z M39.43,341.92
			c-0.03,0.29-0.11,0.67-0.29,1.06C39.17,342.65,39.26,342.27,39.43,341.92z M39.44,343.76l-0.33-0.15c0-0.02,0-0.05,0-0.07
			L39.44,343.76z M41,340.6c-0.02,0.78-0.18,2.21-0.92,3.59v-0.12l-0.55-0.26c0.77-1.14,0.67-2.4,0.66-2.46l-0.42,0.04
			c0.1-0.1,0.21-0.2,0.33-0.28L41,340.6z M43.42,337.78l0.01,0.01l-1.22,4.76c-0.02,0.06-0.03,0.12-0.03,0.18l-0.28,2.34l-0.38,0.37
			c-0.19,0.18-0.47,0.23-0.71,0.12l-0.52-0.24c1.35-1.92,1.49-4.08,1.48-4.97h0.82L43.42,337.78z M38.23,328.74
			c0.32-0.04,0.64-0.15,0.96-0.34c0.01,0,0.02,0,0.03-0.01l1.4,1.43l4.16,7.54c-0.08,0.75-0.61,5.06-2.11,7.62l0.26-2.17
			c0-0.03,0.01-0.06,0.02-0.08l1.29-5.02l-0.46-0.98l0.01-0.02l-3.31-5.64L38.23,328.74z M38.96,326.02c0,0.09,0.01,0.18,0.03,0.26
			c-0.1-0.09-0.18-0.22-0.18-0.36c0-0.21,0.12-0.39,0.3-0.47C39.02,325.62,38.96,325.81,38.96,326.02z M36.96,325.71
			c0-1.09,0.8-1.98,1.79-1.98c0.49,0,0.93,0.21,1.25,0.56c-0.25-0.13-0.52-0.21-0.82-0.21c-1,0-1.81,0.81-1.81,1.81
			c0,0.91,0.68,1.66,1.55,1.79c-0.06,0.01-0.11,0.01-0.17,0.01C37.76,327.69,36.96,326.8,36.96,325.71z M34.94,321.96
			c1.14,0.4,2.31,0.75,3.45,1.04c-1.23,0.19-2.18,1.32-2.18,2.7c0,0.34,0.06,0.66,0.17,0.95c-0.11-0.21-0.18-0.37-0.18-0.37
			C35.75,324.24,35.26,322.79,34.94,321.96z M30.75,303.75c0.37,0.52,0.84,1.36,1.43,2.72l0.05,0.08l2.52,3.18l-0.71,2.17
			l-2.46,0.71l-0.07,0.07c-1.3,1.37-3.74,3.39-4.74,2.98c-0.47-0.19-0.55-1-0.55-1.65c0.04-3.65,2.47-7.79,2.5-7.83L28.41,306h0
			l0.32,0.17C28.74,306.15,29.54,304.66,30.75,303.75z M30.26,303.18c-0.49,0.38-0.91,0.82-1.25,1.24c0.19-0.81,0.46-1.44,0.76-1.49
			C29.82,302.91,29.99,302.92,30.26,303.18z M52.64,312.88l-0.11,0.29l0.04,0.01l-1.72,6.14c-1.11,1.55-2.85,3.96-3.28,4.47
			c-1.68-0.03-16.15-1.73-20.25-7.36c1.75-0.24,4.14-2.62,4.67-3.16l2.64-0.77l0.96-2.93l-2.74-3.46c-1.08-2.46-1.96-3.71-2.79-3.92
			c11.29,1.04,20.62,7.67,21.5,8.31C52.06,311.46,52.58,312.58,52.64,312.88z M53.27,313.44c1.66,0.59,8.21,2.85,12.97,3.69
			c-3.94,10.74-5.62,18.71-6.34,23.47c-0.48-0.61-1.04-0.95-1.69-1.01c-1.69-0.13-3.3,1.74-3.77,2.34
			c-1.04-0.11-5.88-0.75-8.21-3.43L53.27,313.44z M56.14,309.07c1.16,0.62,6.62,3.38,13.52,3.94l-1.77,3.6
			c-4.61-0.5-12.59-3.25-14.38-3.88l0.89-2.28L56.14,309.07z M102.35,130.68l1.07-0.22c-0.98,1.6-1.37,3.9-1.51,5.26
			c-0.08,0.71,0.07,1.43,0.42,2.07l0.96,1.75l0.13,0.05c1.19,0.43,2.27,0.65,3.25,0.65c0.88,0,1.66-0.18,2.35-0.53
			c1.68-0.85,2.15-2.42,2.17-2.48c0.79-2.1,0.34-3.67-0.14-4.59l3.67,1.14L61.48,310.51c-2.51-0.85-4.29-1.74-4.93-2.08l49.93-167
			l-6.56-2.22l0.91-1.15l-0.16-0.23c-0.55-0.79-0.74-1.47-0.56-2.02c0.26-0.78,1.19-1.11,1.2-1.11l0.21-0.07L102.35,130.68z
			 M109.59,132.19l0.3,0.09c0.3,0.33,1.59,1.98,0.57,4.71c-0.01,0.04-0.42,1.36-1.81,2.05c-1.17,0.59-2.69,0.58-4.51-0.01
			c0.26-0.36,0.51-0.73,0.72-1.1c1.24-2.16,1.35-4.83,0.27-7.14l-0.12-0.25l4.57,1.63L109.59,132.19z M104.21,137.56
			c-0.19,0.33-0.41,0.66-0.63,0.97l-0.6-1.1c-0.28-0.5-0.39-1.07-0.33-1.63c0.15-1.38,0.55-3.74,1.57-5.19l0.24,0.51
			C105.43,133.2,105.34,135.61,104.21,137.56z M102.08,129.96l-0.29-0.14l1.48-0.37l0.24,0.22L102.08,129.96z M103.65,126.97
			l-0.57,1.75l-1.83,0.46l0.57-1.79L103.65,126.97z M111.47,119.06l-0.46,1.21c-0.55-0.18-1.71-0.56-2.48-0.82l-0.24,0.71
			c0.99,0.33,2.13,0.71,2.63,0.87c0.2,0.87,0.88,4.47-0.08,8.18l-0.03,0.09l-0.92,2.18l-5.31-1.89l-0.06-0.13l-0.1,0.02l-0.61-0.56
			l0.64-1.96l1.45,0.59l0.93-2.09l-0.42-5.55l1.32-2.47L111.47,119.06z M131.97,62.07l6.26-17.5c0.68,0.59,3.86,3.47,4.94,6.26
			l-24.36,81.02l-7.19-2.64L131.97,62.07z M143.69,51.73c1.36,2.48,5.35,11.34,2.72,25.6c-0.04,0.21-4.28,21.59-18.54,46l-2.57,3.45
			c-0.54,0.73-0.97,1.54-1.26,2.4l-1.38,4.07l-3.13-1.15L143.69,51.73z M136.38,47.52l-0.09,0.25l-1.38,0.83l-1.45,0.75
			c-0.05,0.02-0.45,0.15-1.07,0.19c-1.8,0.12-3.55-0.7-4.67-2.2c-1.1-1.47-1.39-3.34-0.78-5.01c0.19-0.52,0.47-1.03,0.81-1.54
			c0.73,0.04,1.47,0.12,2.22,0.24C130.2,42.28,131.39,47.04,136.38,47.52z M130.77,41.17c0.06,0.01,0.11,0.02,0.17,0.03
			c0.07,0.61,0.2,1.16,0.38,1.66C131.02,42.19,130.85,41.58,130.77,41.17z M115.86,47.99L115.86,47.99l0.16-0.55
			c0.81-2.78,3.64-5.65,4.14-6.14c0.51-0.1,1.15-0.2,1.89-0.3c0.74,0.7,4.65,4.57,3.97,8.47c-0.01,0.03-0.65,3.39-3.4,5l-0.56,0.17
			c-0.71-0.08-2.45-0.33-3.17-0.72C115.34,52.06,115.59,49.16,115.86,47.99z M121.91,55.39c1.23,1.58,1.2,2.29,1.07,2.57
			c-0.23,0.46-1.05,0.48-1.07,0.48l-0.05,0l-0.05,0.01c-0.53,0.15-2-1.81-3.05-3.75C119.7,55.11,121.38,55.33,121.91,55.39z
			 M124.51,53.94c1.78-1.85,2.24-4.21,2.26-4.33c0.14-0.83,0.1-1.64-0.05-2.43c0.12,0.21,0.26,0.42,0.41,0.62
			c1.17,1.57,2.96,2.48,4.84,2.51C130.24,51.36,127.23,53.08,124.51,53.94z M129.56,52.55c0.16,0.24,0.34,0.61,0.19,0.91
			c-0.15,0.3-0.83,0.89-3.87,0.79C127.15,53.77,128.42,53.16,129.56,52.55z M123.02,40.89c1.14-0.11,2.46-0.18,3.87-0.14
			c-0.26,0.44-0.49,0.87-0.66,1.32c-0.34,0.92-0.43,1.9-0.3,2.85C125.06,43.12,123.78,41.66,123.02,40.89z M133.97,49.93l1.06-0.55
			c0.23,0.28,0.33,0.68,0.36,0.9l-0.81,2.28c-0.04-0.01-0.07-0.03-0.1-0.06C134.05,52.12,133.94,50.81,133.97,49.93z M135.89,48.89
			l-0.1,0.29c-0.03-0.06-0.07-0.11-0.11-0.16L135.89,48.89z M131.74,41.38c2.05,0.5,4.08,1.34,5.87,2.69l-0.86,2.41
			C133.84,45.84,132.16,44.12,131.74,41.38z M121.79,60.35c0.31-0.06,0.67-0.18,1.01-0.44c0.55-0.42,0.88-1.07,0.99-1.94l-0.03,0
			c0.15-0.7-0.19-1.6-1.03-2.74l0.24-0.08c0.04-0.02,0.07-0.05,0.11-0.07c0.29-0.05,0.59-0.12,0.89-0.2
			c0.97,0.09,1.83,0.14,2.58,0.14c2.2,0,3.47-0.4,3.88-1.22c0.3-0.6,0.04-1.22-0.2-1.61c1.29-0.72,2.36-1.38,2.99-1.79
			c0.02,0.83,0.15,2.11,0.76,2.65c0.11,0.09,0.22,0.16,0.35,0.21l-2.97,8.31l-8.44,0.18L121.79,60.35z M113.89,52.21
			c0.47,0.83,1.75,2.9,3.06,3.54c0.88,1.38,2.25,3.39,3.28,4.24l-1.47,0.7c-1.65,0.13-2.97-0.28-3.95-1.22
			c-2.13-2.05-1.98-5.93-1.97-5.97l-0.75-0.03c-0.01,0.17-0.17,4.27,2.2,6.55c0.81,0.77,1.81,1.24,2.98,1.39l-1.5,0.72
			c-1.34-0.06-2.42-0.53-3.18-1.43c-1.89-2.21-1.4-6.22-1.4-6.26l-0.75-0.1c-0.02,0.18-0.53,4.39,1.57,6.85
			c0.64,0.75,1.46,1.25,2.44,1.51c-0.85,0.27-1.76,0.29-2.56,0.02c-0.58-0.2-1.12-0.49-1.59-0.86c-0.77-0.6-1.29-1.47-1.47-2.45
			c-0.3-1.62,0.2-3.05,0.67-3.95c0.35-0.68,0.92-1.26,1.65-1.67L113.89,52.21z M113.44,46.07c0.13-0.02,0.31,0.02,0.49,0.26
			c-0.04,0.86-0.06,5.5,4.05,8.53c0.6,1.15,2.4,4.34,3.79,4.34c0.06,0,0.11-0.01,0.17-0.02c0.1,0,0.35-0.02,0.62-0.1
			c-0.07,0.08-0.14,0.16-0.22,0.22c-0.4,0.31-0.88,0.35-1.11,0.34l-0.08-0.1l-0.17,0.08c-0.5-0.17-2.17-2.37-3.45-4.38l-0.06-0.1
			l-0.11-0.05c-1.17-0.49-2.55-2.75-2.99-3.58C113.11,49,113.34,46.73,113.44,46.07z M114.99,49.01c-0.2-0.8-0.27-1.49-0.3-1.99
			l0.53,0.44C115.14,47.77,115.01,48.32,114.99,49.01z M113.38,37.52l-0.26,0.38c-0.37,0.54-0.48,1.21-0.32,1.85l0.21,0.8
			c0.07,0.27,0.19,0.53,0.35,0.75c0.08,0.11,0.17,0.2,0.26,0.29c-0.76,0.19-2.12,0.54-4.58,1.19c-0.32,0.08-0.64,0.08-0.96,0
			l-2.05-0.53C106.63,39.4,110.53,38.1,113.38,37.52z M117.46,40.02l-0.41,0.69c-0.25,0.42-0.68,0.7-1.16,0.74l-0.53,0.05
			c-0.54,0.05-1.07-0.19-1.39-0.63c-0.11-0.15-0.19-0.32-0.24-0.51l-0.21-0.8c-0.11-0.42-0.03-0.87,0.21-1.24l0.67-0.99
			c0.92-0.15,1.62-0.21,1.89-0.23l0.72,0.45C117.03,38,117.11,39.06,117.46,40.02z M117.71,41.09l0.15-0.26
			c0.2,0.3,0.44,0.55,0.75,0.72l0.13,0.08l0.09-0.03c-1.01,1.1-2.6,3.06-3.36,5.1l-0.87-0.72c-0.43-0.66-1.04-0.73-1.46-0.6
			l-1.72-1.06l-3.11-0.31l-2.48,3.12L92.8,50.52l-4.27-0.98l0.42-2.79l4.18,0.29l12.48-4.12l2.28,0.59
			c0.22,0.06,0.44,0.08,0.67,0.08c0.23,0,0.46-0.03,0.68-0.09c2.96-0.78,4.96-1.3,5.31-1.37c0.22,0.07,0.44,0.11,0.67,0.11
			c0.07,0,0.15,0,0.22-0.01l0.53-0.05C116.69,42.12,117.34,41.71,117.71,41.09z M147.27,31.65l-1.14-0.05
			c-0.64-0.02-1.21,0.43-1.32,1.07l-0.46,2.6c-0.05,0.29-0.31,0.48-0.59,0.44c-1.31-0.19-4.31-0.27-5.12,2.77
			c-2.32-1.3-4.2-1.81-5.25-2.01l13.45-10.37C146.51,27.46,146.23,29.78,147.27,31.65z M147.73,30.87
			c-0.67-1.58-0.42-3.47-0.15-4.61C147.4,27.58,147.31,29.38,147.73,30.87z M131.48,11.65c1.03-1.4,5.35,0.23,6.83,0.95
			c5.09,2.52,5.21,4.52,5.15,5.01c-1.74,0.88-4.06-0.08-4.08-0.09C133.93,15.51,132.09,12.94,131.48,11.65z M131.3,7.95
			c1.83-1.38,7.95,1.56,10.49,2.98l-0.05,0.16c-0.26,0.52-0.08,1.25,0.55,2.21l0.07,0.08c0.06,0.05,0.91,0.75,2.06,1.41
			c0.32,0.8,1.41,3.49,2.29,4.66l-2.5-1.75c0.1-0.81-0.19-3.12-5.56-5.78c-0.61-0.29-5.55-2.58-7.45-1.05
			c0-0.02-0.01-0.04-0.01-0.04l-0.01-0.1l-0.06-0.08c-0.07-0.08-0.11-0.16-0.17-0.24C130.65,9.19,130.77,8.35,131.3,7.95z
			 M147.9,13.31c0.62,0.61,0.91,1.13,0.8,1.42c-0.11,0.32-0.74,0.49-1.03,0.52c-1.97-0.21-4.43-2.13-4.79-2.41
			c-0.44-0.69-0.62-1.23-0.46-1.45c0.24-0.34,1.28-0.28,1.92-0.13C146.6,12.02,147.89,13.3,147.9,13.31z M144.84,10.64
			c-0.09-0.03-0.17-0.07-0.26-0.1l-0.03-0.01c-0.23-0.05-1.07-0.23-1.79-0.09l0.97-2.87c0.19-0.18,1.34-1.1,4.31,0.74l-0.82,1.84
			l-2.04-0.23L144.84,10.64z M144.15,3.96c0.3,0.49,0.95,1.43,1.79,1.85c0.08,0.2,0.21,0.51,0.37,0.84
			c-2.3-0.72-3.19,0.43-3.23,0.49l-0.05,0.1l-1,2.96c-1.86-1.04-8.78-4.67-11.18-2.86c-0.49,0.37-0.76,0.92-0.81,1.64
			c-0.54-1.07-0.58-1.75-0.57-1.95l3.22-5.1c5.52-1.82,10.45,2.19,10.5,2.24l0.19,0.15L144.15,3.96z M146.95,5.08l0.83,2.21
			c-0.06-0.03-0.13-0.07-0.19-0.1l0-0.01c-0.28-0.15-0.74-1.04-1-1.78l-0.06-0.16l-0.15-0.06c-0.76-0.32-1.45-1.34-1.7-1.8
			c0-0.1,0.01-0.2,0.02-0.3C145.19,3.67,145.95,4.44,146.95,5.08z M153.48,10.26c-0.44-0.35-0.98-0.59-1.61-0.7
			c-1.16-0.22-2.41-1.13-2.9-1.51l0.01-0.03l-0.17-0.11l-1.25-3.33l-0.11-0.07c-1.41-0.87-2.32-2.02-2.57-2.44
			c0.12-0.33,0.28-0.61,0.51-0.82c0.45-0.42,1-0.49,1.22-0.5l2.52,1.87l0.11,0.01c1.87,0.17,3.22,1.56,3.57,1.97
			c-0.08,0.72-0.33,3.32,0.17,4.42l0.69-0.31c-0.34-0.74-0.24-2.64-0.14-3.72c2.34,0.92,3.01,3.31,3.14,3.86l-1.49,3.07
			C154.89,11.5,154.37,10.97,153.48,10.26z M156.6,16.18l-5.97,6l-3.45-2.4l0.38-0.5c-0.51-0.39-1.44-2.34-2.11-3.94
			c0.72,0.33,1.48,0.59,2.21,0.67c0.21-0.01,1.44-0.15,1.74-1.01c0.22-0.62-0.1-1.34-0.98-2.21c-0.01-0.01-0.13-0.13-0.33-0.3
			l0.31-0.52l-1.92-1.15l1.19,0.14l0.98-2.2c0.61,0.47,1.86,1.31,3.08,1.54c0.5,0.1,0.94,0.28,1.28,0.55
			c1.51,1.2,1.78,1.78,1.75,1.91l-0.74,1.52l-2.22,4.07l-1.03-0.51l-1.28,2.16l0.65,0.38l0.92-1.56l1.05,0.52l2.39-4.38L156.6,16.18
			z M153.88,24.84v3.23c0,0.37-0.08,0.74-0.24,1.07l-0.73,1.57c-1.57-2.67-1.82-6.94-1.85-7.86l0.25-0.2l-0.05-0.04l5.03-5.06
			l-2.22,6.18C153.94,24.09,153.88,24.46,153.88,24.84z M157.57,23.5l-0.32,2.71c-0.04,0.22-0.98,4.88-2.5,9.19
			c-0.04-0.35-0.13-0.65-0.22-0.87c-0.19-0.44-0.6-0.73-1.08-0.75l-1.11-0.05l1.99-4.26c0.2-0.43,0.31-0.91,0.31-1.39v-3.23
			c0-0.29,0.05-0.58,0.15-0.85l2-5.58C156.82,19.78,157.01,21.6,157.57,23.5z M166.99,12.37l-1.33,0.9
			c-0.42-0.03-1.64-0.04-2.82,0.83c-1.22,0.91-1.98,2.47-2.26,4.62c-0.43,3.31,0.95,6.55,3.53,8.25c0.89,0.59,2,1.07,3.23,1.07
			c1.06,0,2.22-0.36,3.41-1.3c-0.93,2.17-2.42,3.4-4.46,3.63c-2.13,0.25-4.29-0.74-5.79-2.64c-3.38-4.29-3.01-10.59-2.94-11.5
			C161.58,11.58,165.47,11.97,166.99,12.37z M158.13,25.11c0.16,0.39,0.35,0.78,0.55,1.17l-0.66-0.26L158.13,25.11z M168.29,25.61
			c0.5,0.15,1.02,0.22,1.53,0.22c0.33,0,0.66-0.04,0.98-0.09c-2,1.84-4.11,2.06-6.28,0.62c-2.33-1.54-3.59-4.5-3.19-7.52
			c0.25-1.94,0.91-3.32,1.96-4.11c0.48-0.36,0.97-0.53,1.39-0.62c-0.79,0.84-1.3,1.91-1.42,3.08
			C162.99,19.7,163.28,24.15,168.29,25.61z M175.17,23.3l0.6-0.44l-0.01,0.04c0.68,0.15,1.32,0.22,1.94,0.22
			c5.23,0,8.23-4.92,9.52-7.73c-0.12,2.27-0.65,5.85-2.71,7.44l-0.07,0.06C184.43,22.92,181.96,25.82,175.17,23.3z M172.75,24.12
			c-1.24,0.9-2.83,1.18-4.25,0.77c-4.25-1.25-4.79-4.84-4.5-7.63c0.14-1.33,0.86-2.53,1.97-3.28l1.13-0.77
			c0.29,2.65,1.25,4.71,2.87,6.12c2.12,1.84,4.7,2.02,5.64,2.02c0.21,0,0.33-0.01,0.36-0.01l0.09-0.01l2.24-1.42l-1.47,0.1
			c-0.29,0.02-7.14,0.36-8.38-7.71l8.07-5.47c5.1-4.44,9.28-0.71,9.46-0.54c2.48,2.45,1.47,6.34,1.31,6.91
			c-0.11,0.12-0.42,0.46-0.88,0.95c-5.65,1.94-8.32-5.1-8.44-5.4l-0.71,0.26c0.03,0.07,2.36,6.23,7.24,6.23
			c0.3,0,0.61-0.03,0.92-0.08c-0.87,0.88-1.94,1.92-3.04,2.87c-6.5,0.51-8.58-6.64-8.6-6.71v-0.38l-0.37,0.05h-1.25l0.1,0.45
			c0.07,0.31,1.66,7.5,7.47,7.95l0.06-0.75c-4.45-0.35-6.23-5.35-6.67-6.9h0.02c0.28,0.89,1.21,3.17,3.11,4.91
			c1.5,1.37,3.25,2.08,5.21,2.14c-1.11,0.88-2.2,1.61-3.08,1.9l0.23,0.72c2.38-0.78,5.98-4.27,7.93-6.31
			c-1.31,2.85-4.46,7.92-9.94,7.17l0.15-0.11l-0.44-0.61l-0.79,0.57c-7.61-0.63-8.74-6.5-8.78-6.75l-0.74,0.13
			c0.01,0.06,1.18,6.22,8.63,7.27L172.75,24.12z M174.72,20.53c-1.12-0.13-2.83-0.54-4.26-1.78c-1.45-1.26-2.33-3.12-2.6-5.52
			C168.96,18.39,172.42,20.02,174.72,20.53z M173.36,25.15l-0.63-0.14c0.15-0.09,0.31-0.17,0.46-0.28l0.08-0.06
			C173.29,24.82,173.32,24.98,173.36,25.15z M170.54,30.35l-1.18-0.42c1.05-0.82,2.01-2.16,2.61-4.3c0.11-0.12,0.22-0.24,0.33-0.37
			c0.07-0.03,0.14-0.07,0.21-0.1l-0.12,0.55l0.83,0.18L170.54,30.35z M171.96,35.26c-0.01,0-0.01,0.01-0.02,0.02l-0.65-3.16
			c1.05-0.42,4.48-2.03,5.61-5.33h0.6C177.3,28,176.34,31.83,171.96,35.26z M171.33,46.41c2.47-1.62,3.39-4.34,3.68-5.51l1.73,1.15
			c-0.09,0.75-0.55,3.36-2.51,5.62L171.33,46.41z M167.94,44.94l3.92-8.46c0.04,0.04,0.08,0.08,0.13,0.11l2.2,1.56l-0.7,1.72
			l0.87,0.58c-0.2,0.88-1.09,4.05-3.87,5.59L167.94,44.94z M153.98,39.21c2.1-4.25,3.55-10.7,3.91-12.43l1.4,0.55
			c0.2,0.3,0.4,0.6,0.63,0.89c1.66,2.11,4.08,3.2,6.46,2.92c0.68-0.08,1.44-0.28,2.18-0.69l1.8,0.64l0.2,1.29l0.02-0.01l0.72,3.49
			l-4.2,9.11l-0.61,1.09l-5.5-1.68l-0.33-1.08l-2.06-0.48l-0.53,0.76l-4.94-1.19L153.98,39.21z M152.7,38.39
			c0.09,0.02,0.19,0.04,0.28,0.04c0.22,0,0.43-0.06,0.62-0.17c-0.06,0.12-0.11,0.24-0.17,0.36L152.7,38.39z M151.35,37.16
			c-0.68-1.48,0.22-2.43,0.52-2.7l1.53,0.07c0.19,0.01,0.35,0.12,0.43,0.29c0.25,0.58,0.37,1.51-0.42,2.62
			c-0.14,0.19-0.37,0.27-0.58,0.2C151.88,37.35,151.5,37.22,151.35,37.16z M151.24,37.94c-0.6-0.12-1.25-0.26-1.58-0.35
			c0.06-0.47,0.15-1.47,0.32-3.75c0.02-0.25-0.03-0.49-0.16-0.71l-0.42-0.77c-0.08-0.14-0.18-0.25-0.3-0.35
			c-1.6-1.94-0.68-6.5-0.51-7.28l1.72-1.33c0.1,1.64,0.52,5.63,2.2,8.11l-1.08,2.32c-0.7,0.55-1.64,1.96-0.71,3.79
			c0.06,0.11,0.08,0.15,0.52,0.31L151.24,37.94z M145.32,43.87c-2.12-2.28-4.18-3.87-6.01-4.98c0.53-2.44,2.63-2.68,4.33-2.43
			c0.69,0.1,1.32-0.36,1.44-1.05l0.46-2.6c0.05-0.26,0.28-0.47,0.55-0.44l2.2,0.09c0.19,0.01,0.36,0.11,0.45,0.28l0.42,0.77
			c0.05,0.09,0.07,0.19,0.07,0.29c-0.16,2.05-0.29,3.57-0.34,3.89l-0.07,0.11l0.08,0.2c0.07,0.18,0.12,0.28,1.7,0.6L145.32,43.87z
			 M132.09,125.28l-3.39-1.88c14.18-24.39,18.4-45.71,18.44-45.92c3.1-16.75-2.83-26.23-3.24-26.85c-1.25-3.32-5.16-6.61-5.33-6.75
			c-7.17-5.96-18.19-3.45-19.72-3.06c-0.8-0.59-1.04-2.27-1.08-3.17c4.64-1.12,14.54-0.55,14.65-0.54c0.06,0,6,0.46,12.36,7.3
			l-0.03,0.03l0.31,0.27c0.04,0.03,3.56,3.17,5.93,12.71c0.03,0.11,2.84,10.79-1.17,26.05c-0.17,0.64-0.38,1.32-0.63,2.02
			C147.93,88.99,141.87,105.39,132.09,125.28z M126.93,135.39l-3.58-1.84l1.4-4.13c0.27-0.79,0.65-1.53,1.15-2.19l2.38-3.2
			l3.47,1.93C130.23,129.03,128.63,132.19,126.93,135.39z M126.1,137.46l-10.78-4.28l-4.71-1.46l0.76-1.81l11.37,4.18l4.14,2.13
			l1.3,1.13v1.11l-0.42,0.66L126.1,137.46z M80.54,290.46c0-0.36-0.24-0.66-0.59-0.74c-0.35-0.09-0.7,0.07-0.86,0.39l-2.92,5.58
			c-0.43,0.83-0.66,1.75-0.66,2.69c0,0.38-0.04,0.76-0.13,1.13c-0.4,1.74-1.95,7.77-5.32,12.77c-2.96-0.21-5.65-0.83-7.86-1.53
			l53.23-176.72l10.32,4.1l0.93,0.95l-46.4,158.38C80.47,295.2,80.56,292.88,80.54,290.46z M69.68,314.67l0.89-1.81
			c3.52-5.14,5.13-11.39,5.54-13.18c0.1-0.43,0.15-0.87,0.15-1.3c0-0.81,0.2-1.62,0.57-2.34l2.92-5.58
			c0.08,3.96-0.17,7.65-0.72,11.27l-3.97,13.56l-0.92,0.18C73.67,315.29,71.81,314.63,69.68,314.67z M79.07,314.19
			c-0.08,0.94-0.35,4.15-0.66,6c-0.09,0.53-0.24,1.03-0.46,1.5c-0.61,1.3-2.26,5.9,1.84,10.52l14.48,16.93
			c-1.85,0.25-6.74,1.3-9.59,5.52c-2.56,3.78-2.75,9.08-0.6,15.74c-1.77-0.37-3.38-0.8-4.82-1.27
			c-1.61-10.42-12.44-20.72-13.88-22.06c0.25-2.49,0.64-4.86,1.01-6.76c0.02,0,0.05,0.01,0.07,0.01c1.47,0,2.67-1.2,2.67-2.67
			c0-1.06-0.64-2.01-1.58-2.43c0.23-0.9,0.49-1.81,0.76-2.71c0.16,0.03,0.31,0.04,0.47,0.04c1.55,0,2.81-1.26,2.81-2.81
			c0-1.08-0.62-2.05-1.57-2.52c1.3-3.72,2.63-7.02,3.49-9.06c0.5,0.32,1.05,0.52,1.64,0.59c0.57,0.06,1.12-0.11,1.55-0.5
			c0.45-0.41,0.72-0.99,0.72-1.6v-1.83l1.16-0.85L79.07,314.19z M70.84,329.73c0,1.13-0.92,2.06-2.06,2.06
			c-0.09,0-0.17-0.01-0.26-0.02c0.4-1.3,0.82-2.59,1.25-3.84C70.42,328.29,70.84,328.97,70.84,329.73z M68.38,337.65
			c0,1.03-0.82,1.87-1.84,1.91c0.43-2.1,0.79-3.46,0.8-3.51c0.01-0.03,0.01-0.06,0.02-0.09C67.98,336.29,68.38,336.93,68.38,337.65z
			 M78.45,368.85c-9.87-3.51-11.92-9.02-11.95-9.09c-1.42-3.01-1.55-7.47-1.2-11.72C67.68,350.33,76.81,359.66,78.45,368.85z
			 M85.31,355.08c2.98-4.42,8.51-5.15,9.56-5.25l0.01,0.01l0.05-0.01c1.14,0.87,10.03,7.85,10.84,14.27
			c0.23,1.8-0.22,3.42-1.32,4.81c-0.4,0.25-0.84,0.48-1.33,0.69c-1.58,0.66-2.94,1.66-3.97,2.9l-6.11-0.94
			c-3.04-0.18-5.72-0.53-8.12-0.99C82.71,363.95,82.84,358.74,85.31,355.08z M96.63,348.83l-1.45,0.21l-14.82-17.32
			c-3.7-4.17-2.44-8.18-1.73-9.71c0.25-0.53,0.42-1.1,0.52-1.7c0.29-1.73,0.54-4.61,0.64-5.79l0.08,0.04
			c-0.07,1.13-0.4,5.67-0.94,7.17c-0.09,0.23-2.14,5.88,4.18,12.34L96.63,348.83z M106.09,359.01l-0.34,0.67
			c0.01,0.01,1.05,0.69,1.05,4.67c0,0.03,0.04,0.77-0.24,1.74c-0.09,0.31-0.11,0.63-0.07,0.94c-0.11,0.16-0.23,0.31-0.36,0.46
			c0.41-1.08,0.54-2.24,0.39-3.48c-0.78-6.12-8.19-12.44-10.55-14.32l1.3-0.19l7.88,7.33c1.16,1.08,1.94,2.42,2.25,3.88
			c0.24,1.13,0.36,2.4,0.16,3.65c0-0.01,0-0.03,0-0.03C107.55,359.84,106.24,359.08,106.09,359.01z M388.99,357.19h-5.98
			c-0.59,0-1.18,0.16-1.68,0.48l-6.63,4.09c-0.48-0.85-1.78-3.04-3.04-4.38c0.09-0.02,0.19-0.04,0.28-0.07l7.77-2.86
			c0.18-0.07,0.37-0.1,0.56-0.09l7.95,0.28L388.99,357.19z M389.41,371.28v0.76c0,0.6,0.17,1.17,0.46,1.67
			c-6.45-1.15-13.37-9.55-14.77-11.31l6.61-4.07c0.39-0.24,0.83-0.36,1.29-0.36h6.17c0.02,0.17,0.03,0.34,0.03,0.51
			c-0.1,3.76-0.13,9.97,0.68,11.77C389.6,370.49,389.41,370.86,389.41,371.28z M390.65,355.66l0.55,1.53h-1.42l-0.77-2.52l0.32,0.01
			C389.93,354.71,390.45,355.09,390.65,355.66z M392.21,369.22v-11.04c0-0.26-0.04-0.51-0.13-0.74l-0.73-2.03
			c-0.1-0.27-0.25-0.51-0.43-0.72h0.43c0.46,0,0.9,0.19,1.21,0.52l0.58,0.61c0.99,1.04,1.54,2.4,1.54,3.83v8.15
			c0,0.67-0.35,1.28-0.9,1.6c-0.5,0.29-1.09,0.44-1.74,0.47C392.15,369.67,392.21,369.46,392.21,369.22z M389.96,358.48
			c0-0.18-0.01-0.36-0.03-0.53h1.51c0.01,0.08,0.02,0.16,0.02,0.24v11.04c0,0.36-0.29,0.65-0.65,0.65c-0.09,0-0.19,0.01-0.27,0.03
			C390.03,368.85,389.8,364.4,389.96,358.48z M387.19,384.35c-0.32,0.53-0.83,0.91-1.42,1.08l-3.07,0.9
			c-0.25,0.07-0.51,0.1-0.77,0.1l-278.61-8.36c-0.79-0.02-1.4-0.65-1.42-1.44l0.28-1.29c0.08-0.35,0.38-0.63,0.76-0.59l275.4,8.98
			c0,0,0.01,0.01,0.01,0.02l0.02-0.01l5.31,0.17c0.03,0,0.06,0,0.09,0c0.9,0,1.74-0.44,2.25-1.2l2.82-4.19
			c0.15-0.22,0.4-0.35,0.66-0.35h6.53c0.26,0.07,0.53,0.11,0.8,0.11h0.06c-0.45,0.73-1.25,1.19-2.13,1.19h-2.77
			c-1.13,0-2.17,0.58-2.76,1.54L387.19,384.35z M339.3,381.7l-0.17-0.01c7.92-8.03,20.49-8.23,20.62-8.23
			c12.24,0,17.62,7.22,19.02,9.52l-0.04,0c-1.41-1.79-8.86-10.35-21.31-9.17C357.3,373.83,346.61,374.95,339.3,381.7z
			 M357.48,374.57c11.18-1.07,18.19,5.98,20.24,8.39l-37.33-1.22C347.49,375.61,357.38,374.58,357.48,374.57z M375.68,400.8
			c0-0.94-0.07-1.89-0.2-2.81l6.65-10.82c0.26-0.01,0.53-0.05,0.78-0.12l0.52-0.15c1.57,3.69,2.37,7.6,2.37,11.63
			c0,3.56-0.64,6.97-1.8,10.14l-0.16-0.4h-0.73l-0.35-1.91c-0.02-0.12-0.03-0.25-0.02-0.38l0.33-3.68H381l-1.5,5.55h-1.22
			l-0.33,1.26c-0.12,0.45-0.08,0.93,0.1,1.36c0.32,0.77,1.04,1.28,1.86,1.32c-0.02,0.32-0.02,0.67,0.06,0.87
			c0.08,0.18,0.18,0.28,0.71,0.28c0.22,0,0.51-0.02,0.9-0.05l0.09-0.01l0.62-0.4c-5.24,9.82-15.81,16.56-27.99,16.56
			c-13.78,0-26.07-8.84-30.1-21.55l12.02,0.5c0.08,0,0.15,0,0.23,0c0.03,0,0.06,0,0.08,0c2.97,7.81,10.53,13.05,18.9,13.05
			c7.25,0,13.62-3.84,17.19-9.59c0.13-0.12,0.22-0.27,0.27-0.45c0.18-0.31,0.36-0.63,0.52-0.95l0.08,0.77l0,0
			c0.02,1.07,0.93,1.93,2.04,1.93c1.12,0,2.04-0.88,2.04-1.95h0l0.07-2.05l-0.08-0.11c-0.56-0.75-1.21-1.14-1.93-1.16
			c-0.46-0.02-0.88,0.12-1.24,0.31C375.24,405.6,375.68,403.25,375.68,400.8z M359.4,395.79c1.8,0,3.43,0.94,4.36,2.5l0.11,0.18
			h3.06c1.42,0,2.57,1.15,2.57,2.57s-1.15,2.57-2.57,2.57h-3.25l-0.11,0.16c-0.95,1.37-2.51,2.18-4.16,2.18
			c-1.65,0-3.21-0.81-4.16-2.18l-0.11-0.16h-4.34c-1.42,0-2.57-1.15-2.57-2.57s1.15-2.57,2.57-2.57h4.15l0.11-0.18
			C355.98,396.73,357.61,395.79,359.4,395.79z M354.51,397.73h-0.12l0.08-0.16c0.32-0.62,0.83-1.03,1.39-1.31
			C355.35,396.66,354.88,397.15,354.51,397.73z M352.79,397.73c0.25-0.01,0.48-0.01,0.67,0H352.79z M367.88,405.46
			c1.85,0,3.6-0.98,4.57-2.55l2.38-3.87c0.05,0.59,0.09,1.18,0.09,1.77c0,3.05-0.71,5.94-1.96,8.51v-1.16
			c0-0.51-0.42-0.93-0.93-0.93h-20.09c-0.51,0-0.93,0.42-0.93,0.93v0.17h-3.3c-0.24-0.15-0.52-0.24-0.83-0.24
			c-0.46,0-0.87,0.2-1.16,0.52l-6.39-1.47c0.24-0.15,0.47-0.32,0.68-0.51c0.84-0.75,1.93-1.16,3.06-1.16h12.72
			c1.02,0.8,2.27,1.25,3.59,1.25c1.32,0,2.57-0.46,3.59-1.25H367.88z M371.05,407.98h0.3c0.12,0.52,0.34,1.75,0,2.94h-0.28
			C371.35,409.75,371.19,408.61,371.05,407.98z M371.6,411.67c-3.5,5.18-9.43,8.59-16.14,8.59c-7.7,0-14.68-4.59-17.78-11.55
			l7.92,1.82c0.28,0.42,0.76,0.69,1.3,0.69c0.45,0,0.85-0.19,1.13-0.49h2.99c0,0.51,0.42,0.93,0.93,0.93H371.6z M369.99,407.98h0.3
			c0.12,0.52,0.34,1.75,0,2.94H370C370.28,409.75,370.12,408.61,369.99,407.98z M368.92,407.98h0.3c0.12,0.52,0.34,1.75,0,2.94
			h-0.28C369.21,409.75,369.05,408.61,368.92,407.98z M367.85,407.98h0.3c0.12,0.52,0.34,1.75,0,2.94h-0.28
			C368.14,409.75,367.98,408.61,367.85,407.98z M366.78,407.98h0.3c0.12,0.52,0.34,1.75,0,2.94h-0.28
			C367.07,409.75,366.91,408.61,366.78,407.98z M365.71,407.98h0.3c0.12,0.52,0.34,1.75,0,2.94h-0.28
			C366,409.75,365.84,408.61,365.71,407.98z M364.64,407.98h0.3c0.12,0.52,0.34,1.75,0,2.94h-0.28
			C364.93,409.75,364.77,408.61,364.64,407.98z M363.57,407.98h0.3c0.12,0.52,0.34,1.75,0,2.94h-0.28
			C363.86,409.75,363.71,408.61,363.57,407.98z M362.5,407.98h0.3c0.12,0.52,0.34,1.75,0,2.94h-0.28
			C362.79,409.75,362.64,408.61,362.5,407.98z M361.43,407.98h0.3c0.12,0.52,0.34,1.75,0,2.94h-0.28
			C361.72,409.75,361.57,408.61,361.43,407.98z M360.36,407.98h0.3c0.12,0.52,0.34,1.75,0,2.94h-0.28
			C360.65,409.75,360.5,408.61,360.36,407.98z M359.29,407.98h0.3c0.12,0.52,0.34,1.75,0,2.94h-0.28
			C359.58,409.75,359.43,408.61,359.29,407.98z M358.22,407.98h0.3c0.12,0.52,0.34,1.75,0,2.94h-0.28
			C358.51,409.75,358.36,408.61,358.22,407.98z M357.16,407.98h0.3c0.12,0.52,0.34,1.75,0,2.94h-0.28
			C357.45,409.75,357.29,408.61,357.16,407.98z M356.09,407.98h0.3c0.12,0.52,0.34,1.75,0,2.94h-0.28
			C356.38,409.75,356.22,408.61,356.09,407.98z M355.02,407.98h0.3c0.12,0.52,0.34,1.75,0,2.94h-0.28
			C355.31,409.75,355.15,408.61,355.02,407.98z M353.95,407.98h0.3c0.12,0.52,0.34,1.75,0,2.94h-0.28
			C354.24,409.75,354.08,408.61,353.95,407.98z M352.88,407.98h0.3c0.12,0.52,0.34,1.75,0,2.94h-0.28
			C353.17,409.75,353.01,408.61,352.88,407.98z M352.11,410.92h-0.16c-0.1,0-0.17-0.08-0.17-0.17v-2.42v-0.17
			c0-0.1,0.08-0.17,0.17-0.17h0.16C352.23,408.5,352.44,409.73,352.11,410.92z M348.47,409.66c0-0.21-0.04-0.4-0.11-0.58h2.66v0.92
			h-2.59C348.45,409.88,348.47,409.77,348.47,409.66z M346.89,410.48c-0.45,0-0.82-0.37-0.82-0.82s0.37-0.82,0.82-0.82
			c0.45,0,0.82,0.37,0.82,0.82S347.35,410.48,346.89,410.48z M337.43,407.89c0.29-0.05,0.57-0.13,0.84-0.23l7.09,1.63
			c-0.03,0.12-0.05,0.24-0.05,0.36c0,0.02,0,0.03,0,0.05L337.43,407.89z M372.13,408.02c0.04,0.03,0.07,0.08,0.07,0.13v0.29
			C372.18,408.28,372.16,408.14,372.13,408.02z M372.21,410.58v0.12c-0.01,0.02-0.02,0.03-0.03,0.05
			C372.19,410.69,372.2,410.64,372.21,410.58z M374.12,409.37l-0.04-0.38c0.24-0.24,0.86-0.76,1.57-0.76
			c0.45,0.01,0.87,0.27,1.26,0.75l-0.01,0.32c-0.36-0.31-0.83-0.5-1.34-0.5C375,408.8,374.49,409.02,374.12,409.37z M375.56,409.55
			c0.71,0,1.29,0.54,1.29,1.21c0,0.67-0.58,1.21-1.29,1.21c-0.71,0-1.29-0.54-1.29-1.21C374.27,410.1,374.85,409.55,375.56,409.55z
			 M382,405.91c-0.02,0.2-0.01,0.39,0.03,0.58l0.47,2.52h0.84l0.27,0.68c-0.14,0.34-0.28,0.67-0.43,1.01c-0.15,0-0.33,0-0.49-0.01
			l-0.39-0.01v0.89l-0.86,0.55c-0.28,0.02-0.58,0.03-0.78,0.04c0-0.17,0.01-0.43,0.04-0.67c0.72-1.45-0.16-2.89-0.5-3.36l1.37-5.09
			h0.69L382,405.91z M380.09,411.03h-0.06c-0.56,0-1.07-0.34-1.28-0.86c-0.12-0.28-0.14-0.59-0.06-0.88l0.18-0.69h0.74
			C379.86,408.96,380.49,410.02,380.09,411.03z M316.37,407.15l7.05,0.29c4.04,13.16,16.7,22.34,30.9,22.34
			c13.03,0,24.26-7.53,29.34-18.34c0.08-0.02,0.11-0.05,0.16-0.1c0.07-0.07,0.08-0.09,0.59-1.36l0.05-0.14l-0.05-0.13
			c1.38-3.48,2.14-7.24,2.14-11.19c0-4.1-0.81-8.08-2.4-11.84l1.82-0.53c0.77-0.22,1.43-0.73,1.85-1.41l0.04-0.06
			c2,4.69,3.03,9.68,3.03,14.85c0,20.39-16.12,36.98-35.93,36.98C336.09,436.51,319.24,423.65,316.37,407.15z M108.56,398.59
			l6.92,0.29c-0.76,0.92-2.43,2.65-4.1,2.47C110.29,401.23,109.35,400.29,108.56,398.59z M101.43,394.25l0.51-15.95
			c0.37,0.31,0.83,0.5,1.35,0.52l277.96,8.34l-9.44,15.35c-0.83,1.35-2.34,2.2-3.93,2.2h-4.1c0.1-0.11,0.2-0.22,0.28-0.34h2.86
			c1.83,0,3.32-1.49,3.32-3.32s-1.49-3.32-3.32-3.32h-2.63c-1.08-1.68-2.87-2.67-4.85-2.69c-0.24-0.03-3.99-0.55-5.52,1.95
			c-0.87-0.07-3.75-0.15-5.36,1.28c-0.73,0.65-1.1,1.53-1.1,2.6h0.02c0,0.06-0.02,0.11-0.02,0.17c0,1.83,1.49,3.32,3.32,3.32h3.95
			c0.09,0.12,0.19,0.23,0.28,0.34h-11.93c-1.31,0-2.58,0.48-3.56,1.35c-0.9,0.8-2.05,1.21-3.25,1.16l-231.66-9.55
			C102.8,397.6,101.38,396.06,101.43,394.25z M101.43,375.25c-0.41-0.52-1.03-0.87-1.75-0.87h-0.01v-1.33
			c0.95-1.18,2.24-2.13,3.74-2.75c1.54-0.64,2.61-1.48,3.38-2.42c0.03,0.06,0.06,0.12,0.1,0.18c0.39,0.55,1.01,0.89,1.69,0.92
			l200.22,8.74c0.38,0.01,0.76-0.07,1.1-0.24l4.11-2.09c0.29-0.15,0.54-0.35,0.74-0.6c2.6-3.33,26.2-32.09,55.43-17.56
			c0.1,0.05,0.2,0.08,0.3,0.11c1.59,1.21,3.73,5.1,3.75,5.14l0.19,0.35l0.05-0.03c1.37,1.76,9,11.19,16.15,11.77
			c0.12,0.1,0.24,0.19,0.38,0.26c0.98,0.58,2.39,1.49,3.64,2.59h-5.13c-0.52,0-1,0.26-1.29,0.69l-2.82,4.19
			c-0.38,0.56-1.01,0.88-1.69,0.86l-4.06-0.13c-1.02-1.84-6.47-10.3-19.91-10.3c-0.14,0-13.53,0.21-21.62,8.95L102.96,374
			c-0.71,0-1.36,0.48-1.52,1.18L101.43,375.25z M84.93,377.59c4.26,0.73,7.37,0.79,7.45,0.79l7.29-0.22v-3.03h0.01
			c0.81,0,1.46,0.66,1.46,1.46c0,0.2,0.03,0.39,0.08,0.58l-0.55,17.05c-0.01,0.46,0.07,0.9,0.2,1.32L91.17,395
			c-0.56-0.03-1.11-0.2-1.59-0.5l-1.45-0.9c-0.55-0.34-0.99-0.83-1.27-1.42l-1.21-2.55c-0.2-0.42-0.31-0.86-0.32-1.32L84.93,377.59z
			 M63.04,364.78c-0.04-0.07-4.64-8.86-2.92-18.99c0-0.01,0-0.12,0.01-0.3l0.16-0.22l-0.14-0.1c0.15-2.47,1.08-12.2,6.86-27.92
			c0.37,0.06,0.73,0.1,1.08,0.13l0.26,0.02l0.97-1.96c1.84-0.13,3.56,0.38,4.29,0.63c-0.86,1.95-4.92,11.42-6.98,19.79
			c-0.18,0.67-4.4,16.58-0.81,24.18c0.13,0.41,3.95,10.88,27.16,12.27l5.95,0.92v4.2l-6.54,0.2
			C92.17,377.62,70.4,377.2,63.04,364.78z M69.42,396.93c-0.06-14.67-8-20.01-8.34-20.23l-0.41,0.63c0.08,0.05,7.68,5.2,7.99,18.93
			L68,395.69c-0.57-0.5-1.31-0.74-2.06-0.75l-0.1,0c0-0.01,0-0.02,0-0.04l-0.34,0.04l-1.97,0.04c-0.62,0.02-1.23-0.16-1.75-0.49
			l-2.43-1.53c0,0,0,0,0,0c0-0.02-0.01-0.04-0.01-0.06l-0.07,0.02c-0.23-0.12-0.48-0.2-0.74-0.2h-0.67c-0.62,0-1.15,0.46-1.23,1.07
			l-0.1,0.74c-0.03,0.23-0.15,0.44-0.33,0.58l-4.59,3.7c-0.32,0.26-0.74,0.36-1.14,0.3l2.74-11.6c0.44-1.88-0.38-3.8-2.01-4.8
			l0.11-0.44c1.17-0.07,1.37-0.46,1.45-0.63c0.29-0.6-0.31-1.28-0.86-1.79l0.27-1.13c1.21-0.05,1.4-0.43,1.48-0.62
			c0.27-0.59-0.31-1.23-0.91-1.75l0.27-1.13c1.03-0.1,1.2-0.44,1.28-0.62c0.26-0.56-0.25-1.17-0.74-1.62l0.25-1.04
			c0.89-0.01,1.18-0.26,1.31-0.52c0.28-0.55-0.23-1.18-0.78-1.7l0.28-1.17c0.32,0.05,0.61,0.08,0.83,0.08
			c0.55,0,0.83-0.14,0.95-0.42c0.18-0.44-0.19-0.94-1.28-1.73l0.37-1.52c0.31,0.04,0.59,0.07,0.8,0.07c0.53,0,0.8-0.13,0.91-0.41
			c0.16-0.41-0.19-0.85-1.25-1.55l0.39-1.62c0.29,0.04,0.54,0.06,0.73,0.06c0.7,0,0.81-0.22,0.87-0.34
			c0.14-0.28,0.03-0.58-0.39-0.98c2.35,0.83,3.67,2.38,3.81,2.55c0.57,1.48,1.03,2.35,1.04,2.38c2.48,4.18,6.51,7.03,10.83,8.99
			c0.24,0.32,8.54,11.8,4.95,29.35c-0.04,0.19-0.17,0.33-0.35,0.39c-0.19,0.06-0.39,0.02-0.54-0.11L69.42,396.93z M0.75,397.4
			c0-13.96,9.36-27.46,22.79-32.91l0.93,0.8c0.15,0.2,0.9,1.16,2.39,2.57c0.36,0.34,0.62,0.79,0.73,1.27l0.47,2.01
			c-10.9,3.66-18.78,15.09-18.78,27.33c0,15.23,12.59,27.63,28.06,27.63c14.88,0,27.14-11.83,28.53-27.51
			c0.09-1.05,0.11-2.01,0.05-2.89l0.04,0c0.57-0.02,1.12,0.19,1.55,0.56l3.99,3.48c-1.41,18.23-16.97,32.49-35.51,32.49
			C16.56,432.23,0.75,416.6,0.75,397.4z"/>
		<path class="st2" d="M183.27,9.32c0,0.82,0.67,1.49,1.49,1.49c0.82,0,1.49-0.67,1.49-1.49c0-0.82-0.67-1.49-1.49-1.49
			C183.93,7.83,183.27,8.5,183.27,9.32z M184.52,8.63c0.08-0.03,0.15-0.05,0.24-0.05c0.41,0,0.74,0.33,0.74,0.74
			c0,0.38-0.29,0.68-0.66,0.72C184.95,9.38,184.77,8.92,184.52,8.63z M184.02,9.32c0-0.03,0.01-0.05,0.02-0.08
			c0.05,0.1,0.09,0.24,0.08,0.42C184.06,9.56,184.02,9.44,184.02,9.32z"/>
		<path class="st2" d="M148.12,14.17c-0.09,0.28-0.34,0.42-0.89,0.42c-0.37,0-0.88-0.06-1.56-0.19l0.13-0.74
			c0.66,0.12,1.07,0.16,1.33,0.17c-0.51-0.38-1.6-0.99-2.55-1.45c-0.25-0.09-0.41-0.12-0.5-0.13c0.06,0.17,0.23,0.47,0.41,0.7
			l-0.6,0.46c-0.32-0.41-0.81-1.18-0.47-1.65c0.34-0.47,1.11-0.2,1.44-0.08C148.38,13.36,148.2,13.91,148.12,14.17z"/>
	</g>
</g>
</svg>
