<?xml version="1.0" encoding="utf-8"?>
<!-- Generator: Adobe Illustrator 23.0.0, SVG Export Plug-In . SVG Version: 6.00 Build 0)  -->
<svg version="1.1" id="레이어_1" xmlns="http://www.w3.org/2000/svg" xmlns:xlink="http://www.w3.org/1999/xlink" x="0px"
	 y="0px" viewBox="0 0 29 164.94" style="enable-background:new 0 0 29 164.94;" xml:space="preserve">
<style type="text/css">
	.st0{opacity:0.5;fill:#FFFFFF;}
	.st1{fill:#2A2B2A;}
	.st2{fill:#212221;}
	.st3{fill:#727272;}
	.st4{fill:#353535;}
	.st5{fill:#444445;}
	.st6{fill:#F7B236;}
</style>
<g>
	<g>
		<circle class="st0" cx="14.5" cy="14.5" r="14.5"/>
		<circle id="XMLID_8_" class="st1" cx="14.5" cy="14.5" r="11.5"/>
		
			<ellipse id="XMLID_7_" transform="matrix(0.2315 -0.9728 0.9728 0.2315 -2.9631 25.2484)" class="st2" cx="14.5" cy="14.5" rx="8.64" ry="8.64"/>
		
			<ellipse id="XMLID_3_" transform="matrix(0.2205 -0.9754 0.9754 0.2205 -2.8399 25.4461)" class="st3" cx="14.5" cy="14.5" rx="7.35" ry="7.35"/>
		
			<ellipse id="XMLID_2_" transform="matrix(0.2308 -0.973 0.973 0.2308 -2.9544 25.2625)" class="st4" cx="14.5" cy="14.5" rx="4.86" ry="4.86"/>
		<path id="XMLID_1_" class="st5" d="M16.83,14.5c0,1.29-1.04,2.33-2.33,2.33c-1.29,0-2.33-1.04-2.33-2.33
			c0-1.29,1.04-2.33,2.33-2.33C15.79,12.17,16.83,13.21,16.83,14.5z"/>
	</g>
	<g>
		<circle class="st0" cx="14.5" cy="49.6" r="10.05"/>
		<circle class="st6" cx="14.5" cy="49.6" r="7.05"/>
	</g>
	<g>
		<circle class="st0" cx="14.5" cy="84.69" r="10.05"/>
		<circle class="st6" cx="14.5" cy="84.69" r="7.05"/>
	</g>
	<g>
		<circle class="st0" cx="14.5" cy="119.79" r="10.05"/>
		<circle class="st6" cx="14.5" cy="119.79" r="7.05"/>
	</g>
	<g>
		<circle class="st0" cx="14.5" cy="154.89" r="10.05"/>
		<circle class="st6" cx="14.5" cy="154.89" r="7.05"/>
	</g>
</g>
</svg>
