<?xml version="1.0" encoding="utf-8"?>
<!-- Generator: Adobe Illustrator 23.0.0, SVG Export Plug-In . SVG Version: 6.00 Build 0)  -->
<svg version="1.1" id="레이어_1" xmlns="http://www.w3.org/2000/svg" xmlns:xlink="http://www.w3.org/1999/xlink" x="0px"
	 y="0px" viewBox="0 0 318.22 374.46" style="enable-background:new 0 0 318.22 374.46;" xml:space="preserve">
<style type="text/css">
	.st0{fill:#FFFFFF;}
	.st1{opacity:0.3;}
	.st2{fill:#282828;}
</style>
<g>
	<path class="st0" d="M231.02,348.07l4.03-1.05c0.37-0.1,0.72-0.25,1.04-0.45l9.27-5.85c0.62-0.39,0.99-1.06,0.99-1.8v-4.8
		c0-0.14-0.02-0.26-0.04-0.39l0.04-0.25l-0.11-0.02c-0.15-0.45-0.44-0.85-0.85-1.11l-2.13-1.4c5.85-14.09,14.17-23.31,20.26-28.65
		l-0.06,0.09c-0.31,0.44-0.46,0.96-0.46,1.49v2.1c0,0.42,0.1,0.83,0.29,1.2l0.36,0.7c-1.71,1.3-13.83,10.94-14.63,24.6l-0.01,0.14
		l0.09,0.09c0.09,0.09,2.25,2.14,4.73,2.38c-1.29,12.67,4.49,21.98,9.58,27.57c6.01,6.6,14.42,10.62,23.07,11.04
		c0.53,0.02,1.06,0.04,1.57,0.04c12.34,0,19.07-7.07,19.12-7.13c14.52-13.25,10.55-31.66,10.52-31.84
		c-3.42-18.09-18.19-24.74-20.68-25.74l1.49-2.04c0.14-0.19,0.22-0.42,0.22-0.67v-0.6c0-0.43-0.24-0.83-0.63-1.02l-3.77-1.86
		c-0.15-0.07-0.29-0.12-0.45-0.15l-5-1.09c-0.12-0.22-0.26-0.43-0.42-0.63l-1.16-1.5c-0.55-0.73-1.28-1.32-2.1-1.73l-4.36-2.15
		v-0.55l6.39-0.83c0.65-0.08,1.22-0.41,1.63-0.92l1.33-1.68c0.35-0.44,0.54-0.99,0.54-1.54v-2.87c0-0.46-0.11-0.88-0.32-1.22
		c-1.41-2.32-3.76-3.55-4.42-3.86l-0.09-1.76c-0.02-0.36-0.12-0.71-0.31-1.02l-0.54-0.96l-0.08-1.6c-0.02-0.33-0.11-0.66-0.26-0.95
		l-9.74-18.11c-0.12-0.22-0.27-0.42-0.46-0.6l-1.07-1c-0.31-0.29-0.7-0.5-1.13-0.59l-1.3-0.26c0.31-0.65,0.38-1.27,0.2-1.85
		c-0.36-1.15-1.57-1.81-2.38-2.15l0.02-0.01c0.83-0.3,1.43-1.06,1.52-1.92c0.27-2.51,1.83-3.99,3.09-4.78
		c0.87-0.54,1.46-1.38,1.66-2.37l0.75-3.55c0.06-0.29,0.09-0.58,0.08-0.86c-0.17-5.24-2.1-15.28-5.01-27.82l0.4-1.71
		c0.08-0.31,0.1-0.59,0.08-0.87c-0.63-11.5-13.26-52.16-15.79-60.19c-0.22-0.7-0.8-1.22-1.51-1.37l-0.08-0.02
		c-8.8-31.23-17.05-58.6-17.77-61.01c-0.09-0.28-0.28-0.53-0.52-0.69l-0.31-0.19c-0.18-0.11-0.29-0.29-0.31-0.5l-0.08-0.85
		c-0.06-0.67-0.63-1.17-1.32-1.13c-0.44,0.02-0.85,0.28-1.05,0.68l-1.62,3.09l-0.23,1.65l-2.09,1.25l-4.29-18.15
		c1.5-1.19,3.05-5.72,3.82-8.26l6.79-6.29c0.26-0.24,0.41-0.58,0.41-0.94v-3.5c0-0.27-0.08-0.52-0.23-0.74l-1.88-2.63
		c1.4-1.98,2.61-3.31,2.74-3.45l9.04-6.68c0.08,0.01,0.16,0.03,0.25,0.04c0.18,0.02,0.36,0.04,0.55,0.04c0.91,0,1.81-0.27,2.59-0.78
		c1.83-1.19,4.94-3.66,5.31-6.86c0.22-0.65,0.33-1.34,0.33-2.06c0-0.55-0.07-1.09-0.21-1.61l7.26-13.14
		c0.97-0.66,1.75-1.59,2.24-2.7l0.57-1.29c1.44-3.25-0.04-7.06-3.28-8.5c-1.57-0.69-3.32-0.74-4.93-0.12
		c-1.6,0.62-2.87,1.83-3.57,3.4l-0.57,1.29c-0.3,0.68-0.47,1.4-0.53,2.13l-6.66,14.33v-0.04l-0.14-0.91l-0.17-0.05
		c-1.3-0.43-2.28-2.88-2.55-3.62c-0.06-0.18-0.22-0.3-0.41-0.32c-0.19-0.02-0.36,0.06-0.46,0.22l-2.67,3.98
		c-0.18,0.26-0.26,0.58-0.23,0.89c0.06,0.85,0.36,2.44,1.67,3.62c0.27,0.25,0.61,0.39,0.97,0.43l-0.68,0.73
		c-0.52,0.56-0.86,1.24-0.98,1.98c-0.16,0.99-0.29,2.58,0.14,4.16L217.1,48.27c-0.04,0.03-2.75,2.08-3.52,6.45
		c-0.32,0.36-2.37,2.68-2.42,4.86c-0.01,0.41-0.11,0.77-0.29,1.08c-0.78,1.29-1.88,4.1-0.76,8.63l-0.17,0.13
		c-0.18-0.68-0.28-1.31-0.32-1.69l-0.04-0.11c-0.02-0.03-0.38-0.66-1.03-0.72c-0.46-0.04-0.9,0.21-1.34,0.74l-0.09,0.11l1.15,4.92
		c0.12,0.52,0.42,0.99,0.85,1.32c1.29,0.98,1.86,1.4,2.15,1.56l0.8,3.36l0.16-0.14l0.14,0.13l3.61,16.38l-0.22,0.26
		c-0.2,0.24-0.31,0.55-0.3,0.86l0.01,0.7c-0.83,0.76-1.67,1.61-2.43,2.57c-0.39,0.49-0.53,1.16-0.38,1.8l0.41,1.66l-0.53,0.54v0.01
		c-0.54,0.55-0.82,1.85-0.82,3.15c0,1.7,0.48,3.42,1.4,3.42c0.02,0,0.03-0.01,0.04-0.01l0.12-0.01c0-0.01,0.01-0.01,0.01-0.01
		l1.48-0.19l24.98,101.58l-2.41,0.73c-0.02,0.01-0.05,0.01-0.08,0.01l-1.69-0.09c-0.4-0.04-0.75,0.24-0.85,0.63l-0.19,0.8
		c-0.04,0.15-0.03,0.31,0.02,0.45l1.52,4.63c0.2,0.59,0.75,0.97,1.34,0.97c0.12,0,0.23-0.02,0.35-0.05l3.76-0.98l0.14,1.07
		l-0.87,1.23c-0.82,1.15-1.09,2.58-0.75,3.95l3.98,16.08c0.21,0.82,0.74,1.52,1.47,1.93c4.59,2.54,7.72,7.77,8.58,9.31
		c0.22,0.41,0.55,0.76,0.96,1c0.44,0.27,0.94,0.42,1.46,0.42c0.02,0,0.04,0,0.05,0h0.06c-0.33,0.55-0.75,1.51-0.52,2.63
		c0.12,0.58,0.47,1.06,0.94,1.39l-4.36,1v2.6c0,0.36,0.15,0.7,0.4,0.93c0.21,0.19,0.45,0.55,0.55,1.14h-0.1
		c-0.67,0-1.3,0.29-1.74,0.81l-0.49,0.59c-0.22,0.26-0.33,0.58-0.33,0.91c0.01,1.72-0.01,7.57-0.41,10.7
		c-0.12,0.96-0.63,1.82-1.42,2.41l-6.27,4.7c-0.6,0.45-0.96,1.17-0.96,1.93c0,0.62,0.23,1.2,0.65,1.65l1.04,1.11
		c0.09,0.1,0.2,0.18,0.31,0.26c-1.94,2.64-18.65,25.63-24.32,38.28l-129.6,0.96h-0.33l-2.69-3.34c-0.09-0.11-0.19-0.21-0.31-0.3
		l-3.65-2.73c-0.3-0.22-0.67-0.35-1.05-0.35h-2.32c-0.21,0-0.42,0.04-0.62,0.12l-1.21,0.46c-2.55-1.44-5.44-8.61-5.46-8.68
		l-0.06-0.09c-0.09-0.09-7.87-8.19-15.23-13.9v-0.01c-0.02-0.01-0.03-0.02-0.05-0.03c-1.3-1.01-2.59-1.94-3.82-2.75
		c-0.47-0.31-1.03-0.49-1.62-0.53l-6.22-0.38c-0.49-0.03-0.97,0.09-1.4,0.35l-2.28,1.42l-0.06,0.05c-0.21,0.22-0.45,0.64-0.42,1.1
		c-1.62,0.23-9.41,1.43-16.84,3.89c-0.48,0.16-0.96,0.36-1.44,0.6c-3.58,1.82-15.5,8.09-19.47,12.95H2.09L0,317.21v1.29h8.57
		l0.06-0.01c0.14-0.03,3.34-0.79,5.1-2.52c0.44-0.43,0.97-0.93,1.61-1.29c1.16-0.67,2.98-1.66,5.1-2.61
		c-9.85,5.87-16.13,16.81-16.13,28.97c0,18.43,14.45,33.42,32.21,33.42c15.07,0,28.27-11.04,31.47-26.28
		c0.09,0.01,0.18,0.01,0.28,0.01h161.82C230.41,348.19,230.72,348.15,231.02,348.07z M38.28,332.77c-0.11,0.19-0.31,0.29-0.53,0.28
		c-1.07-0.06-3.14,0.26-4.28,0.46c-0.21,0.04-0.41-0.04-0.53-0.21l-5.03-6.73c2.52-1.44,5.45-2.27,8.56-2.27
		c2.15,0,4.25,0.41,6.21,1.17L38.28,332.77z M28.95,335.97c0.15,0.18,0.24,0.41,0.26,0.65l0.07,0.97c0.01,0.19-0.02,0.39-0.11,0.56
		l-0.76,1.62l-3.64,1.81l0.23,0.2v1.27c-0.39,0.21-1.69,0.87-3.48,1.75c-0.12,0.06-0.24,0.1-0.37,0.12
		c-0.46,0.08-0.93-0.09-1.24-0.44l-0.68-0.76c-0.08-0.68-0.12-1.37-0.12-2.08c0-4.59,1.79-8.77,4.72-11.87L28.95,335.97z
		 M22.56,350.26c0.14-0.48,0.49-0.86,0.94-1.06c2.82-1.22,3.77-1.64,4.1-1.79c1.17,1.02,2.73,1.98,4.67,2.34
		c0.52,0.09,1.05,0.14,1.58,0.14c0.16,0,0.33-0.02,0.49-0.03l0.47,7.1c0.03,0.42-0.16,0.82-0.49,1.07l-0.94,0.7
		c-4.26-0.76-7.99-3.09-10.56-6.37l-0.29-1.23C22.46,350.85,22.47,350.54,22.56,350.26z M39.97,356.84
		c-0.06-0.16-0.09-0.32-0.11-0.49c-0.21-3.35-0.45-7.26-0.49-8.1c0.89-0.51,1.78-1.12,2.68-1.87c0.56-0.46,1.19-0.82,1.86-1.05
		l6.07,1.43c0.48,0.11,0.9,0.39,1.22,0.76c0.27,0.33,0.44,0.73,0.49,1.15l0.13,1.03c-2.14,4.04-5.83,7.13-10.22,8.51l-0.78-0.4
		C40.43,357.61,40.12,357.26,39.97,356.84z"/>
	<g class="st1">
		<path class="st2" d="M254.48,245.5c-0.4-0.11-0.81-0.13-1.21-0.06l-0.5,0.08l-0.23,0.63l0.85,0.6l0.34-0.48l-0.36-0.26
			c0.32-0.05,0.65-0.04,0.97,0.05l3.29,0.87l0.02,0.38l-0.24,0.09l-1.48-0.34l-0.13,0.57l1.65,0.38l0.81-0.29l-0.07-1.24
			L254.48,245.5z"/>
		<path class="st2" d="M259.43,267.38c0-1.31-1.06-2.37-2.37-2.37c-1.31,0-2.37,1.06-2.37,2.37c0,1.31,1.06,2.37,2.37,2.37
			C258.36,269.75,259.43,268.69,259.43,267.38z M255.28,267.38c0-0.98,0.8-1.78,1.78-1.78c0.98,0,1.78,0.8,1.78,1.78
			c0,0.98-0.8,1.78-1.78,1.78C256.08,269.16,255.28,268.36,255.28,267.38z"/>
		<path class="st2" d="M258.71,267.57c0-0.74-0.6-1.34-1.34-1.34c-0.74,0-1.34,0.6-1.34,1.34s0.6,1.34,1.34,1.34
			C258.12,268.91,258.71,268.31,258.71,267.57z M256.63,267.57c0-0.41,0.34-0.75,0.75-0.75c0.41,0,0.75,0.34,0.75,0.75
			s-0.34,0.75-0.75,0.75C256.97,268.32,256.63,267.99,256.63,267.57z"/>
		<path class="st2" d="M282.66,287.41l0.04-0.1c0.33-0.86,0.14-1.84-0.5-2.5c-0.33-0.35-0.76-0.58-1.23-0.68l-11.48-2.43
			c-0.43-0.09-0.88-0.05-1.29,0.11l-1.09,0.43c-0.5,0.2-0.91,0.57-1.16,1.05l-2.43,4.68c-0.15,0.28-0.23,0.58-0.25,0.9
			c-0.04,0.71,0.02,1.65,0.54,2.07c0.13,0.11,0.34,0.21,0.62,0.21c0.12,0,0.25-0.02,0.39-0.06c2.93-0.83,12.88-1.87,15.86-2.17
			C281.58,288.83,282.33,288.25,282.66,287.41z M264.04,288.24l2.43-4.68c0.18-0.35,0.49-0.63,0.86-0.77l1.09-0.43
			c0.2-0.08,0.4-0.12,0.61-0.12c0.11,0,0.23,0.01,0.34,0.04l9.3,1.97l0,0.01c0.34,0.07,0.64,0.22,0.88,0.45
			c0.44,0.43,0.58,1.06,0.35,1.6l-0.04,0.09c-0.23,0.55-0.77,0.92-1.41,0.98c-3.36,0.31-11.33,1.1-14.61,1.79
			c0-0.08,0-0.17,0.01-0.26C263.87,288.67,263.93,288.45,264.04,288.24z M264.67,290.53c-0.32,0.09-0.44-0.01-0.49-0.05
			c-0.15-0.12-0.25-0.38-0.3-0.73c3.18-0.69,11.24-1.48,14.63-1.8c0.85-0.08,1.58-0.59,1.89-1.34l0.04-0.09
			c0.28-0.66,0.18-1.39-0.24-1.97l0.65,0.14c0.35,0.07,0.67,0.25,0.92,0.51c0.48,0.5,0.62,1.24,0.38,1.88l-0.04,0.1
			c-0.24,0.63-0.81,1.07-1.49,1.13C276.79,288.72,267.57,289.71,264.67,290.53z"/>
		<path class="st2" d="M285.44,291.52c1.62,0,2.94-1.32,2.94-2.94s-1.32-2.94-2.94-2.94c-1.62,0-2.94,1.32-2.94,2.94
			S283.82,291.52,285.44,291.52z M285.44,286.22c1.3,0,2.36,1.06,2.36,2.36s-1.06,2.36-2.36,2.36c-1.3,0-2.36-1.06-2.36-2.36
			S284.14,286.22,285.44,286.22z"/>
		<path class="st2" d="M76.97,334.81c1.25,0,2.27-1.02,2.27-2.27s-1.02-2.27-2.27-2.27c-1.25,0-2.27,1.02-2.27,2.27
			S75.72,334.81,76.97,334.81z M76.97,330.85c0.93,0,1.69,0.76,1.69,1.69s-0.76,1.69-1.69,1.69c-0.93,0-1.69-0.76-1.69-1.69
			S76.04,330.85,76.97,330.85z"/>
		<path class="st2" d="M33.22,340.74c-1.95,0-3.54,1.59-3.54,3.54c0,1.95,1.59,3.54,3.54,3.54c1.95,0,3.54-1.59,3.54-3.54
			C36.75,342.33,35.17,340.74,33.22,340.74z M33.22,347.23c-1.63,0-2.95-1.32-2.95-2.95c0-1.63,1.32-2.95,2.95-2.95
			c1.63,0,2.95,1.32,2.95,2.95C36.17,345.9,34.84,347.23,33.22,347.23z"/>
		<path class="st2" d="M317.7,334.75c-3.42-18.09-18.19-24.74-20.68-25.74l1.48-2.03c0.14-0.2,0.22-0.43,0.22-0.67v-0.6
			c0-0.44-0.24-0.83-0.63-1.02l-3.77-1.86c-0.14-0.07-0.3-0.12-0.45-0.16l-5-1.09c-0.13-0.22-0.26-0.43-0.42-0.64l-1.15-1.5
			c-0.56-0.73-1.28-1.32-2.1-1.73l-4.37-2.15v-0.55l6.4-0.82c0.64-0.08,1.22-0.41,1.63-0.92l1.34-1.68
			c0.35-0.44,0.54-0.99,0.54-1.55v-2.87c0-0.45-0.11-0.88-0.32-1.22c-1.4-2.31-3.76-3.55-4.42-3.86l-0.09-1.76
			c-0.02-0.36-0.12-0.71-0.3-1.03l-0.54-0.95l-0.08-1.61c-0.02-0.33-0.11-0.65-0.26-0.94l-9.74-18.11
			c-0.12-0.22-0.27-0.42-0.46-0.59l-1.07-1.01c-0.32-0.3-0.71-0.5-1.13-0.59l-1.3-0.27c0.31-0.65,0.38-1.27,0.2-1.85
			c-0.35-1.15-1.57-1.81-2.38-2.15l0.02-0.01c0.83-0.3,1.42-1.06,1.52-1.92c0.27-2.52,1.83-3.99,3.09-4.78
			c0.86-0.54,1.45-1.38,1.66-2.37l0.74-3.55c0.06-0.29,0.09-0.58,0.08-0.86c-0.17-5.24-2.1-15.28-5.02-27.82l0.4-1.71
			c0.07-0.3,0.1-0.59,0.08-0.88c-0.64-11.5-13.27-52.16-15.79-60.2c-0.22-0.69-0.8-1.22-1.51-1.37l-0.09-0.02
			c-8.79-31.23-17.05-58.59-17.78-61.01c-0.09-0.28-0.27-0.53-0.52-0.69l-0.3-0.2c-0.17-0.11-0.29-0.29-0.31-0.5l-0.08-0.85
			c-0.06-0.67-0.63-1.17-1.31-1.14c-0.44,0.02-0.85,0.28-1.05,0.67l-1.62,3.09l-0.24,1.65l-2.09,1.25l-4.29-18.15
			c1.51-1.19,3.05-5.72,3.82-8.26l6.8-6.29c0.26-0.24,0.41-0.58,0.41-0.94v-3.5c0-0.27-0.08-0.53-0.24-0.74l-1.88-2.63
			c1.4-1.98,2.61-3.3,2.74-3.45l9.03-6.68c0.08,0.01,0.16,0.03,0.25,0.04c0.18,0.02,0.36,0.03,0.55,0.03c0.91,0,1.81-0.27,2.59-0.77
			c1.82-1.19,4.93-3.66,5.31-6.86c0.22-0.65,0.34-1.34,0.34-2.07c0-0.55-0.07-1.09-0.21-1.61l7.26-13.13
			c0.98-0.67,1.75-1.59,2.24-2.7l0.57-1.29c1.44-3.25-0.03-7.06-3.28-8.5c-1.57-0.7-3.32-0.74-4.93-0.12
			c-1.6,0.62-2.87,1.83-3.57,3.4l-0.57,1.29c-0.3,0.68-0.47,1.4-0.53,2.12l-6.66,14.33l0-0.03l-0.14-0.91l-0.17-0.06
			c-1.3-0.42-2.28-2.88-2.55-3.62c-0.06-0.18-0.22-0.3-0.4-0.32c-0.19-0.02-0.36,0.06-0.47,0.21l-2.66,3.97
			c-0.18,0.27-0.26,0.58-0.24,0.9c0.06,0.85,0.36,2.44,1.67,3.62c0.27,0.24,0.61,0.39,0.97,0.43l-0.68,0.73
			c-0.52,0.56-0.86,1.25-0.98,1.98c-0.16,0.99-0.3,2.58,0.14,4.16L217.1,48.28c-0.04,0.03-2.75,2.08-3.52,6.44
			c-0.33,0.36-2.38,2.68-2.42,4.86c-0.01,0.4-0.11,0.77-0.3,1.08c-0.78,1.29-1.88,4.1-0.76,8.63l-0.17,0.13
			c-0.18-0.68-0.28-1.31-0.32-1.69l-0.04-0.11c-0.02-0.03-0.38-0.66-1.03-0.72c-0.46-0.04-0.91,0.21-1.34,0.74l-0.09,0.11l1.15,4.92
			c0.12,0.53,0.43,1,0.86,1.32c1.29,0.98,1.86,1.4,2.14,1.56l0.8,3.36l0.17-0.14l0.14,0.13l3.6,16.37l-0.22,0.26
			c-0.2,0.24-0.3,0.55-0.3,0.86l0.01,0.7c-0.84,0.76-1.67,1.62-2.43,2.57c-0.39,0.49-0.53,1.17-0.38,1.8l0.41,1.66l-0.53,0.54l0,0
			c-0.54,0.55-0.82,1.85-0.82,3.15c0,1.7,0.48,3.42,1.4,3.42c0.01,0,0.03,0,0.04,0l0,0l0.12-0.02c0,0,0.01,0,0.01,0l1.48-0.2
			l24.98,101.59l-2.41,0.73c-0.03,0.01-0.05,0.01-0.08,0.01l-1.69-0.09c-0.4-0.04-0.75,0.24-0.85,0.63l-0.19,0.8
			c-0.04,0.15-0.03,0.31,0.02,0.45l1.52,4.63c0.19,0.59,0.75,0.97,1.34,0.97c0.12,0,0.24-0.01,0.35-0.05l3.76-0.98l0.14,1.07
			l-0.87,1.23c-0.81,1.15-1.08,2.59-0.75,3.95l3.97,16.08c0.2,0.82,0.74,1.52,1.47,1.92c4.58,2.54,7.72,7.77,8.58,9.32
			c0.23,0.41,0.56,0.75,0.96,1c0.44,0.27,0.94,0.42,1.46,0.42c0.02,0,0.03,0,0.05,0l0.07,0c-0.33,0.55-0.75,1.51-0.52,2.63
			c0.12,0.58,0.47,1.06,0.94,1.39l-4.36,1.01v2.6c0,0.35,0.15,0.69,0.4,0.93c0.21,0.2,0.45,0.55,0.55,1.14h-0.1
			c-0.67,0-1.31,0.3-1.74,0.81l-0.5,0.6c-0.21,0.25-0.33,0.58-0.33,0.91c0.01,1.72-0.01,7.57-0.41,10.71
			c-0.12,0.96-0.63,1.82-1.41,2.41l-6.27,4.71c-0.6,0.45-0.96,1.17-0.96,1.93c0,0.62,0.23,1.2,0.65,1.65l1.04,1.1
			c0.09,0.1,0.2,0.19,0.31,0.27c-1.93,2.64-18.64,25.63-24.32,38.28l-129.6,0.96h-0.33l-2.69-3.34c-0.09-0.11-0.2-0.21-0.31-0.3
			l-3.64-2.73c-0.3-0.23-0.67-0.35-1.05-0.35h-2.32c-0.21,0-0.42,0.04-0.62,0.11l-1.21,0.46c-2.55-1.44-5.43-8.61-5.46-8.68
			l-0.06-0.09c-0.09-0.1-7.88-8.19-15.23-13.9l0,0c-0.02-0.01-0.03-0.02-0.04-0.03c-1.3-1.01-2.59-1.95-3.82-2.75
			c-0.47-0.31-1.03-0.49-1.62-0.53l-6.22-0.38c-0.49-0.03-0.98,0.09-1.4,0.35l-2.28,1.42l-0.06,0.05c-0.2,0.22-0.44,0.64-0.41,1.11
			c-1.62,0.23-9.41,1.43-16.84,3.89c-0.47,0.16-0.96,0.36-1.44,0.6c-3.58,1.82-15.5,8.09-19.47,12.95H2.09L0,317.2v1.29h8.57
			l0.07-0.01c0.14-0.03,3.34-0.79,5.1-2.53c0.44-0.44,0.98-0.93,1.61-1.29c1.16-0.67,2.98-1.65,5.1-2.61
			c-9.86,5.87-16.13,16.81-16.13,28.98c0,18.43,14.45,33.42,32.21,33.42c15.07,0,28.27-11.04,31.47-26.28
			c0.09,0,0.18,0.01,0.28,0.01h161.82c0.31,0,0.63-0.04,0.93-0.12l4.03-1.05c0.37-0.1,0.72-0.25,1.04-0.45l9.26-5.85
			c0.62-0.39,0.99-1.06,0.99-1.79v-4.81c0-0.13-0.02-0.26-0.04-0.39l0.04-0.25l-0.11-0.02c-0.15-0.45-0.44-0.85-0.85-1.11l-2.13-1.4
			c5.85-14.08,14.17-23.31,20.26-28.65l-0.06,0.09c-0.3,0.44-0.47,0.96-0.47,1.49v2.1c0,0.41,0.1,0.83,0.29,1.2l0.36,0.7
			c-1.72,1.3-13.83,10.94-14.63,24.6l-0.01,0.14l0.1,0.09c0.09,0.09,2.25,2.13,4.72,2.38c-1.29,12.67,4.49,21.98,9.58,27.57
			c6.01,6.6,14.42,10.62,23.07,11.04c0.53,0.03,1.06,0.04,1.57,0.04c12.35,0,19.07-7.07,19.13-7.13
			C321.7,353.34,317.74,334.93,317.7,334.75z M290.19,305.46l2.94,0.39c0.1,0.01,0.21,0.04,0.31,0.08l3.99,1.52l-1.11,1.53
			c-0.09,0.12-0.21,0.2-0.36,0.22l-4.5,0.71C290.98,308.2,290.55,306.7,290.19,305.46z M293.74,303.24
			c0.11,0.02,0.21,0.06,0.31,0.11l3.77,1.86c0.19,0.09,0.31,0.29,0.31,0.49v0.6c0,0.12-0.04,0.23-0.11,0.32l-0.24,0.33l-4.14-1.58
			c-0.14-0.05-0.29-0.09-0.44-0.11l-3.2-0.42c-0.24-0.81-0.44-1.48-0.58-1.98c-0.06-0.21-0.14-0.41-0.22-0.61L293.74,303.24z
			 M273.04,256.52l1.07,1c0.14,0.13,0.25,0.28,0.34,0.44l9.74,18.11c0.11,0.21,0.18,0.45,0.19,0.69l0.02,0.45l-10.77-18.9
			c-0.14-0.25-0.33-0.47-0.55-0.65l-2.31-1.88l1.42,0.29C272.51,256.15,272.81,256.3,273.04,256.52z M273.15,244.03
			c-1.37,0.86-3.07,2.46-3.36,5.21c-0.07,0.64-0.51,1.21-1.13,1.43l-5.62,2.05c-1.75-3.89-1.29-13.68-1.17-15.64
			c0.01-0.2-0.01-0.4-0.05-0.6l1.58-0.27c1.2-0.21,2.42,0.04,3.44,0.68c4.6,2.91,7.29,5.37,7.09,6.45
			C273.69,243.61,273.45,243.84,273.15,244.03z M255.06,147.32c2.52,8.02,15.13,48.62,15.76,60.05c0.01,0.23-0.01,0.46-0.07,0.71
			l-0.13,0.56c-4.24-18.05-10.44-40.98-16.41-62.21C254.61,146.59,254.93,146.91,255.06,147.32z M233.07,86.13
			c0,0,0.4-0.15,0.7,0.03c0.29,0.18,0.39,0.63,0.42,0.99l0.02,0.13l-4.79,3.7l-0.55-2.33L233.07,86.13z M235.76,131.34l-0.19,0.11
			l4.95,21.97l0.07,0.29l0.23-0.06c0.4,0.09,2.71,0.7,2.77,3.44l0.59-0.01c-0.05-1.94-1.09-2.97-1.99-3.49
			c0.42,0.03,0.92,0.11,1.49,0.26l14.62,61.84c0.02,0.09,0.03,0.18,0.01,0.26c-0.06,0.45-0.32,1.57-1.33,2.2
			c-0.96,0.61-2.36,0.63-4.15,0.07c-0.03-0.01-0.05-0.03-0.06-0.06L216.92,71.14c0.53-0.47,3.3-2.71,6.8-1.71L238,129.85
			C237.43,130.31,236.7,130.81,235.76,131.34z M212.42,77.86l-0.6-2.51c0.12-0.24,0.98-1.53,5-2.12l0.79,3.22
			C215.34,76.01,213.25,77.27,212.42,77.86z M213.98,61.4l-0.47,0.54c0.16-0.26,0.31-0.48,0.44-0.65
			C213.96,61.32,213.97,61.36,213.98,61.4z M214.49,61.71c0.38-0.21,3.27-1.71,6.8-1.69l0.37,0.28l2.03,7.3
			c-4.18-0.66-6.85,1.22-7.8,2.06l-1.78-7.51L214.49,61.71z M223.78,68.22l-0.07,0.6c-3.49-0.91-6.29,1.14-7.11,1.83l-0.45-0.43
			C216.87,69.56,219.54,67.49,223.78,68.22z M216.58,72.25c-2.22,0.18-3.86,0.97-4.53,1.35l-0.25-0.81c0.72-0.37,3.16-1.53,4.64-1.1
			L216.58,72.25z M229.56,91.61l4.73-3.65l1.95,14.07c0,0,0.09,0.46-0.28,0.99c-0.36,0.53-1.25,1.21-3.33,1.55L229.56,91.61z
			 M234.65,54.92l-6.08,5.62c0.01-0.02,0.02-0.06,0.02-0.08c0.05-0.18,0.07-0.37,0.06-0.57c-0.1-1.55,0.18-3.15,0.68-4.71l3.91-2.1
			c0.65-0.35,1.21-0.84,1.63-1.44v2.76C234.87,54.6,234.79,54.79,234.65,54.92z M234.74,50.51c0.03,0.03,0.04,0.07,0.06,0.11
			c-0.03,0.05-0.05,0.1-0.09,0.18c-0.39,0.76-1,1.37-1.74,1.77l-3.36,1.8c0.86-2.34,2.16-4.55,3.38-6.32L234.74,50.51z
			 M228.07,59.93c0.01,0.13,0,0.25-0.04,0.37c-0.97,3.45-2.49,7.67-3.75,8.96l-0.02-0.08l0.09-0.86l0.15,0.03l-2.34-8.41l-0.53-0.39
			c-0.69-2.35,0.19-4.92,2.21-6.41l10.18-7.53C231.69,48.57,227.72,54.47,228.07,59.93z M253.56,27.78c0,3.3-2.68,5.98-5.98,5.98
			c-3.3,0-5.98-2.68-5.98-5.98c0-1.76,0.79-3.42,2.11-4.54l-0.96,2.06c-0.08,0.18-0.14,0.37-0.16,0.56
			c-0.1,0.75-0.19,2.69,0.98,4.34c0.74,1.04,1.95,1.71,3.33,1.83c0.19,0.02,0.39,0.03,0.6,0.03c1.14,0,2.58-0.3,3.89-1.48
			c0.16-0.15,0.31-0.33,0.43-0.55l1.69-3.06C253.54,27.23,253.56,27.5,253.56,27.78z M251.3,29.73c-0.09,0.16-0.19,0.3-0.31,0.4
			c-1.39,1.26-2.96,1.41-4.04,1.31c-1.21-0.11-2.27-0.69-2.9-1.59c-1.05-1.48-0.96-3.24-0.88-3.92c0.02-0.14,0.05-0.26,0.11-0.39
			l7.89-16.98c0.07,0.5,0.19,1,0.37,1.49c0.62,1.6,1.83,2.87,3.4,3.57c0.83,0.37,1.72,0.56,2.61,0.56c0.78,0,1.57-0.14,2.32-0.44
			c0.12-0.05,0.23-0.1,0.35-0.16L251.3,29.73z M259.67,13.19c-1.46,0.56-3.05,0.52-4.48-0.11c-1.43-0.63-2.53-1.78-3.09-3.24
			c-0.33-0.86-0.45-1.77-0.36-2.66c0.06,0.54,0.19,1.07,0.39,1.59c0.62,1.6,1.83,2.87,3.4,3.57c0.83,0.37,1.72,0.56,2.61,0.56
			c0.78,0,1.57-0.14,2.32-0.44c0.52-0.2,1-0.47,1.44-0.78C261.28,12.33,260.53,12.86,259.67,13.19z M258.14,0.59
			c0.79,0,1.59,0.16,2.36,0.5c2.95,1.31,4.29,4.77,2.98,7.72c-1.31,2.95-4.77,4.29-7.72,2.98c-1.43-0.63-2.53-1.79-3.09-3.24
			s-0.52-3.05,0.11-4.48C253.74,1.89,255.89,0.59,258.14,0.59z M241.13,17.33c0.4,1.07,1.35,3.16,2.68,3.74l0.05,0.29l-0.77-0.07
			c-0.21-0.02-0.39-0.08-0.52-0.18c-1.13-0.87-1.73-2.63-1.86-3.14L241.13,17.33z M240.68,25.19c-0.28,0-0.56-0.1-0.77-0.29
			c-1.15-1.04-1.42-2.47-1.48-3.23c-0.01-0.19,0.03-0.37,0.14-0.53l1.7-2.54c0.31,0.91,1.04,2.27,1.93,2.96
			c0.22,0.17,0.51,0.27,0.83,0.3l0.86,0.07v0.41c-0.4,0.27-0.77,0.58-1.1,0.93l-0.01-0.01l-1.78,1.91H240.68z M239.41,28.57
			c0.1-0.62,0.39-1.2,0.83-1.68l1.13-1.22c-0.23,0.67-0.36,1.38-0.36,2.11c0,3.62,2.95,6.57,6.57,6.57c1.79,0,3.41-0.72,4.59-1.88
			c-1.11,1.67-2.83,2.98-3.99,3.74c-0.82,0.53-1.79,0.76-2.74,0.65c-2.28-0.27-3.96-1.1-4.98-2.47
			C239.02,32.48,239.18,29.92,239.41,28.57z M217.45,48.75l21.71-15.53c0.2,0.53,0.46,1.04,0.82,1.52c0.96,1.27,2.41,2.12,4.33,2.52
			l-20.81,15.4c-2.13,1.58-3.1,4.24-2.5,6.77c-3.07,0.06-5.62,1.17-6.51,1.61C212.38,52.6,217.4,48.79,217.45,48.75z M210.29,69.88
			l0.32-0.23l-0.11-0.15l0.24-0.06c-1.24-4.66,0.03-7.48,0.63-8.47c0.24-0.4,0.37-0.86,0.38-1.37c0.03-1.38,1.02-2.9,1.69-3.78
			c-0.12,1.38-0.05,2.96,0.34,4.74c-0.49,0.57-2.57,3.23-1.99,6.68l0.58-0.1c-0.36-2.15,0.43-4.01,1.11-5.14l2.09,8.83l0.17-0.19
			l0.41,0.39c-1.75-0.19-4.07,0.95-4.69,1.28c-0.5-0.33-0.88-1.01-1.17-1.76L210.29,69.88z M209.04,67.86
			c0.07,0.55,0.56,3.98,2.17,4.97l0.18,0.58l-1.47-0.85c-1.14-3.19-1.28-4.55-1.27-5.04C208.84,67.6,208.98,67.78,209.04,67.86z
			 M208.84,72.53l-1.08-4.63c0.09-0.1,0.2-0.2,0.31-0.27c0.02,0.7,0.24,2.19,1.33,5.24l0.04,0.1l2.45,1.42
			c-0.24,0.21-0.39,0.4-0.49,0.55c-0.25-0.17-0.78-0.54-1.92-1.41C209.16,73.28,208.93,72.93,208.84,72.53z M212.93,78.68
			l-0.02-0.09l-0.21-0.2c0.73-0.53,2.87-1.87,5.07-1.3l3.85,15.78c-0.15,0.07-0.37,0.19-0.66,0.34l-0.82-0.13
			c-0.27-0.04-0.56,0.01-0.8,0.15l-2.85,1.66L212.93,78.68z M216.05,96.38c0-0.17,0.06-0.34,0.17-0.48l0.27-0.33l3.15-1.84
			c0.12-0.07,0.27-0.1,0.41-0.08l0.09,0.01c-1.09,0.64-2.57,1.6-4.09,2.9L216.05,96.38z M213.23,101.32
			c-0.03-0.11-0.04-0.22-0.04-0.33c0.1-0.18,0.48-0.75,1.1-0.75c0.65,0.02,2.05,0.74,4.04,5.41l0.54-0.23
			c-1.62-3.79-3.16-5.73-4.58-5.76c-0.01,0-0.02,0-0.04,0c-0.21,0-0.39,0.05-0.55,0.11c2.98-3.62,6.92-5.75,8.05-6.31l30.04,123.2
			c-2.42,1.36-6.16,1.77-8.2,1.9c-0.3,0.02-0.59-0.05-0.86-0.17l0.66-0.17l-0.85-4.69c-0.03-0.17-0.09-0.32-0.18-0.45
			c-0.3-0.45-1.07-1.42-2.03-1.55l-25.03-101.76l1.49-1.88c0.17-0.22,0.27-0.49,0.27-0.77c-0.04-3.04-1.24-4.42-1.95-4.98
			c-0.35-0.27-0.85-0.23-1.16,0.09l-0.4,0.4L213.23,101.32z M239.1,217.68l-0.44-3.06c-0.03-0.2-0.1-0.39-0.2-0.56l-0.75-1.23
			l2.44-0.75c0.8,0,1.52,1,1.73,1.31c0.05,0.07,0.08,0.14,0.09,0.23l0.75,4.16l-3.94,1.02C239.03,218.51,239.16,218.1,239.1,217.68z
			 M214.83,109.42l-0.83,0.11c0.34-0.66,0.52-1.69,0.52-2.71c0-1.44-0.35-2.89-1.01-3.3l0.86-0.88c0.1-0.11,0.27-0.12,0.38-0.04
			c0.63,0.49,1.69,1.73,1.72,4.53c0,0.14-0.05,0.28-0.14,0.4L214.83,109.42z M212.31,106.82c0-1.83,0.53-2.83,0.81-2.83
			c0.27,0,0.81,1,0.81,2.83c0,1.82-0.52,2.81-0.8,2.83l-0.01,0C212.84,109.64,212.31,108.64,212.31,106.82z M235.1,213.95
			c-0.01-0.04-0.02-0.09-0.01-0.13l0.19-0.8c0.03-0.11,0.12-0.18,0.23-0.18c0,0,0.01,0,0.01,0l1.54,0.08l0.88,1.45
			c0.06,0.1,0.1,0.21,0.12,0.33l0.44,3.06c0.06,0.39-0.16,0.77-0.52,0.92c-0.55,0.23-0.99,0.28-1.23,0.16
			c-0.06-0.07-0.11-0.16-0.14-0.26L235.1,213.95z M241.27,221.35l1.01-1.42l-0.16-1.21c0.4,0.28,0.87,0.43,1.37,0.43
			c0.05,0,0.1,0,0.14,0c2.06-0.13,5.79-0.54,8.31-1.89l0.25,1.05c0.05,0.23,0.23,0.41,0.45,0.48c0.91,0.29,1.74,0.43,2.48,0.43
			c0.84,0,1.57-0.19,2.16-0.56c1.22-0.77,1.52-2.09,1.6-2.62c0.02-0.15,0.01-0.31-0.02-0.47l-14.53-61.49
			c1.98,0.71,4.61,2.4,7.29,6.3l0.48-0.33c-5.01-7.31-9.83-7.19-11.06-7.01l-4.71-20.93l0.12,0.05l0.12-0.06
			c0.18-0.09,4.38-2.14,5.11-5.58l-0.57-0.12c-0.18,0.85-0.61,1.61-1.14,2.27c0.87-1.3,0.48-2.1,0.45-2.16l-0.52,0.27
			c0.01,0.01,0.43,1-1.38,2.66l-5.74-24.28c1.82-0.31,3.06-0.91,3.68-1.79c0.52-0.75,0.38-1.42,0.38-1.43l-2.05-14.83
			c-0.06-0.7-0.3-1.18-0.7-1.43c-0.56-0.34-1.19-0.09-1.26-0.05l-1.35,0.81l0.14-1.04l1.59-3.05c0.11-0.21,0.33-0.35,0.56-0.36
			c0.36-0.02,0.67,0.25,0.7,0.61l0.08,0.85c0.04,0.39,0.25,0.73,0.57,0.94l0.3,0.2c0.14,0.09,0.23,0.21,0.28,0.37
			c1.59,5.26,38.9,128.98,39.67,152.84c0.01,0.23-0.01,0.47-0.07,0.72l-0.74,3.55c-0.04,0.2-0.1,0.39-0.18,0.57
			c-0.58-1.45-3-3.53-7.23-6.21c-1.14-0.72-2.51-1-3.85-0.76l-1.61,0.28l-3.73-14.87l0.24-0.5c6.06-1.18,6.2-11.34,6.2-11.77
			l-0.59,0c0,0.1-0.13,10.26-5.86,11.22l-0.15,0.03l-0.36,0.74c-1.36,0.37-13.08,3.47-16.84,2.14
			C240.71,222.35,240.93,221.82,241.27,221.35z M240.61,224.82c-0.11-0.44-0.15-0.9-0.11-1.34c0.71,0.23,1.64,0.34,2.72,0.34
			c4.9,0,12.59-2.01,14.2-2.44l3.7,14.74c-9.25,5.98-15.25,5.68-16.17,5.59c-0.17-0.24-0.3-0.51-0.37-0.8L240.61,224.82z
			 M256.51,253.11c-0.41-0.01-0.83-0.11-1.19-0.33c-0.32-0.2-0.58-0.47-0.75-0.79c-0.87-1.58-4.09-6.93-8.81-9.54
			c-0.06-0.04-0.12-0.08-0.18-0.13c2.03,0.05,7.57-0.42,15.67-5.61c0.01,0.11,0.02,0.22,0.02,0.33c-0.11,1.97-0.58,11.78,1.2,15.85
			c-0.25,0.07-0.51,0.11-0.77,0.12L256.51,253.11z M257.31,253.69l4.4-0.08c0.43-0.01,0.86-0.09,1.27-0.24l5.02-1.83
			c0.03,0.01,0.07,0.03,0.12,0.05c0.59,0.23,2.17,0.83,2.52,1.98c0.18,0.59,0.01,1.26-0.5,2c-0.22,0.32-0.57,0.55-0.98,0.65
			l-4.97,1.19c-1.16,0.28-2.34,0.38-3.53,0.31l-2.39-0.14c-0.79-0.05-1.46-0.6-1.61-1.35C256.39,255,257.09,253.97,257.31,253.69z
			 M257.94,258.11c0.09,0.02,0.19,0.03,0.29,0.04l2.39,0.14c0.25,0.01,0.5,0.02,0.76,0.02c0.99,0,1.98-0.12,2.94-0.35l4.97-1.19
			c0.41-0.1,0.77-0.3,1.06-0.57l2.35,1.92c0.17,0.14,0.31,0.3,0.41,0.49l11.96,20.98c0.13,0.23,0.21,0.5,0.22,0.77l0.08,1.5
			l-1.92-0.7v-1.22c0-0.81-0.22-1.6-0.62-2.3l-10.46-17.94c-0.05-0.09-0.12-0.18-0.19-0.26l-0.54-0.63
			c-0.25-0.29-0.58-0.49-0.95-0.57l-0.8-0.18c-0.44-0.1-0.9-0.06-1.33,0.12c-5.25,2.14-11.4,2.67-13.16,2.78
			c-0.21,0.01-0.43-0.08-0.57-0.24l-1.35-1.57L257.94,258.11z M272.18,278.68l-5.5-19.2c0.71-0.23,1.41-0.48,2.1-0.76
			c0.32-0.13,0.66-0.16,0.98-0.09l0.8,0.18c0.25,0.06,0.47,0.19,0.64,0.38l0.54,0.63c0.05,0.06,0.09,0.11,0.13,0.18l10.46,17.94
			c0.35,0.61,0.54,1.3,0.54,2.01v1.04C278.64,279.85,275.11,279.13,272.18,278.68z M253.24,261.33v-1.57l1.15,1.34
			c0.02,0.03,0.05,0.05,0.08,0.07v2.2h0.59v-1.86c0.13,0.03,0.26,0.05,0.39,0.04c1.49-0.09,6.09-0.48,10.68-1.88l5.42,18.93
			c-2.92-0.42-5.2-0.56-6.92-0.56c-2.25,0-3.57,0.23-4.17,0.38v-10.87c0-0.43-0.1-0.86-0.3-1.25l-0.28-0.54
			c-0.27-0.53-0.71-0.96-1.24-1.22l-0.37-0.18c-0.14-0.07-0.29-0.12-0.44-0.17l0,0c0,0-0.01,0-0.02,0c-0.24-0.07-0.5-0.11-0.75-0.11
			h-1.35c-0.95,0-1.8,0.49-2.22,1.27c-0.14,0.27-0.24,0.54-0.32,0.8c-0.16-1.19,0.87-1.83,0.93-1.87l0.14-0.09v-0.17
			c0-1.2-0.43-1.85-0.79-2.18C253.32,261.7,253.24,261.52,253.24,261.33z M223.99,329.14h-3.17c6.04-13.34,23.17-38.13,24.58-40.15
			c0.32,0.02,0.69,0.04,1.1,0.09c-0.03,0.7,0.03,2.48,1.24,3.44C243.57,297.78,234.18,310.38,223.99,329.14z M248.12,292.05
			c-0.96-0.77-1.04-2.26-1.02-2.9c0.93,0.14,1.93,0.4,2.72,0.84C249.51,290.33,248.94,291.02,248.12,292.05z M250.19,289.51
			c-1.44-0.84-3.56-1.07-4.81-1.12v-0.37c0-0.49,0.24-0.95,0.65-1.23l5.92-4.03c0.33-0.23,0.59-0.5,0.77-0.82
			c1.81-3.3,1.53-13.42,1.51-13.84c0-1.31,0.35-2.26,1.03-2.81c0.88-0.72,2.08-0.59,2.38-0.55c0.13,0.04,0.25,0.07,0.37,0.13
			l0.37,0.18c0.42,0.2,0.76,0.54,0.97,0.96l0.28,0.54c0.15,0.3,0.24,0.64,0.24,0.98v11.1l-2.25,1.49c-0.36,0.23-0.67,0.52-0.92,0.86
			L250.19,289.51z M242.96,286.71c-0.32-0.34-0.5-0.78-0.5-1.25c0-0.58,0.26-1.11,0.73-1.46l6.27-4.71c0.91-0.69,1.5-1.68,1.64-2.81
			c0.41-3.17,0.42-9.05,0.42-10.78c0-0.19,0.07-0.38,0.19-0.53l0.5-0.6c0.32-0.38,0.79-0.6,1.29-0.6c-0.53,0.46-1.5,1.61-0.52,3.34
			l-0.02,4.88l-0.7,0.74c-0.02,0.02-0.05,0.03-0.08,0.02c-0.03-0.01-0.05-0.04-0.05-0.07v-7.01h-0.59v7.01
			c0,0.27,0.16,0.51,0.42,0.61c0.08,0.03,0.16,0.05,0.25,0.05c0.18,0,0.35-0.07,0.48-0.21l0.7-0.74c0.12-0.12,0.18-0.29,0.18-0.46
			v-4.89c0-0.01,0.03-0.89,0.43-1.65c0.2-0.37,0.53-0.66,0.94-0.82c-0.02,0.01-0.03,0.02-0.05,0.04c-0.83,0.67-1.25,1.78-1.25,3.28
			c0,0.1,0.3,10.39-1.44,13.55c-0.13,0.24-0.33,0.44-0.58,0.62l-5.92,4.03c-0.57,0.39-0.91,1.03-0.91,1.71v0.28
			c-0.3-0.09-0.58-0.25-0.8-0.49L242.96,286.71z M244.75,288.9c-2.3,3.33-18.79,27.32-24.56,40.24h-0.97
			c4.51-11.98,23.34-37.85,25.18-40.36C244.51,288.83,244.63,288.87,244.75,288.9z M71.78,313.15c0.06,0.32,0.23,1.58-0.61,2.06
			l-0.78-0.15c-0.85-0.88-9.75-10.02-17.5-15.14c-0.24-0.16-0.39-0.43-0.39-0.72v-1.13c0.03-0.1,0.17-0.47,0.5-0.66
			c0.25-0.14,0.57-0.15,0.96-0.04c0.79,0.55,1.59,1.14,2.4,1.77c-0.19,0.16-0.44,0.39-0.8,0.72c-0.14,0.13-0.21,0.31-0.19,0.5
			c0.02,0.19,0.12,0.35,0.28,0.45c0.74,0.45,2.57,1.64,3.61,2.79c0.14,0.16,0.34,0.24,0.54,0.24c0.14,0,0.29-0.04,0.41-0.13
			c0.36-0.26,0.61-0.53,0.75-0.78C66.42,307.64,71.22,312.57,71.78,313.15z M60.51,302.51c-0.07,0.2-0.29,0.45-0.64,0.7
			c-0.05,0.04-0.12,0.03-0.17-0.02c-1.09-1.21-2.97-2.42-3.73-2.91c0.45-0.41,0.73-0.66,0.88-0.78
			C58.06,300.45,59.3,301.47,60.51,302.51z M41.94,297.54l7.11,0.67c0.09,0.06,0.21,0.16,0.21,0.22c0,0.01-0.02,0.05-0.06,0.09
			h-7.27C41.62,298.13,41.81,297.73,41.94,297.54z M15.06,314.16c-0.69,0.4-1.26,0.92-1.73,1.38c-1.55,1.53-4.46,2.28-4.79,2.36
			H0.59v-0.42l1.7-1.32h1.28h0.14h4.32c0.46,0,0.92-0.06,1.37-0.17l2.19-0.56l-0.15-0.57l-2.19,0.56c-0.4,0.1-0.81,0.15-1.22,0.15
			H4.2c4.32-4.85,16.49-11.17,18.96-12.42c0.45-0.23,0.91-0.42,1.36-0.57c7.55-2.5,15.48-3.69,16.84-3.88
			c0.06,0.1,0.14,0.21,0.24,0.31l0.09,0.09h7.53l20.04,17.43c0.29,0.26,0.69,0.35,1.06,0.24c0.27-0.07,0.55,0.06,0.67,0.31
			c0.9,1.94,3.31,6.55,6.28,7.56l0.19-0.56c-2.84-0.96-5.26-5.79-5.94-7.25c-0.24-0.51-0.81-0.77-1.35-0.63
			c-0.19,0.05-0.38,0.01-0.52-0.12l-19.9-17.31c0.1-0.16,0.12-0.3,0.11-0.41c-0.04-0.43-0.52-0.68-0.58-0.71l-6.58-0.64l1.55-0.96
			c0.32-0.2,0.68-0.29,1.05-0.27l6.22,0.38c0.49,0.03,0.95,0.18,1.34,0.43c0.07,0.04,0.14,0.09,0.21,0.14
			c-0.12,0.03-0.24,0.08-0.34,0.14c-0.61,0.35-0.78,1.04-0.79,1.07l-0.01,1.24c0,0.49,0.24,0.94,0.65,1.21
			c8.05,5.32,17.37,15.03,17.46,15.12l0.06,0.07l1.16,0.23l0.09-0.04c0.61-0.29,0.89-0.82,1-1.34c1.01,2.26,3.2,6.67,5.29,7.71
			l0.12,0.06l1.45-0.55c0.13-0.05,0.27-0.08,0.41-0.08h2.32c0.25,0,0.5,0.08,0.69,0.23l3.64,2.73c0.08,0.06,0.15,0.13,0.21,0.2
			l2.75,3.41l0.98,2.85h0.9l-2.54,4.05c-0.21,0.34-0.57,0.54-0.97,0.54h-0.56l-2.57-5.72c-0.1-0.23-0.27-0.43-0.48-0.57l-2.62-1.82
			c-0.08-0.05-0.16-0.1-0.25-0.14l-2.6-1.11c-0.17-0.07-0.31-0.2-0.4-0.36c-0.25-0.45-0.72-0.74-1.23-0.74h-1.28
			c-0.35,0-0.69,0.13-0.95,0.37l-4.52,4.18l-0.38,1.69l0.05,0.1c0.76,1.37,1.22,2.33,1.51,2.99c-0.18-0.09-0.37-0.15-0.58-0.15
			h-1.54c-0.95-2.7-2.11-5.12-3.43-7.28c-0.02-0.04-0.03-0.07-0.04-0.11l-0.02,0.01c-11.11-18.07-33.23-18.3-33.69-18.3
			c0,0,0,0-0.01,0c-1.7-0.14-3.57,0.13-5.46,0.6l0,0c-0.01,0-0.01,0-0.02,0.01C21.95,310.41,17.3,312.88,15.06,314.16z
			 M72.34,335.53c-0.09-0.4-0.46-1.52-1.89-4.12l3.93-3.3c0.49-0.41,1.11-0.63,1.75-0.63h0.31c0.52,0,1.04,0.13,1.5,0.38l5.07,2.76
			c0.18,0.1,0.32,0.25,0.41,0.43l2.16,4.55H72.63C72.53,335.6,72.43,335.57,72.34,335.53z M86.23,335.6l-2.28-4.8
			c-0.14-0.3-0.37-0.54-0.66-0.69l-5.07-2.76c-0.54-0.3-1.16-0.45-1.78-0.45h-0.31c-0.77,0-1.53,0.27-2.12,0.77l-3.45,2.88
			l0.12-0.54l4.38-4.05c0.15-0.14,0.35-0.22,0.55-0.22h1.28c0.3,0,0.58,0.16,0.72,0.43c0.15,0.28,0.39,0.5,0.68,0.63l2.6,1.11
			c0.05,0.02,0.1,0.05,0.15,0.08l2.62,1.82c0.12,0.08,0.22,0.2,0.28,0.33l2.46,5.47H86.23z M68.08,334.32
			c-0.21-1.08-0.48-2.15-0.8-3.2c0.47,1.02,0.9,2.09,1.3,3.2H68.08z M36.53,373.87c-17.44,0-31.62-14.73-31.62-32.83
			c0-14.26,8.76-26.79,21.79-31.22c1.84-0.46,3.66-0.72,5.3-0.59c0,0,0,0,0,0c0.4,0,22.31,0.19,33.25,18.08
			c0.99,2.24,1.74,4.6,2.22,7.01h-5.84c-0.67,0-1.35-0.07-2-0.22l-4.97-1.1c-3.59-8.17-11.43-13.44-20.01-13.44
			c-12.15,0-22.03,10.36-22.03,23.08c0,12.73,9.88,23.08,22.03,23.08c11.4,0,20.96-9.22,21.94-21.06l3.82,1.87
			c0.71,0.35,1.47,0.6,2.24,0.74l4.01,0.75c0.24,0.05,0.49,0.08,0.74,0.1C64.23,363.07,51.29,373.87,36.53,373.87z M45.68,333.41
			c-0.67,0.19-1.18,0.72-1.34,1.4l-0.37,1.55c-0.15,0.65,0.04,1.31,0.51,1.78l0.95,0.95c0.15,0.15,0.32,0.27,0.51,0.36l7.8,3.82
			c-0.01,0.1-0.02,0.21-0.03,0.31c-4.6,0.17-7.5,0.6-9.16,0.95c-1.04,0.22-2.03,0.7-2.87,1.39c-3.24,2.68-6.37,3.77-9.29,3.24
			c-2.91-0.53-4.96-2.58-6.01-3.9v-2.76l18.19-9c0.16-0.08,0.32-0.12,0.5-0.13l1.01-0.06c-0.05,0.01-0.1,0.02-0.14,0.03
			L45.68,333.41z M54.32,343.57c-0.01,0-0.02,0-0.03,0c0,0,0-0.01,0-0.01L54.32,343.57z M25.78,342.46v2.01
			c-0.09-0.13-0.16-0.24-0.2-0.3v-1.87L25.78,342.46z M25.04,344.39c0.05,0.1,0.77,1.32,2.09,2.58c-0.49,0.22-1.56,0.69-3.86,1.68
			c-0.61,0.27-1.08,0.79-1.27,1.43c-0.1,0.34-0.12,0.7-0.06,1.05c-1.24-1.89-2.12-4.03-2.54-6.34l0.08,0.08
			c0.37,0.42,0.9,0.65,1.45,0.65c0.11,0,0.22-0.01,0.33-0.03c0.19-0.03,0.36-0.09,0.53-0.17c1.77-0.87,2.72-1.34,3.22-1.61v0.6
			L25.04,344.39z M22.82,352.36l-0.29-1.22c-0.07-0.29-0.06-0.59,0.03-0.88c0.14-0.48,0.49-0.86,0.94-1.06
			c2.82-1.22,3.77-1.64,4.1-1.79c1.17,1.01,2.73,1.98,4.67,2.33c0.52,0.1,1.05,0.14,1.58,0.14c0.16,0,0.33-0.02,0.5-0.03l0.47,7.1
			c0.03,0.42-0.16,0.82-0.5,1.07l-0.94,0.7C29.12,357.96,25.39,355.64,22.82,352.36z M34.67,358.5c0.5-0.37,0.77-0.96,0.73-1.58
			l-0.47-7.1c1.27-0.15,2.56-0.57,3.87-1.25c0.09,1.58,0.4,6.68,0.48,7.82c0.01,0.22,0.06,0.45,0.14,0.66
			c0.2,0.56,0.61,1.02,1.14,1.29l0.22,0.11c-1.38,0.36-2.83,0.56-4.32,0.56c-0.77,0-1.52-0.06-2.27-0.15L34.67,358.5z M41.6,358.22
			l-0.77-0.4c-0.4-0.21-0.7-0.55-0.85-0.97c-0.06-0.16-0.09-0.33-0.1-0.5c-0.21-3.34-0.44-7.26-0.49-8.1
			c0.88-0.51,1.78-1.12,2.68-1.87c0.56-0.46,1.19-0.82,1.86-1.05l6.07,1.43c0.48,0.11,0.91,0.38,1.22,0.76
			c0.27,0.33,0.44,0.73,0.49,1.15l0.13,1.03C49.68,353.74,45.99,356.84,41.6,358.22z M52.29,348.74l-0.02-0.14
			c-0.06-0.53-0.28-1.04-0.62-1.45c-0.39-0.48-0.94-0.82-1.54-0.96l-4.96-1.17c1.69-0.32,4.39-0.68,8.47-0.83
			C53.39,345.78,52.94,347.31,52.29,348.74z M24.77,341.59l0.23,0.2v1.27c-0.39,0.21-1.69,0.87-3.48,1.75
			c-0.12,0.06-0.24,0.1-0.37,0.12c-0.47,0.08-0.93-0.08-1.24-0.44l-0.68-0.76c-0.08-0.68-0.13-1.37-0.13-2.08
			c0-4.59,1.8-8.77,4.72-11.88l5.13,6.19c0.15,0.18,0.24,0.41,0.26,0.65l0.07,0.97c0.01,0.19-0.02,0.39-0.11,0.57l-0.76,1.62
			L24.77,341.59z M29.7,338.4c0.13-0.27,0.18-0.56,0.16-0.86l-0.07-0.97c-0.03-0.36-0.16-0.7-0.39-0.98l-5.17-6.24
			c0.95-0.95,2.01-1.78,3.16-2.49l5.07,6.79c0.22,0.29,0.55,0.46,0.91,0.46c0.06,0,0.13-0.01,0.19-0.02c0.9-0.15,3.1-0.5,4.15-0.45
			c0.44,0.03,0.85-0.19,1.07-0.57l4.43-7.38c3.14,1.34,5.88,3.59,7.78,6.51l-4.11-0.91c-0.68-0.15-1.39-0.06-2.01,0.25l-15.63,7.81
			L29.7,338.4z M27.9,326.56c2.53-1.44,5.45-2.26,8.56-2.26c2.15,0,4.25,0.41,6.21,1.17l-4.38,7.3c-0.11,0.19-0.31,0.29-0.54,0.28
			c-1.07-0.06-3.14,0.26-4.28,0.46c-0.2,0.04-0.41-0.05-0.53-0.21L27.9,326.56z M51.82,332.38c-3.24-5.35-9.11-8.66-15.36-8.66
			c-9.89,0-17.94,8.05-17.94,17.94c0,9.89,8.05,17.94,17.94,17.94c8.93,0,16.53-6.7,17.76-15.43c0.4-0.01,0.81-0.03,1.24-0.03
			l0.56,0.28c-0.85,11.65-10.21,20.75-21.37,20.75c-11.82,0-21.44-10.09-21.44-22.5s9.62-22.5,21.44-22.5
			c8.21,0,15.71,4.97,19.29,12.69L51.82,332.38z M245.05,340.22l-9.26,5.85c-0.27,0.17-0.56,0.3-0.88,0.38l-4.03,1.05
			c-0.26,0.07-0.52,0.1-0.79,0.1H68.27c-0.5,0-1.01-0.05-1.5-0.14l-4.01-0.75c-0.72-0.14-1.43-0.37-2.09-0.69l-14.47-7.09
			c-0.13-0.06-0.25-0.15-0.35-0.25l-0.95-0.95c-0.33-0.33-0.46-0.79-0.35-1.24l0.37-1.55c0.06-0.25,0.19-0.47,0.37-0.64
			c0.07,0.5,0.36,1.2,1.38,1.77c0.5,0.64,3.82,2.53,24.95,3.91c12.21,0.8,31.98,1.5,63.73,1.5c25.73,0,59.34-0.46,103.15-1.71
			c0.25-0.01,0.49-0.05,0.73-0.13l3.51-1.15c0.22-0.07,0.43-0.17,0.62-0.3l1.93-1.29c0.19-0.13,0.35-0.29,0.48-0.49v2.5
			C245.76,339.45,245.49,339.94,245.05,340.22z M245.07,332.83c0.32,0.21,0.55,0.54,0.64,0.9l-0.28,1.94
			c-0.04,0.31-0.22,0.58-0.47,0.75l-1.93,1.29c-0.15,0.1-0.31,0.18-0.48,0.23l-3.51,1.15c-0.18,0.06-0.37,0.09-0.56,0.1
			c-181.3,5.18-190.91-2.92-191.34-3.45l-0.02-0.09L47,335.59c-1.1-0.59-1.18-1.32-1.15-1.62l0.24-0.07
			c0.14-0.04,0.29-0.06,0.44-0.05l3.17,0.19l0.59-0.87l-3.91-0.45c-0.11-0.01-0.23-0.02-0.34-0.01l-1.02,0.06
			c-0.25,0.02-0.5,0.08-0.72,0.19l-18.18,9l-0.3-0.26l19.33-9.66c0.5-0.25,1.08-0.32,1.62-0.2l12.74,2.81
			c0.7,0.15,1.41,0.23,2.13,0.23h9.11c0.3,0,0.56,0.18,0.67,0.45c0.2,0.5,0.67,0.83,1.21,0.83H87.6c0.6,0,1.15-0.3,1.47-0.81
			l3.1-4.95h-1.54l-0.73-2.12l129.41-0.96c-0.3,0.69-0.56,1.36-0.79,1.98l-0.14,0.39h2h0.19h3.11c-0.81,1.5-1.63,3.04-2.45,4.62
			c-0.12,0.23-0.08,0.52,0.1,0.71l0.79,0.84c0.12,0.12,0.28,0.19,0.45,0.19h18.59l0.34-0.55l0.03-0.06
			c0.48-1.37,0.98-2.69,1.51-3.98L245.07,332.83z M240.98,335.25l-0.15,0.24l-18.28-0.01l-0.8-0.87
			c13.84-26.69,26.95-42.43,28.56-44.32l0.01,0.01l6.83-8.96c0.22-0.28,0.48-0.53,0.78-0.73l2.35-1.55
			c0.45-0.14,6.44-1.83,22.79,2.59l2.51,0.91c0.1,0.05,2.82,1.25,4.31,3.7c0.15,0.25,0.23,0.57,0.23,0.92v2.87
			c0,0.43-0.15,0.85-0.41,1.18l-1.34,1.68c-0.31,0.39-0.75,0.64-1.24,0.7l-12.43,1.6c-2.16,0.28-4.26,1.08-6.06,2.32
			C262.93,301.47,248.76,313.03,240.98,335.25z M268.99,298.01c1.73-1.19,3.73-1.96,5.8-2.22l5.44-0.7v0.84l4.69,2.31
			c0.74,0.36,1.4,0.9,1.9,1.56l0.29,0.38c-3.11,2.89-11.17,4.35-12.78,4.62c-0.25,0.04-0.48,0.13-0.7,0.26l-0.82,0.51l-0.4,0.75
			l0.52,0.28l0.33-0.61l0.68-0.43c0.15-0.09,0.31-0.15,0.48-0.18c1.63-0.27,9.77-1.75,13.05-4.73l0.5,0.66
			c0.31,0.4,0.55,0.84,0.74,1.3c-2.97,4.61-15.45,6.13-15.58,6.15l0.07,0.58c0.52-0.06,12.24-1.48,15.74-6.03
			c1.83,6.17,9.62,33.06,9.17,42.54c-0.3-5.98-2.05-7.39-2.62-7.69l-1.97-8.68c-0.34-2.44-2.43-4.27-4.9-4.27
			c-2.73,0-4.95,2.22-4.95,4.95c0,0.67,0.13,1.31,0.39,1.92l5.83,18.58l-0.08,1c-1.29-0.26-2.46-0.89-3.44-1.61
			c-1.8-2.66-14.67-39.77-14.8-40.14l-0.56,0.19c0.49,1.42,11.12,32.06,14.25,39.04c-0.94-0.86-1.61-1.69-1.93-2.11
			c-0.1-0.13-0.18-0.28-0.24-0.44l-13.52-37.92l-0.38-1.78c-0.27-1.25-0.97-2.37-1.99-3.15l-1.31-1c-0.44-0.34-0.96-0.56-1.51-0.64
			l0.86-1.24C266.7,299.65,267.98,298.71,268.99,298.01z M305.14,331c-0.78,0-1.41,0.63-1.41,1.42c0,0.78,0.63,1.41,1.41,1.41
			c0.72,0,1.31-0.54,1.4-1.23c0.83,1.69,1.5,3.6,1.91,5.76c0.03,0.12,2.63,12.27-6.96,21.02c-0.05,0.05-4.88,5.12-13.73,4.63
			c-5.64-0.31-11.12-2.95-15.05-7.26c-3.29-3.6-5.35-7.62-6.13-11.94c-0.64-3.54-0.28-7.39,1.04-11.12c1.1-3.12,3.16-7.33,6.71-9.92
			l8.21,23.03c0.08,0.22,0.18,0.41,0.32,0.59c0.75,1,3.47,4.28,7.05,4.9l0.46,0.6l3.19,0.03c0.01,0,0.02,0,0.03,0
			c0.6,0,1.2-0.14,1.74-0.4l1-0.49c1.33-0.65,2.18-1.97,2.22-3.45l0.04-1.57c0.69-4.64-1.59-15.65-4.09-25.63
			c1.75,0.73,7.57,3.52,11.25,9.79C305.57,331.06,305.36,331,305.14,331z M305.97,332.41c0,0.46-0.37,0.83-0.83,0.83
			s-0.83-0.37-0.83-0.83s0.37-0.83,0.83-0.83S305.97,331.96,305.97,332.41z M284.34,331.02c-0.06-0.28-0.09-0.58-0.09-0.87
			c0-2.41,1.96-4.36,4.36-4.36c1.84,0,3.44,1.16,4.08,2.81l-0.49-0.42c-0.52-0.45-1.18-0.71-1.87-0.73c-0.7-0.03-1.38,0.2-1.93,0.62
			l-0.22,0.17c-0.62,0.48-1.11,1.12-1.39,1.85c-0.34,0.86-0.39,1.78-0.15,2.67l2.43,9.23l0.57-0.15l-2.43-9.23
			c-0.2-0.77-0.16-1.56,0.13-2.3c0.25-0.63,0.66-1.18,1.2-1.6l0.22-0.17c0.44-0.34,0.99-0.52,1.55-0.5c0.55,0.02,1.09,0.23,1.5,0.59
			l1.13,0.97h0l2.01,8.82l0.04,0.16l0.16,0.05c0.02,0.01,1.81,0.68,2.3,6.07c-0.04-0.05-0.08-0.1-0.14-0.14l-0.31-0.22
			c-0.06-0.05-0.1-0.12-0.1-0.2v-1.72c0-0.25-0.03-0.51-0.1-0.75l-0.09-0.31c-0.23-0.81-0.79-1.48-1.54-1.84
			c-0.07-0.03-0.13-0.05-0.2-0.05l-0.14,0c-0.93-0.02-1.8,0.31-2.48,0.94l-0.22,0.21c-0.48,0.45-0.82,1.02-0.97,1.66
			c-0.1,0.44-0.12,0.89-0.04,1.33l0.13,0.76c0.08,0.48,0.28,0.94,0.56,1.34l0.24,0.34l0.48-0.34l-0.24-0.34
			c-0.23-0.33-0.39-0.71-0.46-1.1l-0.13-0.76c-0.06-0.37-0.05-0.74,0.03-1.1c0.13-0.53,0.4-1,0.8-1.37l0.22-0.21
			c0.56-0.52,1.3-0.8,2.12-0.78l0.04,0c0.61,0.29,1.06,0.83,1.24,1.47l0.09,0.31c0.05,0.19,0.08,0.39,0.08,0.59v1.72
			c0,0.27,0.13,0.52,0.35,0.68l0.31,0.22c0.05,0.03,0.08,0.08,0.1,0.14l0.5,2.04c0.01,0.89-0.01,1.86-0.07,2.94
			c-0.33,0.56-0.82,1.03-1.43,1.33l-1,0.49c-0.47,0.23-0.99,0.35-1.51,0.34l-2.9-0.03l-0.29-0.38l0.11-1.33L284.34,331.02z
			 M263.59,303.87c0-0.42,0.13-0.82,0.36-1.16l0.05-0.07c0.55,0.02,1.1,0.21,1.54,0.55l1.31,1c0.91,0.7,1.54,1.69,1.77,2.81
			l0.2,0.92l-3.59-3.21l-1.08,0.65l0.03,0.19c0.04,0.24,0.19,1.24,0.26,1.64l-0.32,0.29l-0.3-0.59c-0.15-0.29-0.22-0.61-0.22-0.93
			V303.87z M264.78,305.66l0.37-0.22l0.86,0.77l-1.04,0.63C264.91,306.47,264.83,305.94,264.78,305.66z M263.92,308.4l0.01,0.03
			l0.99-0.88l1.55-0.93l2.56,2.29l0.47,1.31c-1.54,0.92-10.94,7.04-15.39,22.41l0.51,0.15c-0.1,0.43-0.2,0.86-0.28,1.3l0.58,0.11
			c2.46-12.8,13.02-21.4,14.97-22.89l1.61,4.52c-6.31,3.74-11.51,15.65-11.72,16.13c-1.26,2.14-5.61,2.56-5.62,2.56
			c-2.07-0.06-4.08-1.74-4.55-2.15C250.46,319.2,262.01,309.86,263.92,308.4z M269.15,311.14c-1.78,1.41-6.56,5.53-10.32,11.68
			C262.74,315.91,267.3,312.37,269.15,311.14z M306.77,366.17c-0.07,0.08-7.18,7.55-20.26,6.92c-8.49-0.41-16.75-4.36-22.66-10.85
			c-5.02-5.51-10.71-14.69-9.42-27.18c0.98-0.12,4.62-0.71,5.88-2.85c0.05-0.12,5.28-12.11,11.39-15.83l2.42,6.79
			c-3.76,2.68-5.91,7.07-7.05,10.3c-1.36,3.83-1.72,7.78-1.07,11.42c0.8,4.43,2.91,8.55,6.27,12.23c4.03,4.42,9.66,7.13,15.45,7.45
			c0.41,0.02,0.82,0.03,1.21,0.03c8.37,0,12.93-4.8,12.96-4.83c9.83-8.97,7.15-21.44,7.12-21.55
			c-2.37-12.52-13.28-17.04-14.69-17.57c-0.93-3.69-1.88-7.21-2.71-10.19l4.44-0.7c0.22-0.04,0.42-0.13,0.59-0.28
			c1.79,0.69,17.02,7.09,20.48,25.38C317.16,335.05,321.05,353.14,306.77,366.17z"/>
		<path class="st2" d="M272.39,329.83c-0.78,0-1.41,0.63-1.41,1.41c0,0.78,0.63,1.42,1.41,1.42s1.41-0.63,1.41-1.42
			C273.8,330.46,273.17,329.83,272.39,329.83z M272.39,332.07c-0.46,0-0.83-0.37-0.83-0.83c0-0.46,0.37-0.83,0.83-0.83
			c0.46,0,0.83,0.37,0.83,0.83C273.22,331.7,272.84,332.07,272.39,332.07z"/>
		<path class="st2" d="M271.96,349.47c-0.78,0-1.41,0.63-1.41,1.42c0,0.78,0.63,1.41,1.41,1.41s1.41-0.63,1.41-1.41
			C273.38,350.1,272.74,349.47,271.96,349.47z M271.96,351.71c-0.46,0-0.83-0.37-0.83-0.83s0.37-0.83,0.83-0.83s0.83,0.37,0.83,0.83
			S272.42,351.71,271.96,351.71z"/>
		<path class="st2" d="M288.26,360.4c-0.78,0-1.41,0.63-1.41,1.42c0,0.78,0.63,1.41,1.41,1.41s1.41-0.63,1.41-1.41
			C289.67,361.03,289.04,360.4,288.26,360.4z M288.26,362.64c-0.46,0-0.83-0.37-0.83-0.83s0.37-0.83,0.83-0.83s0.83,0.37,0.83,0.83
			S288.71,362.64,288.26,362.64z"/>
		<path class="st2" d="M304.85,353.85c0.78,0,1.41-0.63,1.41-1.42c0-0.78-0.63-1.41-1.41-1.41c-0.78,0-1.41,0.63-1.41,1.41
			C303.43,353.22,304.07,353.85,304.85,353.85z M304.85,351.61c0.46,0,0.83,0.37,0.83,0.83s-0.37,0.83-0.83,0.83
			c-0.46,0-0.83-0.37-0.83-0.83S304.39,351.61,304.85,351.61z"/>
	</g>
</g>
</svg>
