<?xml version="1.0" encoding="utf-8"?>
<!-- Generator: Adobe Illustrator 23.0.0, SVG Export Plug-In . SVG Version: 6.00 Build 0)  -->
<svg version="1.1" id="레이어_1" xmlns="http://www.w3.org/2000/svg" xmlns:xlink="http://www.w3.org/1999/xlink" x="0px"
	 y="0px" viewBox="0 0 455.34 508.34" style="enable-background:new 0 0 455.34 508.34;" xml:space="preserve">
<style type="text/css">
	.st0{fill:#FFFFFF;}
	.st1{opacity:0.7;}
	.st2{fill:#282828;}
</style>
<g>
	<path class="st0" d="M378.68,415.44l0.01-3.58h-0.49v-8.17h-2.09l2.21-2.78l6.55-1.23l0.8,1.95c-0.3,0.73-0.5,2.11,0.49,2.99
		c-0.13,0.59-0.38,2.35,0.8,3.41c-0.11,0.56-0.32,2.26,0.61,3.34c-0.12,0.48-0.37,1.86,0.33,3.07l-0.76,2.06l-0.02,6.28
		c-1.43,0.71-11.31,5.92-18.23,16.08c-0.05,0.05-4.54,6.04-6.77,15.22c-0.16,0.68-0.3,1.4-0.4,2.22c-0.29,2.29-0.91,8.27-0.48,14.48
		c0.01,0.24,0.19,2.32,1.42,2.62c0.09,0.02,0.19,0.03,0.29,0.03c0.77,0,1.69-0.71,2.77-2.15c1.74,10.14,7.02,19.42,14.94,26.2
		c8.2,7,18.69,10.86,29.55,10.86c24.88,0,45.13-19.96,45.13-44.5c0-12.18-5.14-23.93-14.1-32.31c0.65-0.44,1.08-0.92,1.31-1.46
		c0.51-1.23-0.34-2.2-0.42-2.28c-11.04-9.06-23.78-10.13-25.45-10.23l-3.24-6.56l-1.13-1.22c0.1-1.95-0.8-2.87-1.22-3.18
		c0.28-1.43-0.36-2.61-0.57-2.95c0.2-1.89-0.49-2.94-0.78-3.29c0.46-2.29-0.39-3.27-0.73-3.56l-0.3-3.13l-9.06-46.43l1.32-1.17
		l-0.68-3.46l-1.69-0.23l-1.11-6.41l1.19-1.19l-0.83-3.29l-1.63-0.51L344.13,68.28c0.54,0.03,0.94-0.13,1.18-0.47
		c0.62-0.86-0.15-2.66-0.56-3.49c0.01,0,0.03,0,0.03,0c7.48-0.65,7.66-7.58,7.66-7.68l-0.76-9.15c1.79-1.59,1.31-8.37,1.25-9.15
		c-0.2-3.9-2.71-5.89-3.41-6.38c0.22-1.25,0.07-2.61-0.01-3.1c0.11-0.15,0.24-0.37,0.42-0.69c0.56-1,0.91-2.17,1.03-3.36
		c0.73-7.56-2.3-10.84-2.87-11.38l-1.11-8.43c-0.25-0.79-0.66-1.51-1.21-2.15c-1.76-2.06-4.37-3.07-7.11-2.81
		c-2.77,0.27-5.22,1.85-6.55,4.22c-0.73,1.3-0.96,2.36-0.97,2.48l0.3,8.31c-0.22,0.34-1.1,1.78-1.74,3.55
		c-1.59,0.07-9.05,0.54-9.05,3.43v2.87l0.04,0.14c0.04,0.09,1.08,2,4.2,2.9c-2.29,0.81-7.81,3.08-10.91,7.04
		c-0.01,0.01-0.01,0.01-0.01,0.01h-0.01c-0.07,0.11-1.8,2.7-0.88,6.91l18.47,92.07c-0.43,0.06-1.29,0.1-2.08-0.43
		c-0.89-0.6-1.44-1.74-1.62-3.4c-0.01-0.07-0.2-1.88-1.38-2.81c-0.56-0.44-1.23-0.61-2.02-0.52l-0.26,0.04v7.39
		c0,4.13,1.89,8.07,5.05,10.56c1.43,1.13,3.15,2.14,5.08,3.01l23.43,116.8c-0.37,0.1-0.99,0.35-1.48,0.99
		c-0.75,0.99-0.94,2.48-0.54,4.46l7.92,38.02c0.01,0.03,0.65,2.88,3.28,2.88c0.01,0,0.01,0,0.02,0l4.57,22.92
		c-0.37,0.13-1.01,0.42-1.49,1.11c-0.68,0.97-0.83,2.35-0.45,4.13c0.97,4.53,2.92,13.44,2.92,13.44c0.01,0.2,0.26,1.19,3.21,1.35
		l2.8,14.57l-17.33,20.54c-0.59,0.11-3.23,0.74-4.8,3.21c-2.18-0.62-13.82-3.74-15.71-1.22c-0.45,0.61-0.35,1.45,0.36,2.54
		c0.09,0.09,2.23,2.07,7.98,3.48l1.9,1.24l-30.56,32.4c-0.1,0.1-9.98,10.7-29.78,12.23c-1.36,0.03-136.88,3.1-194.98,4.31
		c-0.89-2.26-9.47-22.59-30.49-30.72c-0.12-0.04-4.9-1.8-12.18-2.56l-0.01-0.01c-0.01,0-0.02,0.01-0.04,0.01
		c-3.13-0.33-6.71-0.47-10.59-0.22l-0.01-0.02c-0.01,0.01-0.02,0.01-0.04,0.03c-5,0.33-10.49,1.32-16.09,3.44
		c-0.06,0.01-0.11,0.01-0.16,0.02l0.01,0.03c-5.49,2.09-11.11,5.25-16.48,9.92c-1.16,1.12-11.28,11.05-9.23,14.42
		c0.95,1.57,4.19,1.42,9.87-0.47c0.04-0.01,0.61-0.19,2.25-1.11c-5.49,7.3-8.38,15.95-8.38,25.1c0,23.3,19.21,42.25,42.84,42.25
		c17.94,0,34.09-11.14,40.24-27.75c65.56-1.19,203.38-3.79,209.82-4.79l2.19,1.57c0.3,0.22,0.68,0.31,1.05,0.28l2.18-0.23
		c0.49-0.05,0.92-0.33,1.16-0.76c0.88-1.53,1.2-2.09,1.32-2.3c1.69-0.37,18.37-4.36,30.12-17.71c0.13-0.15,12.8-14.97,18.86-21.11
		c0.97-0.98,2.06-1.88,3.23-2.66C363.3,427.67,377.99,417.72,378.68,415.44z M45.6,490.94c-1.66-0.11-3.2-0.82-4.34-2l-0.1-0.1
		l1.77-8.77c1.59,0.13,3.41,0.2,5.52,0.2c0.34,0,0.69,0,1.05-0.01l11.14,7.59C55.38,491.03,49,491.16,45.6,490.94z M33.33,456.24
		H19.8c1.74-4.43,5.96-8.63,6.44-9.1c1.72-1.05,3.3-1.78,4.44-2.24c0.39-0.16,0.79-0.23,1.2-0.23c0.94,0,1.84,0.41,2.46,1.17
		c1.28,1.57,2.58,3.79,3.68,5.89C34.32,453.05,33.51,455.43,33.33,456.24z M65.1,448.16l-4.69,3.82l-9.22,0.21l-4.98-11.51
		c0.06,0,0.11-0.01,0.17-0.02C55.45,440.48,62.08,445.39,65.1,448.16z M70.73,459.73c0.57-0.38,1.26-0.56,1.95-0.52
		c1.21,0.08,2.24,0.83,2.71,1.93l-7.36,0.37L70.73,459.73z M29.38,485.54c-7.25-3.47-10.24-12.01-10.79-13.75l12.49-2.27
		c-0.26,1.83,0.08,4.16,1.48,7.1c0.02,0.06,0.21,0.56,1.14,1.18l-1.36,7.02C31.76,486.36,29.45,485.56,29.38,485.54z"/>
	<g class="st1">
		<path class="st2" d="M441.23,431.51c0.65-0.44,1.09-0.92,1.31-1.46c0.51-1.23-0.34-2.21-0.41-2.28
			c-11.04-9.06-23.78-10.13-25.45-10.23l-3.24-6.56l-1.13-1.21c0.1-1.95-0.8-2.87-1.22-3.18c0.29-1.42-0.36-2.61-0.57-2.96
			c0.2-1.89-0.49-2.94-0.78-3.29c0.46-2.29-0.39-3.27-0.73-3.56l-0.29-3.13l-9.06-46.43l1.32-1.18l-0.68-3.45l-1.69-0.23l-1.11-6.41
			l1.19-1.19l-0.83-3.29l-1.63-0.51L344.13,68.28c0.54,0.03,0.94-0.13,1.18-0.46c0.62-0.86-0.14-2.66-0.56-3.49
			c0.01,0,0.03,0,0.03,0c7.48-0.65,7.66-7.58,7.66-7.68l-0.76-9.15c1.79-1.59,1.31-8.37,1.25-9.14c-0.21-3.9-2.71-5.9-3.41-6.39
			c0.21-1.25,0.06-2.61-0.01-3.1c0.11-0.15,0.23-0.37,0.41-0.69c0.56-1,0.92-2.16,1.03-3.36c0.73-7.55-2.3-10.84-2.86-11.38
			l-1.12-8.43c-0.25-0.79-0.66-1.51-1.21-2.15c-1.76-2.05-4.36-3.07-7.12-2.8c-2.76,0.27-5.21,1.85-6.56,4.22
			c-0.73,1.3-0.95,2.36-0.97,2.48l0.3,8.31c-0.22,0.34-1.09,1.78-1.73,3.55c-1.59,0.07-9.05,0.54-9.05,3.43v2.87l0.03,0.14
			c0.05,0.09,1.09,2.01,4.2,2.9c-2.29,0.81-7.81,3.08-10.9,7.05c0,0-0.01,0.01-0.01,0.02l0,0c-0.07,0.11-1.81,2.7-0.89,6.91
			l18.47,92.08c-0.43,0.06-1.29,0.09-2.08-0.43c-0.89-0.6-1.43-1.74-1.61-3.4c-0.01-0.08-0.2-1.87-1.38-2.81
			c-0.56-0.44-1.24-0.62-2.02-0.52l-0.26,0.03v7.39c0,4.12,1.89,8.07,5.05,10.56c1.44,1.13,3.15,2.14,5.08,3l23.43,116.8
			c-0.37,0.1-0.99,0.35-1.48,1c-0.75,0.98-0.94,2.48-0.55,4.46l7.92,38.02c0.01,0.03,0.65,2.88,3.28,2.88c0.01,0,0.01,0,0.02,0
			l4.57,22.93c-0.37,0.12-1.01,0.42-1.5,1.11c-0.68,0.97-0.83,2.36-0.45,4.12c0.97,4.53,2.92,13.44,2.92,13.44
			c0.02,0.2,0.26,1.19,3.21,1.36l2.8,14.56l-17.33,20.55c-0.59,0.11-3.23,0.73-4.8,3.2c-2.18-0.61-13.82-3.74-15.71-1.22
			c-0.45,0.61-0.35,1.44,0.36,2.54c0.09,0.08,2.24,2.07,7.98,3.48l1.9,1.24l-30.55,32.4c-0.1,0.11-9.99,10.7-29.77,12.23
			c-1.36,0.03-136.88,3.11-194.98,4.3c-0.89-2.26-9.46-22.58-30.49-30.71c-0.12-0.05-4.9-1.8-12.18-2.56l-0.01-0.02
			c-0.01,0-0.02,0.01-0.04,0.02c-3.13-0.32-6.71-0.47-10.59-0.21l-0.01-0.02c0,0-0.02,0.02-0.04,0.02c-5,0.33-10.49,1.33-16.09,3.44
			c-0.06,0.01-0.11,0.02-0.16,0.03l0.01,0.03c-5.49,2.09-11.1,5.25-16.48,9.92c-1.16,1.12-11.28,11.04-9.24,14.42
			c0.95,1.57,4.19,1.42,9.87-0.47c0.04-0.01,0.6-0.18,2.24-1.11c-5.49,7.3-8.38,15.94-8.38,25.1c0,23.3,19.22,42.25,42.84,42.25
			c17.95,0,34.09-11.14,40.25-27.75c65.56-1.19,203.38-3.79,209.82-4.79l2.19,1.58c0.3,0.22,0.68,0.31,1.05,0.28l2.18-0.23
			c0.48-0.05,0.92-0.33,1.16-0.75c0.88-1.53,1.2-2.09,1.32-2.3c1.68-0.37,18.36-4.35,30.12-17.71c0.13-0.15,12.8-14.98,18.86-21.11
			c0.97-0.98,2.06-1.88,3.23-2.66c6.28-4.17,20.96-14.13,21.66-16.41l0.01-3.58h-0.49v-8.16h-2.09l2.21-2.78l6.54-1.23l0.81,1.95
			c-0.3,0.73-0.51,2.11,0.49,2.99c-0.13,0.59-0.38,2.34,0.8,3.41c-0.11,0.56-0.32,2.26,0.61,3.34c-0.12,0.48-0.37,1.86,0.33,3.06
			l-0.77,2.07l-0.02,6.28c-1.43,0.71-11.31,5.92-18.24,16.08c-0.04,0.06-4.53,6.04-6.77,15.22c-0.17,0.68-0.3,1.41-0.4,2.22
			c-0.29,2.28-0.91,8.27-0.48,14.48c0.02,0.24,0.2,2.32,1.42,2.62c0.09,0.02,0.19,0.03,0.29,0.03c0.77,0,1.69-0.71,2.77-2.15
			c1.73,10.14,7.02,19.42,14.94,26.19c8.19,7,18.69,10.86,29.54,10.86c24.88,0,45.13-19.97,45.13-44.51
			C455.34,451.64,450.2,439.89,441.23,431.51z M441.99,429.83c-0.47,1.13-2.83,3.12-13.39,3.74c-1.03,0.07-2.03-0.09-2.99-0.45
			c-1.96-0.74-5.76-1.94-9.59-1.96c-0.2-5.15-0.04-9.75,0.71-13c1.88,0.12,14.25,1.26,24.98,10.05
			C441.72,428.22,442.35,428.94,441.99,429.83z M392.83,443.3c-2.46,1.86-4.73,4.11-6.75,6.71c-0.33,0.43-0.42,0.99-0.23,1.5
			c0.19,0.51,0.62,0.89,1.15,1.01l9.12,2.01l5.77,19.7c0.02,0.06,1.63,5.15,8.59,5.15c0.8,0,1.68-0.07,2.63-0.22
			c0.05,0,4.89-0.27,6.93-5.72c0.68-1.82,0.84-3.89,0.46-5.98c-1.11-6.15-3.88-22.53-4.45-35.68c17.24,2.58,30.2,17.6,30.2,35.09
			c0,19.57-15.92,35.49-35.49,35.49c-19.57,0-35.49-15.92-35.49-35.49c0-11.92,5.91-22.92,15.82-29.53L392.83,443.3z M395.93,453.87
			l-8.8-1.94c-0.33-0.07-0.59-0.31-0.71-0.62c-0.12-0.32-0.06-0.66,0.14-0.92c1.93-2.49,4.1-4.65,6.45-6.45L395.93,453.87z
			 M412.86,411.23l-0.42,8.33c-0.07,1.38-0.03,2.77,0.12,4.14l5.11,46.53c0.2,1.83-0.33,3.59-1.37,4.96
			c0.73-3.02,0.34-8.06-0.18-12.07c-0.27-2.08-1.41-3.96-3.12-5.17c-1.71-1.2-3.78-1.62-5.8-1.17c-0.13,0.03-0.2,0.05-0.2,0.05
			c-2.76,0.68-3.94,2.26-4.45,3.46c-0.44,1.04-0.5,2.22-0.2,3.44c0.61,2.45,2.13,8.17,3.81,12.03c-1.03-0.97-1.81-2.23-2.21-3.69
			L391.2,426l18.97-4.18l-0.13-0.59l-19,4.19l-2.2-8.29c2.58,1.02,13.24,4.37,23.36-4.75l0.1-0.09v-1.64L412.86,411.23z
			 M407.2,476.62c-1.85-3.73-3.6-10.34-4.28-13.02c-0.27-1.08-0.21-2.14,0.17-3.06c0.66-1.57,2.02-2.61,4.05-3.11
			c0,0,0.07-0.02,0.18-0.04c1.86-0.41,3.76-0.03,5.33,1.08c1.57,1.11,2.62,2.84,2.87,4.75c0.38,2.95,0.84,7.67,0.38,10.85
			c0.33-2.7,0.02-6.45-0.36-9.53c-0.24-1.9-1.25-3.61-2.78-4.68c-1.45-1.02-3.19-1.36-4.89-0.97c-0.11,0.02-0.17,0.04-0.17,0.04
			c-2.38,0.61-3.39,2.02-3.83,3.1c-0.37,0.93-0.43,1.99-0.17,3.06c0.58,2.39,2.08,8.26,3.7,11.67
			C407.33,476.71,407.27,476.66,407.2,476.62z M408.52,477.33l-0.56-0.78c-1.59-3.29-3.1-9.21-3.67-11.6
			c-0.23-0.95-0.18-1.89,0.15-2.69c0.56-1.38,1.71-2.3,3.42-2.74c0,0,0.06-0.02,0.15-0.04c1.54-0.35,3.1-0.04,4.41,0.88
			c1.39,0.97,2.31,2.52,2.53,4.26c0.42,3.38,0.95,9.38-0.22,11.63l-0.44,0.78c-0.54,0.32-1.14,0.57-1.78,0.73
			c-0.16,0.04-0.26,0.06-0.25,0.06c-0.2,0.02-0.4,0.04-0.59,0.05C410.57,477.92,409.5,477.73,408.52,477.33z M411.7,410.42v1.61
			c-10.52,9.39-21.58,5.02-23.02,4.39l-0.11-1.66C390.76,414.97,402.47,415.86,411.7,410.42z M411.7,409.71
			c-9.45,5.77-21.78,4.59-23.26,4.42c-0.52-0.9-0.41-1.94-0.31-2.45c0.96,0.31,4.01,1.19,7.89,1.19c4.48,0,10.05-1.18,14.76-5.76
			C411.11,407.38,411.77,408.13,411.7,409.71z M376.56,355.17c0.95,0.26,3.2,0.78,6.32,0.78c4.35,0,10.37-1.02,16.87-5.13l0.18,0.92
			c-11.77,7.55-21.96,4.68-23.2,4.29L376.56,355.17z M400.33,345.83l-0.81,0.72l-0.77-3.56l1.05,0.14L400.33,345.83z M398.02,334.59
			l-0.68,0.68l-0.94-3.61l0.96,0.3L398.02,334.59z M344.82,67.46c-0.15,0.21-0.48,0.26-0.98,0.17c-0.2-0.08-1.96-0.89-3.09-3.99
			c1.37,0.58,2.61,0.7,3.35,0.71C344.6,65.32,345.21,66.9,344.82,67.46z M351.84,56.66c0,0.26-0.16,6.46-7.12,7.06
			c-0.06,0.01-6.06,0.8-8.88-6.35l-0.74-10.3l-0.01-0.15l-0.12-0.08c-0.11-0.08-2.74-1.95-0.49-6.53c0.02-0.04,1.6-3.7,5.8-4.87
			c0.06-0.01,5.77-1.5,8.93,2.29c0.03,0.03,3.16,3.23,1.74,7.8l-0.02,0.06L351.84,56.66z M351.61,46.63l-0.08-0.96
			c1.49-4.88-1.87-8.31-1.88-8.33c-3.39-4.07-9.28-2.53-9.53-2.47c-4.48,1.25-6.13,5.05-6.19,5.2c-2.2,4.46,0.02,6.71,0.58,7.18
			l0.19,2.69c-7.82-3.04-11.33-5.41-11.99-5.89v-2.02c0.05,0.05,0.1,0.09,0.16,0.14c0.52,0.39,1.41,0.72,2.94,0.72
			c1.43,0,3.43-0.29,6.2-1.11l0.14-0.04l0.05-0.14c0.02-0.07,2.57-6.64,8.54-7.85c0.37-0.04,9.08-0.85,11.68,7.06
			C352.43,42.91,352.27,45.46,351.61,46.63z M352.33,38.39c0.02,0.2,0.03,0.45,0.04,0.71c-3.33-6.73-11.61-5.95-11.73-5.94
			c-5.82,1.18-8.53,7.09-8.96,8.09c-5.64,1.63-7.71,0.99-8.45,0.46c-0.34-0.25-0.47-0.51-0.51-0.67c0.07-0.62,0.32-1.16,0.76-1.59
			c1.56-1.53,4.91-1.48,4.93-1.48c1.87,0.07,3.03-0.1,3.43-0.51c0.1-0.1,0.14-0.2,0.15-0.27c0.55-1.35,1.43-2.71,2.08-3.62
			c0.41-0.58,0.8-1.24,1.2-2.01c2.22-4.32,6.49-4.57,7.74-4.55c0.2,0,0.38,0.03,0.56,0.07c3.57,0.91,5.07,4.51,5.28,5.06l-0.03,0.12
			l0.18,0.11C349.06,32.38,352.11,34.27,352.33,38.39z M345.42,22.93c-0.35-0.15-0.71-0.28-1.07-0.37c-3.36-2.96-8.2,0.64-8.8,1.11
			c-1.86,0.71-3.33,1.5-3.95,1.85l-0.5-3.98c0.19-0.57,2.21-6.05,7.95-7.21c0.07-0.01,7.21-1.19,9.61,5.85
			c0.01,0.03,1.28,2.67,0.49,7.23C348.45,25.23,347.2,23.72,345.42,22.93z M342.82,22.31c-1.6-0.12-3.28,0.14-4.86,0.56
			C339.34,22.2,341.18,21.64,342.82,22.31z M332.62,4.56c1.24-2.2,3.52-3.66,6.09-3.91c0.27-0.03,0.54-0.04,0.81-0.04
			c2.25,0,4.33,0.94,5.79,2.63c0.5,0.58,0.86,1.23,1.08,1.89l1.02,7.71c-1.23-0.97-4.2-2.89-8-2.58c-0.18,0.01-4.23,0.21-7.4,4.03
			l-0.28-7.5C331.72,6.77,331.93,5.76,332.62,4.56z M329.91,19.19l0.21-0.01l0.07-0.2c0.69-1.99,1.75-3.64,1.79-3.69
			c3.04-4.21,7.4-4.44,7.46-4.44c4.65-0.39,8.12,2.9,8.15,2.93l0.1,0.1c0.52,0.52,3.35,3.7,2.66,10.86
			c-0.07,0.75-0.25,1.49-0.51,2.18c0.64-4.4-0.58-6.9-0.63-6.98c-2.55-7.48-10.19-6.22-10.28-6.21c-5.9,1.19-8.08,6.67-8.4,7.56
			c-5.66,2.93-8.47,0.78-9.11,0.17C322.43,19.81,327.74,19.26,329.91,19.19z M321.24,24.81V22.1c1.03,0.85,3.99,2.49,9.29-0.14
			l0.56,4.47c-1.69,0.05-4.1,0.8-5.12,1.15C322.73,26.96,321.46,25.16,321.24,24.81z M326.08,28.17l1.23-0.36l-0.06-0.01
			c2.38-0.7,4.73-1.07,5.04-0.54c0.07,0.12,0.24,0.85-2.95,3.53c-0.07,0.04-6.75,4.04-11.05,4.9c-1.47,0.29-2.82,0.19-3.7,0.06
			c-0.12-0.02-0.17-0.11-0.19-0.15c-0.02-0.04-0.04-0.14,0.03-0.24c0-0.01,0.01-0.01,0.01-0.01C318.23,30.51,326,28.19,326.08,28.17
			z M314.07,36.12c0.12,0.11,0.27,0.19,0.44,0.22c0.49,0.08,1.11,0.14,1.82,0.14c0.64,0,1.35-0.05,2.09-0.2
			c4.4-0.88,10.97-4.81,11.28-5.01c2.6-2.19,3.57-3.52,3.12-4.31c-0.18-0.32-0.58-0.47-1.11-0.52l-0.03-0.27
			c0.85-0.49,8.63-4.84,13.5-2.68c1.91,0.84,3.15,2.61,3.69,5.24l-0.05,0.23l0.09,0.04c0.05,0.36,0.13,1.14,0.09,1.98
			c-0.71-1.38-2.32-3.74-5.27-4.49c-0.22-0.06-0.46-0.09-0.7-0.09c-1.33-0.01-5.91,0.25-8.29,4.88c-0.38,0.75-0.76,1.38-1.16,1.94
			c-0.67,0.94-1.58,2.36-2.16,3.77l-0.02,0.05c-0.09,0.08-0.61,0.42-2.97,0.32c-0.16,0-3.62-0.06-5.37,1.65
			c-0.53,0.52-0.84,1.16-0.93,1.88l-0.04,0c0,0.01,0,0.08,0.03,0.19c-0.01,0.09-0.03,0.18-0.03,0.28v2.99l0.12,0.09
			c0.14,0.11,3.51,2.69,12.52,6.16l0.49,6.85l0.02,0.09c1.22,3.11,3.02,4.81,4.73,5.74c1.09,3.46,2.95,4.59,3.51,4.85l0.48,2.44
			c-9.93,5.8-21.78,5.18-23.51,5.05l-6.79-33.86C313.09,39.12,313.64,37.14,314.07,36.12z M329.61,144.32
			c-3.02-2.37-4.82-6.14-4.82-10.08v-6.84c0.51-0.01,0.94,0.12,1.3,0.41c0.07,0.05,0.13,0.12,0.19,0.18
			c-0.07,1.23-0.35,9.39,3.92,11.4l0.26-0.55c-3.34-1.57-3.62-7.62-3.6-9.99c0.31,0.68,0.39,1.35,0.39,1.36
			c0.2,1.84,0.83,3.14,1.88,3.84c0.97,0.65,2.02,0.61,2.54,0.53l2.5,12.49C332.45,146.26,330.91,145.34,329.61,144.32z
			 M356.74,265.97c0.41-0.54,0.92-0.73,1.19-0.8c0.37,0.78,1.74,3.9,2.76,8.86c0.26,1.27,0.71,3.47,1.26,6.14h-3.5l-2.13-10.24
			C355.97,268.17,356.11,266.8,356.74,265.97z M364.23,307.95l-5.66-27.18h3.5c1.99,9.71,5.08,24.89,5.08,24.89
			c0.01,0.03,0.65,2.96-0.16,4.67C364.8,310.38,364.26,308.05,364.23,307.95z M367.51,310.67c0.95-1.9,0.27-5.01,0.24-5.14
			c0,0-5.26-25.77-6.46-31.63c-1.15-5.6-2.71-8.81-2.89-9.17L320.58,76.25c0.46,0.03,1.29,0.07,2.42,0.07
			c4.43,0,13.31-0.65,21.09-5.12l51.58,260.06l0.03,0.17l0.01,0l1.16,4.48l1.21,6.98l0.01,0l0.93,4.28h0l0.59,3.01
			c-11.69,7.5-21.82,4.74-23.2,4.31l-0.18-0.91c0.22-2.25-1.9-11.65-1.99-12.05c-1.07-5.65-1.91-7.24-2.12-7.57L367.51,310.67z
			 M373.09,352.45c0,0-1.95-8.93-2.93-13.47c-0.34-1.59-0.23-2.81,0.35-3.64c0.41-0.59,0.94-0.82,1.22-0.9
			c0.26,0.48,1,2.19,1.95,7.23c0.02,0.09,2.05,9.09,1.99,11.62C373.72,353.17,373.14,352.67,373.09,352.45z M361.36,389.59
			l-2.75,3.1l-1.61-0.34C358.57,390.1,361.18,389.62,361.36,389.59z M353.85,400.23l0.11,3.85l-13.28,16.03
			c-0.52,0.63-1.12,1.1-1.78,1.4c-0.55,0.25-0.97,0.32-1.12,0.17c-0.1-0.09-0.35-0.56,0.51-2.56c0.19-0.45,0.45-0.87,0.77-1.26
			l14.56-17.77L353.85,400.23z M359.29,392.84l13.21-14.93c0.27-0.3,0.57-0.57,0.89-0.8c1.37-0.97,2.09-1.14,2.24-1.02
			c0.01,0.01,0.32,0.29-0.5,2.12c-0.19,0.43-0.45,0.84-0.76,1.22l-14.03,16.94l0.2-3.26L359.29,392.84z M341.14,391.35
			c0.19-0.26,0.55-0.44,1.01-0.56v1.32h0.6v-1.44c0.28-0.04,0.59-0.06,0.92-0.06v2.14h0.6v-2.14c0.29,0.01,0.6,0.02,0.92,0.04v2.62
			h0.6v-2.57c0.3,0.03,0.6,0.06,0.92,0.1v2.91h0.6v-2.83c0.3,0.04,0.61,0.09,0.92,0.14v3.19h0.6v-3.09
			c0.31,0.05,0.61,0.11,0.92,0.16v3.37h0.6v-3.26c0.31,0.06,0.61,0.12,0.92,0.19v3.35h0.6v-3.22c0.31,0.07,0.62,0.14,0.92,0.21v3.34
			h0.6v-3.19c1.19,0.28,2.24,0.56,3.01,0.78l0.22,0.06l0.01-0.02l3.25,0.68l-0.18,3.02c-12.66-0.65-17.9-4.23-18.72-4.86
			C341.02,391.6,341.06,391.46,341.14,391.35z M349.29,396.48l-0.09-0.04c-5.28-1.29-7.48-3.1-7.74-3.32
			c-0.11-0.18-0.2-0.34-0.27-0.5c1.78,1.17,7.11,3.96,18.2,4.57l-4.85,5.7l-0.08-2.99l-2.62-1.76l0,0l-0.28-0.18l-0.02-0.01l0,0
			L349.29,396.48z M290.6,443.48c20.05-1.54,30.09-12.31,30.19-12.42l30.62-32.48l0.78,0.53l-14.72,17.41c0,0-0.16,0.24-0.47,0.63
			c-2.09,2.63-4.13,7.66-2.7,8.91c1.12,0.98,3.67-0.63,7.8-4.94c0.06-0.06,0.11-0.12,0.16-0.19l15.23-17.74
			c0.2-0.17,0.47-0.31,0.54-0.31c0,0,0,0,0,0c0,0,0.11,0.15-0.06,0.87c-0.07,0.31-0.22,0.61-0.42,0.89
			c-2.92,4.02-28.82,39.54-37.41,48.17c-0.13,0.13-0.25,0.27-0.36,0.42c-0.76,1.11-8.1,10.87-31.79,12.38l-198.34,1.38
			c-28.59-0.34-49.34-1.02-51.43-2.24c-0.39-0.15-0.84-0.46-0.83-0.63c0-0.07,0.17-0.27,0.78-0.48c0.29-0.04,0.58-0.07,0.87-0.09
			l46.63-2.34l0.36-0.02l0,0c6.76-0.38,10.78-1.78,11.94-4.16c0.79-1.64-0.07-3.13-0.27-3.44c-0.6-2.73-1.47-4.95-1.85-5.84
			C154.08,446.58,289.22,443.51,290.6,443.48z M288.02,466.23c6.43-0.41,11.66-1.41,15.89-2.68c-5.34,1.65-12.35,2.97-21.24,3.06
			c-1.36,0.01-79.38,0.81-146.94,0.68l152.08-1.06C287.88,466.23,287.95,466.23,288.02,466.23z M68.03,461.51l2.7-1.78
			c0.57-0.38,1.26-0.56,1.95-0.52c1.21,0.08,2.24,0.83,2.71,1.93L68.03,461.51z M68.21,418.48l-1.39,3.42l0.56,0.23l1.38-3.39
			c0.4,0.2,0.79,0.41,1.18,0.61l-1.39,3.4l0.56,0.23l1.36-3.35c0.4,0.22,0.79,0.44,1.17,0.67l-1.4,3.43l0.56,0.23l1.37-3.35
			c0.41,0.25,0.81,0.5,1.21,0.76l-1.38,3.37l0.56,0.23l1.33-3.27c0.44,0.29,0.88,0.59,1.3,0.89l-1.38,3.39l0.56,0.23l1.33-3.27
			c0.42,0.3,0.82,0.6,1.22,0.91l-1.4,3.44l0.56,0.23l1.34-3.29c0.39,0.3,0.76,0.61,1.13,0.92l-1.38,3.39l0.56,0.23l1.31-3.21
			c0.41,0.35,0.81,0.7,1.2,1.05l-1.39,3.4l0.56,0.23l1.3-3.19c0.31,0.29,0.63,0.58,0.93,0.87l-1.42,3.48l0.56,0.23l1.32-3.25
			c0.35,0.35,0.7,0.7,1.03,1.05l-1.43,3.5l0.56,0.23l1.32-3.24c0.41,0.44,0.81,0.88,1.2,1.32l-1.43,3.52l0.56,0.23l1.32-3.24
			c0.36,0.42,0.7,0.83,1.04,1.24l-1.43,3.5l0.56,0.23l1.3-3.19c0.37,0.47,0.73,0.94,1.08,1.4l-1.45,3.56l0.56,0.23l1.32-3.23
			c0.32,0.44,0.64,0.88,0.94,1.32l-1.43,3.51l0.56,0.23l1.28-3.14c1.38,2.05,2.49,3.94,3.33,5.53c-1.25,0.58-2.81,0.3-4.65-0.87
			c-1.25-0.8-2.38-1.9-3.35-3.27c-5.03-7.1-16.78-14.07-16.9-14.14c-6.88-4.08-15.88-5.47-18.48-5.8c-0.7-0.09-1.36-0.22-1.98-0.38
			c-4.68-1.25-5.54-2.46-5.64-3.07c-0.08-0.52,0.33-0.94,0.55-1.12c0.42-0.03,0.83-0.05,1.23-0.06v1.41h0.6v-1.43
			c0.6-0.02,1.19-0.03,1.77-0.03v2.55h0.6v-2.55c0.6,0,1.19,0.02,1.77,0.04v3.39h0.6v-3.36c0.6,0.03,1.19,0.06,1.77,0.1v3.62h0.6
			v-3.57c0.23,0.02,0.46,0.04,0.68,0.06c-0.34,0.35-0.57,0.85-0.39,1.51c0.2,0.71,0.84,1.24,1.62,1.36c0.88,0.13,2.7,0.5,5.1,1.59
			c1.55,0.7,4.75,2.04,6.88,2.04c0.67,0,1.23-0.13,1.6-0.45c0.5-0.43,0.62-1.12,0.35-2.06l-0.58,0.17c0.2,0.69,0.14,1.17-0.17,1.43
			c-0.88,0.75-3.95,0.1-7.83-1.68c-2.47-1.12-4.36-1.51-5.26-1.64c-0.55-0.08-0.99-0.44-1.13-0.92c-0.2-0.73,0.4-1.12,0.69-1.26
			c7.12,0.76,11.79,2.47,11.9,2.52C66.03,417.48,67.13,417.97,68.21,418.48z M9.92,427.55c5.34-4.63,10.9-7.76,16.35-9.83
			c0.22-0.03,0.43-0.03,0.54,0c-0.04,0.09-0.17,0.28-0.59,0.64c-0.73,0.34-11.04,5.21-18.58,11.5
			C8.51,428.94,9.31,428.14,9.92,427.55z M9.97,440.48c-6.62,2.2-8.65,1.61-9.18,0.74c-0.69-1.14,0.5-3.46,2.29-5.92
			c6.74-8.65,23.28-16.33,23.44-16.4l0.07-0.05c0.51-0.44,1.01-0.95,0.8-1.4c-0.02-0.04-0.05-0.07-0.08-0.1
			c4.96-1.76,9.81-2.65,14.29-3c-0.2,0.3-0.36,0.69-0.29,1.15c0.21,1.34,2.25,2.54,6.08,3.56c0.64,0.17,1.33,0.3,2.06,0.4
			c2.57,0.33,11.47,1.7,18.24,5.72c0.12,0.07,11.76,6.98,16.72,13.97c1.02,1.44,2.2,2.59,3.52,3.43c1.32,0.84,2.55,1.26,3.65,1.26
			c0.58,0,1.12-0.12,1.61-0.36c1.28,2.46,1.89,4.06,1.91,4.12l0.07,0.2l0.02,0c0.28,0.64,1.28,3.02,1.92,6.01l0.05,0.11
			c0.01,0.01,0.97,1.4,0.25,2.88c-0.73,1.5-3.34,3.38-11.54,3.82c-5.42-22.2-26.8-29.88-27.03-29.96
			c-25.03-7.63-41.23,5.27-41.36,5.38C11.62,439.97,10,440.47,9.97,440.48z M46.85,506.69c-23.29,0-42.24-18.68-42.24-41.65
			c0-9.53,3.18-18.49,9.18-25.93c1.05-0.64,2.37-1.48,4.05-2.6c0.16-0.13,16.12-12.82,40.82-5.29c0.21,0.07,21.22,7.63,26.61,29.42
			l-9.23,0.46c-0.51-1.42-1.79-2.4-3.31-2.5c-0.82-0.06-1.64,0.17-2.33,0.62l-3.55,2.35L39,462.97c-1.96,0.1-3.74,0.73-5.15,1.83
			c-1.14,0.89-2.22,2.2-2.66,4.08l-13.59,2.47c-1.07,0.2-2.03,0.84-2.61,1.76c-0.73,1.15-0.95,2.56-0.61,3.86
			c1.11,4.19,4.3,11.96,13.1,16.87c0.43,0.24,0.9,0.36,1.37,0.36c0.41,0,0.82-0.09,1.2-0.27c0.79-0.38,1.35-1.11,1.52-1.97
			l2.68-13.83c1.35,0.72,3.77,1.5,8.06,1.89l-2.71,13.41c-0.18,0.9-0.1,1.83,0.24,2.68c0.69,1.75,2.34,2.93,4.2,3
			c0.53,0.02,1.1,0.04,1.72,0.04c5.02,0,12.83-0.9,18.78-5.7c0.54-0.44,0.85-1.1,0.85-1.83c0-0.79-0.39-1.53-1.04-1.97l-13.83-9.41
			c0.89-0.02,1.82-0.05,2.8-0.09c1.04-0.02,4.57-0.08,10.04-0.18l5.53,3.08c0.64,0.36,1.36,0.54,2.09,0.54
			c1.66,0,3.18-0.97,3.89-2.47l0.65-1.37c3.34-0.06,6.99-0.13,10.9-0.2C80.31,495.81,64.46,506.69,46.85,506.69z M18,471.9
			c0.51,1.65,3.57,10.57,11.15,14.2c0.4,0.14,0.96,0.27,1.54,0.27c0.5,0,1.01-0.1,1.43-0.36l-1.13,5.84
			c-0.13,0.67-0.57,1.25-1.19,1.54c-0.64,0.31-1.39,0.28-2.02-0.07c-8.61-4.8-11.72-12.4-12.81-16.5c-0.3-1.14-0.11-2.37,0.53-3.38
			c0.5-0.78,1.3-1.32,2.21-1.49L18,471.9z M32.35,484.82c-0.59,1.53-2.9,0.74-2.97,0.71c-7.25-3.47-10.24-12.01-10.79-13.75
			l12.49-2.27c-0.26,1.84,0.08,4.16,1.49,7.11c0.02,0.06,0.2,0.57,1.14,1.18L32.35,484.82z M49.49,480.26l11.14,7.58
			c-5.25,3.19-11.63,3.32-15.02,3.1c-1.66-0.11-3.2-0.82-4.34-2l-0.1-0.11l1.77-8.76c1.59,0.13,3.41,0.2,5.51,0.2
			C48.78,480.27,49.13,480.27,49.49,480.26z M41.02,489.54c1.23,1.18,2.83,1.9,4.55,2.01c0.64,0.04,1.38,0.07,2.2,0.07
			c3.69,0,8.97-0.6,13.41-3.4l2.84,1.94c0.49,0.33,0.78,0.88,0.78,1.47c0,0.53-0.23,1.04-0.63,1.36c-6.53,5.26-15.39,5.72-20.1,5.53
			c-1.62-0.07-3.06-1.1-3.66-2.62c-0.29-0.75-0.36-1.55-0.21-2.34L41.02,489.54z M64.58,479.95c2.95-0.05,6.4-0.11,10.29-0.18
			l-0.52,1.1c-0.61,1.29-1.92,2.12-3.35,2.12c-0.63,0-1.25-0.16-1.8-0.47L64.58,479.95z M334.48,455.22
			c-12.2,13.85-29.75,17.51-29.92,17.54l-0.14,0.03l-0.07,0.13c-0.05,0.08-0.91,1.59-1.38,2.41c-0.15,0.25-0.41,0.42-0.7,0.45
			l-2.18,0.23c-0.23,0.02-0.45-0.04-0.63-0.17l-2.41-1.73l-0.13,0.03c-5.19,1.24-241.21,5.36-243.6,5.41
			c-18.49,0.84-20.15-3.07-20.18-3.14c-2.95-6.19-1.04-9.47,1.09-11.13c0.76-0.59,1.63-1.03,2.59-1.32
			c-0.02,0.05-0.03,0.11-0.03,0.16c-0.02,0.68,1.01,1.13,1.17,1.19c3.53,2.07,57.1,2.62,113.26,2.62
			c61.64,0,126.41-0.67,131.47-0.72c24.85-0.23,35.26-10.08,35.35-10.16c6.13-5.21,40.74-50.51,42.81-53.21
			c0.59-0.25,5.06-2.05,8.05,0.41c0.13,0.08,3.14,2.1,2.61,7.64l-23.74,28.18l0,0C341.64,446.83,334.57,455.11,334.48,455.22z
			 M378.09,415.29c-0.67,1.78-11.47,9.44-21.4,16.05c-0.79,0.52-1.53,1.1-2.24,1.72l17.56-20.85l0.05-0.1
			c0.36-1.03,0.59-2.03,0.71-3.01c0.88,0.05,4.11,0.42,4.82,3.1v0.25h0.49V415.29z M377.6,410.78c-1.3-1.9-3.92-2.22-4.77-2.28
			c0.01-0.15,0.01-0.3,0.02-0.44c0.81-0.19,3.73-0.66,4.75,2.26V410.78z M377.6,404.3v4.69c-1.33-1.91-3.65-1.74-4.65-1.56
			l2.78-3.13H377.6z M374.87,404.3h0.05l-2.11,2.38c-0.01-0.09-0.01-0.18-0.03-0.27c-0.29-2.33-1.57-4.46-3.52-5.83
			c-1.92-1.36-4.31-1.85-6.56-1.35c-1.24,0.27-2.32,0.74-3.15,1.17l23.96-28.26l3.8,17.35L378,400.36l-0.01,0l-0.06,0.07l0,0l0,0
			L374.87,404.3z M378.95,400.18l9.02-10.52l-4.13-18.84l-26.02,30.68l0.42,0.43c0.02-0.02,1.96-1.54,4.59-2.12
			c2.09-0.46,4.31,0,6.09,1.26c1.8,1.28,2.99,3.25,3.27,5.41c0.12,0.96,0.08,1.97-0.08,3.01c-0.38-4.08-2.77-5.67-2.87-5.73
			c-3.45-2.85-8.51-0.54-8.72-0.44l-0.11,0.09c-0.37,0.48-36.63,47.96-42.78,53.19c-0.04,0.04-1.67,1.57-5.13,3.43
			c4.96-2.74,7.15-5.52,7.78-6.44c0.09-0.12,0.18-0.23,0.29-0.34c8.61-8.66,34.54-44.22,37.47-48.24c0.25-0.35,0.43-0.72,0.52-1.11
			c0.13-0.52,0.24-1.25-0.2-1.52c-0.45-0.28-1.08,0.21-1.29,0.39l-15.2,17.7l-0.07,0.09c-0.04,0.05-0.08,0.1-0.13,0.15
			c-5.31,5.55-6.68,5.16-6.97,4.9c-0.94-0.82,0.61-5.35,2.78-8.08c0.31-0.39,0.48-0.64,0.48-0.64l14.75-17.44l0.43,0.29
			l-14.52,17.73c-0.36,0.44-0.65,0.91-0.86,1.41c-0.74,1.73-0.86,2.76-0.38,3.23c0.17,0.16,0.39,0.25,0.67,0.25
			c0.31,0,0.68-0.1,1.12-0.3c0.74-0.34,1.42-0.86,2-1.57l33.69-40.68c0.35-0.42,0.63-0.88,0.85-1.36c0.7-1.57,0.8-2.45,0.33-2.83
			c-0.18-0.15-0.74-0.6-2.97,1c-0.36,0.26-0.69,0.56-0.99,0.89l-8.21,9.28l15.22-18.05l0.09-0.11l-2.29-11.93
			c0.93,0.26,3.2,0.79,6.35,0.79c4.34,0,10.36-1.02,16.85-5.12l8.04,41.21c-7.43,6.43-21.12,5.6-22.83,5.46l-0.02-0.06
			L378.95,400.18z M312.13,460.22c0.09-0.05,0.18-0.09,0.27-0.14C312.3,460.13,312.22,460.17,312.13,460.22z M385.53,399.68
			c0.55,0.04,1.55,0.09,2.85,0.09c4.89,0,14.02-0.71,19.81-5.46l0.23,2.5c-9.49,7.29-20.81,4.91-22.19,4.58L385.53,399.68z
			 M386.19,402c0.75,0.17,3.02,0.62,6.11,0.62c4.53,0,10.78-0.99,16.42-5.29c0.27,0.28,0.81,1.1,0.42,2.94
			c-8.6,7.46-21.5,4.23-22.49,3.97C385.79,403.56,386.03,402.47,386.19,402z M386.74,404.88c0.93,0.23,3.9,0.88,7.65,0.88
			c4.6,0,10.37-0.98,14.99-4.9c0.26,0.36,0.69,1.22,0.54,2.69c-10.78,8.36-21.68,4.41-22.46,4.11
			C386.5,406.89,386.63,405.49,386.74,404.88z M387.53,408.32c0.93,0.32,3.64,1.13,7.31,1.13c4.25,0,9.78-1.1,15.28-5.3
			c0.23,0.44,0.6,1.37,0.35,2.42c-9.01,8.89-21.39,4.81-22.38,4.46C387.36,410.25,387.44,408.94,387.53,408.32z M387.73,423.16v-6.5
			l0.31-0.82l0.06,0.96l0.03,0.02l2.4,9.03l12.82,46.4c1.01,3.67,4.3,6.23,7.92,6.23c0.14,0,0.28,0,0.42-0.01
			c0.21-0.01,0.42-0.03,0.65-0.06c0,0,0.11-0.02,0.31-0.07c3.61-0.91,6.02-4.42,5.61-8.16l-5.11-46.53
			c-0.15-1.34-0.19-2.7-0.12-4.05l0.37-7.3l2.76,5.59c-2.76,11.65,2.16,40.96,3.73,49.69c0.36,1.98,0.21,3.94-0.43,5.66
			c-1.89,5.06-6.2,5.32-6.42,5.33c-8.7,1.38-10.51-4.26-10.58-4.5l-11.35-38.77l0,0l-3.52-12.07L387.73,423.16z M362.81,472.81
			c-0.68-0.17-0.93-1.59-0.96-2.07c-0.43-6.15,0.19-12.09,0.48-14.36c0.1-0.79,0.23-1.5,0.39-2.16c2.2-9.05,6.62-14.94,6.67-15.01
			c6.44-9.44,15.44-14.54,17.66-15.71l3.42,11.71c-3.09,1.38-6.3,3.83-6.34,3.85c-5.85,4.6-8.9,8.72-8.94,8.77
			c-3.78,5.52-5.47,10.69-6.03,12.65c-0.19,0.69-0.31,1.38-0.39,1.91c-0.63,4.24-2.33,6.74-2.36,6.78
			C364.31,472.59,363.26,472.92,362.81,472.81z M410.21,507.73c-21.78,0-40.68-15.96-44-37.14c0.23-0.33,0.46-0.69,0.71-1.08
			c0.07-0.11,1.79-2.63,2.45-7.02c0.08-0.51,0.19-1.17,0.37-1.83c0.55-1.94,2.22-7.04,5.94-12.47c0.03-0.04,3.04-4.1,8.82-8.64
			c0.03-0.02,3.13-2.39,6.14-3.74l0.27,0.93c-10.18,6.71-16.25,17.96-16.25,30.15c0,19.9,16.19,36.1,36.1,36.1s36.1-16.19,36.1-36.1
			c0-15.58-10.11-29.23-24.39-34.15c1.18,0.32,2.19,0.67,2.93,0.95c0.89,0.33,1.81,0.5,2.76,0.5c0.16,0,0.32,0,0.48-0.01
			c5.82-0.34,9.85-1.13,12.07-2.34c8.92,8.27,14.04,19.92,14.04,31.99C454.74,488.04,434.76,507.73,410.21,507.73z"/>
		<path class="st2" d="M343.75,51.11c-3.27,0-5.93,2.66-5.93,5.93c0,3.27,2.66,5.93,5.93,5.93c3.27,0,5.93-2.66,5.93-5.93
			C349.69,53.77,347.03,51.11,343.75,51.11z M343.75,62.37c-2.94,0-5.33-2.39-5.33-5.33c0-2.94,2.39-5.33,5.33-5.33
			c2.94,0,5.33,2.39,5.33,5.33C349.08,59.98,346.69,62.37,343.75,62.37z"/>
		<path class="st2" d="M335.81,79.63c0-1.46-1.19-2.64-2.64-2.64c-1.46,0-2.64,1.19-2.64,2.64s1.19,2.64,2.64,2.64
			C334.63,82.27,335.81,81.09,335.81,79.63z M331.13,79.63c0-1.12,0.91-2.04,2.04-2.04c1.12,0,2.04,0.91,2.04,2.04
			c0,1.12-0.91,2.04-2.04,2.04C332.05,81.67,331.13,80.76,331.13,79.63z"/>
		<path class="st2" d="M334.93,85.96c-1.46,0-2.64,1.19-2.64,2.64s1.19,2.64,2.64,2.64c1.46,0,2.64-1.19,2.64-2.64
			S336.39,85.96,334.93,85.96z M334.93,90.64c-1.12,0-2.04-0.91-2.04-2.04s0.91-2.04,2.04-2.04c1.12,0,2.04,0.91,2.04,2.04
			S336.06,90.64,334.93,90.64z"/>
		<path class="st2" d="M334.4,79.63c0-0.68-0.55-1.23-1.23-1.23c-0.68,0-1.23,0.55-1.23,1.23c0,0.68,0.55,1.23,1.23,1.23
			C333.85,80.86,334.4,80.31,334.4,79.63z M332.55,79.63c0-0.34,0.28-0.62,0.62-0.62c0.34,0,0.62,0.28,0.62,0.62
			c0,0.34-0.28,0.62-0.62,0.62C332.83,80.26,332.55,79.98,332.55,79.63z"/>
		<path class="st2" d="M334.93,87.37c-0.68,0-1.23,0.55-1.23,1.23c0,0.68,0.55,1.23,1.23,1.23c0.68,0,1.23-0.55,1.23-1.23
			C336.16,87.92,335.61,87.37,334.93,87.37z M334.93,89.22c-0.34,0-0.62-0.28-0.62-0.62c0-0.34,0.28-0.62,0.62-0.62
			c0.34,0,0.62,0.28,0.62,0.62C335.56,88.94,335.28,89.22,334.93,89.22z"/>
		<path class="st2" d="M382.77,381.99c0-1.61-1.31-2.92-2.92-2.92c-1.61,0-2.92,1.31-2.92,2.92c0,1.61,1.31,2.92,2.92,2.92
			C381.46,384.91,382.77,383.6,382.77,381.99z M377.54,381.99c0-1.28,1.04-2.31,2.31-2.31c1.28,0,2.31,1.04,2.31,2.31
			c0,1.28-1.04,2.31-2.31,2.31C378.58,384.3,377.54,383.27,377.54,381.99z"/>
		<path class="st2" d="M381.22,381.99c0-0.75-0.61-1.36-1.37-1.36c-0.75,0-1.36,0.61-1.36,1.36c0,0.75,0.61,1.37,1.36,1.37
			C380.6,383.36,381.22,382.75,381.22,381.99z M379.09,381.99c0-0.42,0.34-0.76,0.76-0.76c0.42,0,0.76,0.34,0.76,0.76
			c0,0.42-0.34,0.76-0.76,0.76C379.43,382.75,379.09,382.41,379.09,381.99z"/>
		<path class="st2" d="M378.49,391.09c0,1.61,1.31,2.92,2.92,2.92c1.61,0,2.92-1.31,2.92-2.92c0-1.61-1.31-2.92-2.92-2.92
			C379.8,388.18,378.49,389.49,378.49,391.09z M383.72,391.09c0,1.28-1.04,2.31-2.31,2.31c-1.28,0-2.31-1.04-2.31-2.31
			c0-1.28,1.04-2.31,2.31-2.31C382.68,388.78,383.72,389.82,383.72,391.09z"/>
		<path class="st2" d="M380.04,391.09c0,0.75,0.61,1.36,1.37,1.36s1.36-0.61,1.36-1.36c0-0.75-0.61-1.36-1.36-1.36
			S380.04,390.34,380.04,391.09z M382.16,391.09c0,0.42-0.34,0.76-0.76,0.76c-0.42,0-0.76-0.34-0.76-0.76
			c0-0.42,0.34-0.76,0.76-0.76C381.82,390.33,382.16,390.67,382.16,391.09z"/>
		<path class="st2" d="M369.04,391.06c-0.84,0-1.53,0.69-1.53,1.53c0,0.84,0.69,1.53,1.53,1.53c0.84,0,1.53-0.69,1.53-1.53
			C370.57,391.74,369.89,391.06,369.04,391.06z M369.04,393.51c-0.51,0-0.93-0.42-0.93-0.93c0-0.51,0.42-0.93,0.93-0.93
			c0.51,0,0.93,0.42,0.93,0.93C369.97,393.1,369.56,393.51,369.04,393.51z"/>
		<path class="st2" d="M66.82,471.63H37.86c-1.21,0-2.19,0.92-2.19,2.05c0,1.13,0.98,2.05,2.19,2.05h28.97
			c1.21,0,2.19-0.92,2.19-2.05C69.01,472.55,68.03,471.63,66.82,471.63z M66.82,475.13H37.86c-0.87,0-1.58-0.65-1.58-1.45
			c0-0.8,0.71-1.45,1.58-1.45h28.97c0.87,0,1.58,0.65,1.58,1.45C68.41,474.48,67.7,475.13,66.82,475.13z"/>
		<path class="st2" d="M410.54,425.11c-0.66-0.35-2.2-1.17-2.31-1.24c-0.17-0.14-0.25-0.2-12.55,2.47c-0.6,0.13-1.1,0.54-1.35,1.1
			l-0.52,1.19c-0.18,0.4-0.21,0.86-0.1,1.29l7.28,26.34c0.16,0.57,0.56,1.02,1.1,1.26c0.24,0.1,0.5,0.16,0.76,0.16
			c0.31,0,0.63-0.08,0.91-0.23l3.2-1.73c0.25-0.13,0.54-0.19,0.83-0.14l4.25,0.66c0.79,0.12,1.59-0.27,1.98-0.98l0.52-0.96
			c0.19-0.36,0.27-0.76,0.22-1.16l-3.22-26.56C411.47,425.95,411.09,425.4,410.54,425.11z M414.02,454.01l-0.52,0.96
			c-0.27,0.49-0.82,0.76-1.36,0.67l-4.25-0.66c-0.41-0.07-0.84,0.01-1.21,0.21l-3.2,1.73c-0.36,0.19-0.77,0.21-1.14,0.05
			c-0.37-0.16-0.65-0.47-0.75-0.86l-7.28-26.34c-0.08-0.29-0.06-0.61,0.06-0.88l0.52-1.19c0.17-0.38,0.52-0.67,0.93-0.75
			c9.13-1.98,11.69-2.47,12.15-2.52c0.18,0.1,0.7,0.38,2.3,1.24c0.38,0.2,0.64,0.58,0.69,1l3.22,26.56
			C414.2,453.49,414.15,453.76,414.02,454.01z"/>
		<path class="st2" d="M374.54,411.16c-1.15,0-2.09,0.94-2.09,2.09c0,1.15,0.94,2.09,2.09,2.09s2.09-0.94,2.09-2.09
			C376.63,412.1,375.69,411.16,374.54,411.16z M374.54,414.74c-0.82,0-1.49-0.67-1.49-1.49c0-0.82,0.67-1.49,1.49-1.49
			s1.49,0.67,1.49,1.49C376.02,414.07,375.36,414.74,374.54,414.74z"/>
		<path class="st2" d="M366.79,409.67c-0.09-0.62-0.42-1.19-0.93-1.61c-0.51-0.42-1.12-0.64-1.76-0.62
			c-0.64,0.02-1.21,0.29-1.6,0.76l-19.16,23.07c-0.39,0.47-0.55,1.08-0.45,1.71c0.09,0.62,0.42,1.19,0.93,1.61
			c0.48,0.4,1.07,0.62,1.67,0.62c0.03,0,0.06,0,0.09,0c0.64-0.02,1.21-0.29,1.6-0.76l19.16-23.07
			C366.73,410.91,366.89,410.3,366.79,409.67z M365.87,410.99l-19.16,23.07c-0.28,0.33-0.69,0.53-1.15,0.54
			c-0.47,0.01-0.96-0.15-1.35-0.48c-0.39-0.33-0.65-0.77-0.72-1.24c-0.07-0.46,0.04-0.9,0.32-1.23l19.16-23.07
			c0.28-0.33,0.69-0.53,1.15-0.54c0.02,0,0.04,0,0.07,0c0.46,0,0.91,0.17,1.29,0.48c0.39,0.33,0.65,0.77,0.72,1.24
			C366.27,410.22,366.15,410.66,365.87,410.99z"/>
		<path class="st2" d="M383.79,453.4c-1.29,0-2.34,1.05-2.34,2.34c0,1.29,1.05,2.34,2.34,2.34c1.29,0,2.34-1.05,2.34-2.34
			C386.13,454.45,385.08,453.4,383.79,453.4z M383.79,457.48c-0.96,0-1.74-0.78-1.74-1.74c0-0.96,0.78-1.74,1.74-1.74
			c0.96,0,1.74,0.78,1.74,1.74C385.53,456.7,384.75,457.48,383.79,457.48z"/>
		<path class="st2" d="M388.7,486.66c-1.29,0-2.34,1.05-2.34,2.34c0,1.29,1.05,2.34,2.34,2.34c1.29,0,2.34-1.05,2.34-2.34
			C391.04,487.71,389.99,486.66,388.7,486.66z M388.7,490.73c-0.96,0-1.74-0.78-1.74-1.74c0-0.96,0.78-1.74,1.74-1.74
			c0.96,0,1.74,0.78,1.74,1.74C390.43,489.95,389.65,490.73,388.7,490.73z"/>
		<path class="st2" d="M423.99,492.17c-1.29,0-2.34,1.05-2.34,2.34c0,1.29,1.05,2.34,2.34,2.34c1.29,0,2.34-1.05,2.34-2.34
			C426.33,493.22,425.28,492.17,423.99,492.17z M423.99,496.24c-0.96,0-1.74-0.78-1.74-1.74c0-0.96,0.78-1.74,1.74-1.74
			c0.96,0,1.74,0.78,1.74,1.74C425.73,495.47,424.95,496.24,423.99,496.24z"/>
		<path class="st2" d="M438.86,464.74c0,1.29,1.05,2.34,2.34,2.34c1.29,0,2.34-1.05,2.34-2.34c0-1.29-1.05-2.34-2.34-2.34
			C439.91,462.41,438.86,463.46,438.86,464.74z M441.2,463.01c0.96,0,1.74,0.78,1.74,1.74c0,0.96-0.78,1.74-1.74,1.74
			s-1.74-0.78-1.74-1.74C439.46,463.79,440.24,463.01,441.2,463.01z"/>
		<path class="st2" d="M383.79,454.81c-0.51,0-0.93,0.42-0.93,0.93c0,0.52,0.42,0.93,0.93,0.93c0.51,0,0.93-0.42,0.93-0.93
			C384.73,455.23,384.31,454.81,383.79,454.81z M383.79,456.07c-0.18,0-0.33-0.15-0.33-0.33s0.15-0.33,0.33-0.33
			c0.18,0,0.33,0.15,0.33,0.33S383.98,456.07,383.79,456.07z"/>
		<path class="st2" d="M388.7,488.06c-0.51,0-0.93,0.42-0.93,0.93s0.42,0.93,0.93,0.93c0.51,0,0.93-0.42,0.93-0.93
			S389.21,488.06,388.7,488.06z M388.7,489.33c-0.18,0-0.33-0.15-0.33-0.33c0-0.18,0.15-0.33,0.33-0.33c0.18,0,0.33,0.15,0.33,0.33
			C389.03,489.18,388.88,489.33,388.7,489.33z"/>
		<path class="st2" d="M423.99,493.57c-0.51,0-0.93,0.42-0.93,0.93s0.42,0.93,0.93,0.93c0.52,0,0.93-0.42,0.93-0.93
			S424.51,493.57,423.99,493.57z M423.99,494.84c-0.18,0-0.33-0.15-0.33-0.33s0.15-0.33,0.33-0.33c0.18,0,0.33,0.15,0.33,0.33
			S424.17,494.84,423.99,494.84z"/>
		<path class="st2" d="M441.2,465.68c0.52,0,0.93-0.42,0.93-0.93s-0.42-0.93-0.93-0.93c-0.52,0-0.93,0.42-0.93,0.93
			S440.68,465.68,441.2,465.68z M441.2,464.41c0.18,0,0.33,0.15,0.33,0.33s-0.15,0.33-0.33,0.33c-0.18,0-0.33-0.15-0.33-0.33
			S441.02,464.41,441.2,464.41z"/>
		<path class="st2" d="M381.32,461.2c-0.38,0.22-0.65,0.59-0.74,1.02c-0.72,3.19-1.77,11.72,3.9,21.84c0.26,0.47,0.75,0.77,1.29,0.8
			c0.03,0,0.06,0,0.09,0c0.51,0,0.99-0.24,1.29-0.66l11.49-16.13c0.3-0.42,0.37-0.94,0.21-1.43c-0.17-0.49-0.55-0.85-1.04-1
			l-15.23-4.59C382.16,460.93,381.7,460.98,381.32,461.2z M398.27,466.84c0.1,0.3,0.06,0.62-0.13,0.88l-11.49,16.13
			c-0.2,0.27-0.51,0.43-0.85,0.41c-0.34-0.02-0.63-0.2-0.8-0.49c-5.57-9.94-4.53-18.29-3.83-21.41c0.06-0.27,0.22-0.49,0.46-0.63
			c0.15-0.09,0.32-0.13,0.49-0.13c0.1,0,0.19,0.01,0.29,0.04l15.23,4.59C397.93,466.32,398.17,466.54,398.27,466.84z"/>
		<path class="st2" d="M422.8,463.87c0.14,0,0.28-0.02,0.42-0.06l15.35-4.14c0.42-0.11,0.78-0.4,0.99-0.79
			c0.2-0.39,0.24-0.84,0.09-1.26c-1.08-3.09-4.68-10.88-14.84-16.49c-0.48-0.26-1.04-0.26-1.52,0c-0.48,0.26-0.79,0.74-0.82,1.29
			l-1.24,19.77c-0.03,0.51,0.18,1,0.58,1.32C422.1,463.75,422.44,463.87,422.8,463.87z M423.08,442.46c0.02-0.34,0.21-0.63,0.51-0.8
			c0.29-0.16,0.64-0.16,0.93,0c9.98,5.51,13.51,13.14,14.56,16.16c0.09,0.26,0.07,0.53-0.06,0.77c-0.13,0.24-0.34,0.42-0.61,0.49
			l-15.35,4.14c-0.31,0.08-0.62,0.01-0.87-0.19c-0.25-0.2-0.38-0.5-0.36-0.82L423.08,442.46z"/>
		<path class="st2" d="M394.91,494.05c0.09,0.43,0.36,0.8,0.73,1.03c2.19,1.32,7.41,3.87,15.04,3.87c2.12,0,4.44-0.2,6.92-0.67
			c0.53-0.1,0.97-0.46,1.17-0.97c0.2-0.51,0.13-1.07-0.19-1.51l-11.68-15.99c-0.3-0.41-0.77-0.65-1.28-0.65c0,0-0.01,0-0.01,0
			c-0.52,0-0.98,0.25-1.28,0.67l-9.16,13C394.92,493.18,394.82,493.63,394.91,494.05z M395.66,493.17l9.16-13
			c0.18-0.26,0.47-0.41,0.79-0.41c0,0,0.01,0,0.01,0c0.31,0,0.6,0.15,0.79,0.4l11.68,15.99c0.2,0.27,0.24,0.62,0.12,0.94
			c-0.12,0.31-0.39,0.54-0.72,0.6c-11.2,2.14-18.79-1.46-21.53-3.12c-0.23-0.14-0.4-0.37-0.45-0.63
			C395.45,493.66,395.5,493.39,395.66,493.17z"/>
		<path class="st2" d="M428.48,490.76c0.25,0.36,0.64,0.6,1.07,0.67c0.08,0.01,0.16,0.02,0.23,0.02c0.36,0,0.7-0.12,0.98-0.35
			c2.55-2.05,8.7-8.05,10.59-19.5c0.09-0.53-0.1-1.07-0.51-1.43c-0.41-0.37-0.96-0.49-1.49-0.34l-19.05,5.43
			c-0.5,0.14-0.88,0.5-1.05,0.99c-0.17,0.48-0.11,1.01,0.19,1.43L428.48,490.76z M419.83,476.45c0.11-0.3,0.34-0.52,0.65-0.61
			l19.05-5.43c0.09-0.02,0.18-0.04,0.27-0.04c0.24,0,0.47,0.09,0.65,0.25c0.25,0.22,0.37,0.55,0.31,0.88
			c-1.86,11.24-7.87,17.12-10.37,19.12c-0.21,0.17-0.48,0.25-0.75,0.2c-0.27-0.04-0.51-0.19-0.66-0.41l-9.03-13.09
			C419.77,477.07,419.73,476.75,419.83,476.45z"/>
		<path class="st2" d="M16.14,463.54c0.06,0,0.12,0,0.18-0.01l20.15-2.7c1.71-0.23,3.26-1.08,4.37-2.4c0.41-0.48,0.5-1.14,0.25-1.72
			c-1.01-2.32-3.65-8.06-6.28-11.26c-1.06-1.29-2.8-1.74-4.35-1.12c-1.17,0.47-2.8,1.22-4.57,2.31l0,0c0,0-0.01,0.01-0.01,0.01
			c-4.38,2.7-9.65,7.49-11.01,15.37c-0.07,0.41,0.05,0.82,0.34,1.12C15.46,463.4,15.79,463.54,16.14,463.54z M30.69,444.89
			c0.39-0.16,0.8-0.23,1.2-0.23c0.93,0,1.84,0.41,2.46,1.17c1.28,1.56,2.59,3.79,3.68,5.89c-3.7,1.33-4.52,3.71-4.7,4.52H19.81
			c1.74-4.43,5.96-8.63,6.45-9.1C27.97,446.08,29.56,445.35,30.69,444.89z M23.97,448.69c-1.61,1.85-3.81,4.73-4.88,7.75l-0.14,0.4
			h14.65l0.28,0l0.02-0.27c0.01-0.12,0.32-2.86,4.42-4.31c1.04,2.02,1.86,3.85,2.23,4.7v0c0.16,0.36,0.1,0.78-0.16,1.08
			c-1.02,1.2-2.43,1.98-3.99,2.19l-20.15,2.7c-0.22,0.03-0.44-0.04-0.59-0.21c-0.16-0.16-0.22-0.38-0.19-0.6
			C16.56,455.77,20.29,451.47,23.97,448.69z"/>
		<path class="st2" d="M51.33,458.36c0.66,1.21,1.8,2.13,3.13,2.51c0.25,0.07,0.5,0.11,0.76,0.11c0.6,0,1.2-0.2,1.69-0.58l9.63-7.56
			c0.64-0.5,1-1.25,1-2.06c0-0.67-0.26-1.31-0.72-1.8c-2.03-2.15-9.5-9.13-20.44-8.93c-1.34,0.03-2.67,0.56-3.73,1.5
			c-0.19,0.17-0.24,0.45-0.12,0.68L51.33,458.36z M46.38,440.66c9.07-0.18,15.7,4.73,18.72,7.5l-4.69,3.81l-9.22,0.21l-4.98-11.5
			C46.27,440.67,46.32,440.66,46.38,440.66z M45.58,440.75l5.22,12.05l9.83-0.22l4.92-4c0.33,0.32,0.61,0.6,0.82,0.82
			c0.36,0.38,0.55,0.87,0.55,1.39c0,0.62-0.28,1.2-0.77,1.58l-9.63,7.56c-0.54,0.42-1.25,0.56-1.9,0.37
			c-1.17-0.34-2.18-1.15-2.77-2.22l-8.79-16.09C43.81,441.34,44.68,440.92,45.58,440.75z"/>
		<path class="st2" d="M266.81,459.63c-0.03,0.04-0.04,0.09-0.04,0.14l0,0C266.77,459.72,266.78,459.67,266.81,459.63z"/>
	</g>
</g>
</svg>
