<?xml version="1.0" encoding="utf-8"?>
<!-- Generator: Adobe Illustrator 23.0.0, SVG Export Plug-In . SVG Version: 6.00 Build 0)  -->
<svg version="1.1" id="레이어_1" xmlns="http://www.w3.org/2000/svg" xmlns:xlink="http://www.w3.org/1999/xlink" x="0px"
	 y="0px" viewBox="0 0 284 152.56" style="enable-background:new 0 0 284 152.56;" xml:space="preserve">
<style type="text/css">
	.st0{fill:#FFFFFF;}
	.st1{fill:#F7B236;}
</style>
<g>
	<g>
		<path class="st0" d="M143.48,48.46c-4.56,0.2-8.42,3.7-8.42,8.42c0,13.01,0,26.02,0,39.03c0,1.84,0,3.68,0,5.53
			c0,4.4,3.87,8.62,8.42,8.42c4.56-0.2,8.42-3.7,8.42-8.42c0-13.01,0-26.02,0-39.03c0-1.84,0-3.68,0-5.53
			C151.9,52.48,148.03,48.26,143.48,48.46z"/>
		<path class="st0" d="M181.5,68.6c-0.54,0.26-0.73,0.59,0.46-0.18c-0.05,0.02-0.11,0.04-0.16,0.06
			C181.7,68.52,181.59,68.56,181.5,68.6z"/>
		<path class="st0" d="M199.21,70.65c-0.16-0.09-0.13,0.16,0.42,0.57c-0.02-0.04-0.05-0.08-0.07-0.12
			C199.44,70.95,199.32,70.79,199.21,70.65z"/>
		<path class="st0" d="M218.78,29.81c0,0.03,0,0.05,0,0.08c0,0.04,0,0.09,0,0.13c0.01-0.09,0.01-0.19,0.02-0.27
			C218.79,29.76,218.78,29.79,218.78,29.81z"/>
		<path class="st0" d="M219.32,27.65c-0.01,0.03-0.02,0.05-0.02,0.08c0.07-0.14,0.15-0.3,0.2-0.41
			C219.44,27.43,219.38,27.54,219.32,27.65z"/>
		<path class="st0" d="M220.73,25.22c-0.01,0.02-0.03,0.04-0.04,0.07c-0.07,0.11-0.14,0.22-0.21,0.33c0.1-0.11,0.23-0.32,0.33-0.48
			C220.79,25.16,220.76,25.19,220.73,25.22z"/>
		<path class="st0" d="M227.27,21.79c-0.13,0-0.27,0.01-0.4,0.01c-0.06,0-0.11,0-0.16,0c-0.05,0.01-0.09,0.02-0.14,0.03
			C226.77,21.84,227.09,21.84,227.27,21.79z"/>
		<path class="st0" d="M237.31,29.97c-0.01-0.04-0.02-0.07-0.03-0.11c-0.01-0.02-0.02-0.1-0.05-0.2c0.02,0.12,0.05,0.24,0.08,0.36
			C237.31,30,237.31,29.98,237.31,29.97z"/>
		<path class="st0" d="M233.87,38.29C234.12,38.02,234.11,37.82,233.87,38.29L233.87,38.29z"/>
		<path class="st0" d="M222.3,23.7c-0.03,0.03-0.06,0.05-0.09,0.08c0.11-0.07,0.23-0.15,0.32-0.22
			C222.45,23.6,222.37,23.65,222.3,23.7z"/>
		<path class="st0" d="M252.27,68.97c-0.26,0.48-0.26,0.88-0.2,0.97c0.04-0.35,0.09-0.69,0.19-0.94
			C252.27,68.99,252.27,68.98,252.27,68.97z"/>
		<path class="st0" d="M277.19,113.58c-5.36,0-10.72,0-16.08,0c-0.69-3.68-2.01-7.28-4.02-10.63c-0.58-0.96-1.2-1.88-1.86-2.76
			c9.33-10.89,15.42-24.62,13.76-39.25c-1.23-10.81-5.49-21.01-12.1-29.65c-0.98-1.29-1.97-2.6-3.03-3.85
			c-1.45-9.68-8.05-17.77-17.47-21.14c-9.75-3.49-21.49-0.24-28.11,7.68c-7.11,8.51-8.51,20.75-2.72,30.4
			c5.84,9.74,17.13,14.31,28.14,12.15c5.65-1.11,10.48-4.21,14.03-8.43c0.49,0.92,0.96,1.85,1.4,2.79c0.05,0.1,0.19,0.42,0.32,0.72
			c0.16,0.4,0.38,0.96,0.45,1.15c0.87,2.36,1.57,4.78,2.05,7.25c0.1,0.54,0.14,1.16,0.27,1.71c0.02,0.16,0.03,0.32,0.05,0.47
			c0.12,1.36,0.17,2.74,0.14,4.11c-0.01,0.7-0.04,1.41-0.09,2.11c-0.01,0.19-0.03,0.37-0.05,0.56c0.02-0.04,0.04-0.07,0.06-0.11
			c-0.02,0.04-0.04,0.09-0.06,0.14c-0.02,0.16-0.03,0.32-0.04,0.48c-0.03,0.41-0.11,0.52-0.15,0.46c-0.04,0.4-0.06,0.82-0.12,1.1
			c-0.17,0.84-0.37,1.67-0.59,2.49c-0.23,0.85-0.49,1.69-0.77,2.52c-0.13,0.38-0.27,0.76-0.41,1.13c-0.05,0.13-0.28,0.67-0.39,0.95
			c-0.26,0.54-0.51,1.08-0.79,1.62c-0.45,0.89-0.94,1.75-1.45,2.61c-0.53,0.89-1.09,1.77-1.68,2.63c-0.27,0.39-0.54,0.79-0.82,1.17
			c-0.07,0.1-0.58,0.76-0.78,1.03c-0.17,0.21-0.36,0.44-0.42,0.51c-0.42,0.5-0.84,0.99-1.27,1.48c-0.18,0.2-0.36,0.39-0.54,0.59
			c-6.22-2.72-13.27-3.55-20.25-2.23c-1.23,0.23-2.43,0.55-3.6,0.92c0-3.83,0-7.66-0.02-11.49c-0.05-9.2-4.62-17.75-12.45-22.66
			c-8.18-5.12-19.28-5.41-28.18-2.16c-0.82,0.3-1.64,0.62-2.45,0.97c-1.42-2.76-4.28-4.8-7.48-4.66c-4.56,0.2-8.42,3.7-8.42,8.42
			c0,13.01,0,26.02,0,39.03c0,1.84,0,3.68,0,5.53c0,4.4,3.87,8.62,8.42,8.42c4.56-0.2,8.42-3.7,8.42-8.42c0-9.91,0-19.81,0-29.72
			c1.67-1.11,3.37-2.15,5.21-3.01c0.07-0.04,0.16-0.07,0.25-0.11c0.09-0.04,0.18-0.08,0.28-0.12c0,0,0.01,0,0.01,0
			c0.13-0.05,0.25-0.11,0.35-0.18c-0.07,0.04-0.12,0.08-0.18,0.12c0.69-0.24,1.37-0.49,2.07-0.69c0.79-0.23,1.58-0.43,2.39-0.6
			c0.08-0.02,0.49-0.1,0.84-0.17c0.15-0.01,0.34-0.02,0.58-0.04c0.89-0.06,1.77-0.07,2.66-0.04c0.16,0.01,0.48-0.02,0.8-0.02
			c0.09,0.02,0.2,0.04,0.33,0.07c0.96,0.19,1.9,0.39,2.83,0.67c0.2,0.06,0.51,0.12,0.81,0.2c0.32,0.15,0.63,0.3,0.93,0.46
			c0.47,0.25,1.77,0.74,1.97,1.23c-0.26-0.2-0.53-0.41-0.79-0.61c0.22,0.18,0.44,0.37,0.65,0.57c0.35,0.32,0.69,0.66,1.02,1.01
			c0.04,0.05,0.09,0.11,0.14,0.17c0.07,0.04,0.19,0.16,0.31,0.37c0.01,0.02,0.03,0.05,0.04,0.07c0.09,0.1,0.18,0.2,0.26,0.25
			c-0.07-0.04-0.13-0.09-0.18-0.13c0.21,0.34,0.43,0.68,0.62,1.03c0.17,0.31,0.76,2.04,0.44,0.81c-0.03-0.11-0.05-0.2-0.07-0.27
			c0.08,0.3,0.21,0.81,0.24,0.89c0.11,0.37,0.21,0.74,0.3,1.12c0.02,0.09,0.09,0.57,0.14,0.88c0.01,0.18,0.02,0.34,0.02,0.38
			c0.01,0.41,0.01,0.82,0.01,1.23c0.01,4.13,0,8.26,0,12.39c0,3.92,0,7.83,0,11.75c-3.61,5.41-5.71,11.86-5.78,18.48
			c0,0.19,0.01,0.37,0.02,0.56c0.39,13.87,9.14,25.86,22.15,30.66c12.43,4.59,27.53,0.54,36-9.65c0.51-0.61,0.99-1.24,1.45-1.88
			c3.49,0,6.98,0,10.47,0c4.06,0,4.07-6.32,0-6.32c-2.29,0-4.57,0-6.86,0c1-2.28,1.75-4.65,2.23-7.07c5.4,0,10.8,0,16.19,0
			c3.3,0,6.47-2.9,6.32-6.32C283.36,116.48,280.74,113.58,277.19,113.58z M187.59,66.91c0.13-0.02,0.21-0.03,0.21-0.03
			C187.8,66.89,187.71,66.9,187.59,66.91z M191.51,66.88c0.23,0.01,0.42,0.04,0.51,0.11C192,66.97,191.76,66.92,191.51,66.88z
			 M195.32,67.82c0.31,0.08,0.6,0.18,0.75,0.33C195.82,68.03,195.57,67.92,195.32,67.82z M244.81,122.28
			c0.02-0.16,0.04-0.34,0.07-0.56C244.91,121.74,244.87,121.99,244.81,122.28z M237.38,31.93c-0.02,0.11-0.05,0.25-0.09,0.4
			c0.01-0.25,0.03-0.52,0.06-0.61C237.36,31.79,237.37,31.86,237.38,31.93z M236.74,27.64c-0.06-0.13-0.13-0.29-0.21-0.47
			C236.58,27.16,236.65,27.36,236.74,27.64z M231.91,22.55c0,0.02-0.24-0.09-0.49-0.21C231.72,22.42,231.92,22.5,231.91,22.55z
			 M231.05,22.15C230.87,22.06,230.81,22.02,231.05,22.15L231.05,22.15z M224.41,22.44c-0.15,0.07-0.26,0.12-0.27,0.1
			C224.14,22.54,224.26,22.5,224.41,22.44z M225,22.15C225.25,22.02,225.18,22.06,225,22.15L225,22.15z M219.09,33.95
			c0.04-0.05,0.19,0.4,0.29,0.72C219.19,34.31,219.04,34,219.09,33.95z M220.36,36.41c0.02-0.03,0.2,0.23,0.37,0.48
			C220.49,36.65,220.33,36.45,220.36,36.41z M221.82,38.07c0.01-0.03,0.19,0.11,0.38,0.28C222,38.22,221.81,38.09,221.82,38.07z
			 M227.04,40.36C227.4,40.44,227.62,40.5,227.04,40.36L227.04,40.36z M235.43,36.71c-0.23,0.22-0.42,0.49-0.64,0.71
			c-0.25,0.26-0.52,0.5-0.78,0.76c-0.05,0.05-0.1,0.09-0.15,0.14c0-0.01,0.01-0.02,0.01-0.03c-0.08,0.08-0.18,0.17-0.3,0.25
			c-0.31,0.19-0.61,0.39-0.93,0.58c-0.33,0.19-0.67,0.36-1,0.53c-0.71,0.13-1.42,0.45-2.14,0.6c-0.09,0.02-0.17,0.04-0.24,0.05
			c-0.1,0-0.21,0.01-0.35,0.01c-0.65,0.03-1.75-0.22-2.44-0.1c-0.33-0.08-0.66-0.15-0.99-0.24c-0.31-0.09-0.62-0.22-0.93-0.3
			c-0.6-0.34-1.24-0.61-1.82-0.99c-0.05-0.03-0.22-0.14-0.4-0.26c-0.02-0.02-0.04-0.04-0.07-0.07c-0.11-0.11-0.97-0.89-1.49-1.43
			c-0.02-0.04-0.04-0.07-0.07-0.12c-0.19-0.31-0.4-0.61-0.59-0.92c-0.06-0.09-0.4-0.65-0.67-1.14c-0.02-0.09-0.05-0.2-0.09-0.35
			c-0.09-0.36-0.22-0.71-0.32-1.07c-0.09-0.36-0.16-0.71-0.25-1.07c0-0.02,0-0.04,0-0.06c0-0.74-0.02-1.46,0-2.2
			c-0.02,0.22-0.05,0.42-0.11,0.4c-0.01-0.01,0.05-0.32,0.11-0.61c0.02-0.64,0.03-0.42,0.01-0.07c0.05-0.25,0.1-0.47,0.09-0.43
			c0.03-0.13,0.24-0.99,0.41-1.58c-0.18,0.34-0.34,0.59,0.02-0.07c0,0,0,0,0-0.01c0.09-0.28,0.16-0.49,0.2-0.48
			c0.02,0,0.01,0.06-0.03,0.15c0.19-0.37,0.38-0.75,0.6-1.11c0.12-0.2,0.25-0.39,0.38-0.59c-0.05,0.06-0.1,0.09-0.12,0.07
			c-0.02-0.03,0.14-0.23,0.37-0.47c0.29-0.48,0.23-0.34,0.08-0.08c0.41-0.43,0.97-0.96,1.04-1.03c-0.03,0.03,0.15-0.14,0.36-0.33
			c-0.32,0.2-0.58,0.32,0.06-0.06c0.01-0.01,0.02-0.01,0.03-0.02c0.18-0.17,0.36-0.32,0.37-0.31c0.03,0.02-0.04,0.09-0.14,0.17
			c0.65-0.4,1.31-0.78,1.99-1.15c0.27-0.09,0.61-0.19,0.69-0.21c0.12-0.03,0.79-0.22,1.36-0.36c-0.23-0.01-0.3-0.03,0.14-0.03
			c0.38-0.09,0.68-0.15,0.69-0.11c0.01,0.04-0.04,0.07-0.13,0.1c0.35-0.01,0.7-0.03,1.05-0.02c0.33,0.01,0.67,0.04,1,0.05
			c0.35,0.08,1.42,0.32,2.07,0.51c0.01,0.01,0.02,0.01,0.03,0.02c0.49,0.26,0.97,0.5,1.45,0.78c0.27,0.16,0.53,0.34,0.79,0.51
			c0.51,0.56,1.12,1.1,1.66,1.63c0.2,0.32,0.43,0.62,0.63,0.94c0.19,0.31,0.37,0.63,0.53,0.96c0.1,0.19,0.19,0.39,0.28,0.58
			c0.17,0.6,0.38,1.5,0.47,1.91c-0.04-0.19-0.05-0.35-0.01-0.34c0.05,0.01,0.07,0.31,0.08,0.66c0.02,0.1,0.05,0.18,0.06,0.23
			c0,0.01,0,0.02,0,0.03c-0.02-0.06-0.03-0.13-0.06-0.22c0.01,0.46,0,0.99,0,1.04c-0.01,0.39-0.04,0.78-0.04,1.16
			c0,0.07,0,0.12,0,0.18c-0.17,0.68-0.44,1.62-0.48,1.75c-0.04,0.16-0.07,0.28-0.09,0.38c-0.03,0.05-0.06,0.11-0.09,0.17
			C236.24,35.39,235.83,36.04,235.43,36.71z M226.79,103.67c-0.13,0.01-0.48,0.06-1.06,0.14
			C225.83,103.7,226.34,103.67,226.79,103.67z M213.77,113.18c-0.1,0.24-0.21,0.48-0.31,0.72
			C213.57,113.53,213.69,113.19,213.77,113.18z M212.56,116.99c-0.01,0.1-0.06,0.46-0.14,1.09
			C212.33,118.02,212.42,117.56,212.56,116.99z M238.31,133.05c0.19-0.15,0.38-0.29,0.57-0.44
			C238.62,132.86,238.37,133.08,238.31,133.05z M241.64,129.9c0.1-0.15,0.18-0.3,0.16-0.34
			C241.83,129.62,241.76,129.75,241.64,129.9z M241.64,129.73c-0.2,0.31-0.3,0.48-0.33,0.56c-0.61,0.65-1.58,1.51-1.76,1.68
			c-0.06,0.05-0.33,0.33-0.61,0.59c-0.23,0.17-0.46,0.33-0.69,0.49c-1.07,0.73-2.19,1.31-3.33,1.9c-0.03,0.01-0.05,0.01-0.08,0.02
			c-0.54,0.17-1.06,0.37-1.6,0.52c-0.54,0.16-1.1,0.29-1.65,0.41c-0.19,0.04-0.37,0.08-0.56,0.11c-0.93,0.16-0.75,0.14,0.53-0.04
			c-0.4,0.44-2.92,0.18-3.51,0.16c-0.53-0.01-1.06-0.06-1.58-0.09c-0.26-0.05-0.51-0.09-0.77-0.15c-1.11-0.24-2.17-0.6-3.25-0.93
			c-0.03-0.01-0.05-0.02-0.08-0.02c-0.65-0.34-1.3-0.65-1.93-1.02c-0.48-0.28-0.94-0.57-1.4-0.88c-0.13-0.09-0.26-0.19-0.39-0.28
			c-0.03-0.03-0.06-0.05-0.09-0.08c-0.94-0.89-1.83-1.78-2.72-2.72c-0.02-0.02-0.04-0.04-0.06-0.07c-0.4-0.6-0.81-1.19-1.17-1.81
			c-0.28-0.48-0.54-0.96-0.79-1.46c-0.08-0.15-0.14-0.31-0.22-0.46c-0.01-0.03-0.02-0.05-0.03-0.09c-0.39-1.27-0.73-2.52-1.05-3.81
			c-0.01-0.04-0.02-0.07-0.03-0.1c-0.04-0.76-0.1-1.52-0.11-2.28c0.01-0.59,0.02-1.18,0.06-1.76c0.02-0.19,0.03-0.39,0.05-0.58
			c0.04-0.34,0.06-0.54,0.06-0.58c0.22-0.89,0.59-2.01,0.65-2.21c0.02-0.08,0.12-0.44,0.23-0.8c0.12-0.27,0.25-0.54,0.38-0.81
			c0.57-1.15,1.26-2.21,1.97-3.28c0.02-0.02,0.04-0.04,0.06-0.06c0.38-0.4,0.73-0.82,1.11-1.22c0.38-0.39,0.78-0.77,1.19-1.14
			c0.14-0.12,0.28-0.24,0.41-0.36c0.7-0.57,0.56-0.48-0.42,0.29c0.08-0.51,2.32-1.54,2.78-1.8c0.49-0.27,0.99-0.5,1.48-0.76
			c0,0,0,0,0,0c0.09-0.03,0.19-0.06,0.31-0.1c0.99-0.33,1.97-0.62,2.99-0.84c0.19-0.04,0.37-0.08,0.56-0.11
			c0.35-0.06,0.54-0.09,0.58-0.1c0.28,0,0.53,0,0.63,0c1.16-0.05,2.31,0.01,3.46,0.08c0.03,0.01,0.06,0.02,0.1,0.02
			c0.74,0.18,1.48,0.32,2.21,0.53c0.54,0.16,1.07,0.36,1.6,0.52c0.03,0.01,0.05,0.02,0.08,0.02c0.98,0.51,1.95,1,2.87,1.6
			c0.19,0.13,1.32,0.72,1.36,0.94c-0.28-0.21-0.56-0.43-0.84-0.64c0.28,0.23,0.56,0.47,0.83,0.71c0.32,0.29,2.8,2.4,2.66,2.78
			c0.01-0.01-1.02-1.47-0.31-0.39c0.3,0.46,0.62,0.91,0.91,1.38c0.25,0.4,1.75,2.52,1.55,2.94c-0.14-0.33-0.28-0.65-0.42-0.98
			c0.14,0.35,0.26,0.7,0.38,1.05c0.18,0.53,0.34,1.07,0.49,1.62c0.14,0.55,0.24,1.11,0.38,1.66c0.01,0.05,0.02,0.1,0.02,0.15
			c0.01,0.16,0.03,0.32,0.04,0.47c0.08,1.17,0.08,2.35,0,3.52c-0.02,0.19-0.03,0.39-0.05,0.58c-0.01,0.06-0.01,0.12-0.02,0.17
			c-0.1,0.43-0.22,0.91-0.24,0.98c-0.09,0.39-0.63,3.15-1.01,3.22c0.14-0.33,0.28-0.65,0.42-0.98c-0.15,0.34-0.31,0.67-0.47,1.01
			c-0.33,0.66-0.69,1.31-1.08,1.93C242.16,128.97,241.89,129.34,241.64,129.73z"/>
		<path class="st0" d="M275.41,133.28c-0.37,0-0.74,0-1.11,0c-0.81,0-1.66,0.35-2.23,0.92c-0.31,0.29-0.53,0.62-0.65,1.02
			c-0.2,0.38-0.29,0.78-0.27,1.22c0.04,0.82,0.3,1.66,0.92,2.23c0.62,0.57,1.38,0.92,2.23,0.92c0.37,0,0.74,0,1.11,0
			c0.81,0,1.66-0.35,2.23-0.92c0.31-0.29,0.53-0.62,0.65-1.02c0.2-0.38,0.29-0.78,0.27-1.22c-0.04-0.82-0.3-1.66-0.92-2.23
			C277.03,133.64,276.27,133.28,275.41,133.28z"/>
		<path class="st0" d="M89.88,37.07c-3.97-0.04-7.76,3.51-7.58,7.58c0.19,4.14,3.33,7.54,7.58,7.58c0.89,0.01,1.97-0.07,2.91,0.08
			c0.18,0.06,0.42,0.13,0.59,0.16c0.47,0.09,0.93,0.18,1.4,0.29c1.1,0.26,2.19,0.58,3.25,0.96c0.28,0.1,0.78,0.23,1.05,0.4
			c-1.7-1.09,0.32,0.18,0.72,0.39c0.82,0.42,1.62,0.88,2.4,1.38c0.47,0.3,0.91,0.62,1.37,0.93c0.03,0.02,0.06,0.04,0.08,0.06
			c0.04,0.03,0.07,0.07,0.12,0.11c0.68,0.62,1.37,1.2,2.02,1.86c0.39,0.39,0.76,0.79,1.13,1.2c0.11,0.13,0.89,1.13,0.97,1.2
			c0.1,0.15,0.19,0.27,0.2,0.29c0.31,0.45,0.61,0.92,0.89,1.39c0.47,0.79,0.87,1.62,1.31,2.43c0.04,0.07,0.07,0.13,0.1,0.19
			c0,0.01,0.01,0.02,0.01,0.03c0.19,0.53,0.39,1.04,0.56,1.58c0.35,1.07,0.63,2.16,0.85,3.27c0.02,0.13,0.09,0.37,0.16,0.6
			c0.05,0.35,0.04,0.74,0.06,1.08c0.07,1.07,0.09,2.14,0.05,3.21c-0.02,0.58-0.08,1.16-0.12,1.73c-0.11,1.48,0.08-0.15,0.05-0.31
			c0.16,1.09-0.57,2.82-0.88,3.85c-0.22,0.72-0.44,1.48-0.74,2.19c-0.25,0.46-0.85,1.59-1,1.86c-0.5,0.88-1.07,1.71-1.61,2.55
			c-0.04,0.06-0.07,0.11-0.1,0.15c-0.02,0.02-0.03,0.03-0.05,0.05c-0.36,0.41-0.71,0.84-1.08,1.24c-0.74,0.81-1.53,1.57-2.36,2.29
			c-0.28,0.24-0.56,0.47-0.84,0.71c1.49-1.26,0.09-0.09-0.23,0.13c-0.83,0.58-1.69,1.11-2.58,1.6c-0.41,0.22-0.81,0.44-1.23,0.64
			c-0.24,0.12-0.48,0.23-0.72,0.34c-0.01,0-0.02,0.01-0.03,0.01c-1.76,0.6-4.14,1.75-6.03,1.59c0.19,0.02,1.76-0.16,0.29-0.05
			c-0.59,0.04-1.17,0.1-1.75,0.12c-1.18,0.05-2.36,0.02-3.54-0.07c-0.12-0.01-0.32-0.01-0.51,0c-0.47-0.03-1.04-0.22-1.47-0.31
			c-0.92-0.2-1.84-0.44-2.74-0.73c-0.54-0.17-1.06-0.37-1.59-0.55c-0.04-0.01-0.08-0.03-0.11-0.04c-0.04-0.02-0.08-0.04-0.13-0.07
			c-0.99-0.51-1.98-0.99-2.93-1.58c-0.47-0.29-0.93-0.59-1.39-0.9c-0.33-0.23-1.63-1.39-0.23-0.13c-0.96-0.86-1.93-1.67-2.83-2.6
			c-0.25-0.26-0.5-0.53-0.74-0.81c-0.29-0.32-1.69-2.27-0.54-0.6c-0.63-0.91-1.25-1.8-1.8-2.76c-0.27-0.48-0.54-0.96-0.78-1.46
			c-0.12-0.24-0.23-0.47-0.34-0.71c-0.35-1.07-0.77-2.1-1.05-3.2c-0.14-0.55-0.27-1.1-0.38-1.65c-0.03-0.17-0.12-0.48-0.19-0.74
			c-0.17-1-0.1-2.15-0.1-3.12c0.02-6.57-8.3-10-12.94-5.36c-6.73,6.73-13.47,13.47-20.2,20.2c-4.37-11.99-8.74-23.98-13.1-35.97
			c-0.84-2.3-1.67-4.59-2.51-6.89c-1.35-3.71-5.21-6.62-9.32-5.29C5.94,41.86,2.85,46.01,4.3,50c5.79,15.9,11.59,31.8,17.38,47.7
			c0.84,2.3,1.67,4.59,2.51,6.89c1.91,5.23,8.39,7.63,12.67,3.34c6.29-6.29,12.59-12.59,18.88-18.88
			c2.48,5.53,6.29,10.45,11.17,14.21c9.23,7.13,21.42,9.63,32.73,6.63c11.37-3.02,20.49-11.38,24.95-22.16
			c4.31-10.42,3.27-22.82-2.53-32.47C115.29,44,102.96,37.2,89.88,37.07z"/>
		<circle class="st0" cx="153.65" cy="39.66" r="8.25"/>
	</g>
	<g>
		<path class="st1" d="M139.55,43.54c-4.56,0.2-8.42,3.7-8.42,8.42c0,13.01,0,26.02,0,39.03c0,1.84,0,3.68,0,5.53
			c0,4.4,3.87,8.62,8.42,8.42c4.56-0.2,8.42-3.7,8.42-8.42c0-13.01,0-26.02,0-39.03c0-1.84,0-3.68,0-5.53
			C147.97,47.56,144.1,43.34,139.55,43.54z"/>
		<path class="st1" d="M177.56,63.69c-0.54,0.26-0.73,0.59,0.46-0.18c-0.05,0.02-0.11,0.04-0.16,0.06
			C177.76,63.61,177.66,63.65,177.56,63.69z"/>
		<path class="st1" d="M195.27,65.73c-0.16-0.09-0.13,0.16,0.42,0.57c-0.02-0.04-0.05-0.08-0.07-0.12
			C195.51,66.04,195.39,65.87,195.27,65.73z"/>
		<path class="st1" d="M214.85,24.9c0,0.03,0,0.05,0,0.08c0,0.04,0,0.09,0,0.13c0.01-0.09,0.01-0.19,0.02-0.27
			C214.86,24.85,214.85,24.87,214.85,24.9z"/>
		<path class="st1" d="M215.39,22.73c-0.01,0.03-0.02,0.05-0.02,0.08c0.07-0.14,0.15-0.3,0.2-0.41
			C215.51,22.51,215.45,22.62,215.39,22.73z"/>
		<path class="st1" d="M216.8,20.3c-0.01,0.02-0.03,0.04-0.04,0.07c-0.07,0.11-0.14,0.22-0.21,0.33c0.1-0.11,0.23-0.32,0.33-0.48
			C216.85,20.25,216.83,20.28,216.8,20.3z"/>
		<path class="st1" d="M223.34,16.88c-0.13,0-0.27,0.01-0.4,0.01c-0.06,0-0.11,0-0.16,0c-0.05,0.01-0.09,0.02-0.14,0.03
			C222.83,16.93,223.16,16.92,223.34,16.88z"/>
		<path class="st1" d="M233.38,25.06c-0.01-0.04-0.02-0.07-0.03-0.11c-0.01-0.02-0.02-0.1-0.05-0.2c0.02,0.12,0.05,0.24,0.08,0.36
			C233.38,25.08,233.38,25.07,233.38,25.06z"/>
		<path class="st1" d="M229.93,33.38C230.19,33.1,230.18,32.9,229.93,33.38L229.93,33.38z"/>
		<path class="st1" d="M218.36,18.78c-0.03,0.03-0.06,0.05-0.09,0.08c0.11-0.07,0.23-0.15,0.32-0.22
			C218.52,18.69,218.44,18.73,218.36,18.78z"/>
		<path class="st1" d="M248.33,64.06c-0.26,0.48-0.26,0.88-0.2,0.97c0.04-0.35,0.09-0.69,0.19-0.94
			C248.33,64.07,248.33,64.06,248.33,64.06z"/>
		<path class="st1" d="M273.26,108.67c-5.36,0-10.72,0-16.08,0c-0.69-3.68-2.01-7.28-4.02-10.63c-0.58-0.96-1.2-1.88-1.86-2.76
			c9.33-10.89,15.42-24.62,13.76-39.25c-1.23-10.81-5.49-21.01-12.1-29.65c-0.98-1.29-1.97-2.6-3.03-3.85
			c-1.45-9.68-8.05-17.77-17.47-21.14c-9.75-3.49-21.49-0.24-28.11,7.68c-7.11,8.51-8.51,20.75-2.72,30.4
			c5.84,9.74,17.13,14.31,28.14,12.15c5.65-1.11,10.48-4.21,14.03-8.43c0.49,0.92,0.96,1.85,1.4,2.79c0.05,0.1,0.19,0.42,0.32,0.72
			c0.16,0.4,0.38,0.96,0.45,1.15c0.87,2.36,1.57,4.78,2.05,7.25c0.1,0.54,0.14,1.16,0.27,1.71c0.02,0.16,0.03,0.32,0.05,0.47
			c0.12,1.36,0.17,2.74,0.14,4.11c-0.01,0.7-0.04,1.41-0.09,2.11c-0.01,0.19-0.03,0.37-0.05,0.56c0.02-0.04,0.04-0.07,0.06-0.11
			c-0.02,0.04-0.04,0.09-0.06,0.14c-0.02,0.16-0.03,0.32-0.04,0.48c-0.03,0.41-0.11,0.52-0.15,0.46c-0.04,0.4-0.06,0.82-0.12,1.1
			c-0.17,0.84-0.37,1.67-0.59,2.49c-0.23,0.85-0.49,1.69-0.77,2.52c-0.13,0.38-0.27,0.76-0.41,1.13c-0.05,0.13-0.28,0.67-0.39,0.95
			c-0.26,0.54-0.51,1.08-0.79,1.62c-0.45,0.89-0.94,1.75-1.45,2.61c-0.53,0.89-1.09,1.77-1.68,2.63c-0.27,0.39-0.54,0.79-0.82,1.17
			c-0.07,0.1-0.58,0.76-0.78,1.03c-0.17,0.21-0.36,0.44-0.42,0.51c-0.42,0.5-0.84,0.99-1.27,1.48c-0.18,0.2-0.36,0.39-0.54,0.59
			c-6.22-2.72-13.27-3.55-20.25-2.23c-1.23,0.23-2.43,0.55-3.6,0.92c0-3.83,0-7.66-0.02-11.49c-0.05-9.2-4.62-17.75-12.45-22.66
			c-8.18-5.12-19.28-5.41-28.18-2.16c-0.82,0.3-1.64,0.62-2.45,0.97c-1.42-2.76-4.28-4.8-7.48-4.66c-4.56,0.2-8.42,3.7-8.42,8.42
			c0,13.01,0,26.02,0,39.03c0,1.84,0,3.68,0,5.53c0,4.4,3.87,8.62,8.42,8.42c4.56-0.2,8.42-3.7,8.42-8.42c0-9.91,0-19.81,0-29.72
			c1.67-1.11,3.37-2.15,5.21-3.01c0.07-0.04,0.16-0.07,0.25-0.11c0.09-0.04,0.18-0.08,0.28-0.12c0,0,0.01,0,0.01,0
			c0.13-0.05,0.25-0.11,0.35-0.18c-0.07,0.04-0.12,0.08-0.18,0.12c0.69-0.24,1.37-0.49,2.07-0.69c0.79-0.23,1.58-0.43,2.39-0.6
			c0.08-0.02,0.49-0.1,0.84-0.17c0.15-0.01,0.34-0.02,0.58-0.04c0.89-0.06,1.77-0.07,2.66-0.04c0.16,0.01,0.48-0.02,0.8-0.02
			c0.09,0.02,0.2,0.04,0.33,0.07c0.96,0.19,1.9,0.39,2.83,0.67c0.2,0.06,0.51,0.12,0.81,0.2c0.32,0.15,0.63,0.3,0.93,0.46
			c0.47,0.25,1.77,0.74,1.97,1.23c-0.26-0.2-0.53-0.41-0.79-0.61c0.22,0.18,0.44,0.37,0.65,0.57c0.35,0.32,0.69,0.66,1.02,1.01
			c0.04,0.05,0.09,0.11,0.14,0.17c0.07,0.04,0.19,0.16,0.31,0.37c0.01,0.02,0.03,0.05,0.04,0.07c0.09,0.1,0.18,0.2,0.26,0.25
			c-0.07-0.04-0.13-0.09-0.18-0.13c0.21,0.34,0.43,0.68,0.62,1.03c0.17,0.31,0.76,2.04,0.44,0.81c-0.03-0.11-0.05-0.2-0.07-0.27
			c0.08,0.3,0.21,0.81,0.24,0.89c0.11,0.37,0.21,0.74,0.3,1.12c0.02,0.09,0.09,0.57,0.14,0.88c0.01,0.18,0.02,0.34,0.02,0.38
			c0.01,0.41,0.01,0.82,0.01,1.23c0.01,4.13,0,8.26,0,12.39c0,3.92,0,7.83,0,11.75c-3.61,5.41-5.71,11.86-5.78,18.48
			c0,0.19,0.01,0.37,0.02,0.56c0.39,13.87,9.14,25.86,22.15,30.66c12.43,4.59,27.53,0.54,36-9.65c0.51-0.61,0.99-1.24,1.45-1.88
			c3.49,0,6.98,0,10.47,0c4.06,0,4.07-6.32,0-6.32c-2.29,0-4.57,0-6.86,0c1-2.28,1.75-4.65,2.23-7.07c5.4,0,10.8,0,16.19,0
			c3.3,0,6.47-2.9,6.32-6.32C279.42,111.56,276.8,108.67,273.26,108.67z M183.66,62c0.13-0.02,0.21-0.03,0.21-0.03
			C183.87,61.97,183.78,61.98,183.66,62z M187.58,61.96c0.23,0.01,0.42,0.04,0.51,0.11C188.07,62.06,187.83,62.01,187.58,61.96z
			 M191.39,62.9c0.31,0.08,0.6,0.18,0.75,0.33C191.89,63.12,191.64,63.01,191.39,62.9z M240.87,117.37
			c0.02-0.16,0.04-0.34,0.07-0.56C240.98,116.83,240.94,117.07,240.87,117.37z M233.45,27.01c-0.02,0.11-0.05,0.25-0.09,0.4
			c0.01-0.25,0.03-0.52,0.06-0.61C233.43,26.88,233.44,26.95,233.45,27.01z M232.81,22.72c-0.06-0.13-0.13-0.29-0.21-0.47
			C232.65,22.25,232.72,22.44,232.81,22.72z M227.98,17.63c0,0.02-0.24-0.09-0.49-0.21C227.78,17.51,227.99,17.59,227.98,17.63z
			 M227.12,17.23C226.94,17.14,226.88,17.11,227.12,17.23L227.12,17.23z M220.48,17.53c-0.15,0.07-0.26,0.12-0.27,0.1
			C220.21,17.62,220.33,17.58,220.48,17.53z M221.07,17.23C221.32,17.11,221.25,17.14,221.07,17.23L221.07,17.23z M215.16,29.03
			c0.04-0.05,0.19,0.4,0.29,0.72C215.26,29.4,215.11,29.08,215.16,29.03z M216.43,31.5c0.02-0.03,0.2,0.23,0.37,0.48
			C216.56,31.73,216.4,31.54,216.43,31.5z M217.89,33.16c0.01-0.03,0.19,0.11,0.38,0.28C218.07,33.3,217.88,33.18,217.89,33.16z
			 M223.1,35.44C223.46,35.52,223.69,35.59,223.1,35.44L223.1,35.44z M231.5,31.79c-0.23,0.22-0.42,0.49-0.64,0.71
			c-0.25,0.26-0.52,0.5-0.78,0.76c-0.05,0.05-0.1,0.09-0.15,0.14c0-0.01,0.01-0.02,0.01-0.03c-0.08,0.08-0.18,0.17-0.3,0.25
			c-0.31,0.19-0.61,0.39-0.93,0.58c-0.33,0.19-0.67,0.36-1,0.53c-0.71,0.13-1.42,0.45-2.14,0.6c-0.09,0.02-0.17,0.04-0.24,0.05
			c-0.1,0-0.21,0.01-0.35,0.01c-0.65,0.03-1.75-0.22-2.44-0.1c-0.33-0.08-0.66-0.15-0.99-0.24c-0.31-0.09-0.62-0.22-0.93-0.3
			c-0.6-0.34-1.24-0.61-1.82-0.99c-0.05-0.03-0.22-0.14-0.4-0.26c-0.02-0.02-0.04-0.04-0.07-0.07c-0.11-0.11-0.97-0.89-1.49-1.43
			c-0.02-0.04-0.04-0.07-0.07-0.12c-0.19-0.31-0.4-0.61-0.59-0.92c-0.06-0.09-0.4-0.65-0.67-1.14c-0.02-0.09-0.05-0.2-0.09-0.35
			c-0.09-0.36-0.22-0.71-0.32-1.07c-0.09-0.36-0.16-0.71-0.25-1.07c0-0.02,0-0.04,0-0.06c0-0.74-0.02-1.46,0-2.2
			c-0.02,0.22-0.05,0.42-0.11,0.4c-0.01-0.01,0.05-0.32,0.11-0.61c0.02-0.64,0.03-0.42,0.01-0.07c0.05-0.25,0.1-0.47,0.09-0.43
			c0.03-0.13,0.24-0.99,0.41-1.58c-0.18,0.34-0.34,0.59,0.02-0.07c0,0,0,0,0-0.01c0.09-0.28,0.16-0.49,0.2-0.48
			c0.02,0,0.01,0.06-0.03,0.15c0.19-0.37,0.38-0.75,0.6-1.11c0.12-0.2,0.25-0.39,0.38-0.59c-0.05,0.06-0.1,0.09-0.12,0.07
			c-0.02-0.03,0.14-0.23,0.37-0.47c0.29-0.48,0.23-0.34,0.08-0.08c0.41-0.43,0.97-0.96,1.04-1.03c-0.03,0.03,0.15-0.14,0.36-0.33
			c-0.32,0.2-0.58,0.32,0.06-0.06c0.01-0.01,0.02-0.01,0.03-0.02c0.18-0.17,0.36-0.32,0.37-0.31c0.03,0.02-0.04,0.09-0.14,0.17
			c0.65-0.4,1.31-0.78,1.99-1.15c0.27-0.09,0.61-0.19,0.69-0.21c0.12-0.03,0.79-0.22,1.36-0.36c-0.23-0.01-0.3-0.03,0.14-0.03
			c0.38-0.09,0.68-0.15,0.69-0.11c0.01,0.04-0.04,0.07-0.13,0.1c0.35-0.01,0.7-0.03,1.05-0.02c0.33,0.01,0.67,0.04,1,0.05
			c0.35,0.08,1.42,0.32,2.07,0.51c0.01,0.01,0.02,0.01,0.03,0.02c0.49,0.26,0.97,0.5,1.45,0.78c0.27,0.16,0.53,0.34,0.79,0.51
			c0.51,0.56,1.12,1.1,1.66,1.63c0.2,0.32,0.43,0.62,0.63,0.94c0.19,0.31,0.37,0.63,0.53,0.96c0.1,0.19,0.19,0.39,0.28,0.58
			c0.17,0.6,0.38,1.5,0.47,1.91c-0.04-0.19-0.05-0.35-0.01-0.34c0.05,0.01,0.07,0.31,0.08,0.66c0.02,0.1,0.05,0.18,0.06,0.23
			c0,0.01,0,0.02,0,0.03c-0.02-0.06-0.03-0.13-0.06-0.22c0.01,0.46,0,0.99,0,1.04c-0.01,0.39-0.04,0.78-0.04,1.16
			c0,0.07,0,0.12,0,0.18c-0.17,0.68-0.44,1.62-0.48,1.75c-0.04,0.16-0.07,0.28-0.09,0.38c-0.03,0.05-0.06,0.11-0.09,0.17
			C232.31,30.47,231.9,31.12,231.5,31.79z M222.86,98.76c-0.13,0.01-0.48,0.06-1.06,0.14C221.9,98.78,222.41,98.76,222.86,98.76z
			 M209.84,108.26c-0.1,0.24-0.21,0.48-0.31,0.72C209.64,108.62,209.76,108.28,209.84,108.26z M208.63,112.08
			c-0.01,0.1-0.06,0.46-0.14,1.09C208.4,113.11,208.48,112.64,208.63,112.08z M234.38,128.14c0.19-0.15,0.38-0.29,0.57-0.44
			C234.69,127.95,234.44,128.16,234.38,128.14z M237.71,124.99c0.1-0.15,0.18-0.3,0.16-0.34
			C237.89,124.71,237.83,124.83,237.71,124.99z M237.71,124.81c-0.2,0.31-0.3,0.48-0.33,0.56c-0.61,0.65-1.58,1.51-1.76,1.68
			c-0.06,0.05-0.33,0.33-0.61,0.59c-0.23,0.17-0.46,0.33-0.69,0.49c-1.07,0.73-2.19,1.31-3.33,1.9c-0.03,0.01-0.05,0.01-0.08,0.02
			c-0.54,0.17-1.06,0.37-1.6,0.52c-0.54,0.16-1.1,0.29-1.65,0.41c-0.19,0.04-0.37,0.08-0.56,0.11c-0.93,0.16-0.75,0.14,0.53-0.04
			c-0.4,0.44-2.92,0.18-3.51,0.16c-0.53-0.01-1.06-0.06-1.58-0.09c-0.26-0.05-0.51-0.09-0.77-0.15c-1.11-0.24-2.17-0.6-3.25-0.93
			c-0.03-0.01-0.05-0.02-0.08-0.02c-0.65-0.34-1.3-0.65-1.93-1.02c-0.48-0.28-0.94-0.57-1.4-0.88c-0.13-0.09-0.26-0.19-0.39-0.28
			c-0.03-0.03-0.06-0.05-0.09-0.08c-0.94-0.89-1.83-1.78-2.72-2.72c-0.02-0.02-0.04-0.04-0.06-0.07c-0.4-0.6-0.81-1.19-1.17-1.81
			c-0.28-0.48-0.54-0.96-0.79-1.46c-0.08-0.15-0.14-0.31-0.22-0.46c-0.01-0.03-0.02-0.05-0.03-0.09c-0.39-1.27-0.73-2.52-1.05-3.81
			c-0.01-0.04-0.02-0.07-0.03-0.1c-0.04-0.76-0.1-1.52-0.11-2.28c0.01-0.59,0.02-1.18,0.06-1.76c0.02-0.19,0.03-0.39,0.05-0.58
			c0.04-0.34,0.06-0.54,0.06-0.58c0.22-0.89,0.59-2.01,0.65-2.21c0.02-0.08,0.12-0.44,0.23-0.8c0.12-0.27,0.25-0.54,0.38-0.81
			c0.57-1.15,1.26-2.21,1.97-3.28c0.02-0.02,0.04-0.04,0.06-0.06c0.38-0.4,0.73-0.82,1.11-1.22c0.38-0.39,0.78-0.77,1.19-1.14
			c0.14-0.12,0.28-0.24,0.41-0.36c0.7-0.57,0.56-0.48-0.42,0.29c0.08-0.51,2.32-1.54,2.78-1.8c0.49-0.27,0.99-0.5,1.48-0.76
			c0,0,0,0,0,0c0.09-0.03,0.19-0.06,0.31-0.1c0.99-0.33,1.97-0.62,2.99-0.84c0.19-0.04,0.37-0.08,0.56-0.11
			c0.35-0.06,0.54-0.09,0.58-0.1c0.28,0,0.53,0,0.63,0c1.16-0.05,2.31,0.01,3.46,0.08c0.03,0.01,0.06,0.02,0.1,0.02
			c0.74,0.18,1.48,0.32,2.21,0.53c0.54,0.16,1.07,0.36,1.6,0.52c0.03,0.01,0.05,0.02,0.08,0.02c0.98,0.51,1.95,1,2.87,1.6
			c0.19,0.13,1.32,0.72,1.36,0.94c-0.28-0.21-0.56-0.43-0.84-0.64c0.28,0.23,0.56,0.47,0.83,0.71c0.32,0.29,2.8,2.4,2.66,2.78
			c0.01-0.01-1.02-1.47-0.31-0.39c0.3,0.46,0.62,0.91,0.91,1.38c0.25,0.4,1.75,2.52,1.55,2.94c-0.14-0.33-0.28-0.65-0.42-0.98
			c0.14,0.35,0.26,0.7,0.38,1.05c0.18,0.53,0.34,1.07,0.49,1.62c0.14,0.55,0.24,1.11,0.38,1.66c0.01,0.05,0.02,0.1,0.02,0.15
			c0.01,0.16,0.03,0.32,0.04,0.47c0.08,1.17,0.08,2.35,0,3.52c-0.02,0.19-0.03,0.39-0.05,0.58c-0.01,0.06-0.01,0.12-0.02,0.17
			c-0.1,0.43-0.22,0.91-0.24,0.98c-0.09,0.39-0.63,3.15-1.01,3.22c0.14-0.33,0.28-0.65,0.42-0.98c-0.15,0.34-0.31,0.67-0.47,1.01
			c-0.33,0.66-0.69,1.31-1.08,1.93C238.23,124.05,237.96,124.43,237.71,124.81z"/>
		<path class="st1" d="M271.48,128.36c-0.37,0-0.74,0-1.11,0c-0.81,0-1.66,0.35-2.23,0.92c-0.31,0.29-0.53,0.62-0.65,1.02
			c-0.2,0.38-0.29,0.78-0.27,1.22c0.04,0.82,0.3,1.66,0.92,2.23c0.62,0.57,1.38,0.92,2.23,0.92c0.37,0,0.74,0,1.11,0
			c0.81,0,1.66-0.35,2.23-0.92c0.31-0.29,0.53-0.62,0.65-1.02c0.2-0.38,0.29-0.78,0.27-1.22c-0.04-0.82-0.3-1.66-0.92-2.23
			C273.09,128.72,272.34,128.36,271.48,128.36z"/>
		<path class="st1" d="M85.95,32.16c-3.97-0.04-7.76,3.51-7.58,7.58c0.19,4.14,3.33,7.54,7.58,7.58c0.89,0.01,1.97-0.07,2.91,0.08
			c0.18,0.06,0.42,0.13,0.59,0.16c0.47,0.09,0.93,0.18,1.4,0.29c1.1,0.26,2.19,0.58,3.25,0.96c0.28,0.1,0.78,0.23,1.05,0.4
			c-1.7-1.09,0.32,0.18,0.72,0.39c0.82,0.42,1.62,0.88,2.4,1.38c0.47,0.3,0.91,0.62,1.37,0.93c0.03,0.02,0.06,0.04,0.08,0.06
			c0.04,0.03,0.07,0.07,0.12,0.11c0.68,0.62,1.37,1.2,2.02,1.86c0.39,0.39,0.76,0.79,1.13,1.2c0.11,0.13,0.89,1.13,0.97,1.2
			c0.1,0.15,0.19,0.27,0.2,0.29c0.31,0.45,0.61,0.92,0.89,1.39c0.47,0.79,0.87,1.62,1.31,2.43c0.04,0.07,0.07,0.13,0.1,0.19
			c0,0.01,0.01,0.02,0.01,0.03c0.19,0.53,0.39,1.04,0.56,1.58c0.35,1.07,0.63,2.16,0.85,3.27c0.02,0.13,0.09,0.37,0.16,0.6
			c0.05,0.35,0.04,0.74,0.06,1.08c0.07,1.07,0.09,2.14,0.05,3.21c-0.02,0.58-0.08,1.16-0.12,1.73c-0.11,1.48,0.08-0.15,0.05-0.31
			c0.16,1.09-0.57,2.82-0.88,3.85c-0.22,0.72-0.44,1.48-0.74,2.19c-0.25,0.46-0.85,1.59-1,1.86c-0.5,0.88-1.07,1.71-1.61,2.55
			c-0.04,0.06-0.07,0.11-0.1,0.15c-0.02,0.02-0.03,0.03-0.05,0.05c-0.36,0.41-0.71,0.84-1.08,1.24c-0.74,0.81-1.53,1.57-2.36,2.29
			c-0.28,0.24-0.56,0.47-0.84,0.71c1.49-1.26,0.09-0.09-0.23,0.13c-0.83,0.58-1.69,1.11-2.58,1.6c-0.41,0.22-0.81,0.44-1.23,0.64
			c-0.24,0.12-0.48,0.23-0.72,0.34c-0.01,0-0.02,0.01-0.03,0.01c-1.76,0.6-4.14,1.75-6.03,1.59c0.19,0.02,1.76-0.16,0.29-0.05
			c-0.59,0.04-1.17,0.1-1.75,0.12c-1.18,0.05-2.36,0.02-3.54-0.07c-0.12-0.01-0.32-0.01-0.51,0c-0.47-0.03-1.04-0.22-1.47-0.31
			c-0.92-0.2-1.84-0.44-2.74-0.73c-0.54-0.17-1.06-0.37-1.59-0.55c-0.04-0.01-0.08-0.03-0.11-0.04c-0.04-0.02-0.08-0.04-0.13-0.07
			c-0.99-0.51-1.98-0.99-2.93-1.58c-0.47-0.29-0.93-0.59-1.39-0.9c-0.33-0.23-1.63-1.39-0.23-0.13c-0.96-0.86-1.93-1.67-2.83-2.6
			c-0.25-0.26-0.5-0.53-0.74-0.81c-0.29-0.32-1.69-2.27-0.54-0.6c-0.63-0.91-1.25-1.8-1.8-2.76c-0.27-0.48-0.54-0.96-0.78-1.46
			c-0.12-0.24-0.23-0.47-0.34-0.71c-0.35-1.07-0.77-2.1-1.05-3.2c-0.14-0.55-0.27-1.1-0.38-1.65c-0.03-0.17-0.12-0.48-0.19-0.74
			c-0.17-1-0.1-2.15-0.1-3.12c0.02-6.57-8.3-10-12.94-5.36c-6.73,6.73-13.47,13.47-20.2,20.2c-4.37-11.99-8.74-23.98-13.1-35.97
			c-0.84-2.3-1.67-4.59-2.51-6.89c-1.35-3.71-5.21-6.62-9.32-5.29c-3.65,1.18-6.75,5.33-5.29,9.32c5.79,15.9,11.59,31.8,17.38,47.7
			c0.84,2.3,1.67,4.59,2.51,6.89c1.91,5.23,8.39,7.63,12.67,3.34c6.29-6.29,12.59-12.59,18.88-18.88
			c2.48,5.53,6.29,10.45,11.17,14.21c9.23,7.13,21.42,9.63,32.73,6.63c11.37-3.02,20.49-11.38,24.95-22.16
			c4.31-10.42,3.27-22.82-2.53-32.47C111.36,39.09,99.03,32.28,85.95,32.16z"/>
		<circle class="st1" cx="149.72" cy="34.75" r="8.25"/>
	</g>
</g>
</svg>
