<?xml version="1.0" encoding="utf-8"?>
<!-- Generator: Adobe Illustrator 23.0.0, SVG Export Plug-In . SVG Version: 6.00 Build 0)  -->
<svg version="1.1" id="레이어_1" xmlns="http://www.w3.org/2000/svg" xmlns:xlink="http://www.w3.org/1999/xlink" x="0px"
	 y="0px" viewBox="0 0 43.27 44.24" style="enable-background:new 0 0 43.27 44.24;" xml:space="preserve">
<style type="text/css">
	.st0{fill:#FFFFFF;}
</style>
<g>
	<path class="st0" d="M20.8,2c1.43,0,2.81,0.18,4.15,0.51c1.08,0.1,2.17,0.35,3.26,0.76c6.6,1.97,11.95,7.1,12.86,14.34
		c0.15,1.21,0.19,2.45,0.14,3.71c0.14,1.92,0.04,3.89-0.33,5.84C39.23,36,31.9,42,22.96,42.24c-0.17,0-0.34,0.01-0.52,0.01
		c-7.55,0-15.06-4.27-18.31-11.16c-0.12-0.26-0.21-0.52-0.32-0.78c-4.17-8.77-0.8-20.49,7.66-25.68c1.22-0.86,2.58-1.54,4.09-1.96
		c1.14-0.32,2.31-0.5,3.49-0.58C19.64,2.03,20.23,2,20.8,2 M20.8,0c-0.63,0-1.28,0.03-1.91,0.09c-1.36,0.09-2.66,0.31-3.86,0.64
		c-1.65,0.46-3.21,1.21-4.65,2.22C1.11,8.67-2.65,21.28,1.99,31.11l0.08,0.19c0.08,0.21,0.17,0.43,0.27,0.63
		C5.8,39.3,13.89,44.24,22.45,44.24c0.19,0,0.38,0,0.57-0.01c10.04-0.26,18.01-6.97,19.84-16.71c0.38-2.05,0.51-4.15,0.37-6.24
		c0.05-1.38,0-2.7-0.16-3.93C42.12,9.85,36.67,3.73,28.85,1.38c-1.18-0.44-2.38-0.72-3.57-0.84C23.82,0.18,22.32,0,20.8,0L20.8,0z"
		/>
	<g>
		<path class="st0" d="M33.64,12.85c-0.05-0.13-0.11-0.24-0.18-0.33c-0.08-0.45-0.4-0.84-0.98-0.84h-0.12
			c-0.03,0-0.06,0.02-0.09,0.02c-0.1-0.1-0.23-0.18-0.4-0.22c-6.22-1.82-13.8-0.8-20.14-0.21c-0.33,0.03-0.57,0.18-0.74,0.39
			c-0.4,0.12-0.74,0.43-0.77,0.96C9.9,18.5,9.86,24.37,10.09,30.26c0.01,0.13,0.04,0.25,0.08,0.35c0.03,0.4,0.3,0.76,0.66,0.93
			c0.16,0.25,0.42,0.43,0.79,0.45c7.29,0.41,14.54,0.21,21.8-0.59c0.6,0.11,1.33-0.34,1.33-1.03C34.77,24.7,35.56,18.3,33.64,12.85z
			 M32.66,28.94c-0.12,0.12-0.21,0.28-0.26,0.45c-6.73,0.69-13.45,0.87-20.21,0.52c-0.21-5.53-0.17-11.06,0.11-16.59
			c6.01-0.58,13.23-1.51,19.01,0.19c0.12,0.04,0.23,0.03,0.34,0.03C33.28,18.3,32.78,23.87,32.66,28.94z"/>
		<path class="st0" d="M28.99,19.84c-0.86-2.53-2.93-3.84-5.27-4.24c-0.08-0.05-0.14-0.11-0.24-0.14c-1.11-0.38-2.16-0.27-3.1,0.14
			c-0.25,0.04-0.5,0.09-0.74,0.14c-0.49,0.11-0.72,0.47-0.75,0.85c-1.36,1.25-2.3,3.14-2.54,4.86c-0.59,4.28,3.23,6.74,7.13,6.01
			C27.08,26.77,30.31,23.73,28.99,19.84z M24.33,25.01c-2.58,1.01-6.19,0.31-5.89-3.14c0.13-1.49,1.15-3.55,2.63-4.26
			c1.85-0.26,3.84,0.02,5.14,1.49C28.2,21.36,26.84,24.03,24.33,25.01z"/>
		<path class="st0" d="M28.35,16.17v0.14c0,1.36,2.11,1.36,2.11,0v-0.14C30.46,14.82,28.35,14.81,28.35,16.17z"/>
	</g>
</g>
</svg>
