<?xml version="1.0" encoding="utf-8"?>
<!-- Generator: Adobe Illustrator 23.0.0, SVG Export Plug-In . SVG Version: 6.00 Build 0)  -->
<svg version="1.1" id="레이어_1" xmlns="http://www.w3.org/2000/svg" xmlns:xlink="http://www.w3.org/1999/xlink" x="0px"
	 y="0px" viewBox="0 0 46.06 44.67" style="enable-background:new 0 0 46.06 44.67;" xml:space="preserve">
<style type="text/css">
	.st0{fill:#FFFFFF;}
	.st1{fill:none;stroke:#FFFFFF;stroke-miterlimit:10;}
</style>
<g>
	<path class="st0" d="M23.23,2c4.78,0,9.71,1.24,13.2,3.82c3.14,2.32,5,5.35,5.84,8.66c5.83,11.89-3.35,28.01-17.88,28.18
		c-0.08,0-0.15,0-0.23,0c-3.15,0-6.07-0.74-8.65-2.02c-0.33-0.09-0.67-0.17-0.99-0.27C5.13,37.38,0.59,28.51,2.38,19.1
		C3.7,12.15,8.44,5.71,15.21,3.29C17.61,2.44,20.39,2,23.23,2 M23.23,0c-3.1,0-6.11,0.49-8.69,1.41C7.48,3.93,1.93,10.73,0.42,18.73
		C-1.61,29.42,3.93,39.1,13.91,42.27c0.3,0.09,0.6,0.17,0.9,0.25c2.94,1.42,6.08,2.14,9.35,2.14l0.25,0
		c7.38-0.09,14.19-4.04,18.22-10.59c3.96-6.44,4.53-14,1.53-20.29c-1.03-3.86-3.28-7.17-6.53-9.57C34,1.54,28.76,0,23.23,0L23.23,0z
		"/>
	<g>
		<path class="st0" d="M34.1,14.48c-2.3-4.82-9.52-5.69-13.89-3.59c-0.91,0.44-1.05,1.29-0.75,2.01c-0.01,0.17-0.02,0.34-0.03,0.51
			c-0.88,2.93-0.88,6.14-1.03,9.16c-0.17,3.32-0.61,6.91,0.25,10.16c0.19,0.73,0.7,1.1,1.27,1.21c1.01,0.66,2.7,0.21,2.75-1.39
			l0.57-19.05c2.38-0.55,5.59-0.05,7.13,1.64c0.96,1.05,1.25,2.44,0.25,3.53c-1.05,1.14-2.88,1.14-4.31,1.22
			c-2.24,0.11-2.26,3.62,0,3.5c2.55-0.13,5.26-0.45,7.08-2.45C35.01,19.17,35.11,16.59,34.1,14.48z"/>
		<path class="st0" d="M15.33,20.23c-1-0.07-2.01-0.01-3,0.16c-0.31,0.02-0.63,0.03-0.94,0.05c-0.94,0.05-1.75,0.77-1.75,1.75
			c0,0.5,0.25,0.99,0.63,1.33c0.38,0.45,0.97,0.71,1.71,0.52c0.25-0.07,0.5-0.12,0.75-0.16c0.87-0.05,1.73-0.09,2.6-0.14
			C17.59,23.61,17.57,20.38,15.33,20.23z"/>
	</g>
	<g>
		<path class="st1" d="M17.43,25.05"/>
	</g>
</g>
</svg>
