<?xml version="1.0" encoding="utf-8"?>
<!-- Generator: Adobe Illustrator 23.0.0, SVG Export Plug-In . SVG Version: 6.00 Build 0)  -->
<svg version="1.1" id="레이어_1" xmlns="http://www.w3.org/2000/svg" xmlns:xlink="http://www.w3.org/1999/xlink" x="0px"
	 y="0px" viewBox="0 0 44.28 46.44" style="enable-background:new 0 0 44.28 46.44;" xml:space="preserve">
<style type="text/css">
	.st0{fill:#FFFFFF;}
</style>
<g>
	<path class="st0" d="M22.49,2c9.11,0,18.07,6.42,19.59,16.75c0.54,3.66-0.07,7.39-1.47,10.82c-0.18,0.81-0.38,1.61-0.62,2.38
		c-2.55,8.23-9.67,12.5-17.66,12.5c-1.22,0-2.47-0.1-3.72-0.3c-7.93-1.28-14.54-6.26-16.18-14.39c-1.51-7.49,0.9-15.59,5.9-21.29
		C12.26,4.01,17.4,2,22.49,2 M22.49,0C16.45,0,10.89,2.54,6.84,7.15c-5.52,6.29-7.96,15.1-6.36,23c1.71,8.47,8.37,14.44,17.82,15.96
		c1.35,0.22,2.71,0.33,4.04,0.33c9.42,0,16.92-5.33,19.57-13.9c0.22-0.7,0.42-1.47,0.62-2.37c1.56-3.88,2.09-7.93,1.53-11.71
		C42.28,6.34,31.86,0,22.49,0L22.49,0z"/>
	<path class="st0" d="M27.47,20.09c-2.01,0-4,0.12-5.98,0.34c0.25-3.34,1.33-5.64,5.99-5.53c0.54,0.01,0.97-0.15,1.3-0.41
		c1.38-0.72,1.98-2.8,0.21-3.59c-4.76-2.15-9.48-1.63-11.58,3.65c-0.83,2.09-1.15,4.36-1.14,6.69c-1.96,0.36-4.04,0.87-5.47,2.04
		c-0.26,0.21-0.42,0.47-0.51,0.74c-1.53,1.41-0.43,4.53,1.81,3.63c1.51-0.61,3.04-1.09,4.59-1.5c0.45,2.86,1.19,5.69,1.91,8.33
		c0.23,0.91,0.47,1.81,0.74,2.69c0.78,2.59,4.78,1.51,4.07-1.12c-0.26-0.95-0.87-3.27-1.43-6.05c-0.27-1.61-0.45-3.23-0.52-4.87
		c1.99-0.34,4-0.6,6.02-0.83C30.09,24,30.26,20.09,27.47,20.09z"/>
</g>
</svg>
